<?xml version="1.0" encoding="UTF-8"?>
<svg version="1.1" xmlns="http://www.w3.org/2000/svg" width="191" height="224">
<path d="M0 0 C63.03 0 126.06 0 191 0 C191 73.92 191 147.84 191 224 C127.97 224 64.94 224 0 224 C0 150.08 0 76.16 0 0 Z " fill="#D6C7C1" transform="translate(0,0)"/>
<path d="M0 0 C63.03 0 126.06 0 191 0 C191 73.92 191 147.84 191 224 C127.97 224 64.94 224 0 224 C0 150.08 0 76.16 0 0 Z M49 8 C45.41105309 8.42754923 41.88896202 8.50124324 38.27734375 8.59375 C34.68768691 9.03871342 33.37318872 9.2962987 31 12 C30.00804464 14.61287926 29.30812227 16.98109244 28.6875 19.6875 C28.48439209 20.54287354 28.28128418 21.39824707 28.07202148 22.27954102 C21.35995222 51.7852496 17.46215372 81.88637723 13.65673828 111.87402344 C13.06445676 116.52612952 12.44240555 121.17370759 11.80859375 125.8203125 C9.63305933 141.84404105 7.79521594 157.84288101 7 174 C6.94263672 175.14452637 6.88527344 176.28905273 6.82617188 177.46826172 C6.67535454 180.9165378 6.57733933 184.36185994 6.5 187.8125 C6.45713867 188.8629248 6.41427734 189.91334961 6.37011719 190.99560547 C6.30981022 197.02614475 6.30981022 197.02614475 9.53125 201.9921875 C13.10670432 204.32288138 16.97876393 205.92139948 21 207.3125 C22.10516968 207.70356934 22.10516968 207.70356934 23.23266602 208.10253906 C29.44486743 210.14055247 34.79815774 210.46625779 41.33984375 210.015625 C42.21769531 210.01046875 43.09554687 210.0053125 44 210 C44.99 210.99 44.99 210.99 46 212 C48.6861155 212.47713894 51.29264021 212.84457939 54 213.125 C54.76803955 213.2070166 55.5360791 213.2890332 56.32739258 213.37353516 C66.60017069 215.01206993 66.60017069 215.01206993 75.9375 211.9375 C79.41003566 209.74058969 80.06235524 209.8644336 83.95874023 210.3684082 C89.90031134 211.02732247 95.74857829 211.16137843 101.72265625 211.16796875 C102.78995468 211.17129715 103.85725311 211.17462555 104.95689392 211.17805481 C107.18960137 211.18307778 109.4223162 211.18546458 111.6550293 211.18530273 C115.08459439 211.18751425 118.51384996 211.20578606 121.94335938 211.22460938 C124.11979057 211.22753922 126.29622329 211.22952675 128.47265625 211.23046875 C130.01313377 211.24124702 130.01313377 211.24124702 131.58473206 211.25224304 C133.00277382 211.2476281 133.00277382 211.2476281 134.44946289 211.24291992 C135.69875328 211.24505745 135.69875328 211.24505745 136.97328186 211.24723816 C139.22731393 211.18353849 139.22731393 211.18353849 141 209 C143.58203125 208.78881836 143.58203125 208.78881836 146.8125 208.83984375 C147.97007812 208.85080078 149.12765625 208.86175781 150.3203125 208.87304688 C151.53460938 208.89431641 152.74890625 208.91558594 154 208.9375 C156.39577449 208.97183435 158.79161357 209.00199751 161.1875 209.02734375 C162.25355469 209.04531006 163.31960937 209.06327637 164.41796875 209.08178711 C166.98739164 209.18075093 166.98739164 209.18075093 169 208 C170.4780676 207.89903144 171.95755117 207.81804362 173.4375 207.75 C177.24955229 207.40480138 177.24955229 207.40480138 180 204.75 C181.81584393 199.75642919 182.37407598 195.3305827 182 190 C181.505 189.113125 181.01 188.22625 180.5 187.3125 C178.51785522 182.93526361 178.81711267 179.25624656 178.9921875 174.51171875 C178.99476563 173.68285156 178.99734375 172.85398438 179 172 C178.67 171.67 178.34 171.34 178 171 C176.51636621 165.34703037 175.62732915 159.83851002 176 154 C176.33 153.67 176.66 153.34 177 153 C177.02070191 151.12499854 176.99098649 149.24935275 176.9375 147.375 C176.90655526 140.84565951 177.18418154 136.12583625 181.5625 131 C184.38238041 127.52937796 184.8301595 125.41585296 185 121 C184.67 120.34 184.34 119.68 184 119 C184.09051028 117.01753286 184.24724235 115.03789112 184.4375 113.0625 C184.62675541 110.7084738 184.81427133 108.35430708 185 106 C185.12181641 104.53820312 185.12181641 104.53820312 185.24609375 103.046875 C185.48396099 98.00120636 185.13336285 94.80357096 182.484375 90.453125 C179.3200192 84.40804842 179.52788515 79.12551523 179.875 72.4375 C180.18830972 65.39649913 180.28532364 59.58586551 177.72119141 52.95922852 C176.72133784 50.24297094 176.44997353 47.62654227 176.25 44.75 C176.17265625 43.77546875 176.0953125 42.8009375 176.015625 41.796875 C176.00009403 39.01683142 176.44629249 36.71560962 177 34 C177.14136098 31.52346434 177.22002555 29.04288572 177.25 26.5625 C177.27578125 25.28503906 177.3015625 24.00757812 177.328125 22.69140625 C176.97489618 18.71758199 176.1620308 16.33584798 174 13 C170.74682136 11.7840433 170.74682136 11.7840433 167 11 C165.67159133 10.34376612 164.3590248 9.65467218 163.0625 8.9375 C156.2966845 5.45050278 149.38226923 5.54616142 142 7 C141.67 7.33 141.34 7.66 141 8 C138.68182911 8.32097751 136.36220643 8.51220956 134.03125 8.71875 C132.00819407 8.79065837 132.00819407 8.79065837 131 10 C123.94888174 10.84874572 117.03956966 9.44755288 110.15429688 8.06738281 C105.71400875 7.19952705 101.55029584 6.67947602 97 7 C96.34 7.66 95.68 8.32 95 9 C92.12592854 8.87029831 89.40486199 8.62553916 86.5625 8.25 C85.78583984 8.16234375 85.00917969 8.0746875 84.20898438 7.984375 C80.3436435 7.50495288 78.33383601 7.22255734 75 5 C71.55631436 4.56790694 68.09288882 4.67578416 64.625 4.6875 C63.67882813 4.67138672 62.73265625 4.65527344 61.7578125 4.63867188 C56.44921041 4.63494392 53.49264744 5.01774518 49 8 Z " fill="#707EA6" transform="translate(0,0)"/>
<path d="M0 0 C3.0625 0.1875 3.0625 0.1875 5.0625 2.1875 C6.00636089 5.01833535 6.19084276 7.6232883 6.1953125 10.59375 C6.19660156 11.42003906 6.19789063 12.24632812 6.19921875 13.09765625 C6.19535156 13.95230469 6.19148437 14.80695312 6.1875 15.6875 C6.19136719 16.54214844 6.19523438 17.39679687 6.19921875 18.27734375 C6.19728516 19.51677734 6.19728516 19.51677734 6.1953125 20.78125 C6.19418457 21.53083984 6.19305664 22.28042969 6.19189453 23.05273438 C6.06089823 25.2139262 5.61908219 27.10093704 5.0625 29.1875 C5.01106882 34.38204929 6.22504086 38.88370259 8.125 43.6875 C10.45702558 49.70345006 11.12004583 55.01486251 9.0625 61.1875 C8.94429375 62.80939967 8.8873568 64.43634547 8.875 66.0625 C8.86082031 66.90554687 8.84664062 67.74859375 8.83203125 68.6171875 C8.93060863 71.21293372 8.93060863 71.21293372 10.06187248 73.51634502 C11.13611052 76.38400181 11.3091886 78.44667672 11.30300903 81.49629211 C11.30713303 83.07163475 11.30713303 83.07163475 11.31134033 84.67880249 C11.3005545 86.39107529 11.3005545 86.39107529 11.28955078 88.13793945 C11.28984283 89.34811234 11.29013489 90.55828522 11.29043579 91.80513 C11.28928287 95.11474413 11.27926651 98.42410741 11.26528788 101.73367715 C11.2527681 105.19566878 11.25160903 108.65766391 11.24923706 112.11967468 C11.24302595 118.67149423 11.22662015 125.22324688 11.20653808 131.77503699 C11.18416757 139.23570289 11.17318276 146.69637202 11.16314721 154.15706313 C11.14225358 169.5005808 11.10708481 184.84403177 11.0625 200.1875 C-6.04451652 200.25760974 -23.15148814 200.31049777 -40.25861549 200.34293652 C-48.20191885 200.35839934 -56.14513288 200.37947765 -64.08837891 200.41381836 C-71.01245953 200.44373866 -77.93647547 200.46307925 -84.86061895 200.46976548 C-88.52624672 200.47367331 -92.19168943 200.4828449 -95.85725784 200.50469017 C-99.95130847 200.52889066 -104.04503822 200.52946831 -108.13916016 200.52807617 C-109.35188599 200.538862 -110.56461182 200.54964783 -111.81408691 200.5607605 C-117.69872072 200.53907149 -121.80063871 200.36470523 -126.9375 197.1875 C-130.26139011 196.97438177 -130.26139011 196.97438177 -133.6875 197.25 C-140.45324745 197.39924443 -144.92522449 196.08592598 -150.9375 193.1875 C-152.80748493 192.4250819 -154.68245846 191.67477119 -156.5625 190.9375 C-158.02083333 190.35416667 -159.47916667 189.77083333 -160.9375 189.1875 C-160.9375 188.5275 -160.9375 187.8675 -160.9375 187.1875 C-161.5975 187.1875 -162.2575 187.1875 -162.9375 187.1875 C-163.2675 185.2075 -163.5975 183.2275 -163.9375 181.1875 C-160.41767401 181.62747825 -157.69828269 182.29429344 -154.4375 183.75 C-149.37265365 185.79958763 -144.2889531 185.32208958 -138.9140625 185.09765625 C-135.9375 185.1875 -135.9375 185.1875 -133.9375 187.1875 C-131.2513845 187.66463894 -128.64485979 188.03207939 -125.9375 188.3125 C-125.16946045 188.3945166 -124.4014209 188.4765332 -123.61010742 188.56103516 C-113.33732931 190.19956993 -113.33732931 190.19956993 -104 187.125 C-100.52746434 184.92808969 -99.87514476 185.0519336 -95.97875977 185.5559082 C-90.03718866 186.21482247 -84.18892171 186.34887843 -78.21484375 186.35546875 C-77.14754532 186.35879715 -76.08024689 186.36212555 -74.98060608 186.36555481 C-72.74789863 186.37057778 -70.5151838 186.37296458 -68.2824707 186.37280273 C-64.85290561 186.37501425 -61.42365004 186.39328606 -57.99414062 186.41210938 C-55.81770943 186.41503922 -53.64127671 186.41702675 -51.46484375 186.41796875 C-49.92436623 186.42874702 -49.92436623 186.42874702 -48.35276794 186.43974304 C-46.93472618 186.4351281 -46.93472618 186.4351281 -45.48803711 186.43041992 C-44.23874672 186.43255745 -44.23874672 186.43255745 -42.96421814 186.43473816 C-40.71018607 186.37103849 -40.71018607 186.37103849 -38.9375 184.1875 C-36.35546875 183.97631836 -36.35546875 183.97631836 -33.125 184.02734375 C-31.96742188 184.03830078 -30.80984375 184.04925781 -29.6171875 184.06054688 C-28.40289062 184.08181641 -27.18859375 184.10308594 -25.9375 184.125 C-23.54172551 184.15933435 -21.14588643 184.18949751 -18.75 184.21484375 C-17.68394531 184.23281006 -16.61789063 184.25077637 -15.51953125 184.26928711 C-12.95010836 184.36825093 -12.95010836 184.36825093 -10.9375 183.1875 C-9.40081135 182.96282169 -7.85781946 182.77953195 -6.3125 182.625 C-5.49523437 182.54121094 -4.67796875 182.45742187 -3.8359375 182.37109375 C-3.20945313 182.31050781 -2.58296875 182.24992188 -1.9375 182.1875 C0.12572738 176.77152813 1.72826294 172.068406 1.0625 166.1875 C0.5675 165.300625 0.0725 164.41375 -0.4375 163.5 C-2.41964478 159.12276361 -2.12038733 155.44374656 -1.9453125 150.69921875 C-1.94273437 149.87035156 -1.94015625 149.04148438 -1.9375 148.1875 C-2.2675 147.8575 -2.5975 147.5275 -2.9375 147.1875 C-4.42113379 141.53453037 -5.31017085 136.02601002 -4.9375 130.1875 C-4.6075 129.8575 -4.2775 129.5275 -3.9375 129.1875 C-3.91679809 127.31249854 -3.94651351 125.43685275 -4 123.5625 C-4.03094474 117.03315951 -3.75331846 112.31333625 0.625 107.1875 C3.44488041 103.71687796 3.8926595 101.60335296 4.0625 97.1875 C3.7325 96.5275 3.4025 95.8675 3.0625 95.1875 C3.15301028 93.20503286 3.30974235 91.22539112 3.5 89.25 C3.68925541 86.8959738 3.87677133 84.54180708 4.0625 82.1875 C4.18431641 80.72570312 4.18431641 80.72570312 4.30859375 79.234375 C4.54646099 74.18870636 4.19586285 70.99107096 1.546875 66.640625 C-1.6174808 60.59554842 -1.40961485 55.31301523 -1.0625 48.625 C-0.74919028 41.58399913 -0.65217636 35.77336551 -3.21630859 29.14672852 C-4.21616216 26.43047094 -4.48752647 23.81404227 -4.6875 20.9375 C-4.76484375 19.96296875 -4.8421875 18.9884375 -4.921875 17.984375 C-4.937341 15.21596013 -4.5083467 12.88604802 -3.9375 10.1875 C-3.89665338 8.60469363 -3.89500972 7.0202631 -3.9375 5.4375 C-3.97501443 4.02133013 -3.98430639 2.60339322 -3.9375 1.1875 C-2.9375 0.1875 -2.9375 0.1875 0 0 Z " fill="#576280" transform="translate(179.9375,23.8125)"/>
<path d="M0 0 C1.21042969 -0.00128906 2.42085937 -0.00257812 3.66796875 -0.00390625 C4.94285156 -0.00003906 6.21773437 0.00382812 7.53125 0.0078125 C8.80613281 0.00394531 10.08101562 0.00007813 11.39453125 -0.00390625 C12.60496094 -0.00261719 13.81539062 -0.00132813 15.0625 0 C16.18205078 0.00112793 17.30160156 0.00225586 18.45507812 0.00341797 C21.03125 0.1328125 21.03125 0.1328125 22.03125 1.1328125 C22.10351502 2.98568752 22.1150622 4.84115128 22.09375 6.6953125 C22.08472656 7.70722656 22.07570312 8.71914063 22.06640625 9.76171875 C22.05480469 10.54417969 22.04320312 11.32664062 22.03125 12.1328125 C21.37125 12.1328125 20.71125 12.1328125 20.03125 12.1328125 C22.96230679 27.63912142 25.98979583 43.12706798 29.05764771 58.60684204 C29.4544434 60.61266806 29.84954402 62.61883021 30.2428894 64.62533569 C30.80559651 67.49337762 31.37473325 70.36007764 31.9453125 73.2265625 C32.11085129 74.07688553 32.27639008 74.92720856 32.44694519 75.80329895 C33.31400514 80.12374164 34.30339662 84.39839452 35.46240234 88.65039062 C35.68503754 89.47027466 35.90767273 90.29015869 36.13705444 91.1348877 C36.94983015 93.51139418 36.94983015 93.51139418 40.21875 94.7578125 C41.146875 94.8815625 42.075 95.0053125 43.03125 95.1328125 C43.03125 98.4328125 43.03125 101.7328125 43.03125 105.1328125 C30.82125 105.1328125 18.61125 105.1328125 6.03125 105.1328125 C6.03125 101.8328125 6.03125 98.5328125 6.03125 95.1328125 C8.67125 94.8028125 11.31125 94.4728125 14.03125 94.1328125 C13.83789062 93.26140625 13.64453125 92.39 13.4453125 91.4921875 C13.18492188 90.30109375 12.92453125 89.11 12.65625 87.8828125 C12.40101562 86.72265625 12.14578125 85.5625 11.8828125 84.3671875 C10.79955801 78.9807294 9.93450793 73.55236011 9.03125 68.1328125 C0.78125 68.1328125 -7.46875 68.1328125 -15.96875 68.1328125 C-16.95875 73.0828125 -16.95875 73.0828125 -17.96875 78.1328125 C-18.79892184 80.87489523 -19.646786 83.56006622 -20.59375 86.2578125 C-20.82320312 86.928125 -21.05265625 87.5984375 -21.2890625 88.2890625 C-21.84330257 89.90559602 -22.40517015 91.5195114 -22.96875 93.1328125 C-21.64875 93.1328125 -20.32875 93.1328125 -18.96875 93.1328125 C-18.96875 97.0928125 -18.96875 101.0528125 -18.96875 105.1328125 C-25.23875 105.1328125 -31.50875 105.1328125 -37.96875 105.1328125 C-38.26171875 97.515625 -38.26171875 97.515625 -37.96875 95.1328125 C-34.96875 93.1328125 -34.96875 93.1328125 -30.96875 93.1328125 C-30.81672119 92.59873779 -30.66469238 92.06466309 -30.50805664 91.5144043 C-28.31114779 83.98690899 -25.75429415 76.59270355 -23.18374634 69.18728638 C-18.74901371 56.39937444 -14.42798405 43.57956583 -10.28125 30.6953125 C-9.96037918 29.7004332 -9.96037918 29.7004332 -9.63302612 28.68545532 C-7.0917704 20.9692705 -7.0917704 20.9692705 -4.96875 13.1328125 C-5.62875 13.1328125 -6.28875 13.1328125 -6.96875 13.1328125 C-6.99561553 11.15371852 -7.01508375 9.17452279 -7.03125 7.1953125 C-7.04285156 6.09316406 -7.05445312 4.99101563 -7.06640625 3.85546875 C-6.88823653 -1.11190318 -4.3835972 0.0044164 0 0 Z " fill="#0A0A0B" transform="translate(97.96875,54.8671875)"/>
<path d="M0 0 C8.25999021 0.85936251 16.42714066 1.78775022 24.5625 3.5 C39.23519572 6.55551909 54.86544485 8.92673837 69.75 6 C80.7773722 3.8851615 93.18450458 3.88445033 104.10546875 6.54296875 C108.38999854 7.57655635 111.17766691 7.39178152 115.1484375 5.5 C119.211245 3.72255475 123.05340609 3.5884037 127.4375 3.6875 C128.6754834 3.70006836 128.6754834 3.70006836 129.93847656 3.71289062 C143.63867709 3.95797471 157.33485992 5.04247248 171 6 C170.67 6.99 170.34 7.98 170 9 C169.37351563 9.06058594 168.74703125 9.12117187 168.1015625 9.18359375 C167.28429687 9.26738281 166.46703125 9.35117188 165.625 9.4375 C164.81289062 9.51871094 164.00078125 9.59992188 163.1640625 9.68359375 C160.95727195 9.89090114 160.95727195 9.89090114 159 11 C157.06344982 11.06134118 155.12474634 11.05999232 153.1875 11.02734375 C152.02992188 11.01509766 150.87234375 11.00285156 149.6796875 10.99023438 C147.22650342 10.95507728 144.77337221 10.91601448 142.3203125 10.87304688 C141.16273438 10.86208984 140.00515625 10.85113281 138.8125 10.83984375 C137.74644531 10.82300537 136.68039063 10.80616699 135.58203125 10.78881836 C132.83547571 10.73311598 132.83547571 10.73311598 131 13 C128.97328186 13.24723816 128.97328186 13.24723816 126.44946289 13.24291992 C125.03142113 13.24753487 125.03142113 13.24753487 123.58473206 13.25224304 C122.04425453 13.24146477 122.04425453 13.24146477 120.47265625 13.23046875 C118.8846244 13.22978142 118.8846244 13.22978142 117.26451111 13.2290802 C115.01576625 13.22605301 112.76702357 13.2181529 110.51831055 13.20581055 C107.10783277 13.18774019 103.69762967 13.18529965 100.28710938 13.18554688 C98.09895603 13.18062413 95.9108045 13.17479255 93.72265625 13.16796875 C92.71388931 13.16685593 91.70512238 13.1657431 90.66578674 13.16459656 C84.80633189 13.12620559 79.10706406 12.77562547 73.29319763 12.02363586 C69.78440714 11.98747095 67.80702833 14.02910777 65 16 C58.8260306 17.05735303 52.18702677 15.78569372 46 15.125 C45.24549561 15.04685059 44.49099121 14.96870117 43.71362305 14.88818359 C38.23816303 14.23816303 38.23816303 14.23816303 36 12 C34.01847488 12.03885343 32.03837685 12.15802655 30.0625 12.3125 C23.36912399 12.43748005 18.06233778 11.03200924 11.8125 8.6875 C10.98693604 8.37917236 10.16137207 8.07084473 9.31079102 7.75317383 C2.56121087 5.08932646 2.56121087 5.08932646 0 2 C0 1.34 0 0.68 0 0 Z " fill="#E5DCD8" transform="translate(8,198)"/>
<path d="M0 0 C0.95390625 -0.00322266 1.9078125 -0.00644531 2.890625 -0.00976562 C9.97390731 0.04510487 9.97390731 0.04510487 13.375 2.3125 C16.17471268 2.73600496 16.17471268 2.73600496 19.25 2.875 C22.3139177 3.0631353 25.14303896 3.25763103 28.1328125 3.96484375 C29.24269531 4.13693359 29.24269531 4.13693359 30.375 4.3125 C31.035 3.6525 31.695 2.9925 32.375 2.3125 C38.64588147 2.20167441 44.92394319 3.15605801 51.0625 4.375 C56.16301502 5.37862557 61.18381981 5.77180195 66.375 5.3125 C66.705 4.9825 67.035 4.6525 67.375 4.3125 C69.69317089 3.99152249 72.01279357 3.80029044 74.34375 3.59375 C76.36680593 3.52184163 76.36680593 3.52184163 77.375 2.3125 C86.16465514 0.8821945 93.5431133 0.7331117 101.375 5.3125 C102.365 6.3025 102.365 6.3025 103.375 7.3125 C104.53 7.580625 105.685 7.84875 106.875 8.125 C110.375 9.3125 110.375 9.3125 111.8125 11.5625 C112.43481677 14.60493753 112.65019976 17.21650275 112.375 20.3125 C111.715 20.9725 111.055 21.6325 110.375 22.3125 C110.10236328 21.48105469 110.10236328 21.48105469 109.82421875 20.6328125 C109.44716797 19.54613281 109.44716797 19.54613281 109.0625 18.4375 C108.81886719 17.71820312 108.57523438 16.99890625 108.32421875 16.2578125 C107.41164453 13.97255095 107.41164453 13.97255095 104.375 12.3125 C101.43183209 11.84658547 101.43183209 11.84658547 97.9921875 11.6796875 C97.33066681 11.63812531 96.66914612 11.59656311 95.98757935 11.55374146 C93.7422407 11.41923222 91.49643808 11.30211419 89.25 11.1875 C88.46367187 11.14447754 87.67734375 11.10145508 86.8671875 11.05712891 C70.70413281 10.19445793 54.55632551 10.2349417 38.375 10.3125 C15.1613139 10.42368517 -7.70441264 10.43208952 -30.625 6.3125 C-30.295 5.6525 -29.965 4.9925 -29.625 4.3125 C-26.12955695 3.95106021 -22.65224462 3.86777676 -19.140625 3.75390625 C-15.66339562 3.58151722 -15.66339562 3.58151722 -13.3359375 1.796875 C-9.06250055 -0.54304725 -4.78627832 -0.08151019 0 0 Z " fill="#E3DCD9" transform="translate(64.625,4.6875)"/>
<path d="M0 0 C0.99 0 1.98 0 3 0 C3.85797485 4.50170578 4.71237714 9.00406935 5.56347656 13.50708008 C5.85351045 15.03884181 6.14451953 16.57041924 6.43652344 18.10180664 C6.85608359 20.30307037 7.27213173 22.5049732 7.6875 24.70703125 C7.81874268 25.39150833 7.94998535 26.07598541 8.08520508 26.78120422 C8.60929491 29.5753614 9 32.14900304 9 35 C2.07 35 -4.86 35 -12 35 C-10.87831207 27.14818449 -10.87831207 27.14818449 -9.6640625 24.18359375 C-9.26622559 23.18175049 -9.26622559 23.18175049 -8.86035156 22.15966797 C-8.57643555 21.44697754 -8.29251953 20.73428711 -8 20 C-7.39843453 18.36779666 -6.80228474 16.73358938 -6.2109375 15.09765625 C-5.90929687 14.27072266 -5.60765625 13.44378906 -5.296875 12.59179688 C-4.67257762 10.87894708 -4.05023933 9.1653822 -3.4296875 7.45117188 C-3.130625 6.63326172 -2.8315625 5.81535156 -2.5234375 4.97265625 C-2.25450684 4.23281494 -1.98557617 3.49297363 -1.70849609 2.73071289 C-1 1 -1 1 0 0 Z " fill="#CEC1BC" transform="translate(98,79)"/>
<path d="M0 0 C0.33 0 0.66 0 1 0 C1 3.63 1 7.26 1 11 C-34.31 11 -69.62 11 -106 11 C-102 7 -102 7 -98.5144043 6.63769531 C-97.11688175 6.6802459 -95.71992686 6.74518705 -94.32421875 6.828125 C-93.56997116 6.85611679 -92.81572357 6.88410858 -92.03862 6.91294861 C-90.4236306 6.97509183 -88.80897607 7.04650438 -87.19476318 7.12631226 C-84.67988468 7.25037568 -82.16515543 7.3502729 -79.64892578 7.44262695 C-76.31336403 7.56522229 -72.97818479 7.694531 -69.64306641 7.82861328 C-63.55427561 8.06367827 -57.46814125 8.1653303 -51.375 8.1875 C-49.98414185 8.20635254 -49.98414185 8.20635254 -48.56518555 8.22558594 C-47.30702026 8.22800293 -47.30702026 8.22800293 -46.0234375 8.23046875 C-44.95488525 8.23663208 -44.95488525 8.23663208 -43.86474609 8.24291992 C-41.66488842 8.09622603 -41.66488842 8.09622603 -39 6 C-36.28857422 5.78881836 -36.28857422 5.78881836 -33.0546875 5.83984375 C-31.89582031 5.85080078 -30.73695313 5.86175781 -29.54296875 5.87304688 C-27.72732422 5.90495117 -27.72732422 5.90495117 -25.875 5.9375 C-23.47662026 5.97176257 -21.07817745 6.00194168 -18.6796875 6.02734375 C-17.61476074 6.04531006 -16.54983398 6.06327637 -15.45263672 6.08178711 C-13.05363535 6.28135117 -13.05363535 6.28135117 -12 5 C-10.31391034 4.92794489 -8.62499341 4.91613932 -6.9375 4.9375 C-6.01839844 4.94652344 -5.09929687 4.95554688 -4.15234375 4.96484375 C-3.44207031 4.97644531 -2.73179687 4.98804688 -2 5 C-1.34 3.35 -0.68 1.7 0 0 Z " fill="#6E7CA4" transform="translate(190,213)"/>
<path d="M0 0 C1.45116211 -0.01836914 1.45116211 -0.01836914 2.93164062 -0.03710938 C4.32479492 -0.04000977 4.32479492 -0.04000977 5.74609375 -0.04296875 C7.02311157 -0.04913208 7.02311157 -0.04913208 8.32592773 -0.05541992 C10.5625 0.1875 10.5625 0.1875 13.5625 2.1875 C16.36221268 2.61100496 16.36221268 2.61100496 19.4375 2.75 C22.5014177 2.9381353 25.33053896 3.13263103 28.3203125 3.83984375 C29.43019531 4.01193359 29.43019531 4.01193359 30.5625 4.1875 C31.2225 3.5275 31.8825 2.8675 32.5625 2.1875 C42.26549237 1.86610751 52.09732354 4.25558337 61.5625 6.1875 C56.79447948 8.90464706 53.08354972 7.77379063 47.875 6.5625 C41.84613076 5.8799865 35.33336082 6.26387973 29.5625 8.1875 C26.63570608 8.28661454 23.73885245 8.32913189 20.8125 8.3125 C19.96647217 8.30911621 19.12044434 8.30573242 18.2487793 8.30224609 C-2.81919267 8.13187979 -2.81919267 8.13187979 -12.4375 5.1875 C-12.4375 3.8675 -12.4375 2.5475 -12.4375 1.1875 C-8.68151541 -0.6904923 -4.13276018 0.00274238 0 0 Z " fill="#F1EDED" transform="translate(64.4375,4.8125)"/>
<path d="M0 0 C0.67289063 0.04382813 1.34578125 0.08765625 2.0390625 0.1328125 C5.226988 0.35436717 8.32970531 0.68161606 11.48046875 1.22265625 C15.61457487 1.69525662 19.22127039 1.29796151 23.3125 0.6875 C30.91451613 -0.375 30.91451613 -0.375 33 -0.375 C32.67 0.615 32.34 1.605 32 2.625 C31.37351562 2.68558594 30.74703125 2.74617187 30.1015625 2.80859375 C28.87566406 2.93427734 28.87566406 2.93427734 27.625 3.0625 C26.40683594 3.18431641 26.40683594 3.18431641 25.1640625 3.30859375 C22.95727195 3.51590114 22.95727195 3.51590114 21 4.625 C19.06344982 4.68634118 17.12474634 4.68499232 15.1875 4.65234375 C14.02992188 4.64009766 12.87234375 4.62785156 11.6796875 4.61523438 C9.22650342 4.58007728 6.77337221 4.54101448 4.3203125 4.49804688 C3.16273438 4.48708984 2.00515625 4.47613281 0.8125 4.46484375 C-0.25355469 4.44800537 -1.31960937 4.43116699 -2.41796875 4.41381836 C-5.16452429 4.35811598 -5.16452429 4.35811598 -7 6.625 C-9.00462341 6.84100342 -9.00462341 6.84100342 -11.49389648 6.79199219 C-12.42503769 6.77827576 -13.35617889 6.76455933 -14.3155365 6.75042725 C-15.32387039 6.724505 -16.33220428 6.69858276 -17.37109375 6.671875 C-18.92099754 6.64145111 -18.92099754 6.64145111 -20.50221252 6.6104126 C-22.69046858 6.56477898 -24.8786223 6.51399479 -27.06665039 6.45849609 C-30.41994735 6.37543478 -33.77316668 6.31351817 -37.12695312 6.25390625 C-39.2500285 6.20700206 -41.3730771 6.15886599 -43.49609375 6.109375 C-44.50240341 6.09154968 -45.50871307 6.07372437 -46.54551697 6.05535889 C-47.94695702 6.01587128 -47.94695702 6.01587128 -49.37670898 5.97558594 C-50.19896469 5.95622986 -51.0212204 5.93687378 -51.86839294 5.91693115 C-54 5.625 -54 5.625 -57 3.625 C-52.23098634 0.67275345 -49.3250925 0.5107272 -43.8125 1.5 C-37.48673709 2.61349822 -31.59671619 2.66555247 -25.1875 2.3125 C-24.29716064 2.26528809 -23.40682129 2.21807617 -22.48950195 2.16943359 C-18.41457117 2.28816642 -18.41457117 2.28816642 -15 0.625 C-9.91656241 -0.34759648 -5.13312717 -0.39334308 0 0 Z " fill="#F4F0EF" transform="translate(146,204.375)"/>
<path d="M0 0 C2.4327011 2.4327011 2.98693343 4.05314001 3.03417969 7.47680664 C2.99711914 8.44481201 2.96005859 9.41281738 2.921875 10.41015625 C2.89609375 11.48330078 2.8703125 12.55644531 2.84375 13.66210938 C2.78198979 15.90220373 2.70425634 18.14192334 2.609375 20.38085938 C2.47855879 27.24462257 3.27950538 31.85007082 6.87841797 37.74853516 C8.98578531 41.97886637 8.38555521 46.40393707 8 51 C7.90847656 52.10214844 7.81695312 53.20429687 7.72265625 54.33984375 C7.53555153 56.5774111 7.34176412 58.81443179 7.140625 61.05078125 C6.88363043 64.18066108 6.88363043 64.18066108 7.6875 67.9375 C8 71 8 71 6.3125 74.25 C4.32102071 76.61824564 2.5870554 78.33689296 0 80 C0.11458693 78.56163249 0.24209116 77.12429034 0.375 75.6875 C0.44460937 74.88699219 0.51421875 74.08648437 0.5859375 73.26171875 C1 71 1 71 3 68 C2.72943734 65.36201407 2.24686446 63.43564317 0.9375 61.125 C-0.82809005 57.12299589 -0.37337548 53.22680515 0.875 49.125 C2 47 2 47 4 46 C3.67722625 40.91631348 3.17624547 36.97115235 0.9375 32.375 C-1.4900078 27.29047458 -1.81244358 23.34174915 0.0625 17.9375 C1.94473462 12.22498374 0.60171111 5.86261775 0 0 Z " fill="#E5E0E1" transform="translate(177,55)"/>
<path d="M0 0 C0.66 0 1.32 0 2 0 C2 18.81 2 37.62 2 57 C-1.88729443 51.81694076 -2.34092438 47.727395 -1.5625 41.5 C-1.376875 40.675 -1.19125 39.85 -1 39 C-1.66 39 -2.32 39 -3 39 C-5.29042872 30.78474327 -4.8407151 23.41659721 -4 15 C-3.93683594 13.94425781 -3.87367188 12.88851562 -3.80859375 11.80078125 C-3.74800781 10.83527344 -3.68742188 9.86976563 -3.625 8.875 C-3.57601562 8.02679688 -3.52703125 7.17859375 -3.4765625 6.3046875 C-2.90349334 3.53328748 -1.92310252 2.05573028 0 0 Z " fill="#6E7DA5" transform="translate(189,143)"/>
<path d="M0 0 C3.91941982 3.30701048 3.91941982 3.30701048 4.3125 6.6875 C4 9 4 9 3 10 C2.56857971 16.75891783 4.10185707 22.99807061 5.57421875 29.55859375 C6 32 6 32 5.875 35.9375 C5.79928179 39.98085263 7.16220982 42.40099422 9 46 C9.29409129 50.19080093 8.98846448 53.92258403 8 58 C2.53105808 49.79658711 0.54973006 40.21395708 1.015625 30.5078125 C0.99425419 27.07779715 -0.30319655 24.9367752 -2 22 C-3.59956186 16.76507028 -4.61887994 11.46677285 -4 6 C-2 2.5625 -2 2.5625 0 0 Z " fill="#E4E1E1" transform="translate(173,144)"/>
<path d="M0 0 C1.95679688 0.25716797 1.95679688 0.25716797 3.953125 0.51953125 C7.40698337 1.12715448 10.44253384 2.05670414 13.75 3.1875 C18.1680782 4.12876832 22.30218193 4.26602567 26.8125 4.1875 C30.99912991 4.1147681 34.66272612 4.33774031 38.75 5.1875 C41.97111592 4.80416338 41.97111592 4.80416338 44.75 4.1875 C44.75 5.5075 44.75 6.8275 44.75 8.1875 C37.8200105 12.11189855 29.36432544 10.1415532 21.75 9.3125 C20.61848511 9.19503418 20.61848511 9.19503418 19.46411133 9.07519531 C13.98912042 8.42662042 13.98912042 8.42662042 11.75 6.1875 C8.26062039 6.08460804 4.81504762 6.25806707 1.328125 6.41015625 C-2.63547325 6.16351313 -4.92718016 5.3314152 -8.25 3.1875 C-8.58 2.1975 -8.91 1.2075 -9.25 0.1875 C-6.1997099 -1.33764505 -3.26776578 -0.46099959 0 0 Z " fill="#EFECEB" transform="translate(32.25,203.8125)"/>
<path d="M0 0 C2.0965197 1.07254386 4.15585116 1.76425804 6.3984375 2.47265625 C10.0234375 4.03515625 10.0234375 4.03515625 11.5234375 6.34765625 C12.08317267 9.35623279 12.29472348 11.98318896 12.0234375 15.03515625 C11.3634375 15.69515625 10.7034375 16.35515625 10.0234375 17.03515625 C9.84167969 16.48085938 9.65992188 15.9265625 9.47265625 15.35546875 C9.22128906 14.63101562 8.96992188 13.9065625 8.7109375 13.16015625 C8.46730469 12.44085937 8.22367188 11.7215625 7.97265625 10.98046875 C7.06008203 8.6952072 7.06008203 8.6952072 4.0234375 7.03515625 C4.0234375 6.37515625 4.0234375 5.71515625 4.0234375 5.03515625 C2.9715625 5.09703125 1.9196875 5.15890625 0.8359375 5.22265625 C-3.26434447 5.02100304 -4.58640361 4.12140788 -7.9765625 2.03515625 C-12.13151959 1.70741068 -12.13151959 1.70741068 -15.9765625 3.03515625 C-17.57103714 3.11916154 -19.16896795 3.14243092 -20.765625 3.1328125 C-21.70664063 3.12958984 -22.64765625 3.12636719 -23.6171875 3.12304688 C-24.60203125 3.11466797 -25.586875 3.10628906 -26.6015625 3.09765625 C-27.59414062 3.09314453 -28.58671875 3.08863281 -29.609375 3.08398438 C-32.0651641 3.0721777 -34.52083354 3.05571025 -36.9765625 3.03515625 C-33.6279035 -0.80392421 -33.6279035 -0.80392421 -30.65234375 -1.5390625 C-29.87246094 -1.57644531 -29.09257812 -1.61382812 -28.2890625 -1.65234375 C-25.33408701 -1.59756238 -25.33408701 -1.59756238 -22.9765625 -2.96484375 C-14.53441271 -4.62741154 -7.54360579 -4.159419 0 0 Z " fill="#F0ECED" transform="translate(164.9765625,9.96484375)"/>
<path d="M0 0 C8.25999021 0.85936251 16.42714066 1.78775022 24.5625 3.5 C40.64890669 6.84991767 56.64096152 8.3370055 73 6 C72.01 6.33 71.02 6.66 70 7 C70.99 8.32 71.98 9.64 73 11 C70 12 70 12 67.6875 11.5 C64.54458342 10.91527133 62.12100871 11.43254387 59 12 C58.505 11.505 58.505 11.505 58 11 C54.53437791 10.92655635 51.07900563 11.00394499 47.61328125 11.0625 C43.1628548 10.98551965 39.32859631 10.45726756 35.1171875 9.0078125 C31.48865117 7.83467669 27.89494844 7.3206722 24.125 6.875 C23.09246094 6.74544922 23.09246094 6.74544922 22.0390625 6.61328125 C20.36004725 6.40340434 18.68010952 6.20092913 17 6 C16.67 6.99 16.34 7.98 16 9 C3.9403878 6.21213869 3.9403878 6.21213869 0 2 C0 1.34 0 0.68 0 0 Z " fill="#E4DEDA" transform="translate(8,198)"/>
<path d="M0 0 C-0.01160156 1.07378906 -0.02320313 2.14757812 -0.03515625 3.25390625 C-0.04454315 4.69010241 -0.05364238 6.12630048 -0.0625 7.5625 C-0.07087891 8.26697266 -0.07925781 8.97144531 -0.08789062 9.69726562 C-0.10400634 13.19437515 0.05583226 16.35038319 0.609375 19.82421875 C1 23 1 23 -0.6875 26.25 C-2.67897929 28.61824564 -4.4129446 30.33689296 -7 32 C-6.88541307 30.56163249 -6.75790884 29.12429034 -6.625 27.6875 C-6.55539063 26.88699219 -6.48578125 26.08648437 -6.4140625 25.26171875 C-6 23 -6 23 -4 20 C-4.30859478 17.77888613 -4.30859478 17.77888613 -5 15 C-5.67020284 11.63790808 -6.20259316 8.43282862 -6 5 C-2.2 0 -2.2 0 0 0 Z " fill="#E7E4E5" transform="translate(184,103)"/>
<path d="M0 0 C2 1.375 2 1.375 3 3 C3 3.66 3 4.32 3 5 C14.55 5.33 26.1 5.66 38 6 C38 6.33 38 6.66 38 7 C32.89544055 7.04979311 27.7910255 7.08590409 22.6862793 7.10986328 C20.95318129 7.11986161 19.2200999 7.13346473 17.48706055 7.15087891 C14.98221716 7.17540084 12.47759864 7.18654496 9.97265625 7.1953125 C9.20977798 7.20563507 8.44689972 7.21595764 7.66090393 7.22659302 C1.05833903 7.22794069 -5.41299561 6.7246696 -11 3 C-11 2.34 -11 1.68 -11 1 C-7.25463465 -0.24845512 -3.91916076 -0.47356526 0 0 Z " fill="#C9C8CD" transform="translate(89,204)"/>
<path d="M0 0 C5.61 0.66 11.22 1.32 17 2 C17 2.66 17 3.32 17 4 C17.66 4.33 18.32 4.66 19 5 C18.01 5.66 17.02 6.32 16 7 C16 7.66 16 8.32 16 9 C3.9403878 6.21213869 3.9403878 6.21213869 0 2 C0 1.34 0 0.68 0 0 Z " fill="#E6DDDC" transform="translate(8,198)"/>
<path d="M0 0 C0.33 0 0.66 0 1 0 C1.268125 0.86625 1.53625 1.7325 1.8125 2.625 C2.89705495 6.00599979 2.89705495 6.00599979 4.625 8.9375 C6.89475961 13.99287368 6.28009077 18.71962558 5 24 C0.76215523 17.64323285 -1.83233798 9.6575094 -1 2 C-0.67 1.34 -0.34 0.68 0 0 Z " fill="#EFEAEA" transform="translate(176,178)"/>
<path d="M0 0 C0.33 0 0.66 0 1 0 C1.09585232 6.03869603 1.07822521 12.03648279 0 18 C-0.33 18.33 -0.66 18.66 -1 19 C-1.29643736 20.55587743 -1.53780894 22.12235187 -1.75390625 23.69140625 C-1.88603516 24.63564453 -2.01816406 25.57988281 -2.15429688 26.55273438 C-2.28900391 27.54595703 -2.42371094 28.53917969 -2.5625 29.5625 C-2.70107422 30.55958984 -2.83964844 31.55667969 -2.98242188 32.58398438 C-3.32535906 35.05549716 -3.66437454 37.52748545 -4 40 C-4.33 40 -4.66 40 -5 40 C-5.10528188 34.58851145 -4.77126224 29.58182588 -3.90625 24.21875 C-3.73977966 23.17031921 -3.73977966 23.17031921 -3.56994629 22.10070801 C-3.2190893 19.89949661 -2.85970945 17.6997802 -2.5 15.5 C-2.25854601 13.99488277 -2.01765555 12.48967502 -1.77734375 10.984375 C-1.19139726 7.32184903 -0.59780654 3.66061113 0 0 Z " fill="#C6BFC9" transform="translate(22,55)"/>
<path d="M0 0 C1.13732426 3.40401948 0.83989957 5.77456664 0.0625 9.25 C-0.13214844 10.14203125 -0.32679688 11.0340625 -0.52734375 11.953125 C-0.68332031 12.62859375 -0.83929688 13.3040625 -1 14 C-3.42429075 11.95450468 -4.83858751 10.69945412 -5.5625 7.5625 C-4.76770178 3.94175253 -2.73312771 2.39148675 0 0 Z " fill="#F7F1EE" transform="translate(183,103)"/>
<path d="M0 0 C1.58468677 0.45363171 3.16769924 0.91311452 4.75 1.375 C5.63171875 1.63023437 6.5134375 1.88546875 7.421875 2.1484375 C9.76080572 2.9209934 11.83442562 3.83625676 14 5 C14 5.66 14 6.32 14 7 C8.22085395 6.74818536 4.16982776 6.43884891 0 2 C0 1.34 0 0.68 0 0 Z " fill="#EBE9EC" transform="translate(8,198)"/>
<path d="M0 0 C0.598125 0.20625 1.19625 0.4125 1.8125 0.625 C0.6059375 1.1509375 0.6059375 1.1509375 -0.625 1.6875 C-4.05183061 3.80573045 -4.05183061 3.80573045 -4.1875 10.625 C1.7525 10.625 7.6925 10.625 13.8125 10.625 C13.8125 10.955 13.8125 11.285 13.8125 11.625 C7.5425 11.625 1.2725 11.625 -5.1875 11.625 C-5.48046875 4.0078125 -5.48046875 4.0078125 -5.1875 1.625 C-2.1875 -0.375 -2.1875 -0.375 0 0 Z " fill="#1D1917" transform="translate(65.1875,148.375)"/>
<path d="M0 0 C2.51603994 2.51603994 2.96218592 4.21925056 3.1328125 7.7421875 C3.13023437 8.77601562 3.12765625 9.80984375 3.125 10.875 C3.12757813 11.90367188 3.13015625 12.93234375 3.1328125 13.9921875 C3.00995061 16.774648 2.62944236 19.29239874 2 22 C1.34 22 0.68 22 0 22 C0.08378906 21.16597656 0.16757813 20.33195312 0.25390625 19.47265625 C0.8611662 12.76204941 1.01636473 6.66283545 0 0 Z " fill="#E9E7E8" transform="translate(177,55)"/>
<path d="M0 0 C0.99 0.33 1.98 0.66 3 1 C3.38873828 2.95565258 3.76060833 4.91466504 4.125 6.875 C4.33382812 7.96554688 4.54265625 9.05609375 4.7578125 10.1796875 C4.83773437 11.11039063 4.91765625 12.04109375 5 13 C4.34 13.66 3.68 14.32 3 15 C0.74315457 9.63999211 -0.36263859 5.8022175 0 0 Z " fill="#D9D3D8" transform="translate(176,76)"/>
<path d="M0 0 C0.66 0.33 1.32 0.66 2 1 C1.34 4.63 0.68 8.26 0 12 C-1.32 11.34 -2.64 10.68 -4 10 C-3.43454163 6.04179141 -2.19097652 3.3340947 0 0 Z " fill="#D8D5D5" transform="translate(176,135)"/>
<path d="M0 0 C2.3431213 0.25561323 4.67843403 0.59270772 7 1 C8.38125018 3.76250036 8.19079306 5.94731099 8 9 C7.34 9.66 6.68 10.32 6 11 C5.81824219 10.45730469 5.63648438 9.91460937 5.44921875 9.35546875 C5.07216797 8.28232422 5.07216797 8.28232422 4.6875 7.1875 C4.44386719 6.47980469 4.20023438 5.77210937 3.94921875 5.04296875 C2.93275742 2.85527627 1.79179406 1.59103282 0 0 Z " fill="#E3E1E1" transform="translate(169,16)"/>
<path d="M0 0 C0.33 0 0.66 0 1 0 C1.0810206 2.10353495 1.13919907 4.20795952 1.1875 6.3125 C1.22230469 7.48425781 1.25710937 8.65601562 1.29296875 9.86328125 C1 13 1 13 -0.51171875 14.91796875 C-1.00285156 15.27503906 -1.49398437 15.63210937 -2 16 C-4.125 11.375 -4.125 11.375 -3 8 C-2.67 8.33 -2.34 8.66 -2 9 C-1.34 6.03 -0.68 3.06 0 0 Z " fill="#E3DFE0" transform="translate(183,107)"/>
<path d="M0 0 C1.58294782 -0.05437607 3.16644256 -0.09296271 4.75 -0.125 C5.63171875 -0.14820313 6.5134375 -0.17140625 7.421875 -0.1953125 C10.1135858 0.00860498 11.69904974 0.63448279 14 2 C9.72000646 4.13999677 4.50951645 3.09321611 0 2 C0 1.34 0 0.68 0 0 Z " fill="#E9E7E7" transform="translate(155,206)"/>
<path d="M0 0 C2.39763185 2.39763185 2.34280586 3.33273498 2.625 6.625 C2.69976562 7.44226563 2.77453125 8.25953125 2.8515625 9.1015625 C2.90054688 9.72804687 2.94953125 10.35453125 3 11 C2.34 10.01 1.68 9.02 1 8 C0.34 9.32 -0.32 10.64 -1 12 C-1.08159574 7.83861737 -0.98248524 4.0527516 0 0 Z " fill="#E0D9D7" transform="translate(175,172)"/>
<path d="M0 0 C2.97 0 5.94 0 9 0 C8.67 0.99 8.34 1.98 8 3 C2.25 3.125 2.25 3.125 0 2 C0 1.34 0 0.68 0 0 Z " fill="#F3F3F0" transform="translate(79,206)"/>
<path d="M0 0 C2 1 2 1 2.625 2.625 C3.12095645 5.7660575 3.06103811 8.82601831 3 12 C2.34 11.67 1.68 11.34 1 11 C0.5859375 8.49609375 0.5859375 8.49609375 0.375 5.4375 C0.30023438 4.42558594 0.22546875 3.41367188 0.1484375 2.37109375 C0.09945312 1.58863281 0.05046875 0.80617187 0 0 Z " fill="#F5F1F2" transform="translate(172,155)"/>
<path d="M0 0 C1.80330533 3.60661066 2.46599103 6.08393425 3 10 C2.01 10.66 1.02 11.32 0 12 C0 8.04 0 4.08 0 0 Z " fill="#E5E3E7" transform="translate(174,28)"/>
<path d="M0 0 C-0.99 0 -1.98 0 -3 0 C-2.01 1.32 -1.02 2.64 0 4 C-0.99 4.33 -1.98 4.66 -3 5 C-3.33 4.01 -3.66 3.02 -4 2 C-5.65 1.67 -7.3 1.34 -9 1 C-9 0.67 -9 0.34 -9 0 C-5.62182575 -0.84454356 -3.32534757 -1.10844919 0 0 Z " fill="#DCD6D5" transform="translate(81,205)"/>
<path d="M0 0 C0.75 1.75 0.75 1.75 1 4 C-0.9375 6.25 -0.9375 6.25 -3 8 C-3.33 7.01 -3.66 6.02 -4 5 C-2.0625 2.3125 -2.0625 2.3125 0 0 Z " fill="#F3EEEC" transform="translate(183,120)"/>
<path d="M0 0 C2.0625 1.6875 2.0625 1.6875 4 4 C3.75 6.75 3.75 6.75 3 9 C0.87491756 5.81237635 0.4979837 3.73487777 0 0 Z " fill="#EDE9EC" transform="translate(175,168)"/>
<path d="M0 0 C0.33 0 0.66 0 1 0 C0.25 6.625 0.25 6.625 -2 10 C-2.25 3.375 -2.25 3.375 0 0 Z " fill="#E5DCD7" transform="translate(171,147)"/>
<path d="M0 0 C0.66 0 1.32 0 2 0 C1.45773019 3.79588866 -0.20127563 5.47211993 -3 8 C-2.45276317 4.62537285 -1.9451 2.91765 0 0 Z " fill="#6B789C" transform="translate(189,143)"/>
</svg>
