<?xml version="1.0" encoding="UTF-8"?>
<svg version="1.1" xmlns="http://www.w3.org/2000/svg" width="161" height="174">
<path d="M0 0 C53.13 0 106.26 0 161 0 C161 57.42 161 114.84 161 174 C107.87 174 54.74 174 0 174 C0 116.58 0 59.16 0 0 Z " fill="#060607" transform="translate(0,0)"/>
<path d="M0 0 C0.88067139 0.00483398 1.76134277 0.00966797 2.66870117 0.01464844 C19.47185251 0.16845303 35.92766822 1.12481246 49.125 12.5625 C54.97286945 19.41286136 55.96098263 26.43283857 55.3125 35.125 C54.28665412 42.02894277 52.0982707 46.31829738 46.5859375 50.65234375 C43.01977513 52.96238363 39.28669945 54.64387474 35.3125 56.125 C35.3125 56.455 35.3125 56.785 35.3125 57.125 C36.611875 57.33125 37.91125 57.5375 39.25 57.75 C48.50268414 59.87070939 53.85732573 65.10574434 59 72.85546875 C63.14312185 80.01961695 62.17812216 90.13353797 61.3125 98.125 C58.57156707 107.72332234 52.48455969 115.10547382 43.93359375 120.09765625 C35.60010614 124.49822531 27.94454675 127.43837348 18.4296875 127.42578125 C17.69356232 127.43006638 16.95743713 127.4343515 16.19900513 127.43876648 C14.64765443 127.44447834 13.09627696 127.44503338 11.54492188 127.44067383 C9.21435759 127.43753616 6.88509331 127.46093331 4.5546875 127.48632812 C-4.43897208 127.52451293 -13.09039389 127.12275535 -21.6875 124.125 C-23.6875 122.125 -23.6875 122.125 -23.8828125 119.5234375 C-23.85960937 118.52570313 -23.83640625 117.52796875 -23.8125 116.5 C-23.79445312 115.49710937 -23.77640625 114.49421875 -23.7578125 113.4609375 C-23.73460937 112.69007813 -23.71140625 111.91921875 -23.6875 111.125 C-21.2125 110.135 -21.2125 110.135 -18.6875 109.125 C-18.6875 78.105 -18.6875 47.085 -18.6875 15.125 C-20.9975 14.795 -23.3075 14.465 -25.6875 14.125 C-25.6875 10.825 -25.6875 7.525 -25.6875 4.125 C-17.10303468 0.59923746 -9.19964856 -0.05318228 0 0 Z " fill="#CF3E27" transform="translate(64.6875,17.875)"/>
<path d="M0 0 C53.13 0 106.26 0 161 0 C161 57.42 161 114.84 161 174 C107.87 174 54.74 174 0 174 C0 116.58 0 59.16 0 0 Z M27 10 C25.94566989 13.27146051 25.24114533 16.48739268 24.640625 19.87109375 C24 23 24 23 22.98828125 24.90625 C21.46541188 28.13256614 21.30066534 31.55400704 20.9375 35.0625 C20.11505305 42.65484085 20.11505305 42.65484085 19 46 C18.91024643 47.46023497 18.8685443 48.92375676 18.859375 50.38671875 C18.84003906 51.24330078 18.82070313 52.09988281 18.80078125 52.98242188 C18.76729789 54.76605492 18.74872688 56.55003901 18.74609375 58.33398438 C18.52733152 66.04247463 15.92031914 70.63720827 10.9375 76.375 C7.03315119 81.6647629 4.04839098 88.33873689 5 95 C5.33644531 95.53367187 5.67289062 96.06734375 6.01953125 96.6171875 C7.5142486 100.24976752 7.1595763 103.89035388 7.0625 107.75 C6.91091914 121.31065662 7.03119882 134.89725926 11 148 C11.66 148.66 12.32 149.32 13 150 C14.01965427 152.32481174 15.02059602 154.65794699 16 157 C20.24631876 161.24631876 33.49595451 160.36030463 39.34375 160.75390625 C42 161 42 161 44.27734375 161.484375 C48.18743311 162.22487973 52.09429035 162.4472936 56.0625 162.6875 C56.86494141 162.74744141 57.66738281 162.80738281 58.49414062 162.86914062 C62.6619571 163.12163075 65.33624896 163.20657733 69 161 C77.06528837 159.95931763 85.61680706 161.46854207 93.65014648 162.37597656 C98.02932108 162.84478547 101.69594295 163.15642814 106 162 C108.62807263 161.72008694 111.25679598 161.49943702 113.890625 161.28125 C115.98284245 161.21964091 115.98284245 161.21964091 117 160 C119.44608998 159.84019563 121.86731058 159.74070553 124.31640625 159.68359375 C125.04746078 159.66281265 125.77851532 159.64203156 126.53172302 159.62062073 C128.87521656 159.55504976 131.21882539 159.49620568 133.5625 159.4375 C135.14779855 159.39432192 136.73308529 159.35070787 138.31835938 159.30664062 C142.21212037 159.1993608 146.10599772 159.0981151 150 159 C150.08994103 154.10345147 149.60411444 150.61106662 148 146 C147.79167114 143.92198551 147.64730466 141.83670873 147.5625 139.75 C147.2462447 134.59035332 146.27988094 130.30283978 144.6328125 125.43359375 C143.56182422 121.3149166 143.75751511 117.22103318 144 113 C144.66 113 145.32 113 146 113 C146.18175781 112.28714844 146.36351562 111.57429688 146.55078125 110.83984375 C148.85310803 102.06738838 148.85310803 102.06738838 150.75 98.125 C152.09852199 94.75369503 152.15892804 93.38020679 151 90 C150.67 89.34 150.34 88.68 150 88 C149.74139865 83.94857881 149.69558446 82.45662331 152 79 C152.47239631 73.347296 152.47239631 73.347296 150.5 68.1875 C147.96581041 62.80234712 148.37151079 56.74249836 149.6875 51 C150.02341848 47.7751826 149.53416009 46.19103463 148.5625 43.13671875 C146.73616457 36.68689059 146.44931132 30.48498336 146.3125 23.8125 C146.27833984 22.66974609 146.24417969 21.52699219 146.20898438 20.34960938 C146.12747085 17.56650462 146.0580133 14.78367664 146 12 C145.38511719 11.80664062 144.77023438 11.61328125 144.13671875 11.4140625 C143.32847656 11.15367188 142.52023438 10.89328125 141.6875 10.625 C140.88699219 10.36976562 140.08648437 10.11453125 139.26171875 9.8515625 C137 9 137 9 134 7 C131.26158468 7.0180163 131.26158468 7.0180163 128.1875 7.4375 C122.10341822 8.02211568 116.36672109 7.81612525 110.2890625 7.25390625 C106.95129519 6.94962361 106.95129519 6.94962361 103.3984375 7.02734375 C100 7 100 7 97.54296875 6.5078125 C94.10999102 5.82227163 90.80981821 5.86814923 87.3125 5.875 C86.29833008 5.86919922 86.29833008 5.86919922 85.26367188 5.86328125 C81.50647499 5.8191163 81.50647499 5.8191163 78 7 C72.06506362 7.53726793 66.2505338 6.82762264 60.375 6 C50.56261032 4.62489033 34.90388868 2.90676657 27 10 Z " fill="#586380" transform="translate(0,0)"/>
<path d="M0 0 C53.13 0 106.26 0 161 0 C161 20.46 161 40.92 161 62 C160.34 61.67 159.68 61.34 159 61 C158.62109375 58.12890625 158.62109375 58.12890625 158.4375 54.5625 C158.33992548 50.1215332 158.33992548 50.1215332 157 46 C156.95090245 44.28194943 156.96335659 42.56192695 157.0078125 40.84375 C157.03294922 39.31041016 157.03294922 39.31041016 157.05859375 37.74609375 C157.10286814 35.58185741 157.15495351 33.41776677 157.21484375 31.25390625 C157.22902344 30.23167969 157.24320313 29.20945312 157.2578125 28.15625 C157.2798877 27.21587891 157.30196289 26.27550781 157.32470703 25.30664062 C157.21755371 24.54544922 157.11040039 23.78425781 157 23 C153.81237635 20.87491756 151.73487777 20.4979837 148 20 C147.945862 22.24973447 147.90714509 24.49984383 147.875 26.75 C147.85179687 28.00296875 147.82859375 29.2559375 147.8046875 30.546875 C147.99188919 33.85660083 148.47690117 35.19178653 150 38 C150.1953125 40.359375 150.1953125 40.359375 150.125 42.75 C150.10695312 43.54921875 150.08890625 44.3484375 150.0703125 45.171875 C150.04710937 45.77515625 150.02390625 46.3784375 150 47 C149.34 46.67 148.68 46.34 148 46 C145.8793919 38.68466487 145.58496788 31.51821546 145.375 23.9375 C145.33632812 22.78572266 145.29765625 21.63394531 145.2578125 20.44726562 C145.16434848 17.63166204 145.07858748 14.8160514 145 12 C143.43840941 11.51787786 141.87568072 11.03944127 140.3125 10.5625 C139.44238281 10.29566406 138.57226562 10.02882813 137.67578125 9.75390625 C132.58225673 8.31879642 129.0142057 8.10940578 123.73046875 8.80859375 C119.26707592 9.12147823 114.87771908 8.65231271 110.4296875 8.25390625 C106.97192604 7.95115657 106.97192604 7.95115657 103.3828125 8.02734375 C100 8 100 8 97.54296875 7.5078125 C94.10999102 6.82227163 90.80981821 6.86814923 87.3125 6.875 C86.29833008 6.86919922 86.29833008 6.86919922 85.26367188 6.86328125 C81.50647499 6.8191163 81.50647499 6.8191163 78 8 C72.06506362 8.53726793 66.2505338 7.82762264 60.375 7 C48.93439353 5.39671181 37.92954895 5.74961985 27 10 C26.96261719 10.64066406 26.92523437 11.28132812 26.88671875 11.94140625 C26.82097656 12.80636719 26.75523438 13.67132813 26.6875 14.5625 C26.62949219 15.40941406 26.57148438 16.25632812 26.51171875 17.12890625 C26 20 26 20 24.52734375 23.32421875 C22.83685139 27.39264155 22.28818004 30.90755882 21.875 35.25 C21.10013263 42.69960212 21.10013263 42.69960212 20 46 C19.91024643 47.46023497 19.8685443 48.92375676 19.859375 50.38671875 C19.84003906 51.24330078 19.82070313 52.09988281 19.80078125 52.98242188 C19.76729789 54.76605492 19.74872688 56.55003901 19.74609375 58.33398438 C19.50904115 66.68696929 16.17633173 71.87293203 10.6875 78 C10.17574219 78.5775 9.66398438 79.155 9.13671875 79.75 C8.76160156 80.1625 8.38648438 80.575 8 81 C2.83844033 74.80612839 0.52084042 69.27498185 0.76171875 61.19921875 C1 59 1 59 2 56 C2.19577973 53.91643829 2.19577973 53.91643829 2.1875 51.6875 C2.20167969 50.94886719 2.21585937 50.21023437 2.23046875 49.44921875 C2.03090271 46.33950967 2.03090271 46.33950967 0 41 C0 27.47 0 13.94 0 0 Z " fill="#717FA6" transform="translate(0,0)"/>
<path d="M0 0 C2.62803405 2.62803405 2.91777266 4.60455367 3.1328125 8.25390625 C3.13023438 9.01574219 3.12765625 9.77757812 3.125 10.5625 C3.12757812 11.32691406 3.13015625 12.09132813 3.1328125 12.87890625 C3 15 3 15 2 18 C1.01222895 25.69050314 2.70597943 31.55896914 7 38 C7.66 38.33 8.32 38.66 9 39 C8.67515625 39.87011719 8.67515625 39.87011719 8.34375 40.7578125 C6.73138891 45.2813811 5.43400363 49.13243118 6 54 C6.33515625 54.53496094 6.6703125 55.06992188 7.015625 55.62109375 C8.5175059 59.25063927 8.1595608 62.89097009 8.0625 66.75 C7.91091914 80.31065662 8.03119882 93.89725926 12 107 C12.66 107.66 13.32 108.32 14 109 C15.03842565 111.31648799 16.0421975 113.64903024 17 116 C19.97 116.33 22.94 116.66 26 117 C26 117.99 26 118.98 26 120 C24.515 120.99 24.515 120.99 23 122 C24.91668113 125.5458601 26.53053435 127.90603932 30 130 C32.49197411 130.25006629 32.49197411 130.25006629 35.0625 130 C37.66015625 129.8125 37.66015625 129.8125 40 130 C40.99 130.99 41.98 131.98 43 133 C28.81 133 14.62 133 0 133 C0 89.11 0 45.22 0 0 Z " fill="#7583A7" transform="translate(0,41)"/>
<path d="M0 0 C22.03570416 -0.55552195 22.03570416 -0.55552195 29 6 C30.11489729 10.68912685 29.58276001 15.58934822 27.375 19.875 C22.74731283 25.96406207 17.18870031 28.10823676 10 30 C6.7 30 3.4 30 0 30 C0 20.1 0 10.2 0 0 Z " fill="#080507" transform="translate(71,92)"/>
<path d="M0 0 C2.62803405 2.62803405 2.91777266 4.60455367 3.1328125 8.25390625 C3.13023438 9.01574219 3.12765625 9.77757812 3.125 10.5625 C3.12757812 11.32691406 3.13015625 12.09132813 3.1328125 12.87890625 C3 15 3 15 2 18 C1.01222895 25.69050314 2.70597943 31.55896914 7 38 C7.66 38.33 8.32 38.66 9 39 C8.67515625 39.87011719 8.67515625 39.87011719 8.34375 40.7578125 C6.73138891 45.2813811 5.43400363 49.13243118 6 54 C6.33 54.61875 6.66 55.2375 7 55.875 C9.4048175 60.98523719 7.90115042 67.59309747 7 73 C6.34 72.01 5.68 71.02 5 70 C4.87625 71.3921875 4.87625 71.3921875 4.75 72.8125 C4 76 4 76 0 79 C0 52.93 0 26.86 0 0 Z " fill="#5D6884" transform="translate(0,41)"/>
<path d="M0 0 C1.81455688 0.07069702 1.81455688 0.07069702 3.66577148 0.14282227 C5.62353516 0.21533203 5.62353516 0.21533203 7.62084961 0.28930664 C9.00952598 0.34583683 10.39819781 0.40247892 11.78686523 0.45922852 C13.17942544 0.51243399 14.5720035 0.56517448 15.96459961 0.61743164 C19.38472504 0.74760943 22.80459448 0.88259032 26.22436523 1.02172852 C26.22436523 1.35172852 26.22436523 1.68172852 26.22436523 2.02172852 C20.360176 4.11664862 15.56942893 4.06128444 9.41186523 3.52172852 C7.71865022 3.37670484 6.02461961 3.24082065 4.32983398 3.11547852 C3.58886475 3.05038086 2.84789551 2.9852832 2.08447266 2.91821289 C-0.02675607 2.82836686 -0.02675607 2.82836686 -1.77563477 5.02172852 C-4.34179688 5.26464844 -4.34179688 5.26464844 -7.55297852 5.25219727 C-8.70604492 5.25026367 -9.85911133 5.24833008 -11.04711914 5.24633789 C-12.2569043 5.2340918 -13.46668945 5.2218457 -14.71313477 5.20922852 C-15.91905273 5.20858398 -17.1249707 5.20793945 -18.36743164 5.20727539 C-27.35447724 5.16211436 -27.35447724 5.16211436 -30.77563477 4.02172852 C-33.53934482 3.87264872 -36.26125896 3.79063023 -39.02563477 3.77172852 C-39.76426758 3.75110352 -40.50290039 3.73047852 -41.26391602 3.70922852 C-46.49594327 3.67231827 -49.94030748 4.89282563 -54.77563477 7.02172852 C-57.90844727 7.13110352 -57.90844727 7.13110352 -60.90063477 6.77172852 C-61.89321289 6.66344727 -62.88579102 6.55516602 -63.90844727 6.44360352 C-66.77563477 6.02172852 -66.77563477 6.02172852 -69.27172852 5.46704102 C-72.15656808 4.95398062 -74.78769501 5.03377717 -77.71313477 5.14672852 C-82.68252446 5.20800336 -85.65440593 4.7692144 -89.77563477 2.02172852 C-89.77563477 1.69172852 -89.77563477 1.36172852 -89.77563477 1.02172852 C-87.87988226 0.99451676 -85.98401498 0.97523715 -84.08813477 0.95922852 C-83.03239258 0.94762695 -81.97665039 0.93602539 -80.88891602 0.92407227 C-78.01909052 1.01409189 -75.57954968 1.45602638 -72.77563477 2.02172852 C-69.75934514 2.33408678 -66.73967085 2.52602415 -63.71313477 2.70922852 C-62.91069336 2.76916992 -62.10825195 2.82911133 -61.28149414 2.89086914 C-57.11367767 3.14335927 -54.43938581 3.22830585 -50.77563477 1.02172852 C-42.71034639 -0.01895385 -34.15882771 1.49027059 -26.12548828 2.39770508 C-21.74631368 2.86651398 -18.07969182 3.17815666 -13.77563477 2.02172852 C-11.14756214 1.74181545 -8.51883879 1.52116554 -5.88500977 1.30297852 C-3.01019543 0.91966994 -3.14588504 0.02462695 0 0 Z " fill="#DCDDDF" transform="translate(119.775634765625,158.978271484375)"/>
<path d="M0 0 C12.20481136 -0.49312369 12.20481136 -0.49312369 15.91015625 1.8046875 C18 4 18 4 18.25 7.375 C16.6049748 12.14557309 14.46863349 14.63800801 10 17 C6.57383011 17.75694451 3.53632594 17.90311436 0 18 C0 12.06 0 6.12 0 0 Z " fill="#100707" transform="translate(73,42)"/>
<path d="M0 0 C0.33 0 0.66 0 1 0 C1 16.5 1 33 1 50 C-2.37123254 45.50502328 -2.37123254 45.50502328 -2.44140625 41.41015625 C-2.46783203 40.54326172 -2.49425781 39.67636719 -2.52148438 38.78320312 C-2.53501953 37.88537109 -2.54855469 36.98753906 -2.5625 36.0625 C-2.69489476 28.32286994 -2.69489476 28.32286994 -5 21 C-6.10030732 12.70715745 -4.81702477 6.81264931 0 0 Z " fill="#6E7CA4" transform="translate(160,112)"/>
<path d="M0 0 C0.75087891 0.02707031 1.50175781 0.05414062 2.27539062 0.08203125 C6.89577028 0.33397807 9.66897262 1.08034478 13.5625 3.75 C15.91231447 4.60275525 18.2737494 5.30114428 20.671875 6.00390625 C22.5625 6.75 22.5625 6.75 23.5625 8.75 C23.55507743 10.30077442 23.48082741 11.85153255 23.37109375 13.3984375 C23.31373047 14.32140625 23.25636719 15.244375 23.19726562 16.1953125 C23.06626091 18.1409271 22.93087771 20.08625206 22.79101562 22.03125 C22.73494141 22.95679687 22.67886719 23.88234375 22.62109375 24.8359375 C22.53299438 26.1051001 22.53299438 26.1051001 22.44311523 27.39990234 C22.57627367 30.02113563 23.30765685 31.47674654 24.5625 33.75 C24.7578125 36.109375 24.7578125 36.109375 24.6875 38.5 C24.66945312 39.29921875 24.65140625 40.0984375 24.6328125 40.921875 C24.60960937 41.52515625 24.58640625 42.1284375 24.5625 42.75 C23.5725 42.255 23.5725 42.255 22.5625 41.75 C20.4418919 34.43466487 20.14746788 27.26821546 19.9375 19.6875 C19.87949219 17.95983398 19.87949219 17.95983398 19.8203125 16.19726562 C19.72684848 13.38166204 19.64108748 10.5660514 19.5625 7.75 C18.00090941 7.26787786 16.43818072 6.78944127 14.875 6.3125 C14.00488281 6.04566406 13.13476562 5.77882813 12.23828125 5.50390625 C8.07392008 4.33058989 4.71577218 3.53980826 0.4375 4.3125 C-5.06727989 5.05513472 -10.06828696 3.96434538 -15.4375 2.75 C-10.34125537 -0.64749642 -5.98085766 -0.3370936 0 0 Z " fill="#E0E0E3" transform="translate(125.4375,4.25)"/>
<path d="M0 0 C0.33 0 0.66 0 1 0 C0.96519531 0.60585938 0.93039063 1.21171875 0.89453125 1.8359375 C0.86746094 2.67382812 0.84039062 3.51171875 0.8125 4.375 C0.77769531 5.18710937 0.74289063 5.99921875 0.70703125 6.8359375 C0.97368363 9.71578323 1.54312944 11.81298207 2.44921875 14.53125 C4.38379576 20.68677447 4.7415204 26.7073209 5 33.125 C5.07605469 34.25292969 5.15210938 35.38085938 5.23046875 36.54296875 C5.54463441 43.80274268 4.74240713 48.37474297 0 54 C-1 51 -1 51 0 48.125 C1.27751276 44.13277262 0.84834001 41.69668001 -1 38 C-1.25860135 33.94857881 -1.30441554 32.45662331 1 29 C1.47239631 23.347296 1.47239631 23.347296 -0.5 18.1875 C-2.67283105 13.57023402 -2.58518349 9.03105808 -2 4 C-0.98046875 1.6640625 -0.98046875 1.6640625 0 0 Z " fill="#CDCED1" transform="translate(150,50)"/>
<path d="M0 0 C-0.45375 0.639375 -0.9075 1.27875 -1.375 1.9375 C-3.44541527 5.83943648 -4.20081414 9.68439633 -5 14 C-5.66 14 -6.32 14 -7 14 C-6.95359375 14.6084375 -6.9071875 15.216875 -6.859375 15.84375 C-6.5844644 22.52015028 -7.68428894 28.38265696 -9.42773438 34.77734375 C-11.30281973 41.78389046 -12.21325386 48.79506165 -13 56 C-13.33 56 -13.66 56 -14 56 C-14.05444001 52.99975053 -14.0938836 50.00050961 -14.125 47 C-14.14175781 46.16082031 -14.15851562 45.32164063 -14.17578125 44.45703125 C-14.21873929 38.91544415 -13.4618015 34.33753574 -12 29 C-11.80593689 27.15025923 -11.65385972 25.29514765 -11.5625 23.4375 C-11.20028423 18.72869499 -9.96291549 15.31841407 -8 11 C-7.49275268 8.38450602 -7.07449339 5.77751935 -6.72265625 3.13671875 C-6 1 -6 1 -4.05859375 -0.35546875 C-2 -1 -2 -1 0 0 Z " fill="#171920" transform="translate(33,9)"/>
<path d="M0 0 C0.33 0 0.66 0 1 0 C1 3.3 1 6.6 1 10 C2.7015625 9.9690625 2.7015625 9.9690625 4.4375 9.9375 C8 10 8 10 9 11 C9.09525367 13.92194665 9.12552736 16.82020329 9.11352539 19.74243164 C9.11367142 20.6594133 9.11381744 21.57639496 9.1139679 22.52116394 C9.1132684 25.56751836 9.10547428 28.61381245 9.09765625 31.66015625 C9.0957922 33.76622993 9.09436824 35.87230403 9.09336853 37.9783783 C9.08954231 43.53342883 9.07971114 49.08845341 9.06866455 54.64349365 C9.05845267 60.3072474 9.05387139 65.97100533 9.04882812 71.63476562 C9.03808896 82.75652185 9.0210113 93.87825877 9 105 C6.03 105.99 6.03 105.99 3 107 C3 106.34 3 105.68 3 105 C4.485 104.505 4.485 104.505 6 104 C6 74.96 6 45.92 6 16 C6.66 16 7.32 16 8 16 C8 14.68 8 13.36 8 12 C6.2984375 12.0309375 6.2984375 12.0309375 4.5625 12.0625 C1 12 1 12 0 11 C-0.07226502 9.14712498 -0.0838122 7.29166122 -0.0625 5.4375 C-0.05347656 4.42558594 -0.04445312 3.41367187 -0.03515625 2.37109375 C-0.02355469 1.58863281 -0.01195312 0.80617188 0 0 Z " fill="#42130E" transform="translate(38,22)"/>
<path d="M0 0 C0.33 0 0.66 0 1 0 C1.08564209 1.23451904 1.17128418 2.46903809 1.25952148 3.7409668 C1.5814627 8.37983536 1.90404449 13.0186592 2.22680664 17.6574707 C2.36564964 19.6542036 2.50432556 21.65094813 2.64282227 23.64770508 C2.77737248 25.58726825 2.91218617 27.52681316 3.04727173 29.46633911 C3.1793913 31.36543374 3.31072379 33.26458329 3.44125366 35.16378784 C3.71698012 39.14035258 3.99972812 43.11422588 4.35595703 47.08447266 C4.45634277 48.21804199 4.55672852 49.35161133 4.66015625 50.51953125 C4.75047119 51.45514893 4.84078613 52.3907666 4.93383789 53.35473633 C5.00873906 56.34940103 4.57544873 59.06615484 4 62 C3.67 62 3.34 62 3 62 C0.1370728 48.88056661 -0.21323421 35.66646927 0.12451172 22.29492188 C0.18724564 18.22838852 -0.0488184 15.54334579 -2 12 C-2.01171875 9.4921875 -2.01171875 9.4921875 -1.6875 6.875 C-1.58824219 6.00617188 -1.48898438 5.13734375 -1.38671875 4.2421875 C-1 2 -1 2 0 0 Z " fill="#131520" transform="translate(7,83)"/>
<path d="M0 0 C3.06071578 0.410486 3.06071578 0.410486 5.16015625 -0.84375 C8.59215377 -1.08396157 12.03318271 -1.02894627 15.47265625 -1.03125 C16.42333984 -1.04349609 17.37402344 -1.05574219 18.35351562 -1.06835938 C27.00266263 -1.08649176 27.00266263 -1.08649176 31.16015625 1.15625 C31.16015625 1.81625 31.16015625 2.47625 31.16015625 3.15625 C30.54011719 3.0840625 29.92007813 3.011875 29.28125 2.9375 C15.92343141 1.02448448 15.92343141 1.02448448 3.16015625 3.15625 C-4.91072139 3.87329078 -12.8961025 2.43823706 -20.83984375 1.15625 C-20.83984375 0.82625 -20.83984375 0.49625 -20.83984375 0.15625 C-13.75169001 -0.96293217 -7.11190741 -0.62647433 0 0 Z " fill="#D4D5DA" transform="translate(74.83984375,4.84375)"/>
<path d="M0 0 C1.29550781 0.04833984 2.59101562 0.09667969 3.92578125 0.14648438 C5.28906763 0.20300129 6.65234883 0.25964351 8.015625 0.31640625 C9.39451112 0.36966447 10.77341735 0.42240459 12.15234375 0.47460938 C15.52367033 0.60427578 18.89470018 0.73924279 22.265625 0.87890625 C22.265625 1.20890625 22.265625 1.53890625 22.265625 1.87890625 C16.40143577 3.97382635 11.6106887 3.91846218 5.453125 3.37890625 C3.75990998 3.23388257 2.06587938 3.09799838 0.37109375 2.97265625 C-0.36987549 2.90755859 -1.11084473 2.84246094 -1.87426758 2.77539062 C-3.9854963 2.6855446 -3.9854963 2.6855446 -5.734375 4.87890625 C-7.98095703 5.10595703 -7.98095703 5.10595703 -10.7421875 5.07421875 C-12.22138672 5.06455078 -12.22138672 5.06455078 -13.73046875 5.0546875 C-15.27927734 5.02955078 -15.27927734 5.02955078 -16.859375 5.00390625 C-17.89964844 4.99488281 -18.93992187 4.98585937 -20.01171875 4.9765625 C-22.58616592 4.95294372 -25.16015712 4.92000774 -27.734375 4.87890625 C-27.734375 4.54890625 -27.734375 4.21890625 -27.734375 3.87890625 C-23.19953697 2.10921336 -19.57568108 1.78925243 -14.734375 1.87890625 C-12.76879879 1.48579101 -10.94731874 0.94719447 -9.04199219 0.33618164 C-5.97044929 -0.2724726 -3.12828467 -0.12348492 0 0 Z " fill="#E4E6E9" transform="translate(123.734375,159.12109375)"/>
<path d="M0 0 C1.31613281 -0.00257813 2.63226563 -0.00515625 3.98828125 -0.0078125 C7.07631988 0.10305689 9.68337409 0.52130006 12.6875 1.125 C14.97875693 1.16833346 17.27118438 1.16511056 19.5625 1.125 C24.40945654 1.08426927 28.93055478 1.2189152 33.6875 2.125 C31.6875 4.125 31.6875 4.125 27.88037109 4.35205078 C26.2405258 4.35173346 24.60065983 4.34039681 22.9609375 4.3203125 C22.09812164 4.3174826 21.23530579 4.31465271 20.34634399 4.31173706 C17.5849228 4.30052333 14.8238235 4.27541684 12.0625 4.25 C10.19271301 4.23997173 8.32292095 4.23084562 6.453125 4.22265625 C1.86445891 4.20058012 -2.72396593 4.16604234 -7.3125 4.125 C-7.3125 3.465 -7.3125 2.805 -7.3125 2.125 C-7.9725 1.795 -8.6325 1.465 -9.3125 1.125 C-6.32476752 -0.36886624 -3.2721842 -0.01871602 0 0 Z " fill="#232527" transform="translate(87.3125,5.875)"/>
<path d="M0 0 C0.33 0 0.66 0 1 0 C1 10.89 1 21.78 1 33 C0.34 32.67 -0.32 32.34 -1 32 C-1.37890625 29.12890625 -1.37890625 29.12890625 -1.5625 25.5625 C-1.66007452 21.1215332 -1.66007452 21.1215332 -3 17 C-3.14851844 15.06640414 -3.22130833 13.12657903 -3.25 11.1875 C-3.27578125 10.14980469 -3.3015625 9.11210938 -3.328125 8.04296875 C-2.95961897 4.62551405 -2.01564596 2.75369814 0 0 Z " fill="#6E7CA3" transform="translate(160,29)"/>
<path d="M0 0 C0.33 0 0.66 0 1 0 C1.77153908 7.40677519 -1.14251916 11.39055052 -5.6328125 17.0625 C-7.04810917 18.75812113 -8.44799915 20.42835357 -10 22 C-10.33 22 -10.66 22 -11 22 C-11.85430963 15.77434129 -9.0592581 12.41733514 -5.5625 7.625 C-5.04623047 6.88894531 -4.52996094 6.15289062 -3.99804688 5.39453125 C-1.28408211 1.57014691 -1.28408211 1.57014691 0 0 Z " fill="#E6E6E8" transform="translate(18,59)"/>
<path d="M0 0 C5.78389207 0.50642373 11.55248973 1.14665307 17.3125 1.875 C19.03919922 2.08769531 19.03919922 2.08769531 20.80078125 2.3046875 C24.08854952 3.0192452 26.24363247 4.10725982 29 6 C25.8821997 7.55890015 22.7823336 6.59611401 19.4375 6.125 C17.98581765 5.92605493 16.53399485 5.72813195 15.08203125 5.53125 C14.38029785 5.43585938 13.67856445 5.34046875 12.95556641 5.2421875 C10.51721401 4.94020928 8.07621673 4.78547245 5.625 4.625 C3.830625 4.315625 3.830625 4.315625 2 4 C0.7734375 1.9609375 0.7734375 1.9609375 0 0 Z " fill="#16161B" transform="translate(15,154)"/>
<path d="M0 0 C1.41152344 0.12568359 1.41152344 0.12568359 2.8515625 0.25390625 C4.71941406 0.40666016 4.71941406 0.40666016 6.625 0.5625 C7.85476562 0.66691406 9.08453125 0.77132812 10.3515625 0.87890625 C13.75627462 0.99191061 16.67558398 0.69045563 20 0 C20 0.66 20 1.32 20 2 C20.66 2.33 21.32 2.66 22 3 C11.6386155 5.67611918 2.43153683 4.44915724 -8 3 C-8 2.67 -8 2.34 -8 2 C-5.36 1.67 -2.72 1.34 0 1 C0 0.67 0 0.34 0 0 Z " fill="#2F2F33" transform="translate(88,158)"/>
<path d="M0 0 C0.66 0 1.32 0 2 0 C4.21327822 9.51924517 5.92806886 19.31616544 4 29 C3.67 29 3.34 29 3 29 C0.82188403 19.39937232 0.40962538 9.79867033 0 0 Z " fill="#1D1F21" transform="translate(7,116)"/>
<path d="M0 0 C0.33 0 0.66 0 1 0 C1.33 14.19 1.66 28.38 2 43 C0.02 43.66 -1.96 44.32 -4 45 C-4 44.34 -4 43.68 -4 43 C-2.515 42.505 -2.515 42.505 -1 42 C-0.67 28.14 -0.34 14.28 0 0 Z " fill="#2F0B08" transform="translate(45,84)"/>
<path d="M0 0 C0.33 0 0.66 0 1 0 C1 2.64 1 5.28 1 8 C-9.56 8 -20.12 8 -31 8 C-31 7.67 -31 7.34 -31 7 C-30.16190796 6.970271 -30.16190796 6.970271 -29.30688477 6.93994141 C-26.72502582 6.8434781 -24.14384608 6.73430188 -21.5625 6.625 C-20.68400391 6.5940625 -19.80550781 6.563125 -18.90039062 6.53125 C-10.24399895 6.29258294 -10.24399895 6.29258294 -2 4 C-0.72173339 2.00513291 -0.72173339 2.00513291 0 0 Z " fill="#6C7BA0" transform="translate(160,166)"/>
<path d="M0 0 C1 2 1 2 0.0625 5.125 C-0.288125 6.07375 -0.63875 7.0225 -1 8 C-2.60379341 8.05416188 -4.20811406 8.09286638 -5.8125 8.125 C-6.70582031 8.14820312 -7.59914063 8.17140625 -8.51953125 8.1953125 C-11 8 -11 8 -14 6 C-13.15695313 5.65066406 -12.31390625 5.30132812 -11.4453125 4.94140625 C-10.34960938 4.48636719 -9.25390625 4.03132813 -8.125 3.5625 C-7.03445312 3.11003906 -5.94390625 2.65757813 -4.8203125 2.19140625 C-3.19441376 1.50456537 -1.57868226 0.78934113 0 0 Z " fill="#170809" transform="translate(111,68)"/>
<path d="M0 0 C0 0.33 0 0.66 0 1 C-4.45827926 1.0578304 -8.9164628 1.09353855 -13.375 1.125 C-14.64601563 1.14175781 -15.91703125 1.15851562 -17.2265625 1.17578125 C-18.43828125 1.18222656 -19.65 1.18867188 -20.8984375 1.1953125 C-22.01911621 1.20578613 -23.13979492 1.21625977 -24.29443359 1.22705078 C-27 1 -27 1 -29 -1 C-19.14029418 -2.97194116 -9.8077997 -1.43030412 0 0 Z " fill="#2B2B2E" transform="translate(68,7)"/>
<path d="M0 0 C2.05078125 0.03255208 4.1015625 0.06510417 6.15234375 0.09765625 C5.82234375 1.41765625 5.49234375 2.73765625 5.15234375 4.09765625 C-1.77765625 4.09765625 -8.70765625 4.09765625 -15.84765625 4.09765625 C-15.84765625 3.76765625 -15.84765625 3.43765625 -15.84765625 3.09765625 C-11.32549016 1.33290851 -7.67830492 1.00293765 -2.84765625 1.09765625 C-1.84765625 0.09765625 -1.84765625 0.09765625 0 0 Z " fill="#EEEBEC" transform="translate(111.84765625,159.90234375)"/>
<path d="M0 0 C2.33837891 -0.2487793 2.33837891 -0.2487793 5.2265625 -0.07421875 C6.2578125 -0.01943359 7.2890625 0.03535156 8.3515625 0.09179688 C9.97191406 0.20104492 9.97191406 0.20104492 11.625 0.3125 C12.71296875 0.37373047 13.8009375 0.43496094 14.921875 0.49804688 C17.61569749 0.65164202 20.30786572 0.81953408 23 1 C20.83597851 2.916517 19.53277251 3.94435269 16.61816406 4.2487793 C15.75932617 4.19117432 14.90048828 4.13356934 14.015625 4.07421875 C13.08105469 4.01943359 12.14648438 3.96464844 11.18359375 3.90820312 C10.21550781 3.83537109 9.24742188 3.76253906 8.25 3.6875 C7.26644531 3.62626953 6.28289063 3.56503906 5.26953125 3.50195312 C2.84504416 3.34895151 0.42251973 3.18114966 -2 3 C-1.34 2.01 -0.68 1.02 0 0 Z " fill="#19181A" transform="translate(46,159)"/>
<path d="M0 0 C9.05293337 -0.13534286 17.97859571 0.24258075 27 1 C27 1.33 27 1.66 27 2 C26.38479492 2.02505615 25.76958984 2.0501123 25.13574219 2.07592773 C22.34029844 2.19218487 19.54516702 2.31477642 16.75 2.4375 C15.78191406 2.47681641 14.81382813 2.51613281 13.81640625 2.55664062 C12.41455078 2.61948242 12.41455078 2.61948242 10.984375 2.68359375 C10.12553711 2.72025146 9.26669922 2.75690918 8.38183594 2.79467773 C6.00364357 2.91993265 6.00364357 2.91993265 3.81347656 3.64477539 C3.2150293 3.76199951 2.61658203 3.87922363 2 4 C1.34 3.34 0.68 2.68 0 2 C0 1.34 0 0.68 0 0 Z " fill="#111113" transform="translate(111,157)"/>
<path d="M0 0 C2.86497235 4.29745852 3.26429604 8.8212112 4.21875 13.84765625 C4.73065195 17.07481574 4.73065195 17.07481574 7 19 C6.67 19.99 6.34 20.98 6 22 C2.54261324 18.19687457 1.23953366 14.95813462 0 10 C-0.33 9.67 -0.66 9.34 -1 9 C-0.91062197 7.47480724 -0.75462854 5.95318071 -0.5625 4.4375 C-0.46066406 3.61121094 -0.35882813 2.78492188 -0.25390625 1.93359375 C-0.17011719 1.29550781 -0.08632812 0.65742188 0 0 Z " fill="#DFDFE4" transform="translate(7,131)"/>
<path d="M0 0 C2.39614126 -0.05425226 4.79103853 -0.09379027 7.1875 -0.125 C8.19780273 -0.15013672 8.19780273 -0.15013672 9.22851562 -0.17578125 C13.28807807 -0.21538674 16.34998815 0.19979998 20 2 C20 2.66 20 3.32 20 4 C13.15182898 3.51358785 6.66957927 2.64006048 0 1 C0 0.67 0 0.34 0 0 Z " fill="#EAE8EC" transform="translate(86,4)"/>
<path d="M0 0 C0.66 0.33 1.32 0.66 2 1 C3.74451341 6.52429247 4.20612487 11.22850374 4 17 C2 16 2 16 1.1484375 13.890625 C0.89320313 13.01921875 0.63796875 12.1478125 0.375 11.25 C-0.01558594 9.95835938 -0.01558594 9.95835938 -0.4140625 8.640625 C-1.00326063 5.98530542 -1.18002777 3.70989174 -1 1 C-0.67 0.67 -0.34 0.34 0 0 Z " fill="#DADADD" transform="translate(144,117)"/>
<path d="M0 0 C5.28 0 10.56 0 16 0 C16 0.33 16 0.66 16 1 C11.38 1.33 6.76 1.66 2 2 C1.67 7.94 1.34 13.88 1 20 C0.67 20 0.34 20 0 20 C0 13.4 0 6.8 0 0 Z " fill="#270806" transform="translate(71,92)"/>
<path d="M0 0 C2.31 0 4.62 0 7 0 C5.515 1.485 5.515 1.485 4 3 C4.62648438 3.12117188 5.25296875 3.24234375 5.8984375 3.3671875 C7.12433594 3.61855469 7.12433594 3.61855469 8.375 3.875 C9.18710938 4.03742188 9.99921875 4.19984375 10.8359375 4.3671875 C13 5 13 5 15 7 C13.06183265 6.8858134 11.12444901 6.75826577 9.1875 6.625 C8.10855469 6.55539063 7.02960938 6.48578125 5.91796875 6.4140625 C3 6 3 6 0 4 C0 2.68 0 1.36 0 0 Z " fill="#B33B2B" transform="translate(96,72)"/>
<path d="M0 0 C2.81611171 4.22416757 2.3303368 7.78423625 2.3125 12.75 C2.32861328 13.63171875 2.34472656 14.5134375 2.36132812 15.421875 C2.365523 21.05978715 1.59661919 24.98489381 -1 30 C-1.33 30 -1.66 30 -2 30 C-1.125 23.125 -1.125 23.125 0 22 C0.08700342 20.36527118 0.10701063 18.72685945 0.09765625 17.08984375 C0.09443359 16.10048828 0.09121094 15.11113281 0.08789062 14.09179688 C0.07951172 13.05087891 0.07113281 12.00996094 0.0625 10.9375 C0.05798828 9.89271484 0.05347656 8.84792969 0.04882812 7.77148438 C0.03699913 5.1809334 0.02051689 2.59049441 0 0 Z " fill="#A93A2B" transform="translate(124,93)"/>
<path d="M0 0 C0.99 0.33 1.98 0.66 3 1 C1 4 1 4 -0.82714844 4.69506836 C-3.20772782 5.02915192 -5.36557871 5.01737046 -7.765625 4.87890625 C-8.65507813 4.83056641 -9.54453125 4.78222656 -10.4609375 4.73242188 C-11.38132812 4.67634766 -12.30171875 4.62027344 -13.25 4.5625 C-14.18585938 4.51029297 -15.12171875 4.45808594 -16.0859375 4.40429688 C-18.39098887 4.27493175 -20.69557289 4.13997966 -23 4 C-23 3.67 -23 3.34 -23 3 C-22.37432129 2.98018066 -21.74864258 2.96036133 -21.10400391 2.93994141 C-18.27723481 2.84485774 -15.45122185 2.73511254 -12.625 2.625 C-11.64015625 2.5940625 -10.6553125 2.563125 -9.640625 2.53125 C-8.69960937 2.49257812 -7.75859375 2.45390625 -6.7890625 2.4140625 C-5.48509521 2.36693115 -5.48509521 2.36693115 -4.15478516 2.31884766 C-1.79038206 2.18770567 -1.79038206 2.18770567 0 0 Z " fill="#75798E" transform="translate(120,161)"/>
<path d="M0 0 C0.33 0 0.66 0 1 0 C0.63495936 5.66442374 -0.0554321 10.00703705 -3 15 C-3.33 15 -3.66 15 -4 15 C-4.50610724 8.92671312 -3.04157942 5.22771463 0 0 Z " fill="#D8DADF" transform="translate(25,14)"/>
<path d="M0 0 C0 0.33 0 0.66 0 1 C-3.63 1 -7.26 1 -11 1 C-11 0.34 -11 -0.32 -11 -1 C-12.98 -1 -14.96 -1 -17 -1 C-17 -1.33 -17 -1.66 -17 -2 C-10.33497919 -3.17618014 -6.16167099 -2.64071614 0 0 Z " fill="#2E2E2F" transform="translate(140,10)"/>
<path d="M0 0 C0 0.33 0 0.66 0 1 C-5.61 1 -11.22 1 -17 1 C-16.67 0.34 -16.34 -0.32 -16 -1 C-10.36873699 -2.31502187 -5.34153578 -2.38963443 0 0 Z " fill="#131315" transform="translate(89,159)"/>
<path d="M0 0 C3.4375 0.8125 3.4375 0.8125 7 2 C7.33 2.99 7.66 3.98 8 5 C3.05 4.67 -1.9 4.34 -7 4 C-7 3.34 -7 2.68 -7 2 C-4.69 2 -2.38 2 0 2 C0 1.34 0 0.68 0 0 Z " fill="#AF3B2A" transform="translate(80,38)"/>
<path d="M0 0 C0 0.66 0 1.32 0 2 C0.66 2.33 1.32 2.66 2 3 C-1.9813783 4.3271261 -5.85045227 4.06915913 -10 4 C-10.33 3.34 -10.66 2.68 -11 2 C-3.375 0 -3.375 0 0 0 Z " fill="#202124" transform="translate(108,158)"/>
<path d="M0 0 C0.66 0 1.32 0 2 0 C3.78409802 3.06246747 4.22880021 5.22079273 4.125 8.75 C4.10695312 9.54921875 4.08890625 10.3484375 4.0703125 11.171875 C4.03550781 12.07679687 4.03550781 12.07679687 4 13 C3.34 12.67 2.68 12.34 2 12 C1.3671875 9.27734375 1.3671875 9.27734375 0.875 5.9375 C0.70742187 4.83277344 0.53984375 3.72804687 0.3671875 2.58984375 C0.24601563 1.73519531 0.12484375 0.88054688 0 0 Z " fill="#CECED2" transform="translate(146,34)"/>
<path d="M0 0 C0.33 0 0.66 0 1 0 C1.4813341 1.72856459 1.95996971 3.45788071 2.4375 5.1875 C2.70433594 6.15042969 2.97117188 7.11335937 3.24609375 8.10546875 C3.92880018 10.72663697 4.49892195 13.338935 5 16 C4.34 16.33 3.68 16.66 3 17 C0.70657253 11.10261508 -0.34548714 6.33393082 0 0 Z " fill="#D4D8DB" transform="translate(147,138)"/>
<path d="M0 0 C0.33 0 0.66 0 1 0 C1.33 3.96 1.66 7.92 2 12 C1.34 12 0.68 12 0 12 C0 11.34 0 10.68 0 10 C-0.66 10 -1.32 10 -2 10 C-1.85950482 8.52031676 -1.71245174 7.04125484 -1.5625 5.5625 C-1.48128906 4.73878906 -1.40007813 3.91507813 -1.31640625 3.06640625 C-1 1 -1 1 0 0 Z " fill="#230907" transform="translate(40,129)"/>
<path d="M0 0 C2.52259061 1.97420135 2.9929808 2.96745642 3.6875 6.1875 C3.790625 7.115625 3.89375 8.04375 4 9 C1 7.1875 1 7.1875 -2 5 C-2 4.01 -2 3.02 -2 2 C-1.34 2 -0.68 2 0 2 C0 1.34 0 0.68 0 0 Z " fill="#C23D2A" transform="translate(120,87)"/>
<path d="M0 0 C0.66 0.33 1.32 0.66 2 1 C0.02 3.97 -1.96 6.94 -4 10 C-5.26829268 4.92682927 -5.26829268 4.92682927 -4 2 C-2.0625 0.6875 -2.0625 0.6875 0 0 Z " fill="#1C1F24" transform="translate(31,8)"/>
<path d="M0 0 C0.33 0 0.66 0 1 0 C1.33 4.62 1.66 9.24 2 14 C1.67 13.34 1.34 12.68 1 12 C0.34 12 -0.32 12 -1 12 C-1.02712066 10.56260487 -1.04645067 9.12506137 -1.0625 7.6875 C-1.07410156 6.88699219 -1.08570313 6.08648437 -1.09765625 5.26171875 C-1 3 -1 3 0 0 Z " fill="#121317" transform="translate(8,104)"/>
<path d="M0 0 C1.98 0.99 1.98 0.99 4 2 C3.67 5.96 3.34 9.92 3 14 C2.67 14 2.34 14 2 14 C1.34 9.38 0.68 4.76 0 0 Z " fill="#232529" transform="translate(8,131)"/>
<path d="M0 0 C0.98484375 0.01804688 1.9696875 0.03609375 2.984375 0.0546875 C4.10585937 0.08949219 4.10585937 0.08949219 5.25 0.125 C5.25 0.455 5.25 0.785 5.25 1.125 C1.95 1.125 -1.35 1.125 -4.75 1.125 C-4.75 2.115 -4.75 3.105 -4.75 4.125 C-6.07 4.455 -7.39 4.785 -8.75 5.125 C-9.08 4.135 -9.41 3.145 -9.75 2.125 C-6.40060119 0.09941119 -3.88037449 -0.09238987 0 0 Z " fill="#CACBC9" transform="translate(74.75,159.875)"/>
<path d="M0 0 C3.96 0 7.92 0 12 0 C10.68 0.33 9.36 0.66 8 1 C8 1.99 8 2.98 8 4 C2.25 2.25 2.25 2.25 0 0 Z " fill="#D2D2D3" transform="translate(30,160)"/>
<path d="M0 0 C4.12751449 0.60698743 7.3321148 2.03810791 11 4 C10.67 4.99 10.34 5.98 10 7 C10 6.34 10 5.68 10 5 C9.36191406 4.89042969 8.72382813 4.78085938 8.06640625 4.66796875 C7.24011719 4.50941406 6.41382813 4.35085937 5.5625 4.1875 C4.73878906 4.03667969 3.91507813 3.88585937 3.06640625 3.73046875 C2.38449219 3.48941406 1.70257813 3.24835937 1 3 C0.67 2.01 0.34 1.02 0 0 Z " fill="#7D86A4" transform="translate(138,6)"/>
<path d="M0 0 C0.33 0.66 0.66 1.32 1 2 C0.67 2.99 0.34 3.98 0 5 C-3.3 5.66 -6.6 6.32 -10 7 C-8.72070154 4.44140308 -7.55728932 4.13851266 -5 2.9375 C-2.30092276 1.75531476 -2.30092276 1.75531476 0 0 Z " fill="#AB3B28" transform="translate(96,114)"/>
<path d="M0 0 C0.99 0 1.98 0 3 0 C2.35455571 3.48539917 0.89865603 6.02819057 -1 9 C-2.25541557 5.23375329 -1.37061958 3.62811066 0 0 Z " fill="#DDDFE5" transform="translate(151,95)"/>
<path d="M0 0 C0.99 0.33 1.98 0.66 3 1 C3 3.64 3 6.28 3 9 C2.01 8.34 1.02 7.68 0 7 C-0.1875 3.375 -0.1875 3.375 0 0 Z " fill="#EEEDEA" transform="translate(150,83)"/>
<path d="M0 0 C2.76223278 2.76223278 2.57856291 5.20706617 3 9 C2.01 8.67 1.02 8.34 0 8 C-0.38063221 5.6739143 -0.71269945 3.33944736 -1 1 C-0.67 0.67 -0.34 0.34 0 0 Z " fill="#E8E7E9" transform="translate(150,61)"/>
<path d="M0 0 C0.33 0.99 0.66 1.98 1 3 C-3.873261 4.5912689 -7.80790596 5.21192221 -13 5 C-13 4.67 -13 4.34 -13 4 C-12.31292969 3.87882812 -11.62585938 3.75765625 -10.91796875 3.6328125 C-9.56638672 3.38144531 -9.56638672 3.38144531 -8.1875 3.125 C-7.29417969 2.96257813 -6.40085937 2.80015625 -5.48046875 2.6328125 C-2.77272154 2.08811551 -2.77272154 2.08811551 0 0 Z " fill="#B03E2B" transform="translate(86,56)"/>
<path d="M0 0 C4.62 0.66 9.24 1.32 14 2 C14 2.33 14 2.66 14 3 C8.72 3 3.44 3 -2 3 C-1.34 2.01 -0.68 1.02 0 0 Z " fill="#2A292B" transform="translate(46,159)"/>
<path d="M0 0 C0 1.32 0 2.64 0 4 C-2.64 3.67 -5.28 3.34 -8 3 C-5.22569089 1.15046059 -3.35957737 0 0 0 Z " fill="#37110A" transform="translate(105,72)"/>
<path d="M0 0 C2.97 0.33 5.94 0.66 9 1 C9 1.33 9 1.66 9 2 C7.88625 2.309375 6.7725 2.61875 5.625 2.9375 C2.2054845 3.82326483 2.2054845 3.82326483 0 5 C0 3.35 0 1.7 0 0 Z " fill="#E0E1E1" transform="translate(117,159)"/>
<path d="M0 0 C0.99 0 1.98 0 3 0 C3.33 3.63 3.66 7.26 4 11 C3.67 11 3.34 11 3 11 C2.01 7.37 1.02 3.74 0 0 Z " fill="#25262B" transform="translate(5,93)"/>
<path d="M0 0 C0.33 0 0.66 0 1 0 C1.33 2.97 1.66 5.94 2 9 C-1.875 4.25 -1.875 4.25 -3 2 C-2.01 2 -1.02 2 0 2 C0 1.34 0 0.68 0 0 Z " fill="#1C0808" transform="translate(121,81)"/>
<path d="M0 0 C5.75 1.625 5.75 1.625 8 5 C4.17902761 4.46930939 1.93828597 3.50298434 -1 1 C-0.67 0.67 -0.34 0.34 0 0 Z " fill="#D8DBE0" transform="translate(132,5)"/>
<path d="M0 0 C2.475 0.495 2.475 0.495 5 1 C5 1.99 5 2.98 5 4 C3.35 3.67 1.7 3.34 0 3 C0 2.01 0 1.02 0 0 Z " fill="#2E3030" transform="translate(111,157)"/>
<path d="M0 0 C2.81519043 1.40759521 3.61291638 3.22583277 5 6 C4.67 6.99 4.34 7.98 4 9 C0 4.5 0 4.5 0 0 Z " fill="#B1B8C4" transform="translate(9,144)"/>
</svg>
