<?xml version="1.0" encoding="UTF-8"?>
<svg version="1.1" xmlns="http://www.w3.org/2000/svg" width="187" height="205">
<path d="M0 0 C61.71 0 123.42 0 187 0 C187 67.65 187 135.3 187 205 C125.29 205 63.58 205 0 205 C0 137.35 0 69.7 0 0 Z " fill="#3C5CA1" transform="translate(0,0)"/>
<path d="M0 0 C61.71 0 123.42 0 187 0 C187 31.35 187 62.7 187 95 C181.35116372 87.93895465 181.70677676 83.32173068 182.625 74.5625 C183.19713414 68.47642312 182.4217553 63.61079941 180 58 C179.67 57.67 179.34 57.34 179 57 C178.90106099 55.58218535 178.86920531 54.1595424 178.8671875 52.73828125 C178.86589844 51.86623047 178.86460937 50.99417969 178.86328125 50.09570312 C178.86714844 49.17724609 178.87101563 48.25878906 178.875 47.3125 C178.87113281 46.41337891 178.86726562 45.51425781 178.86328125 44.58789062 C178.87013176 39.91927142 179.21740807 35.61017793 180 31 C179.17020292 28.08921756 179.17020292 28.08921756 177 26 C173.40080577 25.10407917 173.40080577 25.10407917 170 25 C169.731875 24.071875 169.46375 23.14375 169.1875 22.1875 C167.84078324 18.46958574 167.84078324 18.46958574 165 16 C163.00714063 15.62633887 161.00636471 15.29259485 159 15 C158.01 14.34 157.02 13.68 156 13 C152.6769954 13.01953647 152.6769954 13.01953647 148.875 13.4375 C140.15307284 14.15607071 131.70837569 13.69978019 123 13 C121.88625 12.92652344 120.7725 12.85304688 119.625 12.77734375 C115.13823014 12.44918904 112.013529 12.05154018 108 10 C102.98728035 9.55243575 99.09382816 10.16224118 94.25 11.5 C88.1425916 13.14938927 82.30490041 13.55662958 76 13 C75.505 12.505 75.505 12.505 75 12 C73.5202609 11.84231366 72.03355576 11.74896288 70.546875 11.68359375 C69.62374512 11.64145752 68.70061523 11.59932129 67.74951172 11.5559082 C66.75967285 11.5168335 65.76983398 11.47775879 64.75 11.4375 C63.24397217 11.37598755 63.24397217 11.37598755 61.70751953 11.31323242 C58.80524433 11.20020235 55.90283701 11.0974247 53 11 C51.70320313 10.95617188 50.40640625 10.91234375 49.0703125 10.8671875 C42.91481339 10.76183666 37.31473306 11.40393679 31.27734375 12.5546875 C24.88818553 13.42282104 18.43371489 13.14696303 12 13 C12.34933594 14.07378906 12.69867188 15.14757812 13.05859375 16.25390625 C13.51852249 17.69001026 13.97814142 19.12621352 14.4375 20.5625 C14.66759766 21.26697266 14.89769531 21.97144531 15.13476562 22.69726562 C16.98298118 28.50976961 18.2206022 34.17041308 17.9375 40.3125 C17.5733503 44.03669837 17.5733503 44.03669837 20 46 C20.75407101 48.30657014 21.411438 50.645752 22 53 C22.268125 54.03125 22.53625 55.0625 22.8125 56.125 C23.05386241 59.82589025 22.03232442 60.91647329 20 64 C16.77180777 70.54861852 15.52950526 75.70733152 16 83 C14.68 83 13.36 83 12 83 C11.11443256 84.68973726 11.11443256 84.68973726 11 87 C11.66 87.928125 12.32 88.85625 13 89.8125 C15 93 15 93 14.9375 96.625 C14 100 14 100 12.375 101.9375 C10.53858151 104.69212773 10.95049902 106.74980866 11.47265625 109.9296875 C12.00799702 112.28569836 12.00799702 112.28569836 13.5625 115.4375 C15.89807909 121.22567428 15.24126881 126.49941371 14.3125 132.5625 C13.80156903 136.58695625 14.4807109 139.24448554 16.2109375 142.8828125 C18.90171136 150.10261166 18.31319635 158.5579468 18.51757812 166.16992188 C18.55173828 167.11802734 18.58589844 168.06613281 18.62109375 169.04296875 C18.6461499 169.89914795 18.67120605 170.75532715 18.69702148 171.63745117 C19.01863522 174.1453127 19.74285533 175.82365278 21 178 C22.11375 177.938125 23.2275 177.87625 24.375 177.8125 C25.57125 177.874375 26.7675 177.93625 28 178 C28.66 178.99 29.32 179.98 30 181 C33.0759458 181.33434194 35.20489043 181.39755478 38 180 C40.78863007 178.60568496 42.92078868 178.74339906 46 179 C46.88751953 179.48146484 46.88751953 179.48146484 47.79296875 179.97265625 C53.30159225 182.53684737 61.06791627 182.53748904 67 181.4375 C70.48806386 180.92882402 71.86034585 181.50866428 75 183 C80.49138473 184.8411055 80.49138473 184.8411055 86 184 C88.67298895 183.90176636 91.32396139 183.95539936 94 184 C93.67 184.66 93.34 185.32 93 186 C86.17545244 188.27484919 77.08364793 187.69459302 70.125 186 C65.38277388 184.86476421 60.78839579 184.80848685 55.9375 184.8125 C54.7920874 184.8115332 54.7920874 184.8115332 53.62353516 184.81054688 C50.01377715 184.51808409 50.01377715 184.51808409 47 186 C44.67038557 186.35840222 42.33634657 186.68848712 40 187 C39.154375 187.20625 38.30875 187.4125 37.4375 187.625 C34.42497812 188.0884649 31.97664372 187.58238682 29 187 C28.01 187 27.02 187 26 187 C26.57944932 188.99863756 26.57944932 188.99863756 28 191 C30.97503122 192.15835673 30.97503122 192.15835673 34 193 C34.99 193.99 34.99 193.99 36 195 C39.9371596 196.26286251 43.90418574 197.39767437 48 198 C48.33 197.67 48.66 197.34 49 197 C51.33333333 196.66666667 53.66666667 196.33333333 56 196 C56.33 195.67 56.66 195.34 57 195 C59.61709461 194.8705005 62.19459731 194.81026749 64.8125 194.8125 C65.9722937 194.8115332 65.9722937 194.8115332 67.15551758 194.81054688 C72.59389742 194.8602176 77.67624375 195.51853156 83.01953125 196.54296875 C91.36881302 197.82326491 98.4981339 198.02183377 106 194 C109.625 193.5625 109.625 193.5625 113 194 C113.59723877 194.6595166 114.19447754 195.3190332 114.80981445 195.99853516 C117.75204472 198.68724363 119.4787196 198.48941602 123.41796875 198.4609375 C125.30032227 198.45513672 125.30032227 198.45513672 127.22070312 198.44921875 C128.52974609 198.42472656 129.83878906 198.40023437 131.1875 198.375 C132.47720703 198.37371094 133.76691406 198.37242187 135.09570312 198.37109375 C141.18260375 198.31510795 146.78476617 198.03338036 152.67358398 196.49902344 C157.83763708 195.39131806 163.17761788 195.27485998 168.4375 194.9375 C170.76978231 194.78370918 173.10183268 194.62634523 175.43359375 194.46484375 C176.96584595 194.36610962 176.96584595 194.36610962 178.52905273 194.26538086 C181.00008163 194.14543578 181.00008163 194.14543578 183 193 C184.3796326 186.51676411 184.49148212 180.96723072 181.69921875 174.953125 C180.6074095 171.90337849 180.82752436 168.98510996 180.9921875 165.78515625 C180.99476563 165.19605469 180.99734375 164.60695312 181 164 C180.67 163.67 180.34 163.34 180 163 C178.38054135 156.06738592 177.69638924 149.99209407 179 143 C179.185625 141.2365625 179.185625 141.2365625 179.375 139.4375 C180.50292765 133.2338979 181.90583798 129.82062152 187 126 C187 152.07 187 178.14 187 205 C125.29 205 63.58 205 0 205 C0 137.35 0 69.7 0 0 Z " fill="#707EA6" transform="translate(0,0)"/>
<path d="M0 0 C5.08907739 2.6845295 9.2013657 5.8528597 11.4140625 11.2734375 C11.4140625 12.2634375 11.4140625 13.2534375 11.4140625 14.2734375 C12.0740625 14.2734375 12.7340625 14.2734375 13.4140625 14.2734375 C13.7440625 12.9534375 14.0740625 11.6334375 14.4140625 10.2734375 C17.28130936 10.84688687 18.275514 11.134889 20.4140625 13.2734375 C21.69699132 21.15428597 19.24681356 28.69016403 15.1015625 35.3359375 C12.4140625 38.2734375 12.4140625 38.2734375 9.2890625 38.8359375 C6.4140625 38.2734375 6.4140625 38.2734375 3.4140625 36.2734375 C3.23907855 32.73337767 3.4868057 29.29039717 3.69921875 25.75390625 C3.35898943 21.60124429 2.34208409 20.16492406 -0.5859375 17.2734375 C-6.09551763 14.07788103 -11.2777079 13.19356938 -17.5859375 14.2734375 C-31.83356118 19.24222568 -41.63547252 29.98925169 -48.7109375 42.9609375 C-57.1308319 60.9257984 -61.4157465 83.35185944 -55.62890625 102.75 C-53.36575157 108.22564764 -50.50408361 112.08418691 -45.4609375 115.2109375 C-35.8701207 118.7553698 -27.74148455 117.86552116 -18.41015625 113.85546875 C-11.87887386 110.19686658 -7.95254504 105.48332865 -3.7109375 99.4609375 C-3.21335937 98.76806641 -2.71578125 98.07519531 -2.203125 97.36132812 C-0.99032914 95.67041081 0.21287758 93.97262258 1.4140625 92.2734375 C6.74062409 92.99018446 9.90628915 94.47861803 14.4140625 97.2734375 C13.88929955 103.65278472 12.72620591 109.18643372 10.6015625 115.2109375 C10.33239014 115.99146484 10.06321777 116.77199219 9.78588867 117.57617188 C9.00786802 119.81330088 8.21435719 122.04419422 7.4140625 124.2734375 C6.83011719 125.91505859 6.83011719 125.91505859 6.234375 127.58984375 C3.82801881 133.99746663 3.82801881 133.99746663 0.4140625 136.2734375 C-4.93139205 136.60071023 -4.93139205 136.60071023 -7.5859375 135.2734375 C-7.5859375 134.2834375 -7.5859375 133.2934375 -7.5859375 132.2734375 C-9.32230469 133.01400391 -9.32230469 133.01400391 -11.09375 133.76953125 C-12.63267064 134.41700396 -14.17174111 135.0641206 -15.7109375 135.7109375 C-16.47148438 136.03642578 -17.23203125 136.36191406 -18.015625 136.69726562 C-30.65558106 141.98207484 -43.16279755 141.39249151 -55.91015625 136.8125 C-66.18078471 132.51215184 -72.79858168 124.88799173 -77.09375 114.6953125 C-84.01423513 95.79250168 -84.3396442 73.33488602 -77.5859375 54.2734375 C-77.2353125 53.16742188 -76.8846875 52.06140625 -76.5234375 50.921875 C-69.12530972 29.3953782 -52.21246772 11.18307893 -31.8984375 1.1484375 C-21.38192655 -3.82993348 -10.9271383 -4.54491593 0 0 Z " fill="#04060A" transform="translate(122.5859375,28.7265625)"/>
<path d="M0 0 C0.33 0 0.66 0 1 0 C1.06058594 0.88042969 1.12117187 1.76085937 1.18359375 2.66796875 C1.26738281 3.82941406 1.35117187 4.99085937 1.4375 6.1875 C1.51871094 7.33605469 1.59992187 8.48460938 1.68359375 9.66796875 C1.95429059 12.51864045 2.43507966 15.19954021 3 18 C2.95875 19.010625 2.9175 20.02125 2.875 21.0625 C3.02074883 25.65358817 4.08661522 29.62168207 5.265625 34.04296875 C6.17377664 37.69972828 6.63978176 41.25373034 7 45 C7.99 45 8.98 45 10 45 C9.505 43.515 9.505 43.515 9 42 C12 43 12 43 13.2265625 45.1484375 C14.16142674 48.59515918 13.84546257 51.09254373 13.375 54.625 C12.81292724 60.72476685 13.47553065 64.84985958 15.9921875 70.40234375 C18.86392005 77.80429005 18.30709727 86.33079351 18.51757812 94.16992188 C18.56881836 95.59208008 18.56881836 95.59208008 18.62109375 97.04296875 C18.6461499 97.89914795 18.67120605 98.75532715 18.69702148 99.63745117 C19.01863522 102.1453127 19.74285533 103.82365278 21 106 C22.11375 105.938125 23.2275 105.87625 24.375 105.8125 C26.169375 105.9053125 26.169375 105.9053125 28 106 C28.66 106.99 29.32 107.98 30 109 C33.0759458 109.33434194 35.20489043 109.39755478 38 108 C40.78863007 106.60568496 42.92078868 106.74339906 46 107 C46.59167969 107.32097656 47.18335938 107.64195312 47.79296875 107.97265625 C53.30159225 110.53684737 61.06791627 110.53748904 67 109.4375 C70.48806386 108.92882402 71.86034585 109.50866428 75 111 C80.49138473 112.8411055 80.49138473 112.8411055 86 112 C88.67298895 111.90176636 91.32396139 111.95539936 94 112 C93.67 112.66 93.34 113.32 93 114 C86.17545244 116.27484919 77.08364793 115.69459302 70.125 114 C65.38277388 112.86476421 60.78839579 112.80848685 55.9375 112.8125 C54.7920874 112.8115332 54.7920874 112.8115332 53.62353516 112.81054688 C50.01377715 112.51808409 50.01377715 112.51808409 47 114 C44.67038557 114.35840222 42.33634657 114.68848712 40 115 C38.7315625 115.309375 38.7315625 115.309375 37.4375 115.625 C34.42497812 116.0884649 31.97664372 115.58238682 29 115 C28.01 115 27.02 115 26 115 C26.57944932 116.99863756 26.57944932 116.99863756 28 119 C30.97503122 120.15835673 30.97503122 120.15835673 34 121 C34.99 121.99 34.99 121.99 36 123 C39.9371596 124.26286251 43.90418574 125.39767437 48 126 C48.33 125.67 48.66 125.34 49 125 C51.33333333 124.66666667 53.66666667 124.33333333 56 124 C56.33 123.67 56.66 123.34 57 123 C59.61709461 122.8705005 62.19459731 122.81026749 64.8125 122.8125 C65.9722937 122.8115332 65.9722937 122.8115332 67.15551758 122.81054688 C72.59389742 122.8602176 77.67624375 123.51853156 83.01953125 124.54296875 C91.36881302 125.82326491 98.4981339 126.02183377 106 122 C109.625 121.5625 109.625 121.5625 113 122 C113.59723877 122.6595166 114.19447754 123.3190332 114.80981445 123.99853516 C117.75204472 126.68724363 119.4787196 126.48941602 123.41796875 126.4609375 C124.67287109 126.45707031 125.92777344 126.45320313 127.22070312 126.44921875 C128.52974609 126.42472656 129.83878906 126.40023437 131.1875 126.375 C132.47720703 126.37371094 133.76691406 126.37242187 135.09570312 126.37109375 C141.18260375 126.31510795 146.78476617 126.03338036 152.67358398 124.49902344 C157.83763708 123.39131806 163.17761788 123.27485998 168.4375 122.9375 C170.76978231 122.78370918 173.10183268 122.62634523 175.43359375 122.46484375 C176.96584595 122.36610962 176.96584595 122.36610962 178.52905273 122.26538086 C181.00008163 122.14543578 181.00008163 122.14543578 183 121 C184.3796326 114.51676411 184.49148212 108.96723072 181.69921875 102.953125 C180.6074095 99.90337849 180.82752436 96.98510996 180.9921875 93.78515625 C180.99476563 93.19605469 180.99734375 92.60695313 181 92 C180.67 91.67 180.34 91.34 180 91 C178.38054135 84.06738592 177.69638924 77.99209407 179 71 C179.185625 69.2365625 179.185625 69.2365625 179.375 67.4375 C180.50292765 61.2338979 181.90583798 57.82062152 187 54 C187 80.07 187 106.14 187 133 C125.29 133 63.58 133 0 133 C0 89.11 0 45.22 0 0 Z " fill="#707EA6" transform="translate(0,72)"/>
<path d="M0 0 C6.48067314 1.34504537 6.48067314 1.34504537 8.75 4.20703125 C10.24361721 7.5443322 10.133825 9.39333332 9.6875 13 C8.1764527 26.36439654 8.1764527 26.36439654 11.26171875 39.19921875 C13.96288878 45.78778692 12.75804373 52.5906219 11.86328125 59.4375 C11.73325942 63.14295492 11.73325942 63.14295492 13.94921875 66.453125 C17.05960894 72.10813201 16.59737685 78.34831537 16.52148438 84.62841797 C16.49989947 86.75992737 16.52142531 88.88811987 16.546875 91.01953125 C16.54423398 92.38281989 16.53911366 93.74610648 16.53125 95.109375 C16.52673828 96.33624023 16.52222656 97.56310547 16.51757812 98.82714844 C15.90765399 102.56609845 14.86233753 103.62904646 12 106 C9.24772503 110.79594183 8.74561572 115.40875815 8.96875 120.84765625 C9 123 9 123 8.375 126.5 C7.89804819 130.95155022 8.66718257 134.7459389 10 139 C10.33 139.33 10.66 139.66 11 140 C10.99407092 141.35479457 10.94462354 142.70948262 10.875 144.0625 C10.81643544 147.44859615 11.13958644 149.7477631 12.5625 152.8125 C14.76623552 157.98240087 14.30955726 163.61258091 13 169 C9.67245011 171.21836659 8.24759007 171.32930175 4.3359375 171.5625 C2.65177734 171.67464844 2.65177734 171.67464844 0.93359375 171.7890625 C-0.24074219 171.85867187 -1.41507813 171.92828125 -2.625 172 C-11.59915025 172.44040008 -11.59915025 172.44040008 -20.41015625 174.0390625 C-26.77687427 175.60809764 -33.29343078 175.36848419 -39.8125 175.375 C-41.12154297 175.39949219 -42.43058594 175.42398438 -43.77929688 175.44921875 C-45.66165039 175.45501953 -45.66165039 175.45501953 -47.58203125 175.4609375 C-48.71874268 175.46915527 -49.8554541 175.47737305 -51.02661133 175.48583984 C-54.64329185 174.89488868 -55.59458668 173.65624085 -58 171 C-61.98576517 170.48332674 -64.25215663 170.59907286 -67.8125 172.5078125 C-74.80724833 175.78231478 -83.40364119 174.42045707 -90.8125 173 C-95.97711883 172.01326388 -100.94758714 171.80813204 -106.1875 171.8125 C-106.94329346 171.81185547 -107.69908691 171.81121094 -108.4777832 171.81054688 C-112.0342435 171.5276964 -112.0342435 171.5276964 -115 173 C-117.32961443 173.35840222 -119.66365343 173.68848712 -122 174 C-122.9075 174.226875 -123.815 174.45375 -124.75 174.6875 C-127 175 -127 175 -130 173 C-131.010625 172.67 -132.02125 172.34 -133.0625 172 C-136 171 -136 171 -138 169 C-139.010625 168.71125 -140.02125 168.4225 -141.0625 168.125 C-142.5165625 167.568125 -142.5165625 167.568125 -144 167 C-144.875 164.875 -144.875 164.875 -145 163 C-140.31388063 162.15649851 -136.66253319 162.11189844 -132 163 C-131.67 162.67 -131.34 162.34 -131 162 C-128.66666667 161.66666667 -126.33333333 161.33333333 -124 161 C-123.67 160.67 -123.34 160.34 -123 160 C-120.34144244 159.8711184 -117.72177485 159.81025541 -115.0625 159.8125 C-114.28342285 159.81185547 -113.5043457 159.81121094 -112.70166016 159.81054688 C-107.79679427 159.85546136 -103.384173 160.38895787 -98.61328125 161.55078125 C-92.21184209 162.65117812 -84.16726644 163.05575548 -78 161 C-83.57830016 160.87530901 -83.57830016 160.87530901 -89 162 C-87.098933 159.43528779 -86.0581593 159.01076489 -82.85546875 158.41796875 C-81.64503906 158.34191406 -80.43460937 158.26585937 -79.1875 158.1875 C-77.98480469 158.09855469 -76.78210938 158.00960937 -75.54296875 157.91796875 C-71.88599768 158.00263952 -69.3302958 158.50744407 -66 160 C-65.34 160.99 -64.68 161.98 -64 163 C-61.059984 163.45163379 -61.059984 163.45163379 -57.59375 163.36328125 C-56.29179688 163.36263672 -54.98984375 163.36199219 -53.6484375 163.36132812 C-52.62508301 163.34888062 -52.62508301 163.34888062 -51.58105469 163.33618164 C-49.53539501 163.31290278 -47.49106813 163.31557853 -45.4453125 163.32226562 C-38.80888183 163.28641065 -32.65410131 162.94271793 -26.18994141 161.4387207 C-22.72473562 160.74452061 -19.46978368 160.84766573 -15.9375 160.9375 C-13.62551638 160.9906225 -11.31249952 161.02088709 -9 161 C-8.67 160.67 -8.34 160.34 -8 160 C-5.68047431 159.71898054 -3.36114486 159.55217375 -1.03125 159.37890625 C-0.3609375 159.25386719 0.309375 159.12882813 1 159 C2.99084898 155.01830204 2.39571521 151.25972223 1.10546875 147.15234375 C0.55826172 145.62287109 0.55826172 145.62287109 0 144.0625 C-1.81006093 138.99939249 -2.18662906 135.31892826 -2 130 C-2.65670613 128.32938356 -3.32438252 126.6630584 -4 125 C-5.76474103 116.94763859 -4.82801087 111.4042286 -1.34375 104.01953125 C1.73421648 97.10305425 3.14803222 89.49731649 4 82 C3.34 82 2.68 82 2 82 C1.68003176 76.45388388 1.544315 73.46359312 5 69 C5.56129536 64.18889689 5.4163966 61.3753475 3 57.1875 C-0.33111802 51.2079666 0.551554 44.73552061 1.625 38.1875 C2.15517903 33.68097828 0.66906629 30.5874894 -1.05859375 26.48828125 C-2.34914525 21.70627924 -2.29046037 17.17942227 -2.25 12.25 C-2.25773438 11.29222656 -2.26546875 10.33445312 -2.2734375 9.34765625 C-2.27085937 8.43371094 -2.26828125 7.51976562 -2.265625 6.578125 C-2.26336914 5.74700195 -2.26111328 4.91587891 -2.25878906 4.05957031 C-2 2 -2 2 0 0 Z " fill="#576280" transform="translate(171,24)"/>
<path d="M0 0 C6.48067314 1.34504537 6.48067314 1.34504537 8.75 4.20703125 C10.24361721 7.5443322 10.133825 9.39333332 9.6875 13 C8.1764527 26.36439654 8.1764527 26.36439654 11.26171875 39.19921875 C13.96288878 45.78778692 12.75804373 52.5906219 11.86328125 59.4375 C11.73325942 63.14295492 11.73325942 63.14295492 13.94921875 66.453125 C17.05960894 72.10813201 16.59737685 78.34831537 16.52148438 84.62841797 C16.49989947 86.75992737 16.52142531 88.88811987 16.546875 91.01953125 C16.54423398 92.38281989 16.53911366 93.74610648 16.53125 95.109375 C16.52673828 96.33624023 16.52222656 97.56310547 16.51757812 98.82714844 C15.90765399 102.56609845 14.86233753 103.62904646 12 106 C9.24772503 110.79594183 8.74561572 115.40875815 8.96875 120.84765625 C9 123 9 123 8.375 126.5 C7.89804819 130.95155022 8.66718257 134.7459389 10 139 C10.33 139.33 10.66 139.66 11 140 C10.94921875 141.8125 10.94921875 141.8125 10.6875 144 C10.60886719 144.721875 10.53023437 145.44375 10.44921875 146.1875 C10.30097656 146.785625 10.15273437 147.38375 10 148 C9.34 148.33 8.68 148.66 8 149 C7.01 148.67 6.02 148.34 5 148 C4.67 149.98 4.34 151.96 4 154 C-0.09097627 146.26031517 -2.30585451 138.71685351 -2 130 C-2.65670613 128.32938356 -3.32438252 126.6630584 -4 125 C-5.76474103 116.94763859 -4.82801087 111.4042286 -1.34375 104.01953125 C1.73421648 97.10305425 3.14803222 89.49731649 4 82 C3.34 82 2.68 82 2 82 C1.68003176 76.45388388 1.544315 73.46359312 5 69 C5.56129536 64.18889689 5.4163966 61.3753475 3 57.1875 C-0.33111802 51.2079666 0.551554 44.73552061 1.625 38.1875 C2.15517903 33.68097828 0.66906629 30.5874894 -1.05859375 26.48828125 C-2.34914525 21.70627924 -2.29046037 17.17942227 -2.25 12.25 C-2.25773438 11.29222656 -2.26546875 10.33445312 -2.2734375 9.34765625 C-2.27085937 8.43371094 -2.26828125 7.51976562 -2.265625 6.578125 C-2.26336914 5.74700195 -2.26111328 4.91587891 -2.25878906 4.05957031 C-2 2 -2 2 0 0 Z " fill="#576281" transform="translate(171,24)"/>
<path d="M0 0 C0.7734375 0.495 0.7734375 0.495 1.5625 1 C4.11999522 2.2369191 4.11999522 2.2369191 7.625 1.9375 C8.73875 1.958125 9.8525 1.97875 11 2 C11.99 3.485 11.99 3.485 13 5 C16.0759458 5.33434194 18.20489043 5.39755478 21 4 C23.78863007 2.60568496 25.92078868 2.74339906 29 3 C29.59167969 3.32097656 30.18335937 3.64195312 30.79296875 3.97265625 C36.30159225 6.53684737 44.06791627 6.53748904 50 5.4375 C53.48806386 4.92882402 54.86034585 5.50866428 58 7 C63.49138473 8.8411055 63.49138473 8.8411055 69 8 C71.67298895 7.90176636 74.32396139 7.95539936 77 8 C76.67 8.66 76.34 9.32 76 10 C69.17545244 12.27484919 60.08364793 11.69459302 53.125 10 C48.38277388 8.86476421 43.78839579 8.80848685 38.9375 8.8125 C37.7920874 8.8115332 37.7920874 8.8115332 36.62353516 8.81054688 C33.01377715 8.51808409 33.01377715 8.51808409 30 10 C27.67038557 10.35840222 25.33634657 10.68848712 23 11 C22.0925 11.226875 21.185 11.45375 20.25 11.6875 C18 12 18 12 15 10 C14.01 9.67 13.02 9.34 12 9 C9 8 9 8 6 6 C4.34450469 5.61500109 2.6777567 5.27206865 1 5 C0.67 3.35 0.34 1.7 0 0 Z " fill="#EBEBEE" transform="translate(17,176)"/>
<path d="M0 0 C0.33 0 0.66 0 1 0 C1.06058594 0.88042969 1.12117187 1.76085937 1.18359375 2.66796875 C1.26738281 3.82941406 1.35117187 4.99085937 1.4375 6.1875 C1.51871094 7.33605469 1.59992187 8.48460938 1.68359375 9.66796875 C1.95429059 12.51864045 2.43507966 15.19954021 3 18 C2.95875 19.010625 2.9175 20.02125 2.875 21.0625 C2.98684106 24.58549353 3.4847193 26.76046559 4.5 30.0625 C6.10061417 36.13406047 6.40470104 42.0053283 6.5 48.25 C6.53029297 49.18465088 6.56058594 50.11930176 6.59179688 51.08227539 C6.59640378 57.55901034 5.26128484 62.01904725 1 67 C0.67 67 0.34 67 0 67 C0 44.89 0 22.78 0 0 Z " fill="#566281" transform="translate(0,72)"/>
<path d="M0 0 C5.19866375 0.63014106 11.25185112 2.25185112 15 6 C16.98356483 6.71408334 18.98315437 7.38617742 21 8 C17.41173687 9.24209108 14.66530437 8.85783719 11 8 C10.01 7.34 9.02 6.68 8 6 C4.6769954 6.01953647 4.6769954 6.01953647 0.875 6.4375 C-7.84692716 7.15607071 -16.29162431 6.69978019 -25 6 C-26.11375 5.92652344 -27.2275 5.85304688 -28.375 5.77734375 C-35.48654715 5.2572173 -35.48654715 5.2572173 -38.04296875 3.9765625 C-42.18311814 1.91061969 -47.69376792 2.56458931 -52 4 C-52.33 3.34 -52.66 2.68 -53 2 C-50.13074465 0.56537233 -47.63679414 0.82975617 -44.4375 0.8125 C-43.26058594 0.79832031 -42.08367187 0.78414063 -40.87109375 0.76953125 C-37.870969 0.94814614 -35.52885439 1.29150414 -32.66015625 2 C-27.73761181 3.17878531 -23.0419524 3.26222472 -18 3.1875 C-17.14277344 3.18685547 -16.28554687 3.18621094 -15.40234375 3.18554688 C-11.38122581 3.5528193 -11.38122581 3.5528193 -8 2 C-5.66666667 1.66666667 -3.33333333 1.33333333 -1 1 C-0.67 0.67 -0.34 0.34 0 0 Z " fill="#E6E9EE" transform="translate(148,7)"/>
<path d="M0 0 C0.66 0 1.32 0 2 0 C5.21561551 8.40653768 7.63513837 15.55400879 6.98046875 24.70703125 C6.73377646 27.20114866 6.73377646 27.20114866 9 29 C9.75407101 31.30657014 10.411438 33.645752 11 36 C11.268125 37.03125 11.53625 38.0625 11.8125 39.125 C12.05119526 42.78499392 11.04634715 44.0035631 9 47 C7.92409287 49.30620451 6.96934927 51.64586606 6 54 C4.28512829 48.85538486 4.54597948 43.22470057 5.625 37.9375 C6.15912257 33.75353988 5.2322655 30.00908296 4 26 C3.67 25.67 3.34 25.34 3 25 C3.00590888 23.45778169 3.05518209 21.91564846 3.125 20.375 C3.19376742 15.53377391 1.97064519 12.43395168 0 8 C-0.2460273 5.27440341 -0.14442734 2.74411942 0 0 Z " fill="#E6E8F0" transform="translate(11,17)"/>
<path d="M0 0 C3.6875 0.75 3.6875 0.75 6.5 1.8125 C10.87822839 3.10021423 15.14894388 3.11752903 19.6875 2.75 C20.0175 2.42 20.3475 2.09 20.6875 1.75 C27.53413832 1.36245443 33.96887832 2.49585729 40.6875 3.75 C35.44113548 6.66464696 30.56940508 6.87290172 24.63671875 6.84765625 C23.97791214 6.8462413 23.31910553 6.84482635 22.64033508 6.84336853 C20.55184238 6.837805 18.46345989 6.82525947 16.375 6.8125 C14.95247551 6.80748028 13.52994934 6.8029182 12.10742188 6.79882812 C8.63407923 6.78784757 5.16080039 6.77060835 1.6875 6.75 C1.42195313 6.10546875 1.15640625 5.4609375 0.8828125 4.796875 C0.29113281 3.78367188 0.29113281 3.78367188 -0.3125 2.75 C-3.37158413 1.93415432 -3.37158413 1.93415432 -6.3125 1.75 C-3.3125 -0.25 -3.3125 -0.25 0 0 Z " fill="#D7DBE7" transform="translate(105.3125,181.25)"/>
<path d="M0 0 C1.29222745 3.87668235 0.64738884 5.62905894 -1.0625 9.25 C-1.371875 9.8275 -1.68125 10.405 -2 11 C-1.319375 11.845625 -0.63875 12.69125 0.0625 13.5625 C2.41687619 17.73961904 2.26540056 19.444558 1 24 C0.46375 24.639375 -0.0725 25.27875 -0.625 25.9375 C-2.46141849 28.69212773 -2.04950098 30.74980866 -1.52734375 33.9296875 C-0.99200298 36.28569836 -0.99200298 36.28569836 0.5625 39.4375 C3.14166772 45.82935043 2.60774036 51.64363287 0 58 C-1.09846577 54.70460269 -0.82079691 53.41347149 -0.25 50.0625 C0.41034759 44.03981174 -1.34325803 40.23019671 -3.84765625 34.83984375 C-5.51974106 30.71914662 -5.46861545 27.35886748 -5 23 C-4.81148873 21.10426695 -4.62402674 19.20842934 -4.4375 17.3125 C-4.33824219 16.38695313 -4.23898437 15.46140625 -4.13671875 14.5078125 C-3.87675065 11.84303772 -3.87675065 11.84303772 -4.75 8.6875 C-5.04904462 5.47277028 -4.55247187 5.02745903 -2.5625 2.625 C-1.2940625 1.325625 -1.2940625 1.325625 0 0 Z " fill="#D3D9E8" transform="translate(13,76)"/>
<path d="M0 0 C2.02221737 -0.01192977 4.04141144 -0.06116808 6.06298828 -0.11157227 C7.97917969 -0.12220703 7.97917969 -0.12220703 9.93408203 -0.13305664 C11.10261719 -0.14651123 12.27115234 -0.15996582 13.47509766 -0.17382812 C16.52783203 0.42553711 16.52783203 0.42553711 18.93994141 2.96044922 C19.46394531 3.77392822 19.98794922 4.58740723 20.52783203 5.42553711 C19.22845703 5.20897461 19.22845703 5.20897461 17.90283203 4.98803711 C7.46217455 2.93954227 7.46217455 2.93954227 -2.47216797 4.42553711 C-7.6491703 4.73006666 -11.61545371 4.01140299 -16.47216797 2.42553711 C-11.4316034 -0.6752161 -5.73592358 0.01604552 0 0 Z " fill="#DFE1EB" transform="translate(62.47216796875,6.574462890625)"/>
<path d="M0 0 C0.7940625 0.07863281 1.588125 0.15726563 2.40625 0.23828125 C4.5 0.6875 4.5 0.6875 6.5 2.6875 C8.40223599 3.18394452 8.40223599 3.18394452 10.5 3.375 C11.20125 3.46136719 11.9025 3.54773438 12.625 3.63671875 C14.5929304 3.83739516 14.5929304 3.83739516 16.5 2.6875 C19.1723621 2.55334528 21.82250488 2.64431459 24.5 2.6875 C24.17 3.3475 23.84 4.0075 23.5 4.6875 C15.72809537 7.27813488 6.04558338 6.07530043 -1.8046875 4.19921875 C-7.61208031 3.09665577 -13.60566721 2.98614619 -19.5 2.6875 C-19.5 2.3575 -19.5 2.0275 -19.5 1.6875 C-18.58476563 1.62691406 -17.66953125 1.56632813 -16.7265625 1.50390625 C-14.94378906 1.37822266 -14.94378906 1.37822266 -13.125 1.25 C-11.94164062 1.16878906 -10.75828125 1.08757812 -9.5390625 1.00390625 C-5.89552467 0.62456619 -3.7328142 -0.40600414 0 0 Z " fill="#E1E4E9" transform="translate(69.5,181.3125)"/>
<path d="M0 0 C2.85689594 4.28534391 2.34655647 7.96398073 1.5 12.9375 C1.335 13.618125 1.17 14.29875 1 15 C1.66 15 2.32 15 3 15 C5.45012657 23.734632 6.32968275 31.08528722 5.24438477 40.04858398 C4.68231376 45.43171765 5.80697125 48.24649353 8 53 C7.67 53.99 7.34 54.98 7 56 C2.35946083 48.314107 2.18750141 41.9562414 3.625 33.1875 C4.15826462 28.65475077 2.63189789 25.53923846 0.93359375 21.40234375 C-0.25839167 17.05832995 -0.21782503 13.10202244 -0.125 8.625 C-0.11597656 7.79355469 -0.10695312 6.96210937 -0.09765625 6.10546875 C-0.0742622 4.07018663 -0.03839725 2.03505436 0 0 Z " fill="#7789B0" transform="translate(169,29)"/>
<path d="M0 0 C6.43255401 -0.12086218 12.61773055 0.17648136 19 1 C14.41885535 3.54508036 10.1119571 4.12952121 4.91796875 4.09765625 C3.98662109 4.09443359 3.05527344 4.09121094 2.09570312 4.08789062 C1.13599609 4.07951172 0.17628906 4.07113281 -0.8125 4.0625 C-2.28106445 4.05573242 -2.28106445 4.05573242 -3.77929688 4.04882812 C-6.18626111 4.03708684 -8.59309857 4.02066419 -11 4 C-11 3.34 -11 2.68 -11 2 C-7.37 2 -3.74 2 0 2 C0 1.34 0 0.68 0 0 Z " fill="#F5F3F0" transform="translate(127,184)"/>
<path d="M0 0 C6.42641769 1.24535609 13.1129856 1.22693081 19.640625 1.51171875 C19.640625 1.84171875 19.640625 2.17171875 19.640625 2.51171875 C10.1560768 4.23618206 -0.50551017 4.93865116 -9.359375 0.51171875 C-15.44453556 0.27838588 -15.44453556 0.27838588 -21.359375 1.51171875 C-21.689375 0.85171875 -22.019375 0.19171875 -22.359375 -0.48828125 C-16.1143532 -3.61079215 -6.55629317 -1.76419339 0 0 Z " fill="#CBD2E3" transform="translate(117.359375,9.48828125)"/>
<path d="M0 0 C0.99 0.33 1.98 0.66 3 1 C2.89300781 1.75023437 2.78601563 2.50046875 2.67578125 3.2734375 C1.90683566 9.83841385 2.04411245 14.74079519 4.40625 20.94140625 C5 23 5 23 4 26 C-2.84012935 11.35681047 -2.84012935 11.35681047 -1 5 C-0.814375 4.071875 -0.62875 3.14375 -0.4375 2.1875 C-0.293125 1.465625 -0.14875 0.74375 0 0 Z " fill="#E1E6ED" transform="translate(168,131)"/>
<path d="M0 0 C2 2 2 2 2.01171875 4.28515625 C1.85123047 5.65994141 1.85123047 5.65994141 1.6875 7.0625 C1.57921875 8.03960937 1.4709375 9.01671875 1.359375 10.0234375 C1.24078125 11.00570312 1.1221875 11.98796875 1 13 C0.81173305 14.72908333 0.62415014 16.45824139 0.4375 18.1875 C0.293125 19.445625 0.14875 20.70375 0 22 C-3.868791 17.76850984 -3.868791 17.76850984 -4.4375 14.4375 C-4 12 -4 12 -2.5625 10.1875 C-0.23734192 6.93227869 -0.32975716 3.95708592 0 0 Z " fill="#CDD3E0" transform="translate(177,85)"/>
<path d="M0 0 C0.66 0.33 1.32 0.66 2 1 C2.48736475 7.70126536 1.07708804 12.06561592 -2 18 C-3.00496852 14.98509443 -3.10335303 12.95818308 -3.0625 9.8125 C-3.05347656 8.91144531 -3.04445313 8.01039062 -3.03515625 7.08203125 C-3.02355469 6.39496094 -3.01195312 5.70789062 -3 5 C-2.01 4.67 -1.02 4.34 0 4 C0 2.68 0 1.36 0 0 Z " fill="#E6E9EF" transform="translate(19,53)"/>
<path d="M0 0 C0.33 0.66 0.66 1.32 1 2 C-0.80794185 5.71103854 -2.76099833 7.57074874 -6 10 C-6.495 10.845625 -6.99 11.69125 -7.5 12.5625 C-9.11741962 15.19080689 -10.16592641 15.92500657 -13 17 C-11.51299286 12.17170572 -8.78716744 9.2512231 -5.375 5.6875 C-4.6015625 4.86282227 -4.6015625 4.86282227 -3.8125 4.02148438 C-2.54799382 2.67501946 -1.27485078 1.33667465 0 0 Z " fill="#080C1E" transform="translate(69,45)"/>
<path d="M0 0 C0.66 0 1.32 0 2 0 C5.3284547 6.17121215 6.50717296 10.09212392 5 17 C3.54851359 14.2232434 2.38091317 11.46693581 1.375 8.5 C0.98441406 7.37078125 0.98441406 7.37078125 0.5859375 6.21875 C0 4 0 4 0 0 Z " fill="#D5D8E4" transform="translate(170,161)"/>
<path d="M0 0 C1.29222745 3.87668235 0.64738884 5.62905894 -1.0625 9.25 C-1.371875 9.8275 -1.68125 10.405 -2 11 C-1.01 12.485 -1.01 12.485 0 14 C-0.99 14.33 -1.98 14.66 -3 15 C-5.02901001 10.94197998 -5.30073579 8.36675586 -4 4 C-1.9375 1.625 -1.9375 1.625 0 0 Z " fill="#E7E9EE" transform="translate(13,76)"/>
<path d="M0 0 C0.33 0 0.66 0 1 0 C1.58644929 7.6564213 0.16640113 13.06952364 -3 20 C-3.33 20.99 -3.66 21.98 -4 23 C-4.66 23 -5.32 23 -6 23 C-5.81824219 22.42894531 -5.63648438 21.85789063 -5.44921875 21.26953125 C-3.27440363 14.25435838 -1.58448337 7.16950633 0 0 Z " fill="#3B5387" transform="translate(137,126)"/>
<path d="M0 0 C0.77923828 0.00451172 1.55847656 0.00902344 2.36132812 0.01367188 C4.26175268 0.02533092 6.16213706 0.04326123 8.0625 0.0625 C8.0625 0.3925 8.0625 0.7225 8.0625 1.0625 C6.14192708 1.29036458 4.22135417 1.51822917 2.30078125 1.74609375 C0.02156575 2.03438636 0.02156575 2.03438636 -2.34375 2.625 C-5.28953225 3.12187893 -7.78465563 2.94654337 -10.75 2.625 C-11.72582031 2.52316406 -12.70164063 2.42132813 -13.70703125 2.31640625 C-14.81111328 2.19072266 -14.81111328 2.19072266 -15.9375 2.0625 C-15.9375 1.7325 -15.9375 1.4025 -15.9375 1.0625 C-10.57260405 0.15766363 -5.43432543 -0.06053662 0 0 Z " fill="#C1CCDB" transform="translate(162.9375,182.9375)"/>
<path d="M0 0 C1.93627769 -0.10807131 3.87427756 -0.1856225 5.8125 -0.25 C7.43091797 -0.31960937 7.43091797 -0.31960937 9.08203125 -0.390625 C12 0 12 0 13.88671875 2.015625 C14.25410156 2.67046875 14.62148437 3.3253125 15 4 C14.01 3.855625 13.02 3.71125 12 3.5625 C8.00590535 2.99074821 4.00467063 2.49180166 0 2 C0 1.34 0 0.68 0 0 Z " fill="#EAECF1" transform="translate(68,8)"/>
<path d="M0 0 C0.66 0 1.32 0 2 0 C2 0.99 2 1.98 2 3 C4.475 3.99 4.475 3.99 7 5 C6.95875 5.78375 6.9175 6.5675 6.875 7.375 C6.71271266 10.16116119 6.71271266 10.16116119 9 12 C8.01 12 7.02 12 6 12 C2.64334391 8.63364259 0.43370845 4.7707929 0 0 Z " fill="#385186" transform="translate(66,129)"/>
<path d="M0 0 C0 2.64 0 5.28 0 8 C-0.66 8 -1.32 8 -2 8 C-2.33 8.66 -2.66 9.32 -3 10 C-3.433125 8.6078125 -3.433125 8.6078125 -3.875 7.1875 C-4.8875 3.90208333 -4.8875 3.90208333 -7 1 C-1.125 0 -1.125 0 0 0 Z " fill="#8594B7" transform="translate(173,15)"/>
<path d="M0 0 C4.95 0 9.9 0 15 0 C15 0.66 15 1.32 15 2 C13.35 2.33 11.7 2.66 10 3 C11.65 3.33 13.3 3.66 15 4 C14.67 4.66 14.34 5.32 14 6 C8.25 4.25 8.25 4.25 6 2 C4.01178687 1.60235737 2.01055661 1.26224651 0 1 C0 0.67 0 0.34 0 0 Z " fill="#7A87A3" transform="translate(154,9)"/>
<path d="M0 0 C0.33 0.66 0.66 1.32 1 2 C-1.08937642 6.54746632 -3.95879972 9.19590185 -8 12 C-10.19140625 11.6328125 -10.19140625 11.6328125 -12 11 C-11.46890625 10.62488281 -10.9378125 10.24976563 -10.390625 9.86328125 C-6.31226272 6.90870127 -2.93808 4.16228001 0 0 Z " fill="#081020" transform="translate(117,131)"/>
<path d="M0 0 C0.33 0 0.66 0 1 0 C1.19335938 0.66386719 1.38671875 1.32773438 1.5859375 2.01171875 C3.2066123 7.54849074 3.2066123 7.54849074 5.25 12.9375 C6 15 6 15 5 18 C4.01 18.33 3.02 18.66 2 19 C2.04125 17.783125 2.0825 16.56625 2.125 15.3125 C2.13763357 11.71824922 1.39800554 9.32026316 0 6 C-0.125 2.6875 -0.125 2.6875 0 0 Z " fill="#7483AE" transform="translate(167,143)"/>
<path d="M0 0 C2.97 0.495 2.97 0.495 6 1 C5.40445313 1.25523438 4.80890625 1.51046875 4.1953125 1.7734375 C1.78516269 3.12003366 0.57123498 4.46696283 -1.125 6.625 C-2.6328125 8.5390625 -2.6328125 8.5390625 -4 10 C-4.66 10 -5.32 10 -6 10 C-4.6302836 6.00499382 -2.74277578 3.19990508 0 0 Z " fill="#0C1427" transform="translate(124,121)"/>
<path d="M0 0 C0.33 0 0.66 0 1 0 C2.62227918 5.43940666 3.3864587 9.33862697 2 15 C1.01 15.495 1.01 15.495 0 16 C0 10.72 0 5.44 0 0 Z " fill="#576487" transform="translate(0,178)"/>
<path d="M0 0 C-0.99 0.66 -1.98 1.32 -3 2 C-2.34 2.66 -1.68 3.32 -1 4 C-7.27 3.67 -13.54 3.34 -20 3 C-20 2.67 -20 2.34 -20 2 C-19.08476563 1.93941406 -18.16953125 1.87882813 -17.2265625 1.81640625 C-15.44378906 1.69072266 -15.44378906 1.69072266 -13.625 1.5625 C-12.44164062 1.48128906 -11.25828125 1.40007812 -10.0390625 1.31640625 C-6.40357712 0.93790456 -3.75684693 -0.09886439 0 0 Z " fill="#C6CCDC" transform="translate(70,181)"/>
<path d="M0 0 C0.66 0.99 1.32 1.98 2 3 C0.47005208 4.20442708 -1.05989583 5.40885417 -2.58984375 6.61328125 C-4.27155077 8.05683091 -4.27155077 8.05683091 -5 11 C-5.99 11.33 -6.98 11.66 -8 12 C-6.49087042 7.01987239 -3.44338151 3.75740058 0 0 Z " fill="#3B5288" transform="translate(85,55)"/>
<path d="M0 0 C0.33 0 0.66 0 1 0 C1.10000385 3.50013461 0.73880926 6.58300716 0 10 C0 10.66 0 11.32 0 12 C-0.66 12 -1.32 12 -2 12 C-3.40457737 9.19084526 -3.24895157 7.11189466 -3 4 C-1.5625 1.625 -1.5625 1.625 0 0 Z " fill="#6A7CAF" transform="translate(167,131)"/>
<path d="M0 0 C0.33 1.32 0.66 2.64 1 4 C0.34 4 -0.32 4 -1 4 C-0.649375 5.0725 -0.29875 6.145 0.0625 7.25 C1.23076923 11.92307692 1.23076923 11.92307692 0 15 C-3.69230769 8.38461538 -3.69230769 8.38461538 -3 4 C-1.5 1.6875 -1.5 1.6875 0 0 Z " fill="#697AAA" transform="translate(13,100)"/>
<path d="M0 0 C3.96 0.33 7.92 0.66 12 1 C8.52630934 2.73684533 6.92380063 3.30084112 3.25 3.625 C2.45078125 3.69976562 1.6515625 3.77453125 0.828125 3.8515625 C0.22484375 3.90054688 -0.3784375 3.94953125 -1 4 C-0.67 2.68 -0.34 1.36 0 0 Z " fill="#D2D8E1" transform="translate(134,184)"/>
<path d="M0 0 C2.12579013 0.05988141 4.25078413 0.14862744 6.375 0.25 C8.15003906 0.31960937 8.15003906 0.31960937 9.9609375 0.390625 C13 1 13 1 14.4140625 3.046875 C14.60742188 3.69140625 14.80078125 4.3359375 15 5 C12.625 5.125 12.625 5.125 10 5 C9.34 4.34 8.68 3.68 8 3 C6.03309626 2.32707499 6.03309626 2.32707499 3.875 1.875 C2.59625 1.58625 1.3175 1.2975 0 1 C0 0.67 0 0.34 0 0 Z " fill="#5D71A5" transform="translate(66,180)"/>
<path d="M0 0 C4.29 0 8.58 0 13 0 C10 3 10 3 7.7734375 3.14453125 C6.98195312 3.03496094 6.19046875 2.92539063 5.375 2.8125 C4.57835937 2.71582031 3.78171875 2.61914062 2.9609375 2.51953125 C2.31382812 2.34808594 1.66671875 2.17664063 1 2 C0.67 1.34 0.34 0.68 0 0 Z " fill="#697AAF" transform="translate(137,13)"/>
<path d="M0 0 C5.12583611 -0.10251672 9.94997778 -0.03590199 15 1 C15 1.33 15 1.66 15 2 C7.08 2.495 7.08 2.495 -1 3 C-0.67 2.01 -0.34 1.02 0 0 Z " fill="#9CA8C4" transform="translate(20,9)"/>
<path d="M0 0 C1.28132813 0.00902344 2.56265625 0.01804687 3.8828125 0.02734375 C4.87023437 0.03894531 5.85765625 0.05054688 6.875 0.0625 C7.205 1.0525 7.535 2.0425 7.875 3.0625 C7.38 2.8975 6.885 2.7325 6.375 2.5625 C1.61840765 1.61118153 -3.48468313 1.51572771 -8.125 3.0625 C-8.455 2.4025 -8.785 1.7425 -9.125 1.0625 C-6.12186252 -0.43906874 -3.33432478 -0.03031204 0 0 Z " fill="#D1D9E8" transform="translate(104.125,7.9375)"/>
<path d="M0 0 C0.33 0 0.66 0 1 0 C1.2071567 3.72882057 0.68590677 5.72735745 -1 9 C-1.38290462 10.99110401 -1.72604615 12.99100513 -2 15 C-2.99 15 -3.98 15 -5 15 C-1.92482916 4.44191344 -1.92482916 4.44191344 0 0 Z " fill="#0B1225" transform="translate(50,70)"/>
<path d="M0 0 C0.66 0.33 1.32 0.66 2 1 C2 3.64 2 6.28 2 9 C0.68 8.67 -0.64 8.34 -2 8 C-2 6.68 -2 5.36 -2 4 C-1.34 4 -0.68 4 0 4 C0 2.68 0 1.36 0 0 Z " fill="#F7F2F1" transform="translate(19,53)"/>
<path d="M0 0 C-1.31224548 3.93673644 -2.91910327 6.22719294 -6 9 C-6.25 6.75 -6.25 6.75 -6 4 C-2.75675676 0 -2.75675676 0 0 0 Z " fill="#3D5694" transform="translate(122,123)"/>
<path d="M0 0 C0.66 0 1.32 0 2 0 C1.50769231 5.53846154 1.50769231 5.53846154 -1.0625 7.875 C-2.0215625 8.431875 -2.0215625 8.431875 -3 9 C-2.69181644 7.68647977 -2.37832335 6.37420428 -2.0625 5.0625 C-1.88847656 4.33160156 -1.71445313 3.60070312 -1.53515625 2.84765625 C-1 1 -1 1 0 0 Z " fill="#D6DEE8" transform="translate(176,110)"/>
<path d="M0 0 C0.66 0.33 1.32 0.66 2 1 C2 3.97 2 6.94 2 10 C-1 7 -1 7 -1.25 3.875 C-1 1 -1 1 0 0 Z " fill="#E3E4EB" transform="translate(175,97)"/>
<path d="M0 0 C2.31 0 4.62 0 7 0 C7.33 0.99 7.66 1.98 8 3 C5.03 2.67 2.06 2.34 -1 2 C-0.67 1.34 -0.34 0.68 0 0 Z " fill="#EEEFF0" transform="translate(67,182)"/>
<path d="M0 0 C3 2 3 2 3.51171875 4.3828125 C3.56972656 5.28773437 3.62773437 6.19265625 3.6875 7.125 C3.75324219 8.03507812 3.81898437 8.94515625 3.88671875 9.8828125 C3.92410156 10.58148438 3.96148438 11.28015625 4 12 C1.15119698 7.72679547 -0.28990619 5.21831143 0 0 Z " fill="#6378AC" transform="translate(20,47)"/>
<path d="M0 0 C0.33 0.99 0.66 1.98 1 3 C0.01439389 4.34400833 -0.98758315 5.67607028 -2 7 C-2.71433121 9.64934822 -2.71433121 9.64934822 -3 12 C-3.66 11.67 -4.32 11.34 -5 11 C-4.01 8.03 -3.02 5.06 -2 2 C-1.34 2 -0.68 2 0 2 C0 1.34 0 0.68 0 0 Z " fill="#6577AA" transform="translate(176,90)"/>
<path d="M0 0 C0.33 0.66 0.66 1.32 1 2 C-1.40983607 6.70491803 -1.40983607 6.70491803 -4 8 C-4.66 7.34 -5.32 6.68 -6 6 C-4.02 4.02 -2.04 2.04 0 0 Z " fill="#0E122A" transform="translate(69,45)"/>
<path d="M0 0 C3.41021743 0.78697325 6.68885166 1.87119943 10 3 C10 3.33 10 3.66 10 4 C7.36 4 4.72 4 2 4 C1.34 2.68 0.68 1.36 0 0 Z " fill="#E3E1E6" transform="translate(105,184)"/>
<path d="M0 0 C0.99 0 1.98 0 3 0 C2.95875 0.763125 2.9175 1.52625 2.875 2.3125 C2.77919176 5.22718416 2.77919176 5.22718416 5 8 C4.01 8.33 3.02 8.66 2 9 C0.50178941 5.62902617 0 3.79557881 0 0 Z " fill="#DAE0E7" transform="translate(8,82)"/>
<path d="M0 0 C0.33 0.66 0.66 1.32 1 2 C1.66 2 2.32 2 3 2 C3.12375 2.78375 3.2475 3.5675 3.375 4.375 C3.79117993 7.14057822 3.79117993 7.14057822 6 9 C4.68 9 3.36 9 2 9 C0.50178941 5.62902617 0 3.79557881 0 0 Z " fill="#3D5693" transform="translate(123,58)"/>
<path d="M0 0 C3.72433382 1.2125738 7.37802806 2.50859979 11 4 C11 4.33 11 4.66 11 5 C6.94393835 4.53199289 3.53411321 4.12046792 0 2 C0 1.34 0 0.68 0 0 Z " fill="#3D5389" transform="translate(60,162)"/>
<path d="M0 0 C0.66 0 1.32 0 2 0 C2 1.98 2 3.96 2 6 C0.68 6 -0.64 6 -2 6 C-1.34 4.02 -0.68 2.04 0 0 Z " fill="#F8F3F0" transform="translate(11,94)"/>
<path d="M0 0 C2.64 0 5.28 0 8 0 C7.67 0.66 7.34 1.32 7 2 C4.67843403 2.40729228 2.3431213 2.74438677 0 3 C0 2.01 0 1.02 0 0 Z " fill="#D2D6E3" transform="translate(86,184)"/>
<path d="M0 0 C1.32 0.33 2.64 0.66 4 1 C3.01 1.495 3.01 1.495 2 2 C2 2.66 2 3.32 2 4 C0.35 4 -1.3 4 -3 4 C-2.01 2.68 -1.02 1.36 0 0 Z " fill="#F4F2F0" transform="translate(149,9)"/>
</svg>
