<?xml version="1.0" encoding="UTF-8"?>
<svg version="1.1" xmlns="http://www.w3.org/2000/svg" width="178" height="214">
<path d="M0 0 C58.74 0 117.48 0 178 0 C178 70.62 178 141.24 178 214 C119.26 214 60.52 214 0 214 C0 143.38 0 72.76 0 0 Z " fill="#D5C7C2" transform="translate(0,0)"/>
<path d="M0 0 C58.74 0 117.48 0 178 0 C178 70.62 178 141.24 178 214 C119.26 214 60.52 214 0 214 C0 143.38 0 72.76 0 0 Z M120.25 10 C119.45078125 10.185625 118.6515625 10.37125 117.828125 10.5625 C117.22484375 10.706875 116.6215625 10.85125 116 11 C116 11.66 116 12.32 116 13 C115.28972656 13.13277344 114.57945313 13.26554688 113.84765625 13.40234375 C112.46900391 13.66724609 112.46900391 13.66724609 111.0625 13.9375 C110.14597656 14.11152344 109.22945313 14.28554687 108.28515625 14.46484375 C106.04710156 14.77714988 106.04710156 14.77714988 105 16 C102.91208058 16.05104475 100.82247285 16.03532057 98.734375 15.9921875 C97.45175781 15.97542969 96.16914062 15.95867188 94.84765625 15.94140625 C92.80233141 15.91054267 90.75743349 15.87516923 88.71240234 15.82861328 C86.74080875 15.78605402 84.76880835 15.76390048 82.796875 15.7421875 C81.02328613 15.70907471 81.02328613 15.70907471 79.21386719 15.67529297 C75.66163724 16.03418585 73.95428737 17.08617339 71 19 C68.16052304 19.23568781 65.5746934 19.33128614 62.75 19.25 C62.0178125 19.24484375 61.285625 19.2396875 60.53125 19.234375 C55.15472274 19.15472274 55.15472274 19.15472274 54 18 C47.372132 17.54809991 37.43268785 17.39802261 32.046875 21.48046875 C28.34902864 24.22562568 23.66879857 24.37108273 19.21484375 25.15625 C15.88037228 26.03139682 14.98833422 26.31762797 13 29 C12.32446602 31.84128404 12.32446602 31.84128404 12.0859375 35.1171875 C11.96476563 36.36628906 11.84359375 37.61539063 11.71875 38.90234375 C11.6053125 40.21332031 11.491875 41.52429687 11.375 42.875 C11.25382813 44.11636719 11.13265625 45.35773437 11.0078125 46.63671875 C9.26136463 65.37306706 8.83887521 84.11830017 8.83203125 102.92578125 C8.82880472 105.05462159 8.8254397 107.18346172 8.82194519 109.31230164 C8.81601853 113.73335281 8.81409887 118.1543846 8.81469727 122.57543945 C8.8147993 128.19738239 8.80107535 133.81920023 8.78392506 139.44111347 C8.77273616 143.82269345 8.77078005 148.20424362 8.77130699 152.58583641 C8.77014001 154.65755843 8.76579187 156.72928155 8.75797462 158.80098915 C8.7256273 168.24548489 8.73857267 177.67470993 9.7019043 187.07885742 C9.82744186 188.30497238 9.95297943 189.53108734 10.08232117 190.7943573 C11.2133094 194.74513403 12.86352745 196.40509585 16 199 C24.85862315 202.80583077 34.67281964 202.23728672 44.10546875 202.0078125 C48 202 48 202 50 203 C53.33183728 203.22978188 56.66368698 203.09569607 60 203 C61.10214844 202.97164062 62.20429687 202.94328125 63.33984375 202.9140625 C71.97129453 202.52789103 71.97129453 202.52789103 79 198 C79 197.34 79 196.68 79 196 C79.84860596 196.02175293 80.69721191 196.04350586 81.5715332 196.06591797 C91.66401002 196.2070339 101.54227806 195.46646141 111.57446289 194.40087891 C114.22110697 194.12145185 116.86908664 193.85892931 119.51757812 193.59765625 C121.2136445 193.42286998 122.90961241 193.24712497 124.60546875 193.0703125 C125.39084518 192.99313995 126.17622162 192.91596741 126.98539734 192.8364563 C130.69037329 192.43193609 133.81360895 192.0152882 137 190 C137 189.34 137 188.68 137 188 C137.85658203 188.01740234 137.85658203 188.01740234 138.73046875 188.03515625 C145.80555197 188.11389327 152.99731072 188.07890271 160 187 C160.66 186.34 161.32 185.68 162 185 C164.29089796 184.46146802 166.58034054 184.11274024 168.90625 183.7578125 C171.12613238 183.17982199 171.12613238 183.17982199 172.25390625 181.2265625 C173.62127019 177.14594759 173.65920133 173.23680855 173 169 C171.86019373 166.81570227 170.53497428 164.92361328 169.09765625 162.92578125 C167.60903765 160.31407674 167.86668572 158.01103867 168.0859375 155.07421875 C167.94880212 151.7642693 166.47791434 149.17604988 164.97265625 146.2734375 C161.25233879 137.57775573 161.96067968 125.79803251 165 117 C165.53625 116.29875 166.0725 115.5975 166.625 114.875 C168.59354843 112.19061578 168.34515084 110.24441794 168 107 C167.34 106.01 166.68 105.02 166 104 C165.94891039 100.48211569 166.05174875 97.02190809 166.25390625 93.51171875 C166.4546949 86.81482657 164.49289433 83.12610091 160.29296875 77.859375 C158.70514313 75.57597623 158.51014914 74.00830356 158.3125 71.25 C158.20808594 69.92935547 158.20808594 69.92935547 158.1015625 68.58203125 C158.01334341 66.33923062 158.0708655 64.17598518 158.1875 61.9375 C157.92094274 56.33979749 155.73496615 51.92659771 152.90234375 47.1484375 C151.67174446 44.2184392 151.60535726 41.53928786 151.4375 38.375 C151.32793502 34.02892654 151.32793502 34.02892654 150 30 C150.03144016 28.43656659 150.0990374 26.87374529 150.1875 25.3125 C150.20315389 19.90407988 149.54904342 17.15497766 146 13 C143.0583749 11.81525904 140.12662406 11.43639252 137 11 C135.55800621 10.64266938 134.12001682 10.26860743 132.6875 9.875 C128.17468099 8.80416159 124.69540462 8.95402244 120.25 10 Z " fill="#707EA6" transform="translate(0,0)"/>
<path d="M0 0 C1.20940247 -0.00016617 2.41880493 -0.00033234 3.66485596 -0.00050354 C4.33370316 -0.00590652 5.00255035 -0.01130951 5.69166565 -0.01687622 C7.90876265 -0.02940425 10.12456918 -0.01282633 12.34161377 0.00511169 C13.89322986 0.00495658 15.44484633 0.00346555 16.99645996 0.0007019 C20.25833149 -0.00068463 23.51976482 0.01190075 26.78155518 0.03465271 C30.92008487 0.06275527 35.05787088 0.06038153 39.19645309 0.0475626 C42.40885512 0.04052477 45.62109226 0.04849034 48.83347321 0.06081963 C50.35616671 0.06527626 51.87887833 0.06572277 53.40157318 0.06175423 C74.19135241 0.03298398 74.19135241 0.03298398 83.04473877 3.50120544 C85.13657622 7.14833933 85.2918824 10.30681047 85.27520752 14.46604919 C85.27327393 15.59591248 85.27134033 16.72577576 85.26934814 17.88987732 C85.25710205 19.0609906 85.24485596 20.23210388 85.23223877 21.43870544 C85.23127197 23.18957458 85.23127197 23.18957458 85.23028564 24.97581482 C85.20306551 30.2837416 85.02232637 35.2709899 84.04473877 40.50120544 C82.48357058 40.84072163 80.92072538 41.17253089 79.35723877 41.50120544 C78.48712158 41.68683044 77.61700439 41.87245544 76.72052002 42.06370544 C74.05996796 42.49871542 71.73106799 42.75162597 69.04473877 42.50120544 C66.85723877 40.06370544 66.85723877 40.06370544 65.04473877 37.50120544 C62.53976873 36.24872043 60.83620603 36.38746138 58.03692627 36.40354919 C57.05079346 36.40677185 56.06466064 36.40999451 55.04864502 36.41331482 C53.49983643 36.42588318 53.49983643 36.42588318 51.91973877 36.43870544 C50.87946533 36.44321716 49.83919189 36.44772888 48.76739502 36.45237732 C46.1931519 36.46418577 43.61893824 36.48212159 41.04473877 36.50120544 C41.04473877 42.77120544 41.04473877 49.04120544 41.04473877 55.50120544 C45.99473877 55.50120544 50.94473877 55.50120544 56.04473877 55.50120544 C55.50283594 62.85560095 54.91354291 70.1784277 54.04473877 77.50120544 C48.76473877 77.50120544 43.48473877 77.50120544 38.04473877 77.50120544 C37.99575439 78.70776794 37.94677002 79.91433044 37.89630127 81.15745544 C37.82120345 82.77205851 37.74565874 84.38664083 37.66973877 86.00120544 C37.62333252 87.18843201 37.62333252 87.18843201 37.57598877 88.39964294 C37.31617654 93.68249157 36.48140171 98.40864413 35.04473877 103.50120544 C35.90454346 103.35683044 36.76434814 103.21245544 37.65020752 103.06370544 C45.88203667 101.77102998 53.70185574 101.25175047 62.04473877 101.50120544 C62.09372314 100.66976013 62.14270752 99.83831482 62.19317627 98.98167419 C62.30532471 97.35165466 62.30532471 97.35165466 62.41973877 95.68870544 C62.48934814 94.60976013 62.55895752 93.53081482 62.63067627 92.41917419 C63.04473877 89.50120544 63.04473877 89.50120544 65.04473877 86.50120544 C70.84077381 85.99278132 76.5099407 86.64096211 82.04473877 88.50120544 C87.53998677 93.99645344 86.27476833 105.44409333 86.35723877 112.81370544 C86.37480225 113.66110291 86.39236572 114.50850037 86.41046143 115.38157654 C86.40509791 120.83626904 85.80985291 124.74810075 83.04473877 129.50120544 C79.5707319 132.3109775 76.35754966 133.02981858 71.98223877 133.62620544 C70.96001221 133.77315857 69.93778564 133.92011169 68.88458252 134.07151794 C57.68769542 135.32447581 46.61371416 135.73756645 35.35723877 135.75120544 C34.55079926 135.75320953 33.74435974 135.75521362 32.91348267 135.75727844 C-2.4003154 135.77867836 -2.4003154 135.77867836 -10.95526123 131.50120544 C-11.06380106 129.27312385 -11.1410943 127.04350613 -11.20526123 124.81370544 C-11.25166748 123.57233826 -11.29807373 122.33097107 -11.34588623 121.05198669 C-10.82864818 116.35029278 -8.93029365 114.17144132 -5.38592529 111.17405701 C-3.51133329 108.98212793 -3.31435718 107.34807029 -2.89276123 104.50511169 C-2.65927979 102.97527649 -2.65927979 102.97527649 -2.42108154 101.41453552 C-2.26736084 100.3087616 -2.11364014 99.20298767 -1.95526123 98.06370544 C-1.7886499 96.91732605 -1.62203857 95.77094666 -1.45037842 94.58982849 C2.47852445 67.65663371 2.47852445 67.65663371 3.04473877 40.50120544 C1.82786377 40.10933044 0.61098877 39.71745544 -0.64276123 39.31370544 C-4.6924916 37.79864674 -7.17148435 35.87548045 -9.95526123 32.50120544 C-13.19937946 22.76885076 -10.33720458 13.38852716 -5.95526123 4.50120544 C-4.24741228 1.37876218 -3.58044534 0.60723522 0 0 Z " fill="#223053" transform="translate(44.95526123046875,39.49879455566406)"/>
<path d="M0 0 C2.5625 0.875 2.5625 0.875 4.19140625 2.8203125 C6.10869113 7.09187028 6.01452546 10.99203011 6.0625 15.625 C6.15334515 24.24231104 7.47598775 31.22957769 11.6875 38.8125 C13.87623899 43.44221184 13.79995408 47.7332319 13.875 52.75 C13.98207653 58.68853627 14.31306109 62.45267959 18.0625 67.3125 C22.92218598 73.63009178 22.43651439 80.35507953 22.4921875 88.0078125 C22.11095705 91.65483557 22.11095705 91.65483557 23.5625 92.875 C23.94847926 97.89273041 23.56022561 100.79809317 20.5625 104.875 C20.2325 105.205 19.9025 105.535 19.5625 105.875 C18.66764659 111.71143282 18.3753854 117.07132862 19.5625 122.875 C19.541875 124.091875 19.52125 125.30875 19.5 126.5625 C19.26754095 130.01637542 19.26754095 130.01637542 21.5625 132.875 C24.94506277 141.03294549 24.71328532 150.11989581 24.66015625 158.8203125 C24.65803383 160.16414505 24.65803383 160.16414505 24.65586853 161.53512573 C24.65033441 164.35678653 24.63779489 167.17836376 24.625 170 C24.61997646 171.92968634 24.61541506 173.85937395 24.61132812 175.7890625 C24.60038669 180.4844065 24.58316878 185.17968915 24.5625 189.875 C9.08137217 189.89833859 -6.39975435 189.91598391 -21.88089561 189.92681217 C-29.06871503 189.93197308 -36.25652353 189.93901189 -43.44433594 189.95043945 C-49.70769115 189.96039253 -55.97103845 189.96685492 -62.23440135 189.96908849 C-65.55218721 189.97039454 -68.86994512 189.97399419 -72.18772507 189.98073006 C-75.88737096 189.98794526 -79.58696935 189.98899073 -83.28662109 189.98852539 C-84.94494209 189.9939183 -84.94494209 189.9939183 -86.63676453 189.99942017 C-87.64079819 189.9980455 -88.64483185 189.99667084 -89.67929077 189.99525452 C-90.99284577 189.99663721 -90.99284577 189.99663721 -92.33293724 189.99804783 C-94.4375 189.875 -94.4375 189.875 -96.4375 188.875 C-98.39310305 188.87919657 -100.34900795 188.88985421 -102.30395508 188.94067383 C-124.19061551 189.48543041 -124.19061551 189.48543041 -131.3046875 183.4375 C-133.4375 180.875 -133.4375 180.875 -133.75 178.0625 C-133.646875 177.340625 -133.54375 176.61875 -133.4375 175.875 C-126.6875 175.75 -126.6875 175.75 -124.4375 176.875 C-123.01207046 176.94677389 -121.58332459 176.95892397 -120.15625 176.9375 C-119.31449219 176.92976562 -118.47273438 176.92203125 -117.60546875 176.9140625 C-116.72503906 176.90117187 -115.84460938 176.88828125 -114.9375 176.875 C-113.19797836 176.84953116 -111.45838465 176.82848439 -109.71875 176.8125 C-108.94595703 176.80089844 -108.17316406 176.78929687 -107.37695312 176.77734375 C-105.4375 176.875 -105.4375 176.875 -103.4375 177.875 C-97.85983621 178.25966647 -92.19870863 177.87285423 -86.625 177.5625 C-85.03751953 177.47548828 -85.03751953 177.47548828 -83.41796875 177.38671875 C-80.12173067 176.82078534 -78.13002496 175.83276052 -75.4375 173.875 C-75.1075 173.215 -74.7775 172.555 -74.4375 171.875 C-72.3815918 171.51196289 -72.3815918 171.51196289 -69.63671875 171.34765625 C-68.60949707 171.27925537 -67.58227539 171.21085449 -66.52392578 171.14038086 C-64.84145752 171.03995483 -64.84145752 171.03995483 -63.125 170.9375 C-53.07959667 170.25543954 -43.07328049 169.39175348 -33.0625 168.3125 C-31.86326904 168.18560791 -30.66403809 168.05871582 -29.4284668 167.92797852 C-22.87031134 167.25441735 -22.87031134 167.25441735 -16.4375 165.875 C-16.4375 165.215 -16.4375 164.555 -16.4375 163.875 C-15.75123535 163.8248877 -15.0649707 163.77477539 -14.35791016 163.72314453 C-11.2586507 163.49152728 -8.16065407 163.24594351 -5.0625 163 C-3.98226562 162.92136719 -2.90203125 162.84273437 -1.7890625 162.76171875 C-0.7578125 162.67792969 0.2734375 162.59414062 1.3359375 162.5078125 C2.28903809 162.43449707 3.24213867 162.36118164 4.22412109 162.28564453 C6.74700192 162.07326166 6.74700192 162.07326166 8.5625 159.875 C10.88423505 159.29989132 13.20688348 158.9240056 15.56640625 158.53515625 C16.22511719 158.31730469 16.88382813 158.09945312 17.5625 157.875 C19.01781328 153.50906015 19.20120492 149.43426596 18.5625 144.875 C17.42636191 142.68614655 16.09872479 140.80035145 14.66015625 138.80078125 C13.17153765 136.18907674 13.42918572 133.88603867 13.6484375 130.94921875 C13.51130212 127.6392693 12.04041434 125.05104988 10.53515625 122.1484375 C6.81483879 113.45275573 7.52317968 101.67303251 10.5625 92.875 C11.09875 92.17375 11.635 91.4725 12.1875 90.75 C14.15604843 88.06561578 13.90765084 86.11941794 13.5625 82.875 C12.9025 81.885 12.2425 80.895 11.5625 79.875 C11.51141039 76.35711569 11.61424875 72.89690809 11.81640625 69.38671875 C12.0171949 62.68982657 10.05539433 59.00110091 5.85546875 53.734375 C4.26764313 51.45097623 4.07264914 49.88330356 3.875 47.125 C3.77058594 45.80435547 3.77058594 45.80435547 3.6640625 44.45703125 C3.57584341 42.21423062 3.6333655 40.05098518 3.75 37.8125 C3.48283494 32.20203368 1.28012705 27.8029123 -1.53515625 23.00390625 C-2.73683867 20.16876807 -2.83052893 17.63100802 -3 14.5625 C-3.29120246 9.94486106 -3.69440482 5.43972754 -4.4375 0.875 C-2.4375 -0.125 -2.4375 -0.125 0 0 Z " fill="#586380" transform="translate(153.4375,24.125)"/>
<path d="M0 0 C0 6.27 0 12.54 0 19 C-36.3 19 -72.6 19 -110 19 C-110 18.67 -110 18.34 -110 18 C-109.13117188 17.96261719 -108.26234375 17.92523438 -107.3671875 17.88671875 C-97.26022858 17.39773878 -97.26022858 17.39773878 -89 12 C-86.38964844 11.60522461 -86.38964844 11.60522461 -83.109375 11.40234375 C-81.33240234 11.28342773 -81.33240234 11.28342773 -79.51953125 11.16210938 C-78.27558594 11.08798828 -77.03164062 11.01386719 -75.75 10.9375 C-73.30713362 10.78241772 -70.86441755 10.6249454 -68.421875 10.46484375 C-66.79137207 10.36610962 -66.79137207 10.36610962 -65.12792969 10.26538086 C-62.04188663 10.00355376 -59.05104695 9.52272173 -56 9 C-52.66966878 8.78656066 -49.34406236 8.61249435 -46.00976562 8.48242188 C-41.34353918 8.24530778 -37.37511595 7.55894936 -33 6 C-32.67 5.34 -32.34 4.68 -32 4 C-29.82275391 3.62109375 -29.82275391 3.62109375 -26.9765625 3.4375 C-25.955625 3.36273438 -24.9346875 3.28796875 -23.8828125 3.2109375 C-22.80773437 3.14132813 -21.73265625 3.07171875 -20.625 3 C-18.51247972 2.86222694 -16.40044495 2.71673197 -14.2890625 2.5625 C-13.34756348 2.50191406 -12.40606445 2.44132813 -11.43603516 2.37890625 C-6.46783481 1.60614147 -5.89019173 0 0 0 Z " fill="#6F7DA6" transform="translate(178,195)"/>
<path d="M0 0 C1.58941406 0.01353516 1.58941406 0.01353516 3.2109375 0.02734375 C4.00757813 0.03894531 4.80421875 0.05054688 5.625 0.0625 C5.625 0.7225 5.625 1.3825 5.625 2.0625 C4.99851563 2.18367187 4.37203125 2.30484375 3.7265625 2.4296875 C2.50066406 2.68105469 2.50066406 2.68105469 1.25 2.9375 C0.03183594 3.18113281 0.03183594 3.18113281 -1.2109375 3.4296875 C-3.56173923 3.92908932 -3.56173923 3.92908932 -5.375 6.0625 C-12.94237114 7.22840311 -20.73128225 7.21778998 -28.375 7.0625 C-28.375 7.7225 -28.375 8.3825 -28.375 9.0625 C-32.21407961 11.49059238 -36.35875306 11.69940125 -40.76953125 12.1328125 C-42.00614754 12.26174393 -42.00614754 12.26174393 -43.26774597 12.39328003 C-45.01656397 12.57350256 -46.76579375 12.74976692 -48.51538086 12.92236328 C-51.14112983 13.18289899 -53.76479643 13.45958266 -56.38867188 13.73828125 C-66.42729106 14.77207246 -76.28136281 15.3212375 -86.375 15.0625 C-86.81610107 16.01503662 -86.81610107 16.01503662 -87.26611328 16.98681641 C-88.66361543 19.60274844 -89.59456856 20.09079213 -92.375 21.0625 C-111.79605263 23.85197368 -111.79605263 23.85197368 -117.375 21.0625 C-119.46617398 21.06669493 -121.55762838 21.07729094 -123.64819336 21.12792969 C-132.39959912 21.33323139 -141.12929847 21.42604339 -149.375 18.0625 C-150.73795432 16.75946083 -152.07562909 15.4289519 -153.375 14.0625 C-152.75098297 14.07138245 -152.12696594 14.08026489 -151.48403931 14.0894165 C-144.89602979 14.17900045 -138.30819751 14.23868657 -131.71972656 14.28222656 C-129.27206375 14.30214716 -126.82444727 14.32929361 -124.37695312 14.36425781 C-108.34364057 14.58730717 -94.12845438 13.71450903 -78.78735352 8.94775391 C-75.40544487 8.0703982 -72.5499934 7.8089641 -69.06640625 7.7890625 C-67.90689453 7.7684375 -66.74738281 7.7478125 -65.55273438 7.7265625 C-63.14655578 7.70056381 -60.7402808 7.68230881 -58.33398438 7.671875 C-52.07528372 7.54677049 -47.4730833 7.17077511 -42.03491211 3.99560547 C-36.04413697 0.6279422 -27.1307494 1.6969897 -20.4296875 1.45703125 C-13.56318296 1.18573884 -6.86272669 -0.07625252 0 0 Z " fill="#E3DCD9" transform="translate(165.375,180.9375)"/>
<path d="M0 0 C1.7634375 0.0928125 1.7634375 0.0928125 3.5625 0.1875 C7 1 7 1 9.4375 3.9375 C11.33710116 7.84134138 11.26298666 11.41743978 11.07421875 15.6875 C10.99189656 18.25248613 11.33936628 20.52262355 12 23 C11.01 23.66 10.02 24.32 9 25 C9 19.39 9 13.78 9 8 C-2.04854623 3.58058151 -15.63463194 6.33136454 -27.3125 7.4375 C-28.81049619 7.57412453 -30.30854309 7.71019436 -31.80664062 7.84570312 C-44.79867379 8.8280574 -44.79867379 8.8280574 -57.625 10.9375 C-69.37923442 13.33451155 -81.17379532 14.31012848 -93.125 15.125 C-95.01847168 15.25648437 -95.01847168 15.25648437 -96.95019531 15.390625 C-104.97877614 15.90981354 -112.9554489 16.10662881 -121 16 C-121 15.34 -121 14.68 -121 14 C-119.77023438 13.72736328 -119.77023438 13.72736328 -118.515625 13.44921875 C-117.43796875 13.19785156 -116.3603125 12.94648438 -115.25 12.6875 C-114.18265625 12.44386719 -113.1153125 12.20023438 -112.015625 11.94921875 C-109.01812043 11.1948207 -109.01812043 11.1948207 -107.00390625 9.46875 C-101.50781957 5.44042915 -91.68964412 5.5438879 -85 6 C-84.505 6.495 -84.505 6.495 -84 7 C-81.40218031 7.15420847 -78.84924714 7.23169544 -76.25 7.25 C-75.53328125 7.270625 -74.8165625 7.29125 -74.078125 7.3125 C-70.75667005 7.33692246 -68.50239279 7.32531647 -65.67333984 5.4934082 C-62.30933486 3.61417364 -60.10725129 3.68412593 -56.2734375 3.77734375 C-54.3553125 3.80538086 -54.3553125 3.80538086 -52.3984375 3.83398438 C-51.05725918 3.86720292 -49.71611248 3.90172189 -48.375 3.9375 C-45.73686639 4.00053898 -43.09962491 4.04853097 -40.4609375 4.08984375 C-38.70982666 4.13419556 -38.70982666 4.13419556 -36.92333984 4.17944336 C-33.80636102 4.23395425 -33.80636102 4.23395425 -31 2 C-28.95703125 1.5859375 -28.95703125 1.5859375 -26.8125 1.375 C-24.9253125 1.189375 -24.9253125 1.189375 -23 1 C-23 0.34 -23 -0.32 -23 -1 C-14.67831009 -3.38043612 -8.01785988 -3.375941 0 0 Z " fill="#E6DFDC" transform="translate(139,12)"/>
<path d="M0 0 C0.33 0 0.66 0 1 0 C1 1.98 1 3.96 1 6 C2.32 5.67 3.64 5.34 5 5 C5.07421905 10.19609458 5.12863446 15.39187983 5.16479492 20.58837891 C5.17987102 22.35568619 5.20033522 24.12295614 5.22631836 25.89013672 C5.26275402 28.43205995 5.27973794 30.97348806 5.29296875 33.515625 C5.30845261 34.30430969 5.32393646 35.09299438 5.33988953 35.90557861 C5.34123278 40.29508921 5.0238598 42.7639823 2 46 C1.42836016 48.40819812 1.42836016 48.40819812 1.3125 50.9375 C1.24675781 51.77152344 1.18101562 52.60554688 1.11328125 53.46484375 C1.03457378 55.22626275 1.01546154 56.99094422 1.04296875 58.75390625 C1 61 1 61 0 62 C-0.38295642 65.82956422 0.15476423 68.65308338 1.5 72.1875 C3.13998693 76.70505658 3.06820261 80.54394908 2.90234375 85.30078125 C3.03002902 88.830002 4.13815713 91.58896753 5.3984375 94.8515625 C6.40125481 98.4330529 5.72154358 101.39228208 5 105 C2.36 105 -0.28 105 -3 105 C-3.06986498 93.52455759 -3.12299519 82.04916674 -3.15543652 70.57355404 C-3.17101574 65.24353905 -3.19211065 59.9136708 -3.22631836 54.58374023 C-3.25919036 49.42899214 -3.27691105 44.27438418 -3.28463173 39.11953926 C-3.29012571 37.16419841 -3.30085226 35.20886422 -3.31719017 33.25358391 C-3.40932393 21.75799911 -2.84565555 11.17914504 0 0 Z " fill="#5A6583" transform="translate(3,106)"/>
<path d="M0 0 C2 3.75 2 3.75 2 6 C-1.18551554 7.59275777 -4.69473024 7.61003425 -8.19921875 7.97265625 C-9.0264595 8.06002548 -9.85370026 8.14739471 -10.70600891 8.2374115 C-12.46695669 8.42182877 -14.22812997 8.60410319 -15.98950195 8.78442383 C-18.63263914 9.05684562 -21.27426166 9.34147206 -23.91601562 9.62695312 C-33.9914279 10.68461671 -43.86662172 11.26887423 -54 11 C-54.29406738 11.63502441 -54.58813477 12.27004883 -54.89111328 12.92431641 C-56.28861543 15.54024844 -57.21956856 16.02829213 -60 17 C-64.31222251 17.61937071 -68.65037211 17.79049957 -73 18 C-73.9796875 18.05414063 -74.959375 18.10828125 -75.96875 18.1640625 C-76.8453125 18.19242188 -77.721875 18.22078125 -78.625 18.25 C-79.78902344 18.28867188 -79.78902344 18.28867188 -80.9765625 18.328125 C-83.52093913 17.91552338 -84.38685461 16.95221417 -86 15 C-84.10350698 13.10350698 -80.78890369 13.64748818 -78.25 13.5 C-73.22127513 13.21044036 -73.22127513 13.21044036 -68.25390625 12.44140625 C-65.31597687 11.86604053 -62.90560238 12.39185066 -60 13 C-60 12.34 -60 11.68 -60 11 C-46.87533729 6.57906098 -46.87533729 6.57906098 -40 7 C-39.17886719 6.85691406 -38.35773438 6.71382812 -37.51171875 6.56640625 C-34.56148302 6.09056178 -31.71005917 5.79159268 -28.734375 5.5703125 C-27.76113281 5.49683594 -26.78789063 5.42335937 -25.78515625 5.34765625 C-23.77781921 5.20039986 -21.76999195 5.05966613 -19.76171875 4.92578125 C-9.17519724 4.42131185 -9.17519724 4.42131185 0 0 Z " fill="#F2EFEE" transform="translate(133,185)"/>
<path d="M0 0 C3 2 3 2 4 5 C4.04779731 6.70636394 4.03764408 8.41466585 3.9921875 10.12109375 C3.97349609 11.13341064 3.95480469 12.14572754 3.93554688 13.1887207 C3.91556641 14.26081787 3.89558594 15.33291504 3.875 16.4375 C3.78806718 24.18081192 4.0161765 31.02347725 6.32421875 38.47265625 C8.26685388 45.73788705 7.13453884 52.92934011 5 60 C4.01 58.68 3.02 57.36 2 56 C1.34 56.66 0.68 57.32 0 58 C0 38.86 0 19.72 0 0 Z " fill="#566080" transform="translate(0,44)"/>
<path d="M0 0 C0.33 0 0.66 0 1 0 C1.06058594 1.15757813 1.12117187 2.31515625 1.18359375 3.5078125 C1.26805502 5.04688457 1.35270018 6.58594655 1.4375 8.125 C1.47681641 8.88554687 1.51613281 9.64609375 1.55664062 10.4296875 C1.84059891 18.62484674 1.84059891 18.62484674 5 26 C6.50788899 29.60217925 7.003176 31.93436257 6.8125 35.875 C6.68556457 39.3957881 7.4713527 41.07920983 9.5 43.9375 C12.54447906 48.25122668 12.53501493 51.86385663 12 57 C9.3712494 55.6856247 9.1810584 54.49434485 8.0625 51.8125 C6.92068618 49.08412092 5.81865632 46.70855479 4.25 44.1875 C2.30488512 39.22745706 2.77000262 34.26438443 3 29 C2.36320313 28.73058594 1.72640625 28.46117187 1.0703125 28.18359375 C-1.9562164 26.45333289 -2.0688714 24.25895008 -3 21 C-3.66 20.01 -4.32 19.02 -5 18 C-4.73373367 11.6096081 -2.29814348 5.91103882 0 0 Z " fill="#EEECE8" transform="translate(161,121)"/>
<path d="M0 0 C0.33 0.33 0.66 0.66 1 1 C4.27101896 1.03193463 7.5310408 0.93138184 10.80078125 0.83984375 C13.8619911 0.99309113 15.44525688 1.39145803 18 3 C14.9430208 6.0569792 11.191312 5.74916235 7.0625 6.125 C5.74040527 6.25237549 5.74040527 6.25237549 4.39160156 6.38232422 C-4.74285995 7.18926118 -13.83918228 7.18653249 -23 7 C-21.125 3.125 -21.125 3.125 -20 2 C-13.41182024 0.69191213 -6.72625546 -0.45860833 0 0 Z " fill="#F4F0EF" transform="translate(54,18)"/>
<path d="M0 0 C4.04390194 3.716018 7.62815798 7.31614911 8.20483398 13.02929688 C8.22312203 15.25592944 8.16421645 17.46317231 8.0625 19.6875 C7.66157439 25.63680721 7.66157439 25.63680721 10 31 C10.67676299 35.25393879 9.93409718 37.46864304 7.5 40.875 C6.68006717 41.92724714 5.85100278 42.97271807 5 44 C3.88830936 40.66492807 4.17564985 39.05298723 4.6875 35.625 C5.26333926 31.12675112 5.26333926 31.12675112 3.0625 27.25 C2.381875 26.5075 1.70125 25.765 1 25 C0.52684618 20.50503873 0.97441422 17.92457244 3 14 C3.50631926 9.24059895 2.56293103 6.95118533 0 3 C0 2.01 0 1.02 0 0 Z " fill="#EEEAE9" transform="translate(158,76)"/>
<path d="M0 0 C2.32597511 0.3813074 4.65912158 0.72460254 7 1 C7.495 3.475 7.495 3.475 8 6 C6.98679688 5.79503906 5.97359375 5.59007812 4.9296875 5.37890625 C3.5781355 5.10671869 2.22657241 4.83458621 0.875 4.5625 C0.20984375 4.42779297 -0.4553125 4.29308594 -1.140625 4.15429688 C-3.0922625 3.762056 -5.04611903 3.38090811 -7 3 C-8.09054688 2.76152344 -9.18109375 2.52304688 -10.3046875 2.27734375 C-13.22202277 1.68799301 -13.22202277 1.68799301 -16 4 C-21.63921781 5.59712113 -27.15927257 6.25394467 -33 6 C-30.12086007 3.12086007 -26.81657802 2.27219267 -23 1 C-23 0.34 -23 -0.32 -23 -1 C-14.67831009 -3.38043612 -8.01785988 -3.375941 0 0 Z " fill="#EBE7E9" transform="translate(139,12)"/>
<path d="M0 0 C0.33 0 0.66 0 1 0 C1 23.43 1 46.86 1 71 C0.67 71 0.34 71 0 71 C-0.33 54.17 -0.66 37.34 -1 20 C-2.32 20 -3.64 20 -5 20 C-5.66 22.64 -6.32 25.28 -7 28 C-7.33 28 -7.66 28 -8 28 C-8.08710289 24.89601022 -8.14042309 21.79233452 -8.1875 18.6875 C-8.21263672 17.80642578 -8.23777344 16.92535156 -8.26367188 16.01757812 C-8.27333984 15.17001953 -8.28300781 14.32246094 -8.29296875 13.44921875 C-8.3086792 12.66893311 -8.32438965 11.88864746 -8.34057617 11.0847168 C-7.91847304 8.50096147 -6.98510058 7.63707833 -5 6 C-4.01 6.33 -3.02 6.66 -2 7 C-1.67 8.98 -1.34 10.96 -1 13 C-0.67 8.71 -0.34 4.42 0 0 Z " fill="#9192A4" transform="translate(8,93)"/>
<path d="M0 0 C0.33 0 0.66 0 1 0 C1 1.98 1 3.96 1 6 C2.32 5.67 3.64 5.34 5 5 C5 17.21 5 29.42 5 42 C4.67 42 4.34 42 4 42 C3.67 34.08 3.34 26.16 3 18 C1.35 17.67 -0.3 17.34 -2 17 C-2.21824777 10.9981863 -1.5056904 5.80766296 0 0 Z " fill="#555E79" transform="translate(3,106)"/>
<path d="M0 0 C22.10547343 -0.25837566 22.10547343 -0.25837566 30 1 C30.33 1.66 30.66 2.32 31 3 C23.01505823 7.80628389 11.98076447 4.86386527 3.484375 2.8515625 C1 2 1 2 0 0 Z " fill="#EBE9EA" transform="translate(15,197)"/>
<path d="M0 0 C2.66380883 0.91330588 4.8486828 2.19078853 7.1875 3.75 C7.1875 4.08 7.1875 4.41 7.1875 4.75 C0.98883086 5.29408381 -5.21628759 5.81594046 -11.4375 6 C-12.21351562 6.02578125 -12.98953125 6.0515625 -13.7890625 6.078125 C-16.33343913 5.66552338 -17.19935461 4.70221417 -18.8125 2.75 C-16.89306534 0.83056534 -13.43894345 1.39576734 -10.875 1.25 C-7.40532054 1.05233769 -3.20185937 -0.44163578 0 0 Z " fill="#F1ECE9" transform="translate(65.8125,197.25)"/>
<path d="M0 0 C2.06298828 -0.34057617 2.06298828 -0.34057617 4.5703125 -0.29296875 C5.46621094 -0.28330078 6.36210937 -0.27363281 7.28515625 -0.26367188 C8.69087891 -0.2259668 8.69087891 -0.2259668 10.125 -0.1875 C11.06988281 -0.17396484 12.01476562 -0.16042969 12.98828125 -0.14648438 C15.32608779 -0.11106306 17.66276237 -0.06167271 20 0 C20.33 0.99 20.66 1.98 21 3 C17.98509443 4.00496852 15.95818308 4.10335303 12.8125 4.0625 C11.91144531 4.05347656 11.01039063 4.04445312 10.08203125 4.03515625 C9.39496094 4.02355469 8.70789063 4.01195312 8 4 C8 4.66 8 5.32 8 6 C7.01 5.67 6.02 5.34 5 5 C4.67 4.01 4.34 3.02 4 2 C3.67 2.33 3.34 2.66 3 3 C1.33382885 3.04063832 -0.33388095 3.042721 -2 3 C-1.34 2.01 -0.68 1.02 0 0 Z " fill="#E8E0DC" transform="translate(129,184)"/>
<path d="M0 0 C4.46518345 4.10314155 7.78117113 7.55582393 8.1796875 13.828125 C8.18669053 16.55930728 8.13104935 19.27223197 8 22 C7.67 22 7.34 22 7 22 C6.67 19.69 6.34 17.38 6 15 C5.34 15 4.68 15 4 15 C4 16.32 4 17.64 4 19 C3.34 19 2.68 19 2 19 C2.66 21.64 3.32 24.28 4 27 C3.01 26.34 2.02 25.68 1 25 C0.58832337 20.55389243 0.99333189 17.88791947 3 14 C3.50631926 9.24059895 2.56293103 6.95118533 0 3 C0 2.01 0 1.02 0 0 Z " fill="#E3DDDE" transform="translate(158,76)"/>
<path d="M0 0 C6.75 -0.125 6.75 -0.125 9 1 C9 1.99 9 2.98 9 4 C-3.48519362 7.44419134 -3.48519362 7.44419134 -10 7 C-7.12086007 4.12086007 -3.81657802 3.27219267 0 2 C0 1.34 0 0.68 0 0 Z " fill="#EEEAEB" transform="translate(116,11)"/>
<path d="M0 0 C0.66 0 1.32 0 2 0 C1.896875 0.99 1.79375 1.98 1.6875 3 C1.65325054 6.41124652 2.53559586 8.11930067 4.5 10.875 C7.52554063 15.22155133 7.5369037 18.84572451 7 24 C4.3201059 22.66005295 4.0859691 21.29175165 2.9375 18.5625 C2.59589844 17.75941406 2.25429687 16.95632812 1.90234375 16.12890625 C1.60457031 15.42636719 1.30679688 14.72382813 1 14 C0.67 13.34 0.34 12.68 0 12 C-0.07065617 9.95944995 -0.08421976 7.91665743 -0.0625 5.875 C-0.05347656 4.77929688 -0.04445312 3.68359375 -0.03515625 2.5546875 C-0.02355469 1.71164063 -0.01195312 0.86859375 0 0 Z " fill="#EEEBEB" transform="translate(166,154)"/>
<path d="M0 0 C0.33 0 0.66 0 1 0 C1 5.28 1 10.56 1 16 C-2 15 -2 15 -3.1875 13.1875 C-4 11 -4 11 -4 7 C-3.34 7 -2.68 7 -2 7 C-2 5.68 -2 4.36 -2 3 C-1.34 3 -0.68 3 0 3 C0 2.01 0 1.02 0 0 Z " fill="#F6F2F0" transform="translate(164,88)"/>
<path d="M0 0 C4.29 0 8.58 0 13 0 C13.33 0.66 13.66 1.32 14 2 C10.93753253 3.78409802 8.77920727 4.22880021 5.25 4.125 C4.45078125 4.10695312 3.6515625 4.08890625 2.828125 4.0703125 C2.22484375 4.04710937 1.6215625 4.02390625 1 4 C0.67 2.68 0.34 1.36 0 0 Z " fill="#F8F4F1" transform="translate(32,198)"/>
<path d="M0 0 C1.05960938 0.00676758 1.05960938 0.00676758 2.140625 0.01367188 C3.88545275 0.02546125 5.630237 0.04339676 7.375 0.0625 C7.375 0.3925 7.375 0.7225 7.375 1.0625 C5.9828125 1.248125 5.9828125 1.248125 4.5625 1.4375 C1.23574765 1.87783082 1.23574765 1.87783082 -1.625 4.0625 C-3.88671875 4.4765625 -3.88671875 4.4765625 -6.3125 4.6875 C-7.12074219 4.76226563 -7.92898437 4.83703125 -8.76171875 4.9140625 C-9.68404297 4.98753906 -9.68404297 4.98753906 -10.625 5.0625 C-10.25 3.125 -10.25 3.125 -9.625 1.0625 C-6.55966836 -0.47016582 -3.35745728 -0.04026471 0 0 Z " fill="#DFDDE1" transform="translate(83.625,15.9375)"/>
<path d="M0 0 C1.15242188 0.10183594 2.30484375 0.20367187 3.4921875 0.30859375 C4.36101562 0.39238281 5.22984375 0.47617188 6.125 0.5625 C6.125 0.8925 6.125 1.2225 6.125 1.5625 C0.07670514 2.45854368 -5.7644576 2.67519443 -11.875 2.5625 C-12.205 1.9025 -12.535 1.2425 -12.875 0.5625 C-8.41295824 -0.3529645 -4.52954615 -0.41597873 0 0 Z " fill="#E4E4E9" transform="translate(61.875,200.4375)"/>
<path d="M0 0 C0.33 0 0.66 0 1 0 C1 1.98 1 3.96 1 6 C1.66 6 2.32 6 3 6 C3 7.98 3 9.96 3 12 C1.35 12.33 -0.3 12.66 -2 13 C-1.855625 12.154375 -1.71125 11.30875 -1.5625 10.4375 C-0.9941203 6.96406851 -0.48797607 3.48554338 0 0 Z " fill="#5D6580" transform="translate(3,106)"/>
<path d="M0 0 C0 0.33 0 0.66 0 1 C-0.74765625 1.06058594 -1.4953125 1.12117188 -2.265625 1.18359375 C-3.25046875 1.26738281 -4.2353125 1.35117188 -5.25 1.4375 C-6.71179688 1.55931641 -6.71179688 1.55931641 -8.203125 1.68359375 C-10.9151201 1.92333387 -10.9151201 1.92333387 -13.15625 2.5625 C-15.89880184 3.21327501 -18.27467466 2.55745291 -21 2 C-21 3.65 -21 5.3 -21 7 C-21.33 7 -21.66 7 -22 7 C-22 5.02 -22 3.04 -22 1 C-14.63512596 0.00137301 -7.42686315 -0.10331031 0 0 Z " fill="#AFABB2" transform="translate(108,75)"/>
<path d="M0 0 C0.99 0.33 1.98 0.66 3 1 C2.98839844 1.66386719 2.97679687 2.32773437 2.96484375 3.01171875 C2.88106591 9.56306787 2.88106591 9.56306787 4 16 C3.01 16.66 2.02 17.32 1 18 C0.67 12.06 0.34 6.12 0 0 Z " fill="#EBEAED" transform="translate(147,19)"/>
<path d="M0 0 C0.33 0 0.66 0 1 0 C1.66 2.31 2.32 4.62 3 7 C2.34 7 1.68 7 1 7 C1 9.97 1 12.94 1 16 C0.34 15.67 -0.32 15.34 -1 15 C-1.18451025 4.44191344 -1.18451025 4.44191344 0 0 Z " fill="#E0DAD9" transform="translate(165,147)"/>
<path d="M0 0 C1.875 0.3125 1.875 0.3125 4 1 C6.29013653 4.4352048 6.17842973 5.985331 6 10 C5.34 9.01 4.68 8.02 4 7 C3.01 7.33 2.02 7.66 1 8 C1.020625 7.236875 1.04125 6.47375 1.0625 5.6875 C1.12942841 2.89814214 1.12942841 2.89814214 0 0 Z " fill="#E2DEE0" transform="translate(162,103)"/>
<path d="M0 0 C0 0.66 0 1.32 0 2 C-3.96 2 -7.92 2 -12 2 C-12 1.34 -12 0.68 -12 0 C-7.6835078 -0.76173392 -4.25566547 -1.16063604 0 0 Z " fill="#F5F0EE" transform="translate(150,185)"/>
<path d="M0 0 C0.33 0 0.66 0 1 0 C1.03738281 0.556875 1.07476562 1.11375 1.11328125 1.6875 C1.59560636 7.28625424 2.83241879 11.81665364 5 17 C3.0625 16.1875 3.0625 16.1875 1 15 C-0.09506492 11.71480525 -0.09960608 9.26336585 -0.0625 5.8125 C-0.05347656 4.72582031 -0.04445312 3.63914063 -0.03515625 2.51953125 C-0.02355469 1.68808594 -0.01195312 0.85664062 0 0 Z " fill="#3C4256" transform="translate(34,57)"/>
<path d="M0 0 C2.97550031 3.0684847 3.96474513 4.46236331 4.25 8.8125 C4.1675 9.864375 4.085 10.91625 4 12 C1.02449969 8.9315153 0.03525487 7.53763669 -0.25 3.1875 C-0.1675 2.135625 -0.085 1.08375 0 0 Z " fill="#EFEFEE" transform="translate(161,140)"/>
<path d="M0 0 C0.33 0.99 0.66 1.98 1 3 C0 4 0 4 -2.72265625 4.09765625 C-4.37587891 4.08025391 -4.37587891 4.08025391 -6.0625 4.0625 C-7.16722656 4.05347656 -8.27195312 4.04445313 -9.41015625 4.03515625 C-10.69212891 4.01775391 -10.69212891 4.01775391 -12 4 C-12 3.67 -12 3.34 -12 3 C-8.04 2.01 -4.08 1.02 0 0 Z " fill="#E3E1E9" transform="translate(30,23)"/>
<path d="M0 0 C0.33 0 0.66 0 1 0 C1 1.98 1 3.96 1 6 C4.96 6 8.92 6 13 6 C13 6.33 13 6.66 13 7 C8.38 7.33 3.76 7.66 -1 8 C-0.67 5.36 -0.34 2.72 0 0 Z " fill="#B9B6C0" transform="translate(81,135)"/>
<path d="M0 0 C0.33 0.66 0.66 1.32 1 2 C3.97 2 6.94 2 10 2 C10 2.33 10 2.66 10 3 C6.7 3 3.4 3 0 3 C0 3.66 0 4.32 0 5 C-0.99 4.67 -1.98 4.34 -3 4 C-3 3.01 -3 2.02 -3 1 C-2.01 0.67 -1.02 0.34 0 0 Z " fill="#DDDBE1" transform="translate(137,185)"/>
<path d="M0 0 C0.33 0.66 0.66 1.32 1 2 C-3.92737019 3.97094808 -7.78020872 4.1799928 -13 4 C-12.360625 3.690625 -11.72125 3.38125 -11.0625 3.0625 C-9.06389179 2.1654837 -9.06389179 2.1654837 -8 1 C-5.34536879 0.54540142 -2.67810862 0.29756762 0 0 Z " fill="#F4F0F1" transform="translate(166,182)"/>
<path d="M0 0 C0.33 0 0.66 0 1 0 C1 4.33333333 1 8.66666667 1 13 C-0.5625 11.4375 -0.5625 11.4375 -2 9 C-1.77100357 5.67955183 -1.4949015 2.989803 0 0 Z " fill="#E4DBD6" transform="translate(158,130)"/>
<path d="M0 0 C-0.33 1.32 -0.66 2.64 -1 4 C-1.66 3.67 -2.32 3.34 -3 3 C-4.53668865 2.77532169 -6.07968054 2.59203195 -7.625 2.4375 C-8.44226563 2.35371094 -9.25953125 2.26992188 -10.1015625 2.18359375 C-10.72804687 2.12300781 -11.35453125 2.06242187 -12 2 C-12 1.67 -12 1.34 -12 1 C-7.9472484 0.01751476 -4.16138263 -0.08159574 0 0 Z " fill="#F1EDEC" transform="translate(147,14)"/>
<path d="M0 0 C-0.33 0.66 -0.66 1.32 -1 2 C-4.47325181 3.1577506 -7.36067448 3.06866652 -11 3 C-7.68381684 -0.31618316 -4.50821267 -1.6697084 0 0 Z " fill="#F6F2EF" transform="translate(117,15)"/>
<path d="M0 0 C2.64 0 5.28 0 8 0 C8.33 0.66 8.66 1.32 9 2 C7.35 2.66 5.7 3.32 4 4 C2.68 2.68 1.36 1.36 0 0 Z " fill="#F3EFE9" transform="translate(37,198)"/>
<path d="M0 0 C3.96 0.33 7.92 0.66 12 1 C12 1.33 12 1.66 12 2 C8.37 2.33 4.74 2.66 1 3 C0.67 2.01 0.34 1.02 0 0 Z " fill="#E0E1E5" transform="translate(134,12)"/>
<path d="M0 0 C0.33 0 0.66 0 1 0 C1 2.97 1 5.94 1 9 C0.01 9 -0.98 9 -2 9 C-2.20140476 5.37471432 -1.85776765 3.13498292 0 0 Z " fill="#DEDBD9" transform="translate(161,121)"/>
<path d="M0 0 C0.33 0.99 0.66 1.98 1 3 C0.67 3.66 0.34 4.32 0 5 C1.65 5.33 3.3 5.66 5 6 C5 6.33 5 6.66 5 7 C2.6875 7.3125 2.6875 7.3125 0 7 C-1.8125 4.5 -1.8125 4.5 -3 2 C-2.01 1.34 -1.02 0.68 0 0 Z " fill="#3A425A" transform="translate(114,75)"/>
</svg>
