<?xml version="1.0" encoding="UTF-8"?>
<svg version="1.1" xmlns="http://www.w3.org/2000/svg" width="203" height="202">
<path d="M0 0 C66.99 0 133.98 0 203 0 C203 66.66 203 133.32 203 202 C136.01 202 69.02 202 0 202 C0 135.34 0 68.68 0 0 Z " fill="#88261D" transform="translate(0,0)"/>
<path d="M0 0 C66.99 0 133.98 0 203 0 C203 66.66 203 133.32 203 202 C136.01 202 69.02 202 0 202 C0 135.34 0 68.68 0 0 Z M20 11 C20.14130286 14.6043588 20.28890164 18.20843519 20.4375 21.8125 C20.47681641 22.81732422 20.51613281 23.82214844 20.55664062 24.85742188 C20.80305866 30.75249943 21.21418107 36.60186758 21.77514648 42.47485352 C22.59629264 51.69647646 22.99796323 59.91042961 18.875 68.37109375 C17.34151975 72.9783804 17.97058205 77.71028559 18.125 82.51171875 C17.97846007 86.6010987 16.97797135 88.83404167 14.89453125 92.25 C12.44307014 97.04587152 14.12907492 103.74167569 14.79296875 108.90234375 C15 111 15 111 14.8125 114.1875 C14.7558749 117.21137197 14.7558749 117.21137197 17.125 119.8125 C19 123 19 123 18.25 126.875 C18.03601563 127.63554688 17.82203125 128.39609375 17.6015625 129.1796875 C15.804489 137.60492819 15.71708282 147.07230463 19.92578125 154.70703125 C21.7709792 158.64569014 22.32845585 162.92022138 23.09375 167.1796875 C23.8006274 170.02864819 23.8006274 170.02864819 25.6640625 171.87890625 C28.8649699 173.41512769 31.34383706 173.21817493 34.875 173.0625 C39.85558599 172.8527345 43.3205381 173.34879174 48 175 C51.03561244 175.34380167 54.04743105 175.49922425 57.09765625 175.65625 C60.05314616 176.00629457 62.26212862 176.88457092 65 178 C67.33954855 177.71352467 69.67212073 177.36950465 72 177 C80.47535526 176.52701637 88.57172042 177.53199655 96.94970703 178.71337891 C126.2947742 182.81567813 156.42333301 182.25456612 186 182 C185.57976038 176.32641438 184.99058621 171.28729812 182.9375 165.9375 C180.8734064 159.72302464 180.68634468 154.20092104 180.97241211 147.73608398 C181.12561616 143.85597547 181.00922543 141.33863774 179 138 C178.835 136.824375 178.67 135.64875 178.5 134.4375 C178.23464413 130.88704437 178.23464413 130.88704437 176 128 C175.734375 125.37109375 175.734375 125.37109375 175.75 122.4375 C175.74226563 120.98150391 175.74226563 120.98150391 175.734375 119.49609375 C176 117 176 117 178 115 C178.75580781 113.1432966 178.75580781 113.1432966 179.375 111 C180.4652546 107.52236738 181.74037111 104.21924838 183.1875 100.875 C184.88366689 96.73738077 185.27030301 93.50505011 185 89 C185.5 86.5625 185.5 86.5625 186 85 C186.66 85 187.32 85 188 85 C187.4668481 81.69445822 186.54357788 78.74654366 185.375 75.625 C183.94146203 71.36675666 183.75155949 68.41115646 185 64 C185.680625 63.01 186.36125 62.02 187.0625 61 C189.48133198 57.25471177 189.32676979 55.40909091 189 51 C187.94454145 47.53491165 187.94454145 47.53491165 186.5 44.125 C183.33440387 35.65052878 183.29296452 29.69557278 185.5625 21.04296875 C186.13960094 18.69632828 186.13960094 18.69632828 186 15 C151.18805858 13.81372647 116.37406559 12.78738053 81.55215836 11.94179535 C78.83271792 11.87549293 76.11330207 11.80825381 73.39389038 11.74078369 C46.70049051 11.05934588 46.70049051 11.05934588 20 11 Z " fill="#707DA5" transform="translate(0,0)"/>
<path d="M0 0 C16.83 0 33.66 0 51 0 C49.88543877 5.57280616 49.31196731 6.04052433 45 9.25 C44.0925 9.93578125 43.185 10.6215625 42.25 11.328125 C41.5075 11.87984375 40.765 12.4315625 40 13 C38.78995168 13.98966726 38.78995168 13.98966726 38.87974548 15.90455627 C38.88196609 16.73728561 38.88418671 17.57001495 38.88647461 18.42797852 C38.88655014 19.36887833 38.88662567 20.30977814 38.88670349 21.27919006 C38.89186478 22.30209641 38.89702606 23.32500275 38.90234375 24.37890625 C38.90446617 25.941605 38.90446617 25.941605 38.90663147 27.53587341 C38.9122492 30.87811094 38.9248047 34.22028257 38.9375 37.5625 C38.94251272 39.82226466 38.94707602 42.08203037 38.95117188 44.34179688 C38.96137544 49.89457734 38.98094736 55.44721452 39 61 C52.2 61 65.4 61 79 61 C78.96674972 54.83590915 78.90054626 48.69052539 78.74975586 42.53076172 C78.70846966 40.43795634 78.68645309 38.34467635 78.68432617 36.25146484 C79.24269108 24.48189092 79.24269108 24.48189092 74.56738281 14.39013672 C71.69760879 12.76009078 71.69760879 12.76009078 68.70092773 11.87988281 C64.59620781 10.5426858 62.18146437 7.64687554 60 4 C59.505 2.02 59.505 2.02 59 0 C75.83 0 92.66 0 110 0 C108.88543877 5.57280616 108.31196731 6.04052433 104 9.25 C103.0925 9.93578125 102.185 10.6215625 101.25 11.328125 C100.5075 11.87984375 99.765 12.4315625 99 13 C97.72609595 14.05141798 97.72609595 14.05141798 97.8671875 16.4296875 C97.88797528 25.5970999 98.19952131 34.7375664 98.57373047 43.89697266 C98.87952224 51.74703902 99.0927952 59.59498555 99.25390625 67.44921875 C99.27464706 68.45759293 99.29538788 69.4659671 99.3167572 70.50489807 C99.41929074 75.56770771 99.51603098 80.63057682 99.60717773 85.69360352 C99.69212892 90.3026064 99.80793163 94.91005119 99.94046021 99.51791382 C99.99622177 101.84249358 100.01324585 104.16436095 100.02319336 106.48950195 C100.04706024 114.40370179 100.04706024 114.40370179 103.94140625 120.94921875 C105.6903398 122.4088422 105.6903398 122.4088422 107.5625 123.6875 C109.79429208 125.39581415 111.89160694 127.13206345 114 129 C114 130.32 114 131.64 114 133 C111.00372383 133.86774887 108.34640117 134.12189893 105.23144531 134.11352539 C104.29077209 134.11344986 103.35009888 134.11337433 102.38092041 134.11329651 C101.37349792 134.10813522 100.36607544 134.10297394 99.328125 134.09765625 C98.29057068 134.0962413 97.25301636 134.09482635 96.184021 134.09336853 C92.87265124 134.08777447 89.56134929 134.07522303 86.25 134.0625 C84.00390723 134.05748423 81.75781339 134.05292146 79.51171875 134.04882812 C74.0077894 134.03780699 68.50389954 134.02107474 63 134 C63.68317184 130.10756527 64.44238241 127.93959373 67.0625 124.9375 C67.61035156 124.28652344 68.15820312 123.63554687 68.72265625 122.96484375 C71 121 71 121 79 117 C79 103.8 79 90.6 79 77 C72.52526709 77.32432543 72.52526709 77.32432543 66.05102539 77.65820312 C57.36617676 78.07266802 48.69207908 78.04637493 40 78 C40.06899516 83.03588432 40.15701848 88.07094767 40.26245117 93.10620117 C40.29564169 94.81802238 40.32369189 96.52995148 40.34643555 98.24194336 C40.38009032 100.70733479 40.43240974 103.17174281 40.48828125 105.63671875 C40.49467117 106.39836838 40.5010611 107.16001801 40.50764465 107.94474792 C40.63197497 112.46950477 41.23309399 115.38948482 44 119 C46.81556628 121.644432 49.74449127 124.1104732 52.69921875 126.59765625 C55 129 55 129 55 133 C52.00372383 133.86774887 49.34640117 134.12189893 46.23144531 134.11352539 C45.29077209 134.11344986 44.35009888 134.11337433 43.38092041 134.11329651 C42.37349792 134.10813522 41.36607544 134.10297394 40.328125 134.09765625 C39.29057068 134.0962413 38.25301636 134.09482635 37.184021 134.09336853 C33.87265124 134.08777447 30.56134929 134.07522303 27.25 134.0625 C25.00390723 134.05748423 22.75781339 134.05292146 20.51171875 134.04882812 C15.0077894 134.03780699 9.50389954 134.02107474 4 134 C4.68317184 130.10756527 5.44238241 127.93959373 8.0625 124.9375 C8.61035156 124.28652344 9.15820312 123.63554687 9.72265625 122.96484375 C11.85022178 121.12922546 13.63843878 120.09562966 16.14233398 118.87719727 C16.86428452 118.52367691 17.58623505 118.17015656 18.33006287 117.80592346 C18.88114212 117.53996872 19.43222137 117.27401398 20 117 C19.89102404 107.65292912 19.77813964 98.30591507 19.66066074 88.95894718 C19.60618756 84.61579863 19.55291515 80.27264322 19.50268555 75.92944336 C19.39711756 66.86058767 19.27655893 57.79234034 19.11406708 48.72430515 C19.04985185 45.12276365 18.99201547 41.52162939 18.9597168 37.91964722 C18.92446903 34.38307392 18.8594366 30.84843258 18.78515625 27.3125 C18.78262344 26.30433731 18.78009064 25.29617462 18.77748108 24.25746155 C18.67888382 18.76771317 18.67888382 18.76771317 15.57568359 14.38427734 C12.89898326 12.84581812 12.89898326 12.84581812 9.87890625 11.9765625 C5.33168028 10.43408422 2.50907112 7.01622647 0 3 C0 2.01 0 1.02 0 0 Z " fill="#070506" transform="translate(47,28)"/>
<path d="M0 0 C1.47906892 -0.02689216 2.95827483 -0.04634621 4.4375 -0.0625 C5.26121094 -0.07410156 6.08492187 -0.08570312 6.93359375 -0.09765625 C9 0 9 0 10 1 C10.07274004 3.75048278 9.99625764 6.48768901 9.9375 9.23828125 C9.99358647 11.71660194 10.32124079 13.63691237 11 16 C11.2165625 17.5159375 11.2165625 17.5159375 11.4375 19.0625 C11.8365112 22.17544256 11.8365112 22.17544256 14 25 C14.37890625 27.0078125 14.37890625 27.0078125 14.5625 29.125 C14.56686899 32.77463966 14.56686899 32.77463966 16 34 C16.54701173 38.40095801 16.6879435 42.61232885 16 47 C14.35108978 48.86398547 12.8227468 49.73425428 10.6484375 50.91015625 C8.6259565 52.0213094 8.6259565 52.0213094 7.6875 55.3125 C8.12991406 60.53298596 10.70046258 63.12081411 14 67 C15.26237731 69.52475462 15.09856404 71.31200466 15.0625 74.125 C15.05347656 75.03507812 15.04445312 75.94515625 15.03515625 76.8828125 C15.01775391 77.93082031 15.01775391 77.93082031 15 79 C14.06414062 79.41958984 14.06414062 79.41958984 13.109375 79.84765625 C9.82244415 81.6432944 9.23453639 83.48157129 8 87 C7.91649379 89.80998411 8.00300477 92.58918165 8.09765625 95.3984375 C7.97040643 98.7883727 6.5022858 100.9954284 5 104 C4.52557901 108.35302068 5.1041358 111.72355388 7.63671875 115.33203125 C8.90827065 116.84602915 10.18552063 118.35526188 11.46875 119.859375 C13 122 13 122 13.5625 125.875 C13 129 13 129 11 132 C10.60459782 136.6677657 10.60459782 136.6677657 12.0625 141 C13.50125516 144.06934435 12.50235281 146.67981387 12 150 C11.71943169 153.51734817 11.56414535 157.04220208 11.39453125 160.56640625 C11.10458519 165.89541481 11.10458519 165.89541481 10 167 C8.41165469 167.09863452 6.81894335 167.12798791 5.22753906 167.12939453 C4.20847473 167.13254669 3.1894104 167.13569885 2.13946533 167.13894653 C1.02609802 167.1369223 -0.08726929 167.13489807 -1.234375 167.1328125 C-2.37851868 167.13376923 -3.52266235 167.13472595 -4.70147705 167.13571167 C-7.13610895 167.13639436 -9.57074265 167.13453395 -12.00537109 167.13037109 C-15.69242589 167.12508258 -19.37935557 167.13028238 -23.06640625 167.13671875 C-25.4348961 167.13605684 -27.80338587 167.13477334 -30.171875 167.1328125 C-31.26095154 167.13483673 -32.35002808 167.13686096 -33.47210693 167.13894653 C-40.02457264 167.11940389 -46.48898783 166.80063561 -53.01596069 166.2167511 C-58.95058785 165.78567871 -64.89944693 165.99789918 -70.84375 166.12695312 C-76.37937933 166.19036667 -80.7491977 165.71711843 -86 164 C-88.41748605 163.69316868 -88.41748605 163.69316868 -90.625 163.75 C-91.33914062 163.74484375 -92.05328125 163.7396875 -92.7890625 163.734375 C-95.07760999 163.89995494 -95.07760999 163.89995494 -97.3046875 165.01953125 C-101.89026231 166.68761716 -106.58963542 165.97482495 -111.40625 165.77734375 C-115.25464086 166.01577666 -116.88962068 166.8398609 -120 169 C-124.44727297 169.82739962 -127.03520075 168.56984584 -130.875 166.5 C-135.64250852 163.96164328 -138.64290028 163.34211056 -144 164 C-145.485 164.99 -145.485 164.99 -147 166 C-151.23177637 165.85894079 -153.1960523 162.87070836 -156 160 C-157.051875 159.29875 -158.10375 158.5975 -159.1875 157.875 C-162 156 -162 156 -164 153 C-164 152.01 -164 151.02 -164 150 C-161 151 -161 151 -159 154 C-155.70924004 153.62095792 -155.70924004 153.62095792 -153 152 C-147.99464551 151.34712768 -145.0383314 152.2870946 -140.5 154.5 C-136.11201569 156.61875237 -132.95363351 157.80875649 -128 157 C-127.11248047 156.24396484 -127.11248047 156.24396484 -126.20703125 155.47265625 C-123.21027089 153.47304801 -121.18827441 153.76722698 -117.625 153.9375 C-112.84048361 154.15599665 -109.49869101 153.60404147 -105 152 C-99.73785535 151.38517898 -95.04729173 152.11148808 -89.99609375 153.5546875 C-86.64517614 154.30225033 -83.41976569 154.12213449 -80 154 C-80 153.67 -80 153.34 -80 153 C-78.86948967 153.09896828 -78.86948967 153.09896828 -77.71614075 153.19993591 C-68.84013276 153.93469379 -59.97412907 154.29000447 -51.07421875 154.53515625 C-49.59063442 154.57829753 -48.10705806 154.62171397 -46.62348938 154.66539001 C-42.76530293 154.77825081 -38.9070214 154.88743601 -35.04870605 154.99578857 C-31.09295178 155.10755095 -27.13730162 155.22288238 -23.18164062 155.33789062 C-15.45452326 155.56203656 -7.72730165 155.78228964 0 156 C-0.80847369 152.54071257 -1.62245994 149.08274571 -2.4375 145.625 C-2.66759766 144.64015625 -2.89769531 143.6553125 -3.13476562 142.640625 C-3.35712891 141.69960937 -3.57949219 140.75859375 -3.80859375 139.7890625 C-4.01282959 138.91975098 -4.21706543 138.05043945 -4.42749023 137.15478516 C-4.9295171 134.97217907 -4.9295171 134.97217907 -6 133 C-6.02589031 129.42713673 -5.97191074 125.86795781 -5.87304688 122.296875 C-5.81378458 118.26703911 -5.84814934 115.52641687 -8 112 C-8.165 110.824375 -8.33 109.64875 -8.5 108.4375 C-8.76535587 104.88704437 -8.76535587 104.88704437 -11 102 C-11.265625 99.37109375 -11.265625 99.37109375 -11.25 96.4375 C-11.25773437 94.98150391 -11.25773437 94.98150391 -11.265625 93.49609375 C-11 91 -11 91 -9 89 C-8.24419219 87.1432966 -8.24419219 87.1432966 -7.625 85 C-6.5347454 81.52236738 -5.25962889 78.21924838 -3.8125 74.875 C-2.10725498 70.73093285 -1.81977952 67.50551209 -2 63 C-1 60.5625 -1 60.5625 0 59 C0.66 59 1.32 59 2 59 C1.5978125 58.0409375 1.5978125 58.0409375 1.1875 57.0625 C0.795625 56.051875 0.40375 55.04125 0 54 C-0.46599609 52.948125 -0.46599609 52.948125 -0.94140625 51.875 C-1.8772717 49.55687302 -2.60778613 47.47094736 -3 45 C-1.32799269 41.23798355 -0.0768257 39.5280126 3.62890625 37.7109375 C6.29261278 36.19834003 6.29261278 36.19834003 6.55859375 33.1875 C6.51863281 32.135625 6.47867188 31.08375 6.4375 30 C6.41558594 28.948125 6.39367187 27.89625 6.37109375 26.8125 C6.18366186 23.79764227 6.18366186 23.79764227 4 21 C3.4375 18.9140625 3.4375 18.9140625 3 16.625 C2.45468184 13.93330958 1.88730465 11.73308996 0.8125 9.1875 C-0.14458874 6.61072263 0.22875832 5.57080559 1 3 C0.67 2.01 0.34 1.02 0 0 Z " fill="#586380" transform="translate(186,26)"/>
<path d="M0 0 C1.47906892 -0.02689216 2.95827483 -0.04634621 4.4375 -0.0625 C5.26121094 -0.07410156 6.08492187 -0.08570312 6.93359375 -0.09765625 C9 0 9 0 10 1 C10.07274004 3.75048278 9.99625764 6.48768901 9.9375 9.23828125 C9.99358647 11.71660194 10.32124079 13.63691237 11 16 C11.144375 17.010625 11.28875 18.02125 11.4375 19.0625 C11.8365112 22.17544256 11.8365112 22.17544256 14 25 C14.37890625 27.0078125 14.37890625 27.0078125 14.5625 29.125 C14.56686899 32.77463966 14.56686899 32.77463966 16 34 C16.54701173 38.40095801 16.6879435 42.61232885 16 47 C14.35108978 48.86398547 12.8227468 49.73425428 10.6484375 50.91015625 C8.6259565 52.0213094 8.6259565 52.0213094 7.6875 55.3125 C8.12991406 60.53298596 10.70046258 63.12081411 14 67 C15.26237731 69.52475462 15.09856404 71.31200466 15.0625 74.125 C15.05347656 75.03507812 15.04445312 75.94515625 15.03515625 76.8828125 C15.02355469 77.58148438 15.01195312 78.28015625 15 79 C14.06414062 79.41958984 14.06414062 79.41958984 13.109375 79.84765625 C9.82244415 81.6432944 9.23453639 83.48157129 8 87 C7.91654447 89.8082787 8.0028135 92.58686667 8.09375 95.39453125 C7.97098782 98.80629691 6.59003575 101.01868297 5 104 C4.74610947 106.72310034 4.8581159 109.25690733 5 112 C4.34 112 3.68 112 3 112 C1.60287726 110.04402816 0.28072371 108.0340906 -1 106 C-1.7425 105.071875 -2.485 104.14375 -3.25 103.1875 C-5.49746423 99.09390444 -5.75210662 95.59134854 -5 91 C-4.34 90.01 -3.68 89.02 -3 88 C-2.90875526 85.52184259 -2.90875526 85.52184259 -3.125 82.8125 C-3.22392354 77.48476095 -2.42129296 73.21325892 1 69 C3.140625 67.78515625 3.140625 67.78515625 5 67 C5.45356243 60.53673535 4.59378942 57.39068413 1 52 C0.01 52.495 0.01 52.495 -1 53 C-3.64259871 45.42567249 -3.64259871 45.42567249 -2.16015625 42.13671875 C0.19398735 39.25307173 2.67285034 37.53505832 6 36 C6.05406122 34.06280622 6.09282025 32.12518079 6.125 30.1875 C6.14820313 29.10855469 6.17140625 28.02960937 6.1953125 26.91796875 C6.23023717 23.80597132 6.23023717 23.80597132 4 21 C3.4375 18.9140625 3.4375 18.9140625 3 16.625 C2.45468184 13.93330958 1.88730465 11.73308996 0.8125 9.1875 C-0.14458874 6.61072263 0.22875832 5.57080559 1 3 C0.67 2.01 0.34 1.02 0 0 Z " fill="#586380" transform="translate(186,26)"/>
<path d="M0 0 C0.33 0 0.66 0 1 0 C1.09796875 0.61746094 1.1959375 1.23492187 1.296875 1.87109375 C2.07801266 6.29529584 2.97068508 10.25829913 4.9375 14.3125 C7.26449286 19.12161857 8.20683255 24.04870701 9.19140625 29.27734375 C9.7772181 32.31348177 9.7772181 32.31348177 13 34 C16.50133412 34.13918347 19.95573587 33.9950873 23.45703125 33.875 C27.07146165 34.00252125 29.61327014 34.80787109 33 36 C36.03561244 36.34380167 39.04743105 36.49922425 42.09765625 36.65625 C45.05314616 37.00629457 47.26212862 37.88457092 50 39 C52.33954855 38.71352467 54.67212073 38.36950465 57 38 C69.82295409 37.28439019 82.45750435 39.54886779 95 42 C95 42.33 95 42.66 95 43 C83.48379999 43.345486 83.48379999 43.345486 78.8125 42 C73.41525214 40.58432843 68.45367933 40.12512253 63.140625 42.01953125 C58.69356536 43.40785459 54.63310799 42.99761938 50.0234375 42.77734375 C46.6046183 43.02911726 45.54898335 43.82864381 43 46 C36.94702361 46.98824104 32.94719055 44.68661849 27.65625 42.12109375 C24.06496443 40.60535999 21.83516767 40.44070471 18 41 C17.01 41.66 16.02 42.32 15 43 C10.76822363 42.85894079 8.8039477 39.87070836 6 37 C4.4221875 35.948125 4.4221875 35.948125 2.8125 34.875 C0 33 0 33 -2 30 C-2.16015625 27.37109375 -2.16015625 27.37109375 -2.0625 24.4375 C-1.83191303 20.56909707 -1.83191303 20.56909707 -3 17 C-2.86009662 11.11329609 -1.81976023 5.58059803 0 0 Z " fill="#F2EEEC" transform="translate(15,138)"/>
<path d="M0 0 C0.33 0 0.66 0 1 0 C1.31533344 11.19191144 1.21927581 21.4950897 -1.328125 32.4296875 C-2.67731594 39.59922541 -2.61299478 47.03775684 -1.49829102 54.24291992 C-0.99303893 58.05248602 -0.85776841 61.7094655 -0.82421875 65.55078125 C-0.80101799 66.98634275 -0.77690054 68.42188967 -0.75195312 69.85742188 C-0.71697547 72.08204951 -0.68753851 74.30613752 -0.67407227 76.53100586 C-0.6163448 84.53913753 -0.38575959 91.50093087 3.09350586 98.88745117 C4.49402379 102.15130295 4.53878604 104.95739013 4.625 108.5 C4.47803025 113.30159351 4.47803025 113.30159351 7 117 C9.50544128 117.04141225 11.93915918 116.98960279 14.4375 116.875 C21.67292873 116.67909489 27.39388725 117.86489564 34 121 C34 121.33 34 121.66 34 122 C32.62546802 122.05498128 31.25026422 122.09322822 29.875 122.125 C29.10929687 122.14820313 28.34359375 122.17140625 27.5546875 122.1953125 C25 122 25 122 22.13671875 120.98046875 C18.51059636 119.84702327 15.71704314 119.96952852 11.9375 120.1875 C5.43177878 120.22858877 5.43177878 120.22858877 1.8125 118.3125 C-0.48448893 114.11455471 -1.36492145 110.0402326 -2.2265625 105.3515625 C-2.9024261 101.91009275 -2.9024261 101.91009275 -4.56640625 98.578125 C-6.1479156 94.63081555 -6.41918757 91.30292545 -6.3125 87.125 C-6.30428223 86.0733667 -6.30428223 86.0733667 -6.29589844 85.00048828 C-6.21858671 81.11602359 -5.80994204 77.6070115 -4.75 73.875 C-3.52805559 69.99423565 -3.52805559 69.99423565 -5.875 67.1875 C-8.72397246 62.91404131 -8.27639505 59.72254225 -8.04296875 54.70703125 C-7.84894419 51.90109325 -7.84894419 51.90109325 -9 49 C-9.39802667 44.3032853 -9.4875767 41.46333084 -7 37.4375 C-4.72677476 33.43567641 -4.85344713 30.18187826 -5 25.625 C-5.18469659 19.6253397 -4.50958157 15.61517738 -1.95703125 10.23046875 C-0.50437388 6.84488769 -0.27072042 3.65472563 0 0 Z " fill="#A94337" transform="translate(23,53)"/>
<path d="M0 0 C3.26755825 3.04972103 5.74883268 5.37320846 6.1875 9.9609375 C6.25 12.125 6.25 12.125 6 16 C5.34 16.66 4.68 17.32 4 18 C3.01 18 2.02 18 1 18 C-0.97597287 23.40099252 -2.0484306 28.4816087 -1.9375 34.25 C-2 37 -2 37 -4 40 C-4.75210662 44.59134854 -4.49746423 48.09390444 -2.25 52.1875 C-1.13625 53.5796875 -1.13625 53.5796875 0 55 C4.04320203 60.13595934 4.04320203 60.13595934 3.8125 64.75 C3 68 3 68 2 70 C1.75514423 74.40740394 1.94375902 77.14454816 4 81 C4.1875 83.6875 4.1875 83.6875 4 86 C3.505 86.495 3.505 86.495 3 87 C2.76340386 90.42501072 2.60326028 93.84280568 2.48242188 97.2734375 C2.39089509 99.18686533 2.20260148 101.09512839 2 103 C1.01 103.495 1.01 103.495 0 104 C-0.14622803 103.40461426 -0.29245605 102.80922852 -0.44311523 102.19580078 C-1.10545685 99.50492304 -1.77143268 96.81495783 -2.4375 94.125 C-2.66759766 93.18785156 -2.89769531 92.25070313 -3.13476562 91.28515625 C-3.35712891 90.38925781 -3.57949219 89.49335938 -3.80859375 88.5703125 C-4.01282959 87.74289551 -4.21706543 86.91547852 -4.42749023 86.06298828 C-4.94007994 83.96004845 -4.94007994 83.96004845 -6 82 C-6.02589031 78.42713673 -5.97191074 74.86795781 -5.87304688 71.296875 C-5.81378458 67.26703911 -5.84814934 64.52641687 -8 61 C-8.165 59.824375 -8.33 58.64875 -8.5 57.4375 C-8.76535587 53.88704437 -8.76535587 53.88704437 -11 51 C-11.265625 48.37109375 -11.265625 48.37109375 -11.25 45.4375 C-11.25515625 44.46683594 -11.2603125 43.49617188 -11.265625 42.49609375 C-11 40 -11 40 -9 38 C-8.24419219 36.1432966 -8.24419219 36.1432966 -7.625 34 C-6.5347454 30.52236738 -5.25962889 27.21924838 -3.8125 23.875 C-2.10725498 19.73093285 -1.81977952 16.50551209 -2 12 C-1 9.5625 -1 9.5625 0 8 C0.66 8 1.32 8 2 8 C1.67 7.236875 1.34 6.47375 1 5.6875 C0 3 0 3 0 0 Z " fill="#EFE9E7" transform="translate(186,77)"/>
<path d="M0 0 C5.57048313 -0.22281933 9.68935532 0.22978511 15 2 C18.03179858 2.3023515 21.05498094 2.49961292 24.09765625 2.65625 C27.05314616 3.00629457 29.26212862 3.88457092 32 5 C34.33954855 4.71352467 36.67212073 4.36950465 39 4 C51.82295409 3.28439019 64.45750435 5.54886779 77 8 C77 8.33 77 8.66 77 9 C65.48379999 9.345486 65.48379999 9.345486 60.8125 8 C55.41525214 6.58432843 50.45367933 6.12512253 45.140625 8.01953125 C40.69356536 9.40785459 36.63310799 8.99761938 32.0234375 8.77734375 C28.60108636 9.02937736 27.55963591 9.83926839 25 12 C18.96976397 12.81176254 15.06758058 10.94841052 10 8 C10 6.35 10 4.7 10 3 C6.7 2.34 3.4 1.68 0 1 C0 0.67 0 0.34 0 0 Z " fill="#EFE8E6" transform="translate(33,172)"/>
<path d="M0 0 C1.50790668 4.52372003 2.06593065 9.598165 0.10546875 14.015625 C-0.25933594 14.67046875 -0.62414062 15.3253125 -1 16 C-4.34701012 22.06719502 -3.05669563 28.29761928 -2.20703125 34.90234375 C-2 37 -2 37 -2.1875 40.1875 C-2.2441251 43.21137197 -2.2441251 43.21137197 0.125 45.8125 C2.23938328 49.40695158 2.13387265 50.00654367 1.25 53.875 C0.85770628 55.25715113 0.44887571 56.63517521 0 58 C-0.33 58 -0.66 58 -1 58 C-1.10957031 57.38253906 -1.21914063 56.76507813 -1.33203125 56.12890625 C-2.30092797 50.95357988 -3.52327802 46.05747573 -5.31640625 41.10546875 C-6.92354438 36.15548332 -7.15490676 31.42386897 -7.125 26.25 C-7.12886719 25.56550781 -7.13273438 24.88101563 -7.13671875 24.17578125 C-7.12672061 19.12672061 -7.12672061 19.12672061 -6 18 C-6.05032304 14.76102596 -6.19808789 11.53233267 -6.35546875 8.296875 C-5.94205048 4.46253411 -4.47183298 0 0 0 Z " fill="#ECE5E5" transform="translate(18,74)"/>
<path d="M0 0 C0.33 0 0.66 0 1 0 C1.36463732 1.74784829 1.7163078 3.49840502 2.0625 5.25 C2.25972656 6.22453125 2.45695313 7.1990625 2.66015625 8.203125 C2.98895777 10.90912369 2.68998865 12.42668166 2 15 C2.6496875 16.0828125 2.6496875 16.0828125 3.3125 17.1875 C5.57952414 20.96587357 6.18173972 24.71200143 7 29 C7.20625 29.845625 7.4125 30.69125 7.625 31.5625 C7.74875 32.366875 7.8725 33.17125 8 34 C8.10054687 34.62777344 8.20109375 35.25554688 8.3046875 35.90234375 C8.51215279 38.13052095 8.55122575 39.82596564 8 42 C6.4033802 43.66510752 4.81527114 44.73830166 2.82421875 45.89453125 C0.90596473 47.05698497 -0.4766437 48.3641497 -2 50 C-1.64265874 46.24791676 -1.13163482 44.1874799 1.0625 41.0625 C3.45796531 37.27611935 3.3286799 35.43023468 3 31 C1.94454145 27.53491165 1.94454145 27.53491165 0.5 24.125 C-2.84585908 15.1774335 -2.63085191 9.04355345 0 0 Z " fill="#F1E5DE" transform="translate(185,20)"/>
<path d="M0 0 C1.09848966 13.33880305 1.10890351 26.62329823 1 40 C0.67 40 0.34 40 0 40 C0 38.02 0 36.04 0 34 C-0.66 34 -1.32 34 -2 34 C-1.67 23.44 -1.34 12.88 -1 2 C-13.54 2 -26.08 2 -39 2 C-39 1.67 -39 1.34 -39 1 C-25.98818941 0.03360558 -13.04454645 -0.1183055 0 0 Z " fill="#712520" transform="translate(126,105)"/>
<path d="M0 0 C1.47118538 0.00022659 1.47118538 0.00022659 2.97209167 0.00045776 C4.028423 0.01078033 5.08475433 0.02110291 6.1730957 0.03173828 C7.25645706 0.03456818 8.33981842 0.03739807 9.45600891 0.04031372 C12.92041003 0.05151987 16.3845538 0.07662544 19.84887695 0.10205078 C22.19587843 0.11208001 24.54288396 0.12120596 26.88989258 0.12939453 C32.64714203 0.15146062 38.40424111 0.18494251 44.16137695 0.22705078 C44.7512207 2.05517578 44.7512207 2.05517578 45.16137695 4.22705078 C43.72387695 6.97705078 43.72387695 6.97705078 42.16137695 9.22705078 C41.50137695 8.89705078 40.84137695 8.56705078 40.16137695 8.22705078 C40.82137695 7.56705078 41.48137695 6.90705078 42.16137695 6.22705078 C42.49137695 4.90705078 42.82137695 3.58705078 43.16137695 2.22705078 C26.33137695 2.22705078 9.50137695 2.22705078 -7.83862305 2.22705078 C-4.59577526 0.06515226 -3.73766084 -0.01921677 0 0 Z " fill="#62201B" transform="translate(113.838623046875,25.77294921875)"/>
<path d="M0 0 C19.01302622 -0.15457745 37.99762968 0.43348468 57 1 C57 1.33 57 1.66 57 2 C29.775 2.495 29.775 2.495 2 3 C2 9.6 2 16.2 2 23 C1.67 23 1.34 23 1 23 C0.67 15.41 0.34 7.82 0 0 Z " fill="#7B3236" transform="translate(20,11)"/>
<path d="M0 0 C0 0.33 0 0.66 0 1 C-0.56920166 0.99476318 -1.13840332 0.98952637 -1.72485352 0.98413086 C-4.33739083 0.96317113 -6.94991037 0.95027996 -9.5625 0.9375 C-10.45775391 0.92912109 -11.35300781 0.92074219 -12.27539062 0.91210938 C-16.23334774 0.89761136 -20.05637408 0.92543419 -23.96875 1.5625 C-27.35130988 2.05070452 -28.99968822 1.54561516 -32 0 C-32 -0.33 -32 -0.66 -32 -1 C-20.07686807 -4.13963349 -11.15243666 -6.03416863 0 0 Z " fill="#A74D41" transform="translate(92,176)"/>
<path d="M0 0 C3.26755825 3.04972103 5.74883268 5.37320846 6.1875 9.9609375 C6.25 12.125 6.25 12.125 6 16 C5.34 16.66 4.68 17.32 4 18 C3.01 18 2.02 18 1 18 C0.690625 18.94875 0.38125 19.8975 0.0625 20.875 C-1 24 -1 24 -2 26 C-2.66 25.67 -3.32 25.34 -4 25 C-3.505 23.7315625 -3.505 23.7315625 -3 22.4375 C-1.8312384 19.01654882 -1.8312384 19.01654882 -2 15.375 C-2 12.13036778 -1.71320631 10.67688486 0 8 C0.66 8 1.32 8 2 8 C1.67 7.236875 1.34 6.47375 1 5.6875 C0 3 0 3 0 0 Z " fill="#E3D4D4" transform="translate(186,77)"/>
<path d="M0 0 C0.33 0 0.66 0 1 0 C1.09796875 0.61746094 1.1959375 1.23492187 1.296875 1.87109375 C2.26930031 7.37870951 3.76933189 11.98065996 6.1796875 17.015625 C7.17692963 19.4280012 7.33338767 21.41624552 7 24 C6.34 24.33 5.68 24.66 5 25 C5 23.35 5 21.7 5 20 C4.01 19.67 3.02 19.34 2 19 C1.34 19.66 0.68 20.32 0 21 C0 20.34 0 19.68 0 19 C-0.66 19 -1.32 19 -2 19 C-4.68730469 13.62539061 -1.77622808 5.44709943 0 0 Z " fill="#EFE9E9" transform="translate(15,138)"/>
<path d="M0 0 C1.79275866 3.11910856 2.34290718 5.67682428 2.625 9.25 C2.73714844 10.58804688 2.73714844 10.58804688 2.8515625 11.953125 C2.90054688 12.62859375 2.94953125 13.3040625 3 14 C-19.34834919 14.19235205 -41.66258542 13.63220684 -64 13 C-64 12.67 -64 12.34 -64 12 C-59.34124223 11.83068138 -54.6822877 11.67032883 -50.02294922 11.51782227 C-48.44213828 11.46487105 -46.86140352 11.40958682 -45.28076172 11.35180664 C-29.889037 10.79201906 -29.889037 10.79201906 -22.24462891 11.75756836 C-18.13038462 12.20192822 -14.00804746 12.10460785 -9.875 12.0625 C-9.01390625 12.05798828 -8.1528125 12.05347656 -7.265625 12.04882812 C-5.17705215 12.03722494 -3.08851593 12.0192984 -1 12 C-0.10554296 7.92212105 0.08196118 4.18001995 0 0 Z " fill="#803533" transform="translate(183,168)"/>
<path d="M0 0 C0.33 0 0.66 0 1 0 C1.02922646 3.37498158 1.04687468 6.74993021 1.0625 10.125 C1.07087891 11.07632813 1.07925781 12.02765625 1.08789062 13.0078125 C1.10449608 17.79018487 1.00537055 22.29771569 0 27 C-0.66 26.67 -1.32 26.34 -2 26 C-2.33 27.98 -2.66 29.96 -3 32 C-3.33 32 -3.66 32 -4 32 C-5.07161041 23.91633018 -5.56487279 17.7066661 -1.9921875 10.265625 C-0.50255507 6.86410212 -0.27280221 3.68282978 0 0 Z " fill="#A3463A" transform="translate(23,53)"/>
<path d="M0 0 C0.99 0.495 0.99 0.495 2 1 C2 1.99 2 2.98 2 4 C2.9590625 4.2165625 2.9590625 4.2165625 3.9375 4.4375 C6 5 6 5 7 6 C8.74050241 5.97670861 10.48116906 5.94731447 12.22070312 5.88476562 C20.26719966 5.61484688 26.60762501 6.49175424 34 10 C34 10.33 34 10.66 34 11 C32.62546802 11.05498128 31.25026422 11.09322822 29.875 11.125 C28.72644531 11.15980469 28.72644531 11.15980469 27.5546875 11.1953125 C25 11 25 11 22.13671875 9.98046875 C18.51059636 8.84702327 15.71704314 8.96952852 11.9375 9.1875 C4.32306609 9.30810877 4.32306609 9.30810877 1.625 6.75 C0 4 0 4 0 0 Z " fill="#A84B41" transform="translate(23,164)"/>
<path d="M0 0 C1.69689226 5.09067679 1.84346874 10.15970456 -0.375 15 C-0.91125 15.66 -1.4475 16.32 -2 17 C-2.66 17 -3.32 17 -4 17 C-6.00356948 12.86763795 -6.4901127 9.57438521 -6 5 C-2.80851064 0 -2.80851064 0 0 0 Z " fill="#F0E9E6" transform="translate(18,74)"/>
<path d="M0 0 C0.33 0 0.66 0 1 0 C2.06059488 7.68931285 2.09928082 15.24506486 2 23 C1.34 23 0.68 23 0 23 C-0.66 24.32 -1.32 25.64 -2 27 C-3.81818182 15.63636364 -3.81818182 15.63636364 -2 12 C-1.34 12 -0.68 12 0 12 C0 8.04 0 4.08 0 0 Z " fill="#77789C" transform="translate(19,11)"/>
<path d="M0 0 C10.23 0 20.46 0 31 0 C31 0.99 31 1.98 31 3 C26.90658501 3.02469575 22.81319879 3.04285793 18.71972656 3.05493164 C17.32681523 3.0599643 15.9339092 3.06679098 14.54101562 3.07543945 C12.54038754 3.08755152 10.53972112 3.09270412 8.5390625 3.09765625 C7.33459473 3.10289307 6.13012695 3.10812988 4.88916016 3.11352539 C2 3 2 3 0 2 C0 1.34 0 0.68 0 0 Z " fill="#635462" transform="translate(156,181)"/>
<path d="M0 0 C0.33 0 0.66 0 1 0 C2.16494577 7.27307176 2.32873234 14.48323542 2.4050293 21.8347168 C2.42675361 23.40883122 2.46102437 24.98282036 2.50756836 26.55639648 C2.57441374 28.84412604 2.6019766 31.12940237 2.62109375 33.41796875 C2.64892441 34.11907272 2.67675507 34.8201767 2.70542908 35.54252625 C2.69702148 37.53588867 2.69702148 37.53588867 2 41 C-1.03881836 43.47387695 -1.03881836 43.47387695 -4 45 C-4.66 44.34 -5.32 43.68 -6 43 C-4.02 42.01 -2.04 41.02 0 40 C0 26.8 0 13.6 0 0 Z " fill="#220806" transform="translate(126,105)"/>
<path d="M0 0 C0.33 0 0.66 0 1 0 C1.36463732 1.74784829 1.7163078 3.49840502 2.0625 5.25 C2.25972656 6.22453125 2.45695313 7.1990625 2.66015625 8.203125 C2.98879633 10.90779508 2.7208196 12.43208018 2 15 C2.85790183 17.21771064 2.85790183 17.21771064 4 19 C3.01 19 2.02 19 1 19 C0.67 19.99 0.34 20.98 0 22 C-3.69526448 14.84042507 -2.15137609 7.39535532 0 0 Z " fill="#E8DCDC" transform="translate(185,20)"/>
<path d="M0 0 C0.99 0.66 1.98 1.32 3 2 C3 3.32 3 4.64 3 6 C2.34 6 1.68 6 1 6 C0.7834375 7.5159375 0.7834375 7.5159375 0.5625 9.0625 C0.04166667 12.70833333 -0.47916667 16.35416667 -1 20 C-2.84586777 16.85030499 -3.27170838 14.51115326 -3.25 10.875 C-3.25773438 9.57175781 -3.25773438 9.57175781 -3.265625 8.2421875 C-3 6 -3 6 -1 4 C-0.3574765 1.93125966 -0.3574765 1.93125966 0 0 Z " fill="#96372C" transform="translate(185,79)"/>
<path d="M0 0 C3.76343148 5.64514722 5.91683339 12.18923771 5 19 C3 21.9375 3 21.9375 1 24 C1.10699219 23.26394531 1.21398437 22.52789062 1.32421875 21.76953125 C2.04516874 15.90115339 2.26765966 13.03764198 -1 8 C-0.97378362 5.22106338 -0.51254413 2.74910035 0 0 Z " fill="#A4574C" transform="translate(184,39)"/>
<path d="M0 0 C2 3 2 3 2.5625 5.375 C1.88816494 8.52189694 1.24453767 8.83399471 -1.3125 10.625 C-1.92738281 11.00914063 -2.54226562 11.39328125 -3.17578125 11.7890625 C-5.03524199 13.02339404 -6.47573739 14.37724658 -8 16 C-7.5020163 12.26512223 -7.12508244 10.18762365 -5 7 C-4.01 7 -3.02 7 -2 7 C-1.34 4.69 -0.68 2.38 0 0 Z " fill="#EFEDEE" transform="translate(191,54)"/>
<path d="M0 0 C0.33 0.99 0.66 1.98 1 3 C0.34 3 -0.32 3 -1 3 C-0.9071875 4.5778125 -0.9071875 4.5778125 -0.8125 6.1875 C-1.00827545 10.16826743 -1.49998675 11.94442825 -4 15 C-4.99 15 -5.98 15 -7 15 C-6.5292131 10.76291788 -6.03198858 8.90565573 -3 6 C-2.64386903 4.33805547 -2.30791692 2.671549 -2 1 C-1.34 0.67 -0.68 0.34 0 0 Z " fill="#F7F1EF" transform="translate(182,110)"/>
<path d="M0 0 C0.36263859 5.8022175 -0.74315457 9.63999211 -3 15 C-3.33 15 -3.66 15 -4 15 C-5.60685522 4.86982581 -5.60685522 4.86982581 -3.125 1.3125 C-1 0 -1 0 0 0 Z " fill="#EFE7E7" transform="translate(23,54)"/>
<path d="M0 0 C0.2475 0.53625 0.495 1.0725 0.75 1.625 C1.9849299 4.17396363 1.9849299 4.17396363 4.25 6.6875 C6.46882896 10.88742624 5.83137115 12.82668072 4.578125 17.2421875 C4.38734375 17.82226562 4.1965625 18.40234375 4 19 C3.67 19 3.34 19 3 19 C2.87882812 18.35933594 2.75765625 17.71867187 2.6328125 17.05859375 C1.84280938 12.98096225 1.04606394 8.96922276 -0.1875 5 C-1 2 -1 2 0 0 Z " fill="#E2D4D3" transform="translate(14,113)"/>
<path d="M0 0 C6.39205856 0.72362927 12.68027076 1.80343362 19 3 C19 3.33 19 3.66 19 4 C11.95559921 4.21133202 5.75887425 4.07965362 -1 2 C-0.67 1.34 -0.34 0.68 0 0 Z " fill="#DBCFD1" transform="translate(91,177)"/>
<path d="M0 0 C0.99 0.495 0.99 0.495 2 1 C2 1.99 2 2.98 2 4 C2.515625 4.12375 3.03125 4.2475 3.5625 4.375 C6.72702351 5.18641628 9.86124985 6.0945913 13 7 C10 9 10 9 6.5 8.875 C3 8 3 8 1.0625 6.1875 C0 4 0 4 0 0 Z " fill="#A65249" transform="translate(23,164)"/>
<path d="M0 0 C1.32 0.33 2.64 0.66 4 1 C4.36552803 2.41377782 4.71695495 3.83120576 5.0625 5.25 C5.25972656 6.03890625 5.45695313 6.8278125 5.66015625 7.640625 C6.01497267 10.10394822 5.76877544 11.65604132 5 14 C3.00902154 11.01353231 2.05875074 8.40312738 1 5 C0.67 5 0.34 5 0 5 C0 3.35 0 1.7 0 0 Z " fill="#F2EFF1" transform="translate(186,39)"/>
<path d="M0 0 C0.33 0 0.66 0 1 0 C1 4.29 1 8.58 1 13 C0.01 13.495 0.01 13.495 -1 14 C-1.66 10.37 -2.32 6.74 -3 3 C-2.01 3 -1.02 3 0 3 C0 2.01 0 1.02 0 0 Z " fill="#C9BFBF" transform="translate(187,167)"/>
<path d="M0 0 C6.6 0 13.2 0 20 0 C20 0.33 20 0.66 20 1 C12.08 1.495 12.08 1.495 4 2 C4 3.65 4 5.3 4 7 C1.23609263 4.59660228 0.95934081 3.83736322 0 0 Z " fill="#160504" transform="translate(106,28)"/>
<path d="M0 0 C3 1 3 1 5 4 C6.98 3.67 8.96 3.34 11 3 C10.34 4.32 9.68 5.64 9 7 C5.625 6.6875 5.625 6.6875 2 6 C0 3 0 3 0 0 Z " fill="#636C85" transform="translate(22,176)"/>
<path d="M0 0 C0 2.31 0 4.62 0 7 C-1.32 7.33 -2.64 7.66 -4 8 C-4.33 6.35 -4.66 4.7 -5 3 C-1.125 0 -1.125 0 0 0 Z " fill="#F7F4F1" transform="translate(191,86)"/>
<path d="M0 0 C1.10730493 3.32191478 0.8904074 3.79453335 0 7 C-0.3496418 9.33094534 -0.68554487 11.66404762 -1 14 C-3.09678815 10.59271925 -3.4133256 7.96792579 -3 4 C-1.5 1.625 -1.5 1.625 0 0 Z " fill="#9F493F" transform="translate(185,85)"/>
<path d="M0 0 C0.33 0 0.66 0 1 0 C1.78774617 8.03501094 1.78774617 8.03501094 -1.5 12.0625 C-2.325 12.701875 -3.15 13.34125 -4 14 C-3.21824485 9.15311808 -1.60155722 4.6233633 0 0 Z " fill="#F0DAD4" transform="translate(179,107)"/>
<path d="M0 0 C2.39073445 3.82517513 2.55966552 7.59665524 3 12 C1.68 12.33 0.36 12.66 -1 13 C-0.835 12.154375 -0.67 11.30875 -0.5 10.4375 C0.01329288 6.90861144 0.07121346 3.56067311 0 0 Z " fill="#8E3B32" transform="translate(183,168)"/>
<path d="M0 0 C1.32 0.33 2.64 0.66 4 1 C5.1875 4.25 5.1875 4.25 6 8 C4.625 10.4375 4.625 10.4375 3 12 C2.86722656 11.38511719 2.73445312 10.77023438 2.59765625 10.13671875 C2.42105469 9.32847656 2.24445313 8.52023438 2.0625 7.6875 C1.88847656 6.88699219 1.71445313 6.08648437 1.53515625 5.26171875 C1.00113841 2.854599 1.00113841 2.854599 0 0 Z " fill="#626A85" transform="translate(189,80)"/>
<path d="M0 0 C1.32 0.33 2.64 0.66 4 1 C4 3 4 3 1.625 5.5625 C-1 8 -1 8 -3 9 C-2.5020163 5.26512223 -2.12508244 3.18762365 0 0 Z " fill="#DCCCCB" transform="translate(186,61)"/>
<path d="M0 0 C0.33 0 0.66 0 1 0 C1.33 5.94 1.66 11.88 2 18 C-1.49238487 13.34348683 -1.25378455 12.30988471 -0.6875 6.75 C-0.56761719 5.48671875 -0.44773437 4.2234375 -0.32421875 2.921875 C-0.21722656 1.95765625 -0.11023438 0.9934375 0 0 Z " fill="#9F362B" transform="translate(19,91)"/>
<path d="M0 0 C0.33 0 0.66 0 1 0 C1.33 3.3 1.66 6.6 2 10 C0.68 10 -0.64 10 -2 10 C-1.34 6.7 -0.68 3.4 0 0 Z " fill="#E5E0E0" transform="translate(15,138)"/>
<path d="M0 0 C2.29633824 3.44450737 2.54016485 5.93812283 3 10 C2.01 10.495 2.01 10.495 1 11 C0.67 7.37 0.34 3.74 0 0 Z " fill="#EEDBD6" transform="translate(19,152)"/>
<path d="M0 0 C0.66 0.33 1.32 0.66 2 1 C2.59355614 3.64860427 2.74209269 6.29197322 3 9 C2.67 8.34 2.34 7.68 2 7 C1.01 7 0.02 7 -1 7 C-0.67 4.69 -0.34 2.38 0 0 Z " fill="#8D3D3A" transform="translate(182,70)"/>
<path d="M0 0 C2.4294516 3.6441774 2.16179575 5.71241272 2 10 C1.01 9.34 0.02 8.68 -1 8 C-0.67 5.36 -0.34 2.72 0 0 Z " fill="#A14941" transform="translate(184,39)"/>
<path d="M0 0 C5.94 0.99 5.94 0.99 12 2 C12 2.33 12 2.66 12 3 C10.37509046 3.02698189 8.75005367 3.04638757 7.125 3.0625 C5.76761719 3.07990234 5.76761719 3.07990234 4.3828125 3.09765625 C2 3 2 3 0 2 C0 1.34 0 0.68 0 0 Z " fill="#686277" transform="translate(156,181)"/>
<path d="M0 0 C0.33 0.99 0.66 1.98 1 3 C1.66 3.33 2.32 3.66 3 4 C2.34 6.64 1.68 9.28 1 12 C0.67 12 0.34 12 0 12 C-1.28571429 3.42857143 -1.28571429 3.42857143 0 0 Z " fill="#E3D2CF" transform="translate(13,88)"/>
</svg>
