<?xml version="1.0" encoding="UTF-8"?>
<svg version="1.1" xmlns="http://www.w3.org/2000/svg" width="172" height="199">
<path d="M0 0 C56.76 0 113.52 0 172 0 C172 65.67 172 131.34 172 199 C115.24 199 58.48 199 0 199 C0 133.33 0 67.66 0 0 Z " fill="#E7A641" transform="translate(0,0)"/>
<path d="M0 0 C56.76 0 113.52 0 172 0 C172 65.67 172 131.34 172 199 C115.24 199 58.48 199 0 199 C0 133.33 0 67.66 0 0 Z M11 10 C10.16198516 61.16756552 10.16198516 61.16756552 9.86962891 112.33764648 C9.87433778 115.6032497 9.87177295 118.86870828 9.86605644 122.13430119 C9.86158551 125.41375571 9.86469409 128.69320075 9.8671875 131.97265625 C9.86516327 133.10776138 9.86313904 134.24286652 9.86105347 135.41236877 C9.88325854 142.98107089 10.32360916 150.46217126 11 158 C13.31 158.33 15.62 158.66 18 159 C18.20625 160.11375 18.4125 161.2275 18.625 162.375 C19.07875 163.57125 19.5325 164.7675 20 166 C22.91666667 167.25 22.91666667 167.25 26 168 C26.474375 168.639375 26.94875 169.27875 27.4375 169.9375 C29.70093007 172.9252277 32.57705546 173.63082218 36 175 C36.66 175.66 37.32 176.32 38 177 C39.7015625 177.2165625 39.7015625 177.2165625 41.4375 177.4375 C45 178 45 178 46.5 179.5625 C48.04410249 181.32393566 48.04410249 181.32393566 51.1875 181.4375 C54.75026344 181.02865829 55.75673833 180.68392571 58.625 178.9375 C65.40257061 175.22034403 73.56438347 177.38258624 80.75 179.0625 C86.10595326 180.25465981 91.35231721 180.10999101 96.80688477 180.02929688 C100.65807125 179.97766662 104.36069334 180.04361096 108.1875 180.5625 C111.88844452 180.98719855 114.36862036 180.6202979 118 180 C120.2144408 179.88048676 122.43126873 179.80074784 124.6484375 179.75390625 C125.90140625 179.72103516 127.154375 179.68816406 128.4453125 179.65429688 C131.05720738 179.59328343 133.66919139 179.53596908 136.28125 179.48242188 C147.45757545 179.7109733 147.45757545 179.7109733 157 175 C157.57954213 173.08155935 157.57954213 173.08155935 157.9375 170.8125 C158.10121094 169.92949219 158.26492187 169.04648438 158.43359375 168.13671875 C158.71396484 166.58404297 158.71396484 166.58404297 159 165 C159.49235447 162.37322237 159.99210931 159.74872944 160.5 157.125 C160.85578125 155.24167969 160.85578125 155.24167969 161.21875 153.3203125 C162 150 162 150 163.08203125 147.984375 C164.45041328 145.02634066 164.22576925 142.36049096 164.1875 139.125 C164.18105469 137.93132812 164.17460937 136.73765625 164.16796875 135.5078125 C164.07488022 132.0700961 164.07488022 132.0700961 163.484375 129 C162.92884641 125.55930678 162.9788606 122.35876276 163.0625 118.875 C163.14620076 112.48207179 162.74074597 106.23068462 162.0625 99.875 C161.97339355 99.03179199 161.88428711 98.18858398 161.79248047 97.31982422 C161.45345168 94.15042805 161.10830196 90.98173316 160.75878906 87.81347656 C160.5518392 85.87734563 160.3688747 83.938694 160.1875 82 C160.07792969 80.9275 159.96835938 79.855 159.85546875 78.75 C160 76 160 76 161.48828125 74.1484375 C164.11602861 70.41391283 163.11164755 65.76863291 162.8828125 61.375 C162.72378535 56.37447961 163.472129 53.45139237 166 49 C166.33937726 45.26685011 166.15029352 42.50161254 165.07421875 38.91015625 C163.45940366 33.46078696 162.89327608 27.82673142 162.14453125 22.20703125 C162.02464844 21.35238281 161.90476563 20.49773438 161.78125 19.6171875 C161.67876953 18.85003418 161.57628906 18.08288086 161.47070312 17.29248047 C160.96434249 14.48296684 160.96434249 14.48296684 159 10 C110.16 10 61.32 10 11 10 Z " fill="#717EA4" transform="translate(0,0)"/>
<path d="M0 0 C1.07878418 0.01047363 2.15756836 0.02094727 3.26904297 0.03173828 C5.01894531 0.04140625 5.01894531 0.04140625 6.80419922 0.05126953 C8.02751953 0.06802734 9.25083984 0.08478516 10.51123047 0.10205078 C11.74228516 0.11107422 12.97333984 0.12009766 14.24169922 0.12939453 C17.29006862 0.1530253 20.33805429 0.18597024 23.38623047 0.22705078 C23.63623047 3.53955078 23.63623047 3.53955078 23.38623047 7.22705078 C22.75475098 7.67967285 22.12327148 8.13229492 21.47265625 8.59863281 C18.6575474 10.79577487 18.48275854 12.50932437 17.75341797 15.96923828 C17.50462891 17.11908203 17.25583984 18.26892578 16.99951172 19.45361328 C16.75587891 20.65759766 16.51224609 21.86158203 16.26123047 23.10205078 C16.00986328 24.26736328 15.75849609 25.43267578 15.49951172 26.63330078 C14.01997374 33.62043824 12.81218537 40.61194474 11.8203125 47.68457031 C11.38623047 50.22705078 11.38623047 50.22705078 10.38623047 52.22705078 C31.41824692 47.71071726 31.41824692 47.71071726 46.49560547 33.45751953 C49.78833751 27.44195137 51.50621615 20.78710073 53.38623047 14.22705078 C51.46810547 14.25798828 51.46810547 14.25798828 49.51123047 14.28955078 C45.63623047 14.35205078 45.63623047 14.35205078 43.38623047 13.22705078 C43.1946525 8.34181267 43.51219001 5.91215192 45.38623047 1.22705078 C58.58623047 1.22705078 71.78623047 1.22705078 85.38623047 1.22705078 C84.21524315 11.76593661 84.21524315 11.76593661 81.38623047 14.22705078 C79.08154297 15.05517578 79.08154297 15.05517578 76.51123047 15.47705078 C75.66818359 15.62658203 74.82513672 15.77611328 73.95654297 15.93017578 C71.4072007 16.22462869 68.94996923 16.28218495 66.38623047 16.22705078 C66.25087891 16.79810547 66.11552734 17.36916016 65.97607422 17.95751953 C61.92631095 33.21081951 52.94990716 46.85030158 39.38623047 55.22705078 C35.51450092 57.27158156 31.68357419 58.42907724 27.38623047 59.22705078 C28.42070313 59.72011719 28.42070313 59.72011719 29.47607422 60.22314453 C46.40655994 68.79289656 53.96158615 82.90766398 59.66040039 100.27368164 C60.62575141 103.35228613 61.38623047 105.98249929 61.38623047 109.22705078 C62.52060547 109.37142578 63.65498047 109.51580078 64.82373047 109.66455078 C68.38623047 110.22705078 68.38623047 110.22705078 69.38623047 111.22705078 C69.38623047 114.52705078 69.38623047 117.82705078 69.38623047 121.22705078 C57.83623047 121.22705078 46.28623047 121.22705078 34.38623047 121.22705078 C35.62432571 113.79847935 35.62432571 113.79847935 38.38623047 111.22705078 C41.57373047 110.47705078 41.57373047 110.47705078 44.38623047 110.22705078 C43.01816479 96.54639399 36.66956099 84.35287754 26.38623047 75.22705078 C21.07356592 71.32187623 15.82916612 68.62768897 9.38623047 67.22705078 C7.57654777 73.93829557 6.40519338 80.67657894 5.32373047 87.53955078 C5.15035156 88.60367188 4.97697266 89.66779297 4.79833984 90.76416016 C3.71439086 97.57102752 2.91434222 104.35475048 2.38623047 111.22705078 C4.03623047 111.88705078 5.68623047 112.54705078 7.38623047 113.22705078 C7.13623047 116.60205078 7.13623047 116.60205078 6.38623047 120.22705078 C3.39676872 122.3291153 0.80523867 122.47399875 -2.78173828 122.45751953 C-3.75691406 122.45558594 -4.73208984 122.45365234 -5.73681641 122.45166016 C-6.74808594 122.43941406 -7.75935547 122.42716797 -8.80126953 122.41455078 C-9.82414062 122.41390625 -10.84701172 122.41326172 -11.90087891 122.41259766 C-19.47344702 122.36737329 -19.47344702 122.36737329 -20.61376953 121.22705078 C-20.98876953 118.91455078 -20.98876953 118.91455078 -20.61376953 116.22705078 C-19.82349365 115.68685303 -19.03321777 115.14665527 -18.21899414 114.59008789 C-14.71214189 111.40924046 -14.29005143 108.21459601 -13.55517578 103.73095703 C-13.39747208 102.86169083 -13.23976837 101.99242462 -13.07728577 101.09681702 C-10.91557595 88.83854161 -9.25552181 76.49271336 -7.55126953 64.16455078 C-6.87533963 59.31915321 -6.19592797 54.47424834 -5.51611328 49.62939453 C-5.35460785 48.47096039 -5.19310242 47.31252625 -5.02670288 46.11898804 C-3.94708142 38.42444492 -2.78894881 30.74650467 -1.47996521 23.08738708 C-0.81788372 19.09572963 -0.29987191 15.27229803 -0.61376953 11.22705078 C-1.92643471 9.87336482 -3.25944278 8.53905482 -4.61376953 7.22705078 C-4.98876953 4.60205078 -4.98876953 4.60205078 -4.61376953 2.22705078 C-2.61376953 0.22705078 -2.61376953 0.22705078 0 0 Z " fill="#23304E" transform="translate(57.61376953125,26.77294921875)"/>
<path d="M0 0 C2.31 0 4.62 0 7 0 C9.40715248 8.21853424 10.4367891 15.71342121 10.38818359 24.26000977 C10.39606903 26.00176231 10.39606903 26.00176231 10.40411377 27.77870178 C10.41721865 31.58307722 10.40860506 35.3870272 10.3984375 39.19140625 C10.40046192 41.86401374 10.40337322 44.53660887 10.40713501 47.20921326 C10.41257208 52.80138659 10.40546075 58.39344056 10.39111328 63.9855957 C10.37484673 70.39870648 10.38003967 76.81153012 10.3965925 83.22463375 C10.41033377 88.77589436 10.41206453 94.32706992 10.40427649 99.87834209 C10.39966126 103.17361927 10.40002377 106.46873665 10.40888596 109.76400948 C10.48572658 146.38258324 10.48572658 146.38258324 5 157 C5.061875 158.155 5.12375 159.31 5.1875 160.5 C5 164 5 164 2.75 166.375 C-1.91315763 169.13050224 -6.21007863 169.17714626 -11.5390625 169.28125 C-12.26112885 169.29965942 -12.98319519 169.31806885 -13.72714233 169.33703613 C-16.80785739 169.41550659 -19.88877939 169.48359525 -22.96972656 169.55224609 C-25.22211623 169.60393251 -27.47431691 169.66117536 -29.7265625 169.71875 C-30.77500839 169.73911316 -30.77500839 169.73911316 -31.84463501 169.7598877 C-35.54674552 169.80972351 -35.54674552 169.80972351 -39 171 C-43.34871529 171.17394861 -47.43392504 170.81825295 -51.734375 170.2109375 C-54.32757678 169.96950147 -56.83441742 170.04676528 -59.4375 170.125 C-64.71502142 170.19867098 -69.5374945 169.44995193 -74.6875 168.4375 C-83.7641966 166.68844892 -89.6336933 166.72388769 -98 171 C-101.35620216 171.40274426 -103.14845377 171.60432313 -105.9375 169.625 C-106.618125 169.08875 -107.29875 168.5525 -108 168 C-109.63856446 167.54120195 -111.27820365 167.08545285 -112.92578125 166.66015625 C-118.34301847 164.93602614 -123.81106421 162.78340369 -127 158 C-130.05429073 156.78715124 -130.05429073 156.78715124 -133 156 C-133 154.68 -133 153.36 -133 152 C-130.1875 151.8125 -130.1875 151.8125 -127 152 C-126 153 -125 154 -124 155 C-122.845 155.165 -121.69 155.33 -120.5 155.5 C-117 156 -117 156 -115.5 157.5625 C-113.95589751 159.32393566 -113.95589751 159.32393566 -110.8125 159.4375 C-107.24973656 159.02865829 -106.24326167 158.68392571 -103.375 156.9375 C-96.59742939 153.22034403 -88.43561653 155.38258624 -81.25 157.0625 C-75.89404674 158.25465981 -70.64768279 158.10999101 -65.19311523 158.02929688 C-61.34192875 157.97766662 -57.63930666 158.04361096 -53.8125 158.5625 C-50.11155548 158.98719855 -47.63137964 158.6202979 -44 158 C-41.7855592 157.88048676 -39.56873127 157.80074784 -37.3515625 157.75390625 C-36.09859375 157.72103516 -34.845625 157.68816406 -33.5546875 157.65429688 C-30.94279262 157.59328343 -28.33080861 157.53596908 -25.71875 157.48242188 C-15.25321607 157.81797725 -15.25321607 157.81797725 -6 154 C-5.66623736 152.6346074 -5.38486058 151.25636415 -5.125 149.875 C-4.86589844 148.53695312 -4.86589844 148.53695312 -4.6015625 147.171875 C-4.15712042 144.82845315 -3.71472039 142.4846438 -3.2734375 140.140625 C-3.01573412 138.80206232 -2.75792199 137.46352057 -2.5 136.125 C-2.14421875 134.24167969 -2.14421875 134.24167969 -1.78125 132.3203125 C-1 129 -1 129 0.08203125 126.984375 C1.45041328 124.02634066 1.22576925 121.36049096 1.1875 118.125 C1.18105469 116.93132812 1.17460937 115.73765625 1.16796875 114.5078125 C1.07488022 111.0700961 1.07488022 111.0700961 0.484375 108 C-0.07115359 104.55930678 -0.0211394 101.35876276 0.0625 97.875 C0.14620076 91.48207179 -0.25925403 85.23068462 -0.9375 78.875 C-1.02660645 78.03179199 -1.11571289 77.18858398 -1.20751953 76.31982422 C-1.54654832 73.15042805 -1.89169804 69.98173316 -2.24121094 66.81347656 C-2.4481608 64.87734563 -2.6311253 62.938694 -2.8125 61 C-2.92207031 59.9275 -3.03164062 58.855 -3.14453125 57.75 C-3 55 -3 55 -1.51171875 53.1484375 C1.11602861 49.41391283 0.11164755 44.76863291 -0.1171875 40.375 C-0.27621465 35.37447961 0.472129 32.45139237 3 28 C3.39681147 23.63507388 2.85389322 20.37341955 1.51171875 16.2421875 C0.30429357 10.95163747 0.28489382 5.4054853 0 0 Z " fill="#57627F" transform="translate(162,21)"/>
<path d="M0 0 C1.73925924 3.30251923 2.48385862 6.08172588 3.03515625 9.7890625 C3.20466797 10.89507812 3.37417969 12.00109375 3.54882812 13.140625 C3.71833984 14.29046875 3.88785156 15.4403125 4.0625 16.625 C4.40463519 18.90929296 4.74954597 21.19317247 5.09765625 23.4765625 C5.24726807 24.48799316 5.39687988 25.49942383 5.55102539 26.54150391 C5.88067569 28.99406252 5.88067569 28.99406252 7 31 C7.29700776 34.86110094 7.40595979 37.2780612 5.484375 40.6953125 C3.59935802 44.89195556 3.76470547 48.10734499 4 52.625 C4.26624461 57.79014541 4.32533424 60.86297 1 65 C0.78024499 67.83714638 0.78024499 67.83714638 1.1875 71 C1.36152344 72.86785156 1.36152344 72.86785156 1.5390625 74.7734375 C1.77097863 76.94520319 2.01299549 79.11567467 2.25683594 81.28613281 C2.53103707 83.73184622 2.79911569 86.17809788 3.0625 88.625 C3.15289551 89.46248779 3.24329102 90.29997559 3.33642578 91.1628418 C4.04138517 98.21845525 4.15290209 105.20335631 4.01391602 112.28955078 C3.93169582 116.98242657 4.24555113 121.34851072 5 126 C5.4748744 131.54324534 4.9539723 135.73038948 2.79296875 140.84375 C0.92468486 145.92400965 0.37951331 151.48615951 -0.42578125 156.8203125 C-0.57402344 157.70460937 -0.72226563 158.58890625 -0.875 159.5 C-0.99617188 160.2940625 -1.11734375 161.088125 -1.2421875 161.90625 C-2.23454788 164.64802919 -3.53372261 165.51379179 -6 167 C-13.0278362 168.84062377 -20.9353185 168.48730137 -28 167 C-25.32961317 163.54019225 -22.26063256 163.14490331 -18.125 162.1875 C-12.00024634 160.56475599 -9.36591421 159.28929376 -6 154 C-5.34 154 -4.68 154 -4 154 C-3.95101562 153.12859375 -3.90203125 152.2571875 -3.8515625 151.359375 C-3.48700784 145.55164217 -3.05695326 139.85147814 -2 134.125 C0.19909947 121.50479481 0.09638968 108.76930562 0.125 96 C0.12901825 94.97995377 0.12901825 94.97995377 0.13311768 93.93930054 C0.81177378 81.43558735 0.81177378 81.43558735 -3 70 C-3.265625 67.765625 -3.265625 67.765625 -3.25 65.25 C-3.25515625 64.43015625 -3.2603125 63.6103125 -3.265625 62.765625 C-3 60 -3 60 -2.00927734 57.09448242 C-0.4485103 51.74062973 -0.64286352 46.25785553 -0.5859375 40.72265625 C-0.56657135 39.5561705 -0.5472052 38.38968475 -0.5272522 37.18785095 C-0.46769896 33.47947392 -0.42116771 29.77106544 -0.375 26.0625 C-0.33679794 23.54100244 -0.29774492 21.01951762 -0.2578125 18.49804688 C-0.16201733 12.33214473 -0.0768993 6.16616521 0 0 Z " fill="#ECD08E" transform="translate(159,11)"/>
<path d="M0 0 C6.67776174 3.00499278 10.0350395 5.50673689 13.6875 12 C16.39510566 15.5125695 18.91971613 16.67109428 22.8046875 18.6328125 C26.27750754 20.79560078 27.89478731 23.53658558 30 27 C34.31311805 26.5441953 34.31311805 26.5441953 38 24.4375 C40.78983135 22.43230872 42.6442654 22.57160835 46 23 C47 24 48 25 49 26 C52.38174561 26.30743142 55.32829835 25.94992059 58.6875 25.4375 C62 25 62 25 65 26 C67.07015151 25.95867961 69.14042497 25.91320764 71.20947266 25.83398438 C79.2843239 25.55323353 85.45662971 25.64285473 92 31 C92 31.33 92 31.66 92 32 C82.69273157 34.01238236 73.93278375 33.05104714 64.74658203 31.06738281 C58.88111418 29.83053735 53.30556302 28.70689192 48 32 C44.19770049 34.07465274 41.38124875 34.60134787 37 34 C35.97895449 33.02149805 34.9793879 32.02019573 34 31 C32.88625 30.855625 31.7725 30.71125 30.625 30.5625 C26.49112644 29.92103686 25.09923916 28.69144453 22 26 C20.6696875 25.4740625 20.6696875 25.4740625 19.3125 24.9375 C17 24 17 24 15 21 C14.01 20.7525 13.02 20.505 12 20.25 C11.01 19.8375 10.02 19.425 9 19 C7.625 15.375 7.625 15.375 7 12 C4.69 11.67 2.38 11.34 0 11 C0 7.37 0 3.74 0 0 Z " fill="#F5EFE8" transform="translate(11,147)"/>
<path d="M0 0 C11.78792519 0.20981744 11.78792519 0.20981744 15.5625 2.9375 C18.35579682 6.44702678 19.16314411 9.24067104 19.96875 13.59765625 C21.55430322 17.29127454 23.39162522 18.28343319 27 20 C30.39845498 20.32130714 33.72364418 20.08826634 37.125 19.875 C45.17884705 19.58805238 49.9971795 20.37343842 56.95703125 24.671875 C61.62995203 26.71140397 66.103689 26.40666187 71.12792969 26.12890625 C75.29725341 25.90258826 78.25033994 26.09214948 82 28 C75.83651446 31.78485884 67.21710004 30.40034331 60.3125 29.4375 C57.12861719 28.70215884 57.12861719 28.70215884 55 30 C52.0625 30.25 52.0625 30.25 49 30 C48 29 47 28 46 27 C41.93241075 26.36726389 40.38765377 26.73892706 36.9375 29.0625 C34 31 34 31 31.4375 31.1875 C28.28269732 29.65054485 27.31700838 27.66562853 25.453125 24.76953125 C23.33957043 22.19576721 20.84972759 21.27891315 17.85546875 19.953125 C14.0809298 18.01420394 12.32409948 14.55559911 10.25 11 C7.70765849 7.61021132 5.2985356 6.13480631 1.609375 4.17578125 C1.07828125 3.78777344 0.5471875 3.39976562 0 3 C0 2.01 0 1.02 0 0 Z " fill="#F3D184" transform="translate(11,144)"/>
<path d="M0 0 C0.66 0.33 1.32 0.66 2 1 C2.5305819 14.99164126 2.5305819 14.99164126 -0.20703125 21.01953125 C-2.18732354 25.9653844 -2.63396154 31.57541495 -3.42578125 36.8203125 C-3.64814453 38.14675781 -3.64814453 38.14675781 -3.875 39.5 C-3.99617188 40.2940625 -4.11734375 41.088125 -4.2421875 41.90625 C-5.23454788 44.64802919 -6.53372261 45.51379179 -9 47 C-16.0278362 48.84062377 -23.9353185 48.48730137 -31 47 C-28.32961317 43.54019225 -25.26063256 43.14490331 -21.125 42.1875 C-15.00024634 40.56475599 -12.36591421 39.28929376 -9 34 C-8.34 34 -7.68 34 -7 34 C-6.87625 33.0925 -6.7525 32.185 -6.625 31.25 C-6 28 -6 28 -5.01196289 26.13354492 C-3.80546491 23.58985714 -3.50840398 21.40722623 -3.18359375 18.61328125 C-3.05919922 17.59298828 -2.93480469 16.57269531 -2.80664062 15.52148438 C-2.68482422 14.46251953 -2.56300781 13.40355469 -2.4375 12.3125 C-2.18996174 10.20398181 -1.93885754 8.09587812 -1.68359375 5.98828125 C-1.57587646 5.05540283 -1.46815918 4.12252441 -1.35717773 3.16137695 C-1 1 -1 1 0 0 Z " fill="#F3EEE3" transform="translate(162,131)"/>
<path d="M0 0 C0.33 0.99 0.66 1.98 1 3 C1.65129797 4.34090759 2.31513275 5.67592331 3 7 C3.33 6.01 3.66 5.02 4 4 C6.475 4.495 6.475 4.495 9 5 C7.6118265 8.12857014 5.98898122 10.28189174 3.5625 12.6875 C2.96566406 13.28949219 2.36882812 13.89148438 1.75390625 14.51171875 C0 16 0 16 -3 17 C-3 16.34 -3 15.68 -3 15 C-5.31 15 -7.62 15 -10 15 C-9.67 14.01 -9.34 13.02 -9 12 C-10.65 12.33 -12.3 12.66 -14 13 C-14.33 13.99 -14.66 14.98 -15 16 C-16.32 15.67 -17.64 15.34 -19 15 C-19 15.66 -19 16.32 -19 17 C-18.01 17.33 -17.02 17.66 -16 18 C-20.18195213 18.95044367 -22.31039852 19.21376089 -26 17 C-27.32706463 16.64252503 -28.66008169 16.30579048 -30 16 C-28.87722656 15.70867187 -27.75445312 15.41734375 -26.59765625 15.1171875 C-16.04907805 12.27188607 -6.4468932 9.53018994 0 0 Z " fill="#2A3345" transform="translate(103,62)"/>
<path d="M0 0 C2.40375748 2.40375748 2.39609181 3.41099044 2.81640625 6.71875 C2.94080078 7.65074219 3.06519531 8.58273438 3.19335938 9.54296875 C3.31517578 10.51878906 3.43699219 11.49460937 3.5625 12.5 C3.81075512 14.42747822 4.06191594 16.35458511 4.31640625 18.28125 C4.42412354 19.13783203 4.53184082 19.99441406 4.64282227 20.87695312 C4.90136339 23.04658041 4.90136339 23.04658041 6 25 C6.29748535 28.86730954 6.40676822 31.27929015 4.4765625 34.69921875 C2.3397617 39.47592954 2.90984706 43.68295313 3.29296875 48.81054688 C3.47219277 53.1859507 3.42280203 54.48960814 0.4921875 58.02734375 C-0.74144531 59.00380859 -0.74144531 59.00380859 -2 60 C-1.7834375 58.0509375 -1.7834375 58.0509375 -1.5625 56.0625 C0.23958326 37.37232219 0.10785273 18.75476059 0 0 Z " fill="#EAE9EB" transform="translate(160,17)"/>
<path d="M0 0 C-3.73690874 5.92751041 -6.26464178 7.98486826 -13.0625 9.5625 C-17.14550931 10.46559324 -17.14550931 10.46559324 -21 12 C-19.35 12.33 -17.7 12.66 -16 13 C-16 13.33 -16 13.66 -16 14 C-22.27 14 -28.54 14 -35 14 C-31.61621303 10.61621303 -29.58740024 10.04637097 -25.0625 8.6875 C-18.85695791 6.76286295 -13.28312919 4.304485 -7.5859375 1.13671875 C-4.82356892 -0.07755505 -2.98161836 -0.23142525 0 0 Z " fill="#E8D097" transform="translate(153,165)"/>
<path d="M0 0 C3.7021089 7.40421781 3.21884937 14.82805533 3.24023438 22.93920898 C3.25001502 25.19095786 3.28110943 27.44182141 3.3125 29.69335938 C3.31902375 31.12239043 3.32427668 32.55142798 3.328125 33.98046875 C3.3374707 35.27879639 3.34681641 36.57712402 3.35644531 37.91479492 C3.23881836 38.9329126 3.12119141 39.95103027 3 41 C2.01 41.66 1.02 42.32 0 43 C0 28.81 0 14.62 0 0 Z " fill="#556182" transform="translate(0,44)"/>
<path d="M0 0 C0 0.33 0 0.66 0 1 C-7.50001236 2.62162429 -15.49998764 2.62162429 -23 1 C-22.34 -0.32 -21.68 -1.64 -21 -3 C-22.32 -3.33 -23.64 -3.66 -25 -4 C-15.3001107 -5.14013165 -8.41146744 -5.32154063 0 0 Z " fill="#F4ECDF" transform="translate(103,178)"/>
<path d="M0 0 C0.33 0 0.66 0 1 0 C1 14.52 1 29.04 1 44 C-1.58024161 40.12963758 -1.13913149 37.02798007 -1 32.5625 C-0.88464273 26.00483228 -1.30083977 19.94913919 -2.54296875 13.48828125 C-3.34441869 9.1248316 -3.8999494 5.52600116 -1.5625 1.5625 C-1.046875 1.046875 -0.53125 0.53125 0 0 Z " fill="#9099B5" transform="translate(171,83)"/>
<path d="M0 0 C0.33 0 0.66 0 1 0 C1.14141393 10.05610192 0.72904559 19.97562315 0 30 C0.66 30 1.32 30 2 30 C1.75 33.3125 1.75 33.3125 1 37 C-1.046875 38.73046875 -1.046875 38.73046875 -3 40 C-2.94013916 39.45939941 -2.88027832 38.91879883 -2.81860352 38.36181641 C-1.97478167 30.38104252 -1.45447948 22.38199335 -0.9375 14.375 C-0.84585937 12.97525018 -0.75406358 11.57551051 -0.66210938 10.17578125 C-0.43988598 6.78395044 -0.21922124 3.39202594 0 0 Z " fill="#F9F3E2" transform="translate(161,37)"/>
<path d="M0 0 C0.33 0 0.66 0 1 0 C1 3.3 1 6.6 1 10 C1.33 10 1.66 10 2 10 C2 11.65 2 13.3 2 15 C1.01 15.33 0.02 15.66 -1 16 C-1.02505615 16.56509277 -1.0501123 17.13018555 -1.07592773 17.71240234 C-1.19179956 20.26683742 -1.31456537 22.8208955 -1.4375 25.375 C-1.47681641 26.26445313 -1.51613281 27.15390625 -1.55664062 28.0703125 C-1.59853516 28.92109375 -1.64042969 29.771875 -1.68359375 30.6484375 C-1.72025146 31.43395996 -1.75690918 32.21948242 -1.79467773 33.02880859 C-2 35 -2 35 -3 37 C-3.66 37 -4.32 37 -5 37 C-3.51395153 24.63957334 -1.79326369 12.31925434 0 0 Z " fill="#3F3D3B" transform="translate(49,98)"/>
<path d="M0 0 C0.33 0 0.66 0 1 0 C0.97679687 0.74121094 0.95359375 1.48242188 0.9296875 2.24609375 C0.76867941 11.6420657 1.75268364 20.70081109 3 30 C0.446213 27.446213 0.60486977 25.46513321 0.34375 21.97265625 C0.08195924 19.68567639 0.08195924 19.68567639 -2 17 C-2.70923808 11.03405612 -1.95955133 5.63371008 0 0 Z " fill="#E2C891" transform="translate(158,64)"/>
<path d="M0 0 C0.66 0 1.32 0 2 0 C2 0.66 2 1.32 2 2 C2.66 2.33 3.32 2.66 4 3 C0.59648662 5.03219488 -2.3232927 5.36891039 -6.25 5.625 C-7.32765625 5.69976562 -8.4053125 5.77453125 -9.515625 5.8515625 C-10.74539062 5.92503906 -10.74539062 5.92503906 -12 6 C-12.19335938 6.69867188 -12.38671875 7.39734375 -12.5859375 8.1171875 C-12.84632812 9.02726562 -13.10671875 9.93734375 -13.375 10.875 C-13.63023438 11.77992187 -13.88546875 12.68484375 -14.1484375 13.6171875 C-15 16 -15 16 -17 18 C-17 16.35 -17 14.7 -17 13 C-16.34 13 -15.68 13 -15 13 C-14.7834375 11.0509375 -14.7834375 11.0509375 -14.5625 9.0625 C-14.125 5.125 -14.125 5.125 -13 4 C-10.98035801 3.92755947 -8.95832876 3.91622812 -6.9375 3.9375 C-5.28041016 3.95103516 -5.28041016 3.95103516 -3.58984375 3.96484375 C-2.73519531 3.97644531 -1.88054687 3.98804688 -1 4 C-0.67 2.68 -0.34 1.36 0 0 Z " fill="#3C3937" transform="translate(136,37)"/>
<path d="M0 0 C0.43570312 0.39832031 0.87140625 0.79664063 1.3203125 1.20703125 C5.00994686 4.48936831 8.43077198 6.99399746 13 9 C13 9.99 13 10.98 13 12 C12.34 11.34 11.68 10.68 11 10 C8.05049953 8.99792612 5.34837394 8.89193568 2.25 8.9375 C1.05117188 8.95103516 1.05117188 8.95103516 -0.171875 8.96484375 C-0.77515625 8.97644531 -1.3784375 8.98804688 -2 9 C-1.4118332 5.97514219 -0.75929472 2.98613386 0 0 Z " fill="#F8EEDD" transform="translate(23,158)"/>
<path d="M0 0 C0.66 0.33 1.32 0.66 2 1 C2 5.62 2 10.24 2 15 C0.02 15.99 0.02 15.99 -2 17 C-2.3690205 5.47835991 -2.3690205 5.47835991 0 0 Z " fill="#F5F2EB" transform="translate(162,131)"/>
<path d="M0 0 C0 0.66 0 1.32 0 2 C-1.65 2.33 -3.3 2.66 -5 3 C-5.33 3.99 -5.66 4.98 -6 6 C-7.32 5.67 -8.64 5.34 -10 5 C-10 5.66 -10 6.32 -10 7 C-9.01 7.33 -8.02 7.66 -7 8 C-11.18195213 8.95044367 -13.31039852 9.21376089 -17 7 C-18.32706463 6.64252503 -19.66008169 6.30579048 -21 6 C-19.79601562 5.65066406 -18.59203125 5.30132812 -17.3515625 4.94140625 C-15.7760125 4.48187083 -14.20049325 4.02222994 -12.625 3.5625 C-11.8309375 3.33240234 -11.036875 3.10230469 -10.21875 2.86523438 C-9.45820312 2.64287109 -8.69765625 2.42050781 -7.9140625 2.19140625 C-6.8614624 1.88505249 -6.8614624 1.88505249 -5.78759766 1.57250977 C-0.87761194 0 -0.87761194 0 0 0 Z " fill="#2F3443" transform="translate(94,72)"/>
<path d="M0 0 C-1.79036458 0.9765625 -3.58072917 1.953125 -5.37109375 2.9296875 C-7.16618315 3.91410024 -7.16618315 3.91410024 -8 6 C-11.98375661 7.17169312 -15.87439224 7.08089427 -20 7 C-17.28791527 3.49388286 -13.49480383 2.54741598 -9.4375 1.25 C-8.75236328 1.01667969 -8.06722656 0.78335938 -7.36132812 0.54296875 C-2.25891931 -1.12945965 -2.25891931 -1.12945965 0 0 Z " fill="#EECA7A" transform="translate(138,172)"/>
<path d="M0 0 C2.8125 -0.1875 2.8125 -0.1875 6 0 C7 1 8 2 9 3 C12.61023099 3.73041853 12.61023099 3.73041853 16 4 C16 4.33 16 4.66 16 5 C10.16524985 5.85330338 5.55139349 6.48351814 0 4 C0 2.68 0 1.36 0 0 Z " fill="#5F6985" transform="translate(29,173)"/>
<path d="M0 0 C4.29 0 8.58 0 13 0 C13 0.33 13 0.66 13 1 C15.97 1.495 15.97 1.495 19 2 C15.69711664 4.20192224 14.72537273 4.23959968 10.89453125 4.1953125 C9.91162109 4.18886719 8.92871094 4.18242187 7.91601562 4.17578125 C6.89185547 4.15902344 5.86769531 4.14226562 4.8125 4.125 C3.77673828 4.11597656 2.74097656 4.10695312 1.67382812 4.09765625 C-0.88434685 4.0740786 -3.44205748 4.0411703 -6 4 C-6 3.67 -6 3.34 -6 3 C-0.72 3 4.56 3 10 3 C10 2.34 10 1.68 10 1 C6.7 1 3.4 1 0 1 C0 0.67 0 0.34 0 0 Z " fill="#30343D" transform="translate(44,145)"/>
<path d="M0 0 C6.15234375 0.5859375 6.15234375 0.5859375 8 1 C8.33 1.66 8.66 2.32 9 3 C11.01669827 4.13350534 11.01669827 4.13350534 13 5 C12.67 5.66 12.34 6.32 12 7 C13.70892499 10.31460705 13.70892499 10.31460705 17.125 10.6875 C18.07375 10.790625 19.0225 10.89375 20 11 C18 13 18 13 15.6875 13.0625 C12.69451532 11.87922699 12.34383031 11.29510109 10.6875 8.6875 C7.96525161 4.44707462 4.58826989 2.8330309 0 1 C0 0.67 0 0.34 0 0 Z " fill="#F0D594" transform="translate(27,162)"/>
<path d="M0 0 C2.31399023 2.31399023 2.32256804 2.98604724 2.6328125 6.1328125 C2.71660156 6.93847656 2.80039063 7.74414062 2.88671875 8.57421875 C2.96535156 9.41597656 3.04398438 10.25773437 3.125 11.125 C3.21136719 11.97449219 3.29773438 12.82398438 3.38671875 13.69921875 C3.59902557 15.79869727 3.80053603 17.89926242 4 20 C3.01 20 2.02 20 1 20 C-0.23839599 13.34362157 -0.09139136 6.7528064 0 0 Z " fill="#F0EAD6" transform="translate(160,17)"/>
<path d="M0 0 C-0.99730136 2.4932534 -1.65074531 3.77467439 -3.9375 5.25 C-6 6 -6 6 -9 6 C-9.33 6.66 -9.66 7.32 -10 8 C-12.475 7.01 -12.475 7.01 -15 6 C-14 4 -14 4 -12.0390625 3.18359375 C-11.24242188 2.93738281 -10.44578125 2.69117187 -9.625 2.4375 C-8.83351563 2.18871094 -8.04203125 1.93992187 -7.2265625 1.68359375 C-6.12441406 1.34521484 -6.12441406 1.34521484 -5 1 C-2 0 -2 0 0 0 Z " fill="#D09D48" transform="translate(99,81)"/>
<path d="M0 0 C2 1 2 1 2.78125 3.1796875 C3.0184375 4.06914062 3.255625 4.95859375 3.5 5.875 C4.37982318 9.15521035 5.08541088 11.12811631 7 14 C4.69 13.67 2.38 13.34 0 13 C-0.33 11.68 -0.66 10.36 -1 9 C-0.67 9 -0.34 9 0 9 C0 6.03 0 3.06 0 0 Z " fill="#F3CA72" transform="translate(27,149)"/>
<path d="M0 0 C0.33 0.99 0.66 1.98 1 3 C2.65 3 4.3 3 6 3 C6 2.34 6 1.68 6 1 C6.99 1.33 7.98 1.66 9 2 C9 2.66 9 3.32 9 4 C9.66 4 10.32 4 11 4 C10.45276317 7.37462715 9.9451 9.08235 8 12 C7.34 9.69 6.68 7.38 6 5 C3.03 4.505 3.03 4.505 0 4 C0 2.68 0 1.36 0 0 Z " fill="#F2EFF2" transform="translate(12,154)"/>
<path d="M0 0 C2.67927341 4.01891012 2.15601248 6.24161923 2 11 C0.906875 11.33 -0.18625 11.66 -1.3125 12 C-3.78744299 13.02705124 -4.78751 13.62850886 -6.1328125 15.98046875 C-6.85243711 17.95419645 -7.43601655 19.97629466 -8 22 C-8.33 22 -8.66 22 -9 22 C-8.125 14.375 -8.125 14.375 -7 11 C-4.36 10.67 -1.72 10.34 1 10 C0.67 6.7 0.34 3.4 0 0 Z " fill="#CC9E4D" transform="translate(100,126)"/>
<path d="M0 0 C-1.28965176 1.37562854 -2.62689293 2.70766393 -4 4 C-4.66 4 -5.32 4 -6 4 C-6 4.66 -6 5.32 -6 6 C-6.556875 5.814375 -7.11375 5.62875 -7.6875 5.4375 C-10.399133 4.92448835 -12.34371039 5.3359276 -15 6 C-11.31946413 1.45345569 -5.73670284 -0.52151844 0 0 Z " fill="#F3CC76" transform="translate(153,165)"/>
<path d="M0 0 C0.33 2.31 0.66 4.62 1 7 C-0.8125 7.6875 -0.8125 7.6875 -3 8 C-4.75 6.6875 -4.75 6.6875 -6 5 C-6 4.34 -6 3.68 -6 3 C-5.34 3 -4.68 3 -4 3 C-4 2.34 -4 1.68 -4 1 C-2 0 -2 0 0 0 Z " fill="#F3F2F2" transform="translate(156,168)"/>
<path d="M0 0 C3 1 3 1 4 3 C3.93625554 4.8572818 3.79985276 6.71236878 3.625 8.5625 C3.52574219 9.63113281 3.42648438 10.69976562 3.32421875 11.80078125 C2.91171675 15.8711323 2.47409378 19.93633901 2 24 C1.67 24 1.34 24 1 24 C0.87890689 16.92278069 1.14626761 10.02804699 2 3 C1.34 3 0.68 3 0 3 C0 2.01 0 1.02 0 0 Z " fill="#BD954D" transform="translate(54,35)"/>
<path d="M0 0 C2.75829701 3.67772934 3.61744829 5.46979314 4.6875 9.75 C4.93886719 10.73484375 5.19023438 11.7196875 5.44921875 12.734375 C5.72185547 13.85585937 5.72185547 13.85585937 6 15 C4 13.75 4 13.75 2 12 C2 10.68 2 9.36 2 8 C1.01 8.66 0.02 9.32 -1 10 C-0.67 6.7 -0.34 3.4 0 0 Z " fill="#35373F" transform="translate(111,113)"/>
<path d="M0 0 C4.92127034 -0.16682272 8.50343896 -0.24828052 13 2 C13 2.66 13 3.32 13 4 C10.69 4.33 8.38 4.66 6 5 C5.34 4.01 4.68 3.02 4 2 C1.94996045 0.80767387 1.94996045 0.80767387 0 0 Z " fill="#F4F2F3" transform="translate(22,166)"/>
<path d="M0 0 C4.12172083 3.76843047 7.63068221 7.88904305 10 13 C9.67 13.66 9.34 14.32 9 15 C6.2160817 13.60804085 6.02101003 11.84424221 5 9 C4.01 9 3.02 9 2 9 C1.34 6.03 0.68 3.06 0 0 Z " fill="#39383B" transform="translate(101,98)"/>
<path d="M0 0 C1.77049689 -0.05410687 3.54146849 -0.09284119 5.3125 -0.125 C6.29863281 -0.14820313 7.28476563 -0.17140625 8.30078125 -0.1953125 C11 0 11 0 14 2 C11.11788698 2.96070434 9.30149956 3.10581883 6.3125 3.0625 C5.10013672 3.04896484 5.10013672 3.04896484 3.86328125 3.03515625 C2.94095703 3.01775391 2.94095703 3.01775391 2 3 C2 2.34 2 1.68 2 1 C1.34 0.67 0.68 0.34 0 0 Z " fill="#F3D07A" transform="translate(77,170)"/>
<path d="M0 0 C0.33 0 0.66 0 1 0 C3.40820981 9.13527522 3.40820981 9.13527522 2 14 C1.65596692 16.33177975 1.32050798 18.66487041 1 21 C0.67 21 0.34 21 0 21 C0 14.07 0 7.14 0 0 Z " fill="#576486" transform="translate(0,147)"/>
<path d="M0 0 C0.33 0 0.66 0 1 0 C1 1.65 1 3.3 1 5 C1.99 5.33 2.98 5.66 4 6 C4 6.99 4 7.98 4 9 C1.525 10.485 1.525 10.485 -1 12 C-0.67 8.04 -0.34 4.08 0 0 Z " fill="#646B85" transform="translate(160,154)"/>
<path d="M0 0 C0.33 0.66 0.66 1.32 1 2 C1.99 1.67 2.98 1.34 4 1 C3.67 4.3 3.34 7.6 3 11 C1.68 11.33 0.36 11.66 -1 12 C-0.34 11.67 0.32 11.34 1 11 C0.67 7.37 0.34 3.74 0 0 Z " fill="#3C3B3F" transform="translate(101,126)"/>
<path d="M0 0 C0.33 0 0.66 0 1 0 C1.22226864 1.76913824 1.42733873 3.54044371 1.625 5.3125 C1.74101563 6.29863281 1.85703125 7.28476563 1.9765625 8.30078125 C2 11 2 11 0 14 C0.99 14.33 1.98 14.66 3 15 C1.35 15 -0.3 15 -2 15 C-1.34 10.05 -0.68 5.1 0 0 Z " fill="#B8914A" transform="translate(70,64)"/>
<path d="M0 0 C1.32 0.66 2.64 1.32 4 2 C3.75 4.3125 3.75 4.3125 3 7 C1.68 7.99 0.36 8.98 -1 10 C-0.67 6.7 -0.34 3.4 0 0 Z " fill="#EDE9E0" transform="translate(159,67)"/>
<path d="M0 0 C1.98 0.66 3.96 1.32 6 2 C6 2.33 6 2.66 6 3 C0.33357449 4.22517308 -5.23708518 4.09228867 -11 4 C-11 3.67 -11 3.34 -11 3 C-5.555 2.505 -5.555 2.505 0 2 C0 1.34 0 0.68 0 0 Z " fill="#E4DED7" transform="translate(97,176)"/>
<path d="M0 0 C2.16874252 0.50603992 3.99967627 0.99983813 6 2 C6.33 1.34 6.66 0.68 7 0 C7.66 0 8.32 0 9 0 C8.67 2.31 8.34 4.62 8 7 C7.67 6.01 7.34 5.02 7 4 C6.21625 3.896875 5.4325 3.79375 4.625 3.6875 C2 3 2 3 0 0 Z " fill="#333841" transform="translate(56,140)"/>
<path d="M0 0 C1.30211046 3.90633137 0.47812346 6.19538173 -0.4375 10.1875 C-0.72496094 11.45980469 -1.01242188 12.73210938 -1.30859375 14.04296875 C-1.53675781 15.01878906 -1.76492187 15.99460937 -2 17 C-2.33 17 -2.66 17 -3 17 C-3.3540919 10.48208608 -3.03901852 5.82478551 0 0 Z " fill="#3A3936" transform="translate(73,47)"/>
<path d="M0 0 C0.66 0.33 1.32 0.66 2 1 C1.34 2.65 0.68 4.3 0 6 C0.66 6 1.32 6 2 6 C1.67 6.99 1.34 7.98 1 9 C-0.98 6.69 -2.96 4.38 -5 2 C-3.68 2.33 -2.36 2.66 -1 3 C-0.67 2.01 -0.34 1.02 0 0 Z " fill="#2C3144" transform="translate(89,99)"/>
<path d="M0 0 C0.66 0.33 1.32 0.66 2 1 C1.690625 1.845625 1.38125 2.69125 1.0625 3.5625 C-0.01538821 7.0497854 -0.56581304 10.38177535 -1 14 C-2.97614897 11.21014263 -3.10310462 9.16665323 -2.75 5.875 C-2 2 -2 2 0 0 Z " fill="#E4E1DB" transform="translate(161,147)"/>
<path d="M0 0 C3.93673644 1.31224548 6.22719294 2.91910327 9 6 C8.01 6.495 8.01 6.495 7 7 C7 6.34 7 5.68 7 5 C6.01 5.33 5.02 5.66 4 6 C2.62437146 4.71034824 1.29233607 3.37310707 0 2 C0 1.34 0 0.68 0 0 Z " fill="#D2A049" transform="translate(76,97)"/>
<path d="M0 0 C0 0.66 0 1.32 0 2 C-1.65 2.33 -3.3 2.66 -5 3 C-5.33 3.99 -5.66 4.98 -6 6 C-8.31 5.67 -10.62 5.34 -13 5 C-10.54278328 3.36185552 -8.65432189 2.38047801 -5.9375 1.375 C-5.24527344 1.11460938 -4.55304688 0.85421875 -3.83984375 0.5859375 C-2 0 -2 0 0 0 Z " fill="#453F3B" transform="translate(94,72)"/>
<path d="M0 0 C0.66 0 1.32 0 2 0 C2 0.66 2 1.32 2 2 C2.66 2.33 3.32 2.66 4 3 C0.65060119 5.02558881 -1.86962551 5.21738987 -5.75 5.125 C-6.73484375 5.10695313 -7.7196875 5.08890625 -8.734375 5.0703125 C-9.85585937 5.03550781 -9.85585937 5.03550781 -11 5 C-11 4.67 -11 4.34 -11 4 C-7.7 4 -4.4 4 -1 4 C-0.67 2.68 -0.34 1.36 0 0 Z " fill="#30323D" transform="translate(136,37)"/>
<path d="M0 0 C0.75 1.75 0.75 1.75 1 4 C-0.8125 6.25 -0.8125 6.25 -3 8 C-3.66 8 -4.32 8 -5 8 C-5.33 9.32 -5.66 10.64 -6 12 C-6.3125 9.75 -6.3125 9.75 -6 7 C-3.5625 4.875 -3.5625 4.875 -1 3 C-0.67 2.01 -0.34 1.02 0 0 Z " fill="#39333B" transform="translate(43,136)"/>
<path d="M0 0 C-0.33 0.99 -0.66 1.98 -1 3 C-3.97 2.67 -6.94 2.34 -10 2 C-6.3558226 -0.4294516 -4.28758728 -0.16179575 0 0 Z " fill="#E7E6E9" transform="translate(75,174)"/>
<path d="M0 0 C1.9375 0.625 1.9375 0.625 4 2 C4.75 5.125 4.75 5.125 5 8 C4.01 8 3.02 8 2 8 C2 6.02 2 4.04 2 2 C1.34 2 0.68 2 0 2 C0 1.34 0 0.68 0 0 Z " fill="#202F57" transform="translate(99,68)"/>
<path d="M0 0 C0.66 0 1.32 0 2 0 C0.8141763 3.37503669 -0.27573689 5.64722731 -3 8 C-3.33 6.68 -3.66 5.36 -4 4 C-2.68 3.34 -1.36 2.68 0 2 C0 1.34 0 0.68 0 0 Z " fill="#31343C" transform="translate(115,59)"/>
<path d="M0 0 C0.33 0 0.66 0 1 0 C1.33 3.63 1.66 7.26 2 11 C1.01 11 0.02 11 -1 11 C-0.67 7.37 -0.34 3.74 0 0 Z " fill="#DCDAD3" transform="translate(162,26)"/>
<path d="M0 0 C0.66 0 1.32 0 2 0 C1.46930939 3.82097239 0.50298434 6.06171403 -2 9 C-2.33 7.68 -2.66 6.36 -3 5 C-2.34 5 -1.68 5 -1 5 C-0.67 3.35 -0.34 1.7 0 0 Z " fill="#2E3546" transform="translate(97,107)"/>
<path d="M0 0 C1.98 0 3.96 0 6 0 C3.82575883 2.50037734 2.26954202 3.43628586 -1 4 C-0.67 2.68 -0.34 1.36 0 0 Z " fill="#33393F" transform="translate(94,79)"/>
<path d="M0 0 C0.66 0.33 1.32 0.66 2 1 C0.515 4.96 0.515 4.96 -1 9 C-1.33 9 -1.66 9 -2 9 C-2.25 3.375 -2.25 3.375 0 0 Z " fill="#CE9F4A" transform="translate(107,50)"/>
</svg>
