<?xml version="1.0" encoding="UTF-8"?>
<svg version="1.1" xmlns="http://www.w3.org/2000/svg" width="171" height="197">
<path d="M0 0 C56.43 0 112.86 0 171 0 C171 65.01 171 130.02 171 197 C114.57 197 58.14 197 0 197 C0 131.99 0 66.98 0 0 Z " fill="#7AB4AA" transform="translate(0,0)"/>
<path d="M0 0 C7.47474272 -0.05067427 14.94944119 -0.08572275 22.42431641 -0.10986328 C24.96762752 -0.11992616 27.51092705 -0.13357774 30.05419922 -0.15087891 C33.70803688 -0.17511427 37.36172168 -0.18648027 41.015625 -0.1953125 C42.15429016 -0.20563507 43.29295532 -0.21595764 44.46612549 -0.22659302 C46.05732208 -0.22681961 46.05732208 -0.22681961 47.68066406 -0.22705078 C49.07964935 -0.23371262 49.07964935 -0.23371262 50.50689697 -0.24050903 C53.15941993 0.0153792 54.76648591 0.56592557 57 2 C59.27120388 6.54240775 58.21932123 12.63533454 57.4375 17.5 C56 20 56 20 52.41015625 21.15625 C51.28480469 21.4346875 50.15945312 21.713125 49 22 C47.70819321 38.43667585 47.88147893 54.89373244 47.93133545 71.36749268 C47.94171746 75.16946855 47.94616437 78.97145142 47.95117188 82.7734375 C47.96177391 90.18231031 47.97875367 97.59114923 48 105 C50.27113803 104.85899143 52.54190725 104.71203245 54.8125 104.5625 C56.07707031 104.48128906 57.34164062 104.40007812 58.64453125 104.31640625 C61.99181893 104.12815453 61.99181893 104.12815453 65 103 C65.33 99.7 65.66 96.4 66 93 C70.36335898 90.83975155 74.41447002 90.69816619 79.1875 90.75 C79.91130859 90.74226563 80.63511719 90.73453125 81.38085938 90.7265625 C86.74652778 90.74652778 86.74652778 90.74652778 89 93 C89.31884766 95.51171875 89.31884766 95.51171875 89.4140625 98.6875 C89.47231201 100.43667725 89.47231201 100.43667725 89.53173828 102.22119141 C89.57790283 104.09170166 89.57790283 104.09170166 89.625 106 C89.66222168 107.26118652 89.69944336 108.52237305 89.73779297 109.82177734 C89.93899655 117.08828658 90.09287535 124.35564972 90.125 131.625 C90.12967285 132.3571875 90.1343457 133.089375 90.13916016 133.84375 C90.12364056 138.75271889 90.12364056 138.75271889 89 141 C27.04065485 141.21177018 27.04065485 141.21177018 3 140 C3 134.06 3 128.12 3 122 C5.64 121.01 8.28 120.02 11 119 C12.64145691 115.71708618 12.15632463 112.07584284 12.16113281 108.46704102 C12.16858017 107.14246887 12.16858017 107.14246887 12.17617798 105.7911377 C12.19081586 102.86205271 12.19760375 99.93302185 12.203125 97.00390625 C12.20887442 94.97370908 12.21463218 92.94351194 12.22039795 90.91331482 C12.2309121 86.65371446 12.23675228 82.394133 12.24023438 78.13452148 C12.24572475 72.66875544 12.26976266 67.20323781 12.29820633 61.73754978 C12.3168016 57.54346479 12.32203661 53.34944005 12.32357025 49.15531731 C12.32660356 47.13982724 12.3346548 45.1243384 12.34775543 43.10888863 C12.36475353 40.29318276 12.3629512 37.47808944 12.35644531 34.66235352 C12.3656601 33.82536423 12.37487488 32.98837494 12.3843689 32.12602234 C12.48209494 27.90397462 12.48209494 27.90397462 10.60471725 24.29435635 C8.62443002 22.69706727 7.32719107 22.51862222 4.8125 22.3125 C3.554375 22.209375 2.29625 22.10625 1 22 C-1.11004083 17.68817743 -1.23884723 14.07845645 -1.1875 9.3125 C-1.18685547 8.63638672 -1.18621094 7.96027344 -1.18554688 7.26367188 C-1.1409337 2.2818674 -1.1409337 2.2818674 0 0 Z " fill="#050608" transform="translate(43,26)"/>
<path d="M0 0 C56.43 0 112.86 0 171 0 C171 65.01 171 130.02 171 197 C137.21625 197.185625 137.21625 197.185625 102.75 197.375 C95.65467773 197.42962402 88.55935547 197.48424805 81.24902344 197.54052734 C72.54345703 197.56762695 72.54345703 197.56762695 68.46002197 197.57266235 C65.62525906 197.57822272 62.79117937 197.60058551 59.956604 197.63345337 C56.32770482 197.67496668 52.69978233 197.68688272 49.07066774 197.67843366 C47.12812573 197.68102196 45.18568883 197.71301877 43.24343491 197.74657249 C32.45024308 197.67066913 24.11491688 194.13454637 16 187 C14.6875 184.25 14.6875 184.25 14 182 C18 183.33333333 22 184.66666667 26 186 C31.56435333 186.27821767 35.63408119 185.62893964 41 184 C48.63647569 182.76831037 55.76185469 182.47303913 63.375 184 C69.74729991 185.26193018 76.23379053 185.76327026 82.640625 184.46484375 C85.6756511 183.86688331 87.97444468 184.39488894 91 185 C92.2375 185.144375 93.475 185.28875 94.75 185.4375 C98 186 98 186 100 188 C101.90709444 188.21701278 101.90709444 188.21701278 104.0625 188.046875 C105.25746094 187.98306641 105.25746094 187.98306641 106.4765625 187.91796875 C107.30929688 187.86253906 108.14203125 187.80710938 109 187.75 C109.83273438 187.71003906 110.66546875 187.67007813 111.5234375 187.62890625 C116.26568949 187.5714165 116.26568949 187.5714165 120 185 C123.01726397 184.54202243 125.96456861 184.1990193 129 183.9375 C129.88397461 183.85516113 130.76794922 183.77282227 131.67871094 183.68798828 C140.43978045 182.90045889 149.21387918 182.40322777 158 182 C162.11777951 167.99954968 161.14871333 152.99894763 161.1328125 138.55078125 C161.13348819 136.36720265 161.13446042 134.18362412 161.13571167 132.00004578 C161.13718021 127.43190797 161.13506403 122.8637898 161.13037109 118.2956543 C161.12471776 112.51895444 161.12802299 106.74230107 161.13381195 100.96560287 C161.20583871 62.26475302 161.20583871 62.26475302 159.25 23.625 C159.20156952 22.90164963 159.15313904 22.17829926 159.10324097 21.43302917 C158.72149806 17.8080606 158.20678303 16.20881031 155.609375 13.5859375 C152.05225417 11.42397484 149.63873318 10.88716465 145.5703125 11.11328125 C135.21867841 11.51900253 128.05412203 11.39010197 118.86328125 6.34765625 C114.26728631 4.18446627 109.95469282 4.14151362 105 5 C101.74941676 6.41623241 101.74941676 6.41623241 99 8 C96.00645659 8.23948347 93.69617156 8.19890616 90.8125 7.375 C90.214375 7.25125 89.61625 7.1275 89 7 C88.01 7.66 87.02 8.32 86 9 C80.85966714 9.32637034 76.30619125 8.93757189 71.25 8 C63.23215211 6.59049298 55.22981479 5.29086157 47.75390625 9.015625 C42.62074426 11.44068147 38.21412235 11.39623682 32.625 11.125 C25.12188036 10.82442993 18.35130383 11.40189047 11 13 C11.00523682 13.94278809 11.01047363 14.88557617 11.01586914 15.85693359 C11.10020436 32.66601448 11.13477065 49.47914386 10.73654175 66.284729 C10.70436856 67.6970258 10.67664905 69.10943257 10.65383911 70.52191162 C10.51203543 78.88619345 9.66466433 86.63737992 7.75073242 94.78295898 C6.70545544 99.26218332 5.98632719 103.765087 5.3125 108.3125 C5.18294922 109.12783203 5.05339844 109.94316406 4.91992188 110.78320312 C3.44859468 120.47389486 3.44859468 120.47389486 5 130 C5.38257434 134.07396361 5.51351109 138.16242048 5.6875 142.25 C5.74744141 143.37019531 5.80738281 144.49039063 5.86914062 145.64453125 C6.12550952 151.59369449 5.93191123 156.30190805 4 162 C3.43423832 165.91711388 2.99740301 169.83598884 2.5625 173.76953125 C2 177 2 177 0 179 C0 119.93 0 60.86 0 0 Z " fill="#56617F" transform="translate(0,0)"/>
<path d="M0 0 C56.43 0 112.86 0 171 0 C171 22.77 171 45.54 171 69 C170.67 69 170.34 69 170 69 C169.9498877 67.91581787 169.89977539 66.83163574 169.84814453 65.71459961 C169.65890638 61.66810918 169.45873856 57.6222189 169.25537109 53.57641602 C169.16908327 51.82981468 169.0857065 50.08306688 169.00537109 48.33618164 C168.88896112 45.81612123 168.76187345 43.2967842 168.6328125 40.77734375 C168.59938751 40.00414291 168.56596252 39.23094208 168.53152466 38.43431091 C168.27502404 33.67447922 167.68495809 29.47934043 166 25 C163.01565163 23.00574976 163.01565163 23.00574976 160 22 C160 23.98 160 25.96 160 28 C159.67 28 159.34 28 159 28 C158.98582031 27.18015625 158.97164062 26.3603125 158.95703125 25.515625 C158.86549845 18.8417428 158.86549845 18.8417428 155.625 13.3125 C152.02266644 11.51133322 149.5361296 10.8928672 145.5703125 11.11328125 C135.21867841 11.51900253 128.05412203 11.39010197 118.86328125 6.34765625 C114.26728631 4.18446627 109.95469282 4.14151362 105 5 C101.74941676 6.41623241 101.74941676 6.41623241 99 8 C96.00645659 8.23948347 93.69617156 8.19890616 90.8125 7.375 C90.214375 7.25125 89.61625 7.1275 89 7 C88.01 7.66 87.02 8.32 86 9 C80.85966714 9.32637034 76.30619125 8.93757189 71.25 8 C63.23215211 6.59049298 55.22981479 5.29086157 47.75390625 9.015625 C42.62074426 11.44068147 38.21412235 11.39623682 32.625 11.125 C25.12188036 10.82442993 18.35130383 11.40189047 11 13 C11.00523682 13.94278809 11.01047363 14.88557617 11.01586914 15.85693359 C11.10020436 32.66601448 11.13477065 49.47914386 10.73654175 66.284729 C10.70436856 67.6970258 10.67664905 69.10943257 10.65383911 70.52191162 C10.51203543 78.88619345 9.66466433 86.63737992 7.75073242 94.78295898 C6.70545544 99.26218332 5.98632719 103.765087 5.3125 108.3125 C5.18294922 109.12783203 5.05339844 109.94316406 4.91992188 110.78320312 C3.44859468 120.47389486 3.44859468 120.47389486 5 130 C5.38257434 134.07396361 5.51351109 138.16242048 5.6875 142.25 C5.74744141 143.37019531 5.80738281 144.49039063 5.86914062 145.64453125 C6.12550952 151.59369449 5.93191123 156.30190805 4 162 C3.43423832 165.91711388 2.99740301 169.83598884 2.5625 173.76953125 C2 177 2 177 0 179 C0 119.93 0 60.86 0 0 Z " fill="#707FA6" transform="translate(0,0)"/>
<path d="M0 0 C0.66 0 1.32 0 2 0 C4.37460311 7.31795928 5.35361197 14.16557236 5.74609375 21.83984375 C5.90351497 25.15358853 5.90351497 25.15358853 7.125 28.8125 C8.40635381 33.48028888 8.19582337 38.60835325 6 43 C5.88420714 44.40062753 5.82152982 45.80590677 5.7890625 47.2109375 C5.76070313 48.04367188 5.73234375 48.87640625 5.703125 49.734375 C5.65127895 51.48677143 5.60693777 53.23940689 5.5703125 54.9921875 C5.2932784 62.4721081 5.2932784 62.4721081 2 66 C1.54891755 70.33039147 2.18107575 74.05291562 3 78.3125 C4.13370214 84.55975377 4.14327899 90.62169705 4.01367188 96.94458008 C3.9533835 100.24716314 3.94650685 102.83952056 5 106 C5.38257434 110.07396361 5.51351109 114.16242048 5.6875 118.25 C5.74744141 119.37019531 5.80738281 120.49039063 5.86914062 121.64453125 C6.12550952 127.59369449 5.93191123 132.30190805 4 138 C3.43423832 141.91711388 2.99740301 145.83598884 2.5625 149.76953125 C2 153 2 153 0 155 C0 103.85 0 52.7 0 0 Z " fill="#566180" transform="translate(0,24)"/>
<path d="M0 0 C1.98952545 0.93640693 3.94719956 1.94233517 5.875 3 C12.80741377 6.57882732 18.96860795 6.45431003 26.66552734 6.04101562 C31.91615999 5.79364987 35.52163811 5.83921563 40 9 C41.375 11.1875 41.375 11.1875 42 13 C39.41598973 12.73473325 36.83284131 12.46380519 34.25 12.1875 C33.43797119 12.10129395 32.62594238 12.01508789 31.78930664 11.92626953 C27.57893081 11.46127061 23.40382717 10.92806506 19.23046875 10.19921875 C3.61021795 7.48620255 -12.25356349 6.82238305 -28.02270508 8.77294922 C-35.40400576 9.62053653 -42.59527483 9.16803503 -49.875 7.8125 C-55.42861544 6.85384019 -57.84111887 7.68739811 -63 10 C-68.00076269 10.4112033 -72.99225254 10.19571655 -78 10 C-78.96921387 9.96326172 -79.93842773 9.92652344 -80.93701172 9.88867188 C-87.62641494 9.62760178 -94.31354549 9.32765631 -101 9 C-96.95423839 6.30282559 -94.12666751 5.85935669 -89.33203125 6.04296875 C-88.43806641 6.06423828 -87.54410156 6.08550781 -86.62304688 6.10742188 C-84.76849019 6.16026192 -82.91423175 6.22511379 -81.06054688 6.30273438 C-75.1952779 6.41609319 -71.25303433 5.52936557 -66.0168457 2.91040039 C-58.83446875 -0.33171118 -49.23857659 2.16768116 -41.80078125 3.546875 C-36.47794215 4.40803167 -31.63520562 5.09013708 -27 2 C-24.73046875 2.12890625 -24.73046875 2.12890625 -22.1875 2.5625 C-14.28970563 3.56394943 -8.48046712 -1.41523966 0 0 Z " fill="#9DC9C4" transform="translate(116,4)"/>
<path d="M0 0 C0.28230469 0.598125 0.56460937 1.19625 0.85546875 1.8125 C3.04704033 6.00116922 5.97399183 9.21259838 9.6875 12.0625 C12 14 12 14 12.8828125 16.42578125 C15.24441268 21.86737047 21.81230354 24.60348643 27.0625 26.875 C28.031875 27.24625 29.00125 27.6175 30 28 C30 28.33 30 28.66 30 29 C19.11 29 8.22 29 -3 29 C-3.44419134 9.30751708 -3.44419134 9.30751708 0 0 Z " fill="#707EA5" transform="translate(3,168)"/>
<path d="M0 0 C1.49273437 0.26103516 1.49273437 0.26103516 3.015625 0.52734375 C6.97313831 1.0888828 10.77953052 0.88159258 14.75 0.5625 C22.85379628 0.02247881 30.9415512 -0.1483403 39.0625 -0.1875 C40.20364258 -0.20031006 41.34478516 -0.21312012 42.52050781 -0.22631836 C48.28796415 -0.23351287 53.56054806 0.05382162 59.14428711 1.55078125 C61.79596116 2.19268103 64.29172308 2.20312077 67 2 C67.33 1.67 67.66 1.34 68 1 C70.44830426 0.91156207 72.86820599 0.88471248 75.31640625 0.90234375 C76.41298805 0.90446617 76.41298805 0.90446617 77.53172302 0.90663147 C79.87535632 0.91224592 82.21889539 0.92480078 84.5625 0.9375 C86.14778508 0.94251314 87.73307166 0.94707637 89.31835938 0.95117188 C93.2122761 0.96222003 97.10612205 0.97949428 101 1 C101 1.33 101 1.66 101 2 C99.64636353 2.07516846 99.64636353 2.07516846 98.26538086 2.15185547 C94.88979353 2.34311056 91.51477883 2.541509 88.13989258 2.74462891 C86.68432812 2.83079135 85.22859621 2.91417479 83.77270508 2.99462891 C81.66957311 3.11134949 79.56726353 3.23833953 77.46484375 3.3671875 C76.202771 3.44050293 74.94069824 3.51381836 73.64038086 3.58935547 C67.36546216 4.16048021 67.36546216 4.16048021 62 7 C59.05434349 7.31908817 56.14184233 7.56235006 53.1875 7.75 C51.95676758 7.85248047 51.95676758 7.85248047 50.70117188 7.95703125 C44.54033417 8.34676794 44.54033417 8.34676794 41.69921875 6.5234375 C41.13847656 6.02070313 40.57773438 5.51796875 40 5 C37.84245916 4.67642107 37.84245916 4.67642107 35.625 4.875 C31.93565774 5.01502454 28.64464007 4.63781201 25 4 C24.67 4.33 24.34 4.66 24 5 C15.39252952 5.86910382 7.3176764 4.03995567 -1 2 C-0.67 1.34 -0.34 0.68 0 0 Z " fill="#E4E9EA" transform="translate(56,181)"/>
<path d="M0 0 C2.54409568 1.27204784 2.66031037 2.07880578 3.61328125 4.71484375 C5.57325116 10.94012262 5.32703342 17.0974517 5.1875 23.5625 C5.17396484 24.76197266 5.16042969 25.96144531 5.14648438 27.19726562 C5.111408 30.13198879 5.06225427 33.06574882 5 36 C7.67640046 37.37723107 10.05677855 38.35617031 13 39 C15.33250817 39.53694939 16.9752467 39.9857481 19.0625 41.1875 C21.55169129 42.23135441 23.31493171 41.66833727 25.91625977 41.25561523 C29.74590098 40.78582796 33.58516515 40.89714516 37.4375 40.9375 C38.26443359 40.94201172 39.09136719 40.94652344 39.94335938 40.95117188 C41.96227146 40.96284189 43.98114574 40.98077282 46 41 C44 44 44 44 41.79296875 44.6953125 C40.93316406 44.83710938 40.07335938 44.97890625 39.1875 45.125 C38.33542969 45.27195313 37.48335937 45.41890625 36.60546875 45.5703125 C35.74566406 45.71210938 34.88585938 45.85390625 34 46 C33.14277344 46.1753125 32.28554688 46.350625 31.40234375 46.53125 C22.1423704 48.33807407 15.41284369 45.48095704 7.625 40.47265625 C-0.31743805 34.73482876 -0.31743805 34.73482876 -1.58203125 29.66796875 C-1.65808594 28.84941406 -1.73414063 28.03085938 -1.8125 27.1875 C-1.90144531 26.37667969 -1.99039062 25.56585938 -2.08203125 24.73046875 C-2 22 -2 22 -1.01953125 18.671875 C0.1016314 14.63397119 0.19898833 11.2428408 0.125 7.0625 C0.11146484 6.03672852 0.11146484 6.03672852 0.09765625 4.99023438 C0.07438958 3.32666713 0.03853167 1.66328369 0 0 Z " fill="#EAECED" transform="translate(5,140)"/>
<path d="M0 0 C11.57302667 -0.02348993 23.14604739 -0.04109715 34.71909332 -0.05181217 C40.09675456 -0.05696278 45.47439913 -0.06391213 50.85205078 -0.07543945 C92.24570546 -0.16169464 92.24570546 -0.16169464 111.34375 0.44140625 C112.59128052 0.48039536 113.83881104 0.51938446 115.12414551 0.55955505 C122.11063079 0.81105709 129.04593565 1.28113643 136 2 C136 2.33 136 2.66 136 3 C135.03586182 3.02505615 134.07172363 3.0501123 133.07836914 3.07592773 C129.51312158 3.16985306 125.94807567 3.27010939 122.38305664 3.37231445 C120.83785711 3.41571985 119.29260786 3.45739071 117.74731445 3.49731445 C115.53060904 3.55488199 113.3141552 3.61861424 111.09765625 3.68359375 C110.4028566 3.70030624 109.70805695 3.71701874 108.99220276 3.73423767 C105.71237971 3.56502856 105.71237971 3.56502856 103 5 C101.53781667 4.93381063 100.07881126 4.79468775 98.625 4.625 C97.24634766 4.47611328 97.24634766 4.47611328 95.83984375 4.32421875 C94.10201268 4.12581438 92.36482566 3.92151882 90.62890625 3.70703125 C76.85614187 2.18651806 62.7419381 2.65796112 48.94897461 3.73193359 C44.46965228 4.05056198 40.42752573 3.67375392 36 3 C35.67 3.33 35.34 3.66 35 4 C33.33382885 4.04063832 31.66611905 4.042721 30 4 C30 3.67 30 3.34 30 3 C27.31243045 2.97279176 24.62514202 2.9530612 21.9375 2.9375 C21.18533203 2.92912109 20.43316406 2.92074219 19.65820312 2.91210938 C16.04455204 2.89646586 12.74429576 3.03949903 9.15625 3.59375 C5.20899815 4.10181212 3.34054035 3.03691485 0 1 C0 0.67 0 0.34 0 0 Z " fill="#9CC7C3" transform="translate(20,179)"/>
<path d="M0 0 C8.31324481 0.93742909 16.64120847 1.15352882 25 1 C25 1.33 25 1.66 25 2 C15.24462974 3.32276207 5.83631539 3.6208139 -3.875 1.8125 C-9.42861544 0.85384019 -11.84111887 1.68739811 -17 4 C-22.00076269 4.4112033 -26.99225254 4.19571655 -32 4 C-32.96921387 3.96326172 -33.93842773 3.92652344 -34.93701172 3.88867188 C-41.62641494 3.62760178 -48.31354549 3.32765631 -55 3 C-50.97564734 0.31709823 -48.10344821 -0.13429178 -43.33203125 -0.02734375 C-42.43806641 -0.01509766 -41.54410156 -0.00285156 -40.62304688 0.00976562 C-38.76879515 0.04455701 -36.91461653 0.08352921 -35.06054688 0.12695312 C-29.77235074 0.19130483 -25.10550444 -0.25430575 -19.97631836 -1.53930664 C-13.04363393 -3.15536291 -6.69436253 -1.92888412 0 0 Z " fill="#9DCAC5" transform="translate(70,10)"/>
<path d="M0 0 C3.17197943 1.05580295 6.07698679 2.38332109 9 4 C9 4.33 9 4.66 9 5 C7.906875 4.835 6.81375 4.67 5.6875 4.5 C-0.46546082 3.74724415 -6.98057966 3.00692833 -12.93359375 4.96484375 C-18.9155282 6.79209133 -25.30001126 6.55837522 -31.5 6.75 C-33.43939453 6.83314453 -33.43939453 6.83314453 -35.41796875 6.91796875 C-41.78630059 7.13395534 -46.99059342 7.09890296 -53 5 C-58.70453669 4.54332746 -64.3983065 4.78882303 -70 6 C-63.75329701 1.21086104 -58.77702987 1.63571647 -51 2 C-47.91266008 2.43192712 -44.86547683 2.97858708 -41.80078125 3.546875 C-36.47794215 4.40803167 -31.63520562 5.09013708 -27 2 C-24.73046875 2.12890625 -24.73046875 2.12890625 -22.1875 2.5625 C-14.41880331 3.5475797 -8.36776355 -1.09495528 0 0 Z " fill="#E4EBEE" transform="translate(116,4)"/>
<path d="M0 0 C0.33 0 0.66 0 1 0 C1.82555811 31.73318353 1.82555811 31.73318353 -3 43 C-3.66 43 -4.32 43 -5 43 C-8.44984441 36.10031118 -5.18269743 25.88347203 -3.91870117 18.61352539 C-3.55925298 16.54380347 -3.21141789 14.47236851 -2.86523438 12.40039062 C-1.15207815 2.30415631 -1.15207815 2.30415631 0 0 Z " fill="#E6E9E9" transform="translate(9,86)"/>
<path d="M0 0 C0.33 0 0.66 0 1 0 C1 7.26 1 14.52 1 22 C-12.86 22 -26.72 22 -41 22 C-41 21.67 -41 21.34 -41 21 C-28.40311973 18.71570657 -15.76859596 18.3871179 -3 18 C-2.67783612 16.43006628 -2.35797843 14.85965923 -2.0390625 13.2890625 C-1.86068848 12.41459473 -1.68231445 11.54012695 -1.49853516 10.63916016 C-0.83070019 7.10375567 -0.39724482 3.57520337 0 0 Z " fill="#6D7AA1" transform="translate(170,175)"/>
<path d="M0 0 C0.33 0 0.66 0 1 0 C1.16577866 10.1861775 1.16577866 10.1861775 0.3125 14.375 C-0.09637085 19.11790187 1.08175602 23.01586309 2.23046875 27.60546875 C4.1491042 36.06889112 4.10502255 44.64727485 3.9375 53.28515625 C3.86900748 56.09753844 3.86900748 56.09753844 5 59 C3.68 58.67 2.36 58.34 1 58 C1.02094727 57.26475098 1.04189453 56.52950195 1.06347656 55.77197266 C1.14743329 52.38979165 1.19891086 49.00783088 1.25 45.625 C1.28351562 44.46871094 1.31703125 43.31242187 1.3515625 42.12109375 C1.42803864 35.35295527 0.7597238 30.29416968 -2.06933594 24.13525391 C-3.26785699 21.38544668 -3.59704795 18.85756489 -3.75 15.875 C-3.80671875 14.94429687 -3.8634375 14.01359375 -3.921875 13.0546875 C-3.94765625 12.37664062 -3.9734375 11.69859375 -4 11 C-3.34 11 -2.68 11 -2 11 C-1.34 7.37 -0.68 3.74 0 0 Z " fill="#A1C6C5" transform="translate(8,118)"/>
<path d="M0 0 C2.64752935 0.49043601 4.98819212 0.57816534 7.67529297 0.52075195 C8.59761719 0.50850586 9.51994141 0.49625977 10.47021484 0.48364258 C12.40257759 0.44827051 14.33487531 0.4091631 16.26708984 0.36645508 C17.18554688 0.35549805 18.10400391 0.34454102 19.05029297 0.33325195 C19.88778076 0.31641357 20.72526855 0.2995752 21.58813477 0.28222656 C23.66357422 0.4934082 23.66357422 0.4934082 25.66357422 2.4934082 C10.15357422 2.4934082 -5.35642578 2.4934082 -21.33642578 2.4934082 C-21.00642578 1.8334082 -20.67642578 1.1734082 -20.33642578 0.4934082 C-13.8032884 -0.69443496 -6.53994158 -1.41801241 0 0 Z " fill="#6A789E" transform="translate(70.33642578125,194.506591796875)"/>
<path d="M0 0 C23.58238484 -0.20638953 23.58238484 -0.20638953 35 1 C35 1.99 35 2.98 35 4 C33.35 4 31.7 4 30 4 C30 3.67 30 3.34 30 3 C27.31243045 2.97279176 24.62514202 2.9530612 21.9375 2.9375 C21.18533203 2.92912109 20.43316406 2.92074219 19.65820312 2.91210938 C16.04455204 2.89646586 12.74429576 3.03949903 9.15625 3.59375 C5.20899815 4.10181212 3.34054035 3.03691485 0 1 C0 0.67 0 0.34 0 0 Z " fill="#A2CEC8" transform="translate(20,179)"/>
<path d="M0 0 C0.92296875 -0.00515625 1.8459375 -0.0103125 2.796875 -0.015625 C5.25 0.25 5.25 0.25 8.25 2.25 C4.43149063 3.52283646 0.70184449 3.63450471 -3.28515625 3.85546875 C-4.11961777 3.90318924 -4.95407928 3.95090973 -5.81382751 4.00007629 C-7.5763599 4.09894561 -9.33902571 4.19546067 -11.10180664 4.28979492 C-13.80621991 4.4371578 -16.50941193 4.60015998 -19.21289062 4.76367188 C-20.92442642 4.85773562 -22.63601379 4.95086646 -24.34765625 5.04296875 C-25.15912613 5.09390182 -25.97059601 5.1448349 -26.80665588 5.1973114 C-28.78545259 5.29471541 -30.76906657 5.28204199 -32.75 5.25 C-33.41 4.59 -34.07 3.93 -34.75 3.25 C-34.1202124 3.23018066 -33.4904248 3.21036133 -32.84155273 3.18994141 C-29.9564864 3.09401103 -27.0720777 2.9846103 -24.1875 2.875 C-22.7015332 2.82859375 -22.7015332 2.82859375 -21.18554688 2.78125 C-13.91879823 2.49154574 -7.18976695 -0.04062015 0 0 Z " fill="#AED2CE" transform="translate(111.75,6.75)"/>
<path d="M0 0 C0.99 0.66 1.98 1.32 3 2 C2.01 2 1.02 2 0 2 C0 2.66 0 3.32 0 4 C-9.9 4 -19.8 4 -30 4 C-25.90164561 1.26776374 -22.94846739 0.87082658 -18.0859375 0.9375 C-17.16039062 0.94523438 -16.23484375 0.95296875 -15.28125 0.9609375 C-14.3221875 0.97382813 -13.363125 0.98671875 -12.375 1 C-10.46620181 1.02545064 -8.55733833 1.04650362 -6.6484375 1.0625 C-5.38265869 1.07990234 -5.38265869 1.07990234 -4.09130859 1.09765625 C-1.93982125 1.13866308 -1.93982125 1.13866308 0 0 Z " fill="#A9CBCF" transform="translate(45,9)"/>
<path d="M0 0 C0.33 0 0.66 0 1 0 C1 9.57 1 19.14 1 29 C0.67 29 0.34 29 0 29 C-0.33 25.37 -0.66 21.74 -1 18 C-1.66 18 -2.32 18 -3 18 C-2.51679152 11.7945858 -1.66681876 6.00054754 0 0 Z " fill="#D4E3E3" transform="translate(9,86)"/>
<path d="M0 0 C4.79557225 0.0862513 8.27833342 0.38600884 12.25 3.3125 C13.3984375 5.421875 13.3984375 5.421875 14.25 7.3125 C13.66734375 7.11914062 13.0846875 6.92578125 12.484375 6.7265625 C5.81097206 4.60702257 -0.82708013 3.32357936 -7.75 2.3125 C-5.0881996 -0.3493004 -3.70750737 0.01383398 0 0 Z " fill="#EAF0F2" transform="translate(143.75,9.6875)"/>
<path d="M0 0 C4.45827926 -0.0578304 8.9164628 -0.09353855 13.375 -0.125 C15.28152344 -0.15013672 15.28152344 -0.15013672 17.2265625 -0.17578125 C18.43828125 -0.18222656 19.65 -0.18867188 20.8984375 -0.1953125 C22.01911621 -0.20578613 23.13979492 -0.21625977 24.29443359 -0.22705078 C27 0 27 0 29 2 C31.57061311 2.64767793 31.57061311 2.64767793 34 3 C34 3.33 34 3.66 34 4 C33.10861328 3.90912109 33.10861328 3.90912109 32.19921875 3.81640625 C21.47602035 2.73241263 10.7479902 1.80310897 0 1 C0 0.67 0 0.34 0 0 Z " fill="#A8CDC9" transform="translate(89,180)"/>
<path d="M0 0 C4.29 0 8.58 0 13 0 C13 0.99 13 1.98 13 3 C7.55106131 4.19876651 4.77830905 3.91360308 0 1 C0 0.67 0 0.34 0 0 Z " fill="#EEEEEE" transform="translate(81,182)"/>
<path d="M0 0 C1.23556641 0.01740234 1.23556641 0.01740234 2.49609375 0.03515625 C3.32238281 0.04417969 4.14867187 0.05320313 5 0.0625 C5.63808594 0.07410156 6.27617188 0.08570313 6.93359375 0.09765625 C6.60359375 1.41765625 6.27359375 2.73765625 5.93359375 4.09765625 C2.55859375 4.28515625 2.55859375 4.28515625 -1.06640625 4.09765625 C-1.72640625 3.10765625 -2.38640625 2.11765625 -3.06640625 1.09765625 C-2.06640625 0.09765625 -2.06640625 0.09765625 0 0 Z " fill="#F4F4F2" transform="translate(33.06640625,181.90234375)"/>
<path d="M0 0 C0.125 7.625 0.125 7.625 -1 11 C-1.66 11 -2.32 11 -3 11 C-3 7.7 -3 4.4 -3 1 C-1 0 -1 0 0 0 Z " fill="#F7F3F0" transform="translate(9,103)"/>
<path d="M0 0 C4.66666667 0.66666667 9.33333333 1.33333333 14 2 C10.24464902 4.50356732 9.13110586 3.9608592 4.8125 3.125 C3.72582031 2.92132813 2.63914063 2.71765625 1.51953125 2.5078125 C0.68808594 2.34023437 -0.14335938 2.17265625 -1 2 C-0.67 1.34 -0.34 0.68 0 0 Z " fill="#D8E5E7" transform="translate(56,181)"/>
<path d="M0 0 C2 1 2 1 2.73828125 2.70703125 C4.3038674 8.44751381 4.3038674 8.44751381 2.625 11.5 C2.08875 11.995 1.5525 12.49 1 13 C-0.10228696 8.59085217 -0.07654536 4.51617599 0 0 Z " fill="#E2E9E9" transform="translate(5,140)"/>
<path d="M0 0 C4.95 0 9.9 0 15 0 C15 0.33 15 0.66 15 1 C13.84371094 1.19916016 13.84371094 1.19916016 12.6640625 1.40234375 C11.66117188 1.57894531 10.65828125 1.75554687 9.625 1.9375 C8.12839844 2.19853516 8.12839844 2.19853516 6.6015625 2.46484375 C4.03090344 2.87712062 4.03090344 2.87712062 2 4 C1.01 3.34 0.02 2.68 -1 2 C-0.67 1.34 -0.34 0.68 0 0 Z " fill="#E5EDED" transform="translate(116,183)"/>
<path d="M0 0 C0.70125 0.309375 1.4025 0.61875 2.125 0.9375 C5.08936657 2.03302678 7.87698108 2.56422992 11 3 C10.01 3.33 9.02 3.66 8 4 C8.33 4.99 8.66 5.98 9 7 C5.56072421 5.7580393 2.74792181 4.44259716 0 2 C0 1.34 0 0.68 0 0 Z " fill="#DEE6EA" transform="translate(9,176)"/>
<path d="M0 0 C-0.33 2.64 -0.66 5.28 -1 8 C-1.66 8 -2.32 8 -3 8 C-3.33 5.69 -3.66 3.38 -4 1 C-2 0 -2 0 0 0 Z " fill="#EDF1F2" transform="translate(7,121)"/>
<path d="M0 0 C4.29 0 8.58 0 13 0 C13 0.99 13 1.98 13 3 C11.35 3 9.7 3 8 3 C8 2.67 8 2.34 8 2 C5.36 1.67 2.72 1.34 0 1 C0 0.67 0 0.34 0 0 Z " fill="#B2CECF" transform="translate(42,180)"/>
<path d="M0 0 C1.60379341 -0.05416188 3.20811406 -0.09286638 4.8125 -0.125 C5.70582031 -0.14820313 6.59914063 -0.17140625 7.51953125 -0.1953125 C10 0 10 0 13 2 C11.02 2.66 9.04 3.32 7 4 C7 3.01 7 2.02 7 1 C4.69 1 2.38 1 0 1 C0 0.67 0 0.34 0 0 Z " fill="#DAE3E4" transform="translate(71,182)"/>
<path d="M0 0 C2.0625 0.4375 2.0625 0.4375 4 1 C3.01 1.495 3.01 1.495 2 2 C1.31527335 3.88764903 1.31527335 3.88764903 0.875 6.0625 C0.70742187 6.79597656 0.53984375 7.52945313 0.3671875 8.28515625 C0.24601562 8.85105469 0.12484375 9.41695312 0 10 C-0.33 10 -0.66 10 -1 10 C-1.02689216 8.52093108 -1.04634621 7.04172517 -1.0625 5.5625 C-1.07410156 4.73878906 -1.08570312 3.91507812 -1.09765625 3.06640625 C-1 1 -1 1 0 0 Z " fill="#263735" transform="translate(110,118)"/>
<path d="M0 0 C2.5 1.3125 2.5 1.3125 5 3 C5 3.99 5 4.98 5 6 C2.03 5.01 -0.94 4.02 -4 3 C-2.68 2.67 -1.36 2.34 0 2 C0 1.34 0 0.68 0 0 Z " fill="#E2EBED" transform="translate(152,11)"/>
<path d="M0 0 C0 0.66 0 1.32 0 2 C-4.38461538 5 -4.38461538 5 -7 5 C-6.67 3.68 -6.34 2.36 -6 1 C-3.92446352 0.4465236 -2.15634036 0 0 0 Z " fill="#749F98" transform="translate(98,46)"/>
<path d="M0 0 C3.82097239 0.53069061 6.06171403 1.49701566 9 4 C6.36 3.67 3.72 3.34 1 3 C0.67 2.01 0.34 1.02 0 0 Z " fill="#E5EDF0" transform="translate(116,5)"/>
</svg>
