<?xml version="1.0" encoding="UTF-8"?>
<svg version="1.1" xmlns="http://www.w3.org/2000/svg" width="193" height="214">
<path d="M0 0 C63.69 0 127.38 0 193 0 C193 70.62 193 141.24 193 214 C129.31 214 65.62 214 0 214 C0 143.38 0 72.76 0 0 Z " fill="#B8463B" transform="translate(0,0)"/>
<path d="M0 0 C0 6.6 0 13.2 0 20 C-2.64 20.66 -5.28 21.32 -8 22 C-7.97494385 23.00509613 -7.9498877 24.01019226 -7.92407227 25.04574585 C-7.68732107 34.54923059 -7.4518793 44.052747 -7.21769714 53.55629539 C-7.0972802 58.4413553 -6.97641284 63.32640316 -6.85449219 68.21142578 C-6.73670051 72.9316919 -6.62012328 77.65198663 -6.50436401 82.37230301 C-6.46014041 84.16709067 -6.41548998 85.96186786 -6.37039185 87.75663376 C-6.150799 96.50611609 -5.9373103 105.24695011 -6 114 C-2.7 114 0.6 114 4 114 C4 122.58 4 131.16 4 140 C1.793125 140.309375 -0.41375 140.61875 -2.6875 140.9375 C-3.92886719 141.11152344 -5.17023438 141.28554687 -6.44921875 141.46484375 C-17.73561766 142.86741785 -28.95815317 143.1328919 -40.3125 143.0625 C-41.7467432 143.05746757 -43.18098815 143.05290779 -44.61523438 143.04882812 C-48.07685998 143.03797759 -51.53841822 143.0208124 -55 143 C-56.22236304 136.36037755 -57.26015452 130.00772589 -57.125 123.25 C-57.10695313 122.05890625 -57.08890625 120.8678125 -57.0703125 119.640625 C-57.04710938 118.76921875 -57.02390625 117.8978125 -57 117 C-54.69 117 -52.38 117 -50 117 C-50.3403125 116.14921875 -50.680625 115.2984375 -51.03125 114.421875 C-51.5159375 113.21015625 -52.000625 111.9984375 -52.5 110.75 C-52.76844727 110.07960693 -53.03689453 109.40921387 -53.31347656 108.71850586 C-54.82370195 104.9459491 -56.32963842 101.17176732 -57.828125 97.39453125 C-61.60152047 87.89792609 -65.45087378 78.43540356 -69.375 69 C-69.80393555 67.96689697 -70.23287109 66.93379395 -70.67480469 65.86938477 C-71.28050293 64.41810181 -71.28050293 64.41810181 -71.8984375 62.9375 C-72.25599121 62.08027344 -72.61354492 61.22304687 -72.98193359 60.33984375 C-73.91966909 58.18462624 -74.94064329 56.09723834 -76 54 C-76.02505025 60.23982463 -76.04302259 66.47961885 -76.05493164 72.71948242 C-76.05990564 74.83439647 -76.06668722 76.94930719 -76.07543945 79.06420898 C-76.12655939 91.75097407 -75.95385838 104.3460524 -75 117 C-71.04 117 -67.08 117 -63 117 C-63 125.58 -63 134.16 -63 143 C-71.0665259 143.02255449 -79.13302746 143.04091709 -87.19957638 143.05181217 C-90.94483037 143.05704014 -94.69006176 143.06413622 -98.43530273 143.07543945 C-102.04681687 143.08627141 -105.65830921 143.09227749 -109.26983833 143.09487724 C-110.65060329 143.09673094 -112.031367 143.10035049 -113.41212273 143.10573006 C-115.33975952 143.11294447 -117.26741807 143.11340809 -119.19506836 143.11352539 C-120.84387245 143.11685631 -120.84387245 143.11685631 -122.52598572 143.12025452 C-125 143 -125 143 -126 142 C-126.08737645 140.14630389 -126.10698153 138.28932459 -126.09765625 136.43359375 C-126.09443359 135.30888672 -126.09121094 134.18417969 -126.08789062 133.02539062 C-126.07951172 131.84138672 -126.07113281 130.65738281 -126.0625 129.4375 C-126.05798828 128.24962891 -126.05347656 127.06175781 -126.04882812 125.83789062 C-126.03699675 122.89187774 -126.02051287 119.94596319 -126 117 C-123.69 117 -121.38 117 -119 117 C-119.00507568 116.03457275 -119.01015137 115.06914551 -119.01538086 114.07446289 C-119.05862378 101.85734288 -118.8370688 89.65112926 -118.5625 77.4375 C-118.54043488 76.42951355 -118.51836975 75.4215271 -118.49563599 74.38299561 C-118.16970977 59.57974161 -117.74739514 44.78888264 -117 30 C-117.72574219 30.32742187 -118.45148438 30.65484375 -119.19921875 30.9921875 C-121.98905508 31.99606166 -123.87797494 32.21259776 -126.8125 32.125 C-127.60269531 32.10695312 -128.39289063 32.08890625 -129.20703125 32.0703125 C-129.79871094 32.04710937 -130.39039063 32.02390625 -131 32 C-132.93709638 28.74246076 -133.23715445 26.34390072 -133.1953125 22.578125 C-133.18564453 21.04091797 -133.18564453 21.04091797 -133.17578125 19.47265625 C-133.15902344 18.40917969 -133.14226562 17.34570312 -133.125 16.25 C-133.11597656 15.17105469 -133.10695312 14.09210937 -133.09765625 12.98046875 C-133.07411305 10.32008722 -133.04122799 7.66015664 -133 5 C-115.61775621 3.06721169 -98.47022291 2.75862164 -81 3 C-77.69336937 9.3288378 -74.86211949 15.63900374 -72.5 22.375 C-70.68056394 27.51120707 -68.77938397 32.57741206 -66.6484375 37.59375 C-63.82121297 44.30707264 -61.34991452 51.13037838 -58.89245605 57.98513794 C-54.44113439 70.39655131 -49.86590533 82.74439129 -45 95 C-44.83606741 79.9125097 -45.35341688 64.8846129 -46 49.8125 C-46.09671312 47.4902493 -46.19306946 45.16798371 -46.2890625 42.84570312 C-46.52194127 37.23029099 -46.75917617 31.61507673 -47 26 C-47.62013977 25.93891556 -48.24027954 25.87783112 -48.87921143 25.81489563 C-49.69154236 25.73071884 -50.50387329 25.64654205 -51.34082031 25.55981445 C-52.14658508 25.47810501 -52.95234985 25.39639557 -53.78253174 25.31221008 C-56 25 -56 25 -58.546875 24.04296875 C-61.05979783 20.51001542 -60.40978659 16.5130435 -60.25 12.3125 C-60.23195313 11.41982422 -60.21390625 10.52714844 -60.1953125 9.60742188 C-60.14817759 7.40386496 -60.08240657 5.20247399 -60 3 C-39.94308381 1.17796557 -20.15859916 -0.41139998 0 0 Z " fill="#070507" transform="translate(154,31)"/>
<path d="M0 0 C63.69 0 127.38 0 193 0 C193 70.62 193 141.24 193 214 C129.31 214 65.62 214 0 214 C0 143.38 0 72.76 0 0 Z M97 9 C95.948125 9.7425 95.948125 9.7425 94.875 10.5 C90.81898272 12.61618293 87.38309189 11.9780453 83 11 C82.505 10.505 82.505 10.505 82 10 C79.87237567 9.79922253 79.87237567 9.79922253 77.375 9.8125 C76.53710938 9.79832031 75.69921875 9.78414062 74.8359375 9.76953125 C71.88127298 9.90655768 71.88127298 9.90655768 68.7109375 11.015625 C64.37449041 12.16592465 60.69363208 12.09988572 56.25 11.9375 C48.70210827 11.79054467 41.60935743 12.41543894 34.19824219 13.84545898 C26.35631535 15.30846512 19.22947846 15.4856576 11 16 C11 69.79 11 123.58 11 179 C10.34 179 9.68 179 9 179 C8.67794615 183.06294736 8.67794615 183.06294736 10 186.8125 C12.67087694 188.39833318 15.09215779 188.42420918 18.15234375 188.6796875 C20 189 20 189 21.5625 190.625 C22.036875 191.07875 22.51125 191.5325 23 192 C26.30435606 191.76811536 29.02141281 191.48929359 32 190 C36.06481939 189.74594879 39.62087733 190.04893568 43.60546875 190.87890625 C44.92490479 191.15045532 44.92490479 191.15045532 46.27099609 191.42749023 C48.03697312 191.7979694 49.8029253 192.168567 51.56884766 192.53930664 C71.44916143 197.2518351 71.44916143 197.2518351 90.78125 192.77734375 C93.68073361 191.76150354 95.10171881 192.00259768 98 193 C98.74717285 193.66773438 99.4943457 194.33546875 100.26416016 195.0234375 C103.56647909 197.40926421 105.27134639 197.50292992 109.3046875 197.49609375 C111.1285498 197.49996094 111.1285498 197.49996094 112.98925781 197.50390625 C114.27155273 197.48199219 115.55384766 197.46007812 116.875 197.4375 C118.18823242 197.4271875 119.50146484 197.416875 120.85449219 197.40625 C128.76963725 197.27266105 135.90606749 196.59618015 143.578125 194.66015625 C148.43739423 193.72269449 153.17527111 193.82225839 158.10644531 194.0234375 C163.12889766 194.18866573 165.85813267 193.46910495 171 192 C171 132.27 171 72.54 171 11 C163.93531963 11.70646804 160.50943032 12.12560454 154.41796875 14.37890625 C150.57327869 15.36647607 146.80153858 15.0252194 142.859375 14.91015625 C138.79455172 15.03787611 135.6898152 16.4348696 132 18 C124.772986 20.22369662 119.50464066 17.0041869 113 14 C109.98052561 12.72531171 107.06566081 11.68198752 103.875 10.9375 C100 10 100 10 97 9 Z " fill="#6F7EA6" transform="translate(0,0)"/>
<path d="M0 0 C2.97 0.33 5.94 0.66 9 1 C9 60.73 9 120.46 9 182 C1.14583011 184.24404854 1.14583011 184.24404854 -2.3828125 184.08984375 C-3.15882813 184.06986328 -3.93484375 184.04988281 -4.734375 184.02929688 C-6.30487911 183.96899157 -7.8752127 183.90403091 -9.4453125 183.83398438 C-14.29944105 183.7182198 -18.46415757 184.26629999 -23.17578125 185.4765625 C-30.50727239 187.29653908 -37.53654261 187.4799759 -45.0625 187.4375 C-46.99899414 187.4674707 -46.99899414 187.4674707 -48.97460938 187.49804688 C-50.21146484 187.49740234 -51.44832031 187.49675781 -52.72265625 187.49609375 C-54.38953491 187.49887329 -54.38953491 187.49887329 -56.09008789 187.50170898 C-59.63218046 186.89100337 -60.67601522 185.64709521 -63 183 C-65.16663777 182.65704924 -65.16663777 182.65704924 -67.375 183.125 C-68.16648437 183.25003906 -68.95796875 183.37507812 -69.7734375 183.50390625 C-72.15935649 183.988429 -72.15935649 183.988429 -75 185.0625 C-82.09944686 187.28107715 -89.32987917 185.71382461 -96.53881836 184.71850586 C-101.84892027 184.03435186 -107.08526556 183.80795651 -112.4375 183.8125 C-113.17742187 183.81185547 -113.91734375 183.81121094 -114.6796875 183.81054688 C-118.13011508 183.5469025 -118.13011508 183.5469025 -121 185 C-129.27423206 187.49594604 -135.21025168 186.59394569 -143 183 C-143.66 182.34 -144.32 181.68 -145 181 C-146.485 180.8453125 -146.485 180.8453125 -148 180.6875 C-149.485 180.3471875 -149.485 180.3471875 -151 180 C-152.67282031 177.11058309 -153 175.3408643 -153 172 C-152.40832031 172.13277344 -151.81664062 172.26554688 -151.20703125 172.40234375 C-149.58256077 172.76539833 -147.95753945 173.12599524 -146.33203125 173.484375 C-144.55297161 173.87773492 -142.77598936 174.28050244 -141 174.6875 C-140.01 174.8421875 -140.01 174.8421875 -139 175 C-138.67 174.67 -138.34 174.34 -138 174 C-136.35679842 173.7945998 -134.71342982 173.59046518 -133.06933594 173.39233398 C-130.84131315 172.9699139 -128.98409185 172.21202265 -126.890625 171.34765625 C-121.42674369 169.48689863 -117.23534626 170.46300684 -111.75 171.8125 C-100.62890091 174.2134803 -90.76720326 176.14188248 -80.21875 170.77734375 C-77.31926639 169.76150354 -75.89828119 170.00259768 -73 171 C-72.25282715 171.66773438 -71.5056543 172.33546875 -70.73583984 173.0234375 C-67.43352091 175.40926421 -65.72865361 175.50292992 -61.6953125 175.49609375 C-59.8714502 175.49996094 -59.8714502 175.49996094 -58.01074219 175.50390625 C-56.72844727 175.48199219 -55.44615234 175.46007812 -54.125 175.4375 C-52.81176758 175.4271875 -51.49853516 175.416875 -50.14550781 175.40625 C-42.23038712 175.27266147 -35.09538803 174.59144723 -27.421875 172.6640625 C-22.56131749 171.72080362 -17.82817148 171.7937081 -12.89355469 171.93554688 C-8.34120697 172.06328571 -4.62257148 171.66036735 0 171 C0 114.57 0 58.14 0 0 Z " fill="#58607E" transform="translate(171,21)"/>
<path d="M0 0 C4.62 0 9.24 0 14 0 C14 0.33 14 0.66 14 1 C10.37 1 6.74 1 3 1 C3 54.79 3 108.58 3 164 C2.34 164 1.68 164 1 164 C0.505 164.99 0.505 164.99 0 166 C0 111.22 0 56.44 0 0 Z " fill="#83708A" transform="translate(8,15)"/>
<path d="M0 0 C0.28875 0.61875 0.5775 1.2375 0.875 1.875 C1.93720042 4.13325765 1.93720042 4.13325765 4 6 C6.03780917 6.22642324 8.07602444 6.45065734 10.1171875 6.64453125 C12 7 12 7 13.5625 8.625 C14.036875 9.07875 14.51125 9.5325 15 10 C18.30435606 9.76811536 21.02141281 9.48929359 24 8 C29.63306277 7.65511861 34.58581238 8.62496822 40 10 C39.37738281 10.30808594 38.75476562 10.61617187 38.11328125 10.93359375 C36.78428151 11.60423502 35.4717325 12.30967405 34.1875 13.0625 C31.1829636 14.35015846 28.23453522 14.60277638 25 15 C24.0925 15.226875 23.185 15.45375 22.25 15.6875 C20 16 20 16 17 14 C16.01 13.67 15.02 13.34 14 13 C11 12 11 12 8 10 C6.989375 9.690625 5.97875 9.38125 4.9375 9.0625 C2 8 2 8 0 5 C-0.125 2.3125 -0.125 2.3125 0 0 Z " fill="#EEE6E2" transform="translate(8,181)"/>
<path d="M0 0 C-4.3988873 4.3988873 -12.1880113 5.86802941 -18.24609375 6.15234375 C-20.25813239 6.0933923 -22.26991432 6.02470733 -24.28125 5.9453125 C-27.6742639 6.01356278 -30.13170718 6.93663092 -33.21875 8.24609375 C-37.44431803 10.03454688 -40.51737619 10.54443232 -44.8828125 8.94140625 C-47.63280067 7.7000433 -50.32629929 6.39728663 -53 5 C-48.38430431 2.69215215 -41.95027394 3.76816341 -37 4.6875 C-32.77716179 5.31499002 -29.5647084 4.05497344 -25.58984375 2.6953125 C-22.05653433 1.74670152 -18.80609887 1.89748791 -15.17578125 2.02734375 C-9.92872197 1.96140225 -5.59694151 -0.18972683 0 0 Z " fill="#E7DBDC" transform="translate(167,10)"/>
<path d="M0 0 C2.92929778 2.92929778 2.99389067 4.78901118 3.11352539 8.9206543 C3.11336723 10.55518433 3.1077281 12.18971974 3.09765625 13.82421875 C3.0962413 14.68561966 3.09482635 15.54702057 3.09336853 16.43452454 C3.0877714 19.18555169 3.07521946 21.93649744 3.0625 24.6875 C3.05748463 26.5527332 3.05292179 28.41796767 3.04882812 30.28320312 C3.03780292 34.85550011 3.02054027 39.42773625 3 44 C0.69 44 -1.62 44 -4 44 C-4 51.92 -4 59.84 -4 68 C-4.33 68 -4.66 68 -5 68 C-5.33 59.42 -5.66 50.84 -6 42 C-3.36 42 -0.72 42 2 42 C1.86105852 38.89548451 1.712657 35.79149165 1.5625 32.6875 C1.52318359 31.80642578 1.48386719 30.92535156 1.44335938 30.01757812 C1.40146484 29.17001953 1.35957031 28.32246094 1.31640625 27.44921875 C1.27974854 26.66893311 1.24309082 25.88864746 1.20532227 25.0847168 C1.05874737 22.80670899 1.05874737 22.80670899 0 20 C-0.08106686 18.44578271 -0.10756898 16.88832973 -0.09765625 15.33203125 C-0.09443359 14.43935547 -0.09121094 13.54667969 -0.08789062 12.62695312 C-0.07951172 11.69818359 -0.07113281 10.76941406 -0.0625 9.8125 C-0.05798828 8.87212891 -0.05347656 7.93175781 -0.04882812 6.96289062 C-0.03704626 4.64186288 -0.02059558 2.32096356 0 0 Z " fill="#B5473E" transform="translate(32,104)"/>
<path d="M0 0 C4.48933958 0.39489561 8.83137381 0.87446558 13.1875 2.0625 C16.66241437 2.91698714 19.44733425 3.25995115 23 3 C23.33 2.67 23.66 2.34 24 2 C29.99251613 1.67897235 35.20694363 2.4980965 41 4 C41 4.33 41 4.66 41 5 C34.5659284 6.49771559 28.073589 6.26430653 21.5 6.3125 C20.18128906 6.34150391 18.86257812 6.37050781 17.50390625 6.40039062 C16.23417969 6.40876953 14.96445313 6.41714844 13.65625 6.42578125 C12.49931641 6.44036377 11.34238281 6.45494629 10.15039062 6.4699707 C5.4807671 5.77336304 3.23576917 3.23576917 0 0 Z " fill="#EEE3E1" transform="translate(96,191)"/>
<path d="M0 0 C0.33 0 0.66 0 1 0 C1.63353911 17.33976337 2.17412263 34.64577771 2 52 C-1.16681734 48.36719452 -2.57115956 44.33689782 -4.1875 39.875 C-4.46013672 39.14667969 -4.73277344 38.41835937 -5.01367188 37.66796875 C-7 32.28148496 -7 32.28148496 -7 30 C-6.34 30 -5.68 30 -5 30 C-3.66666667 32.66666667 -2.33333333 35.33333333 -1 38 C-0.67 25.46 -0.34 12.92 0 0 Z " fill="#A4453D" transform="translate(108,76)"/>
<path d="M0 0 C0 6.6 0 13.2 0 20 C-2.97 20.495 -2.97 20.495 -6 21 C-5.67 20.34 -5.34 19.68 -5 19 C-4.01 19 -3.02 19 -2 19 C-2.495 17.515 -2.495 17.515 -3 16 C-2.67 15.67 -2.34 15.34 -2 15 C-1.90126184 13.00200428 -1.87028201 11.00042842 -1.875 9 C-1.87242187 7.906875 -1.86984375 6.81375 -1.8671875 5.6875 C-1.69452245 3.08169646 -1.69452245 3.08169646 -3 2 C-5.76021008 1.89930564 -8.49000634 1.86131408 -11.25 1.875 C-12.01441406 1.87113281 -12.77882812 1.86726563 -13.56640625 1.86328125 C-14.68595703 1.86521484 -14.68595703 1.86521484 -15.828125 1.8671875 C-16.8476123 1.86887939 -16.8476123 1.86887939 -17.88769531 1.87060547 C-20.06728583 1.95388028 -20.06728583 1.95388028 -22.42944336 2.50219727 C-25.12120435 3.0234719 -27.56148702 3.11367551 -30.30078125 3.09765625 C-31.27724609 3.09443359 -32.25371094 3.09121094 -33.25976562 3.08789062 C-34.26716797 3.07951172 -35.27457031 3.07113281 -36.3125 3.0625 C-37.33923828 3.05798828 -38.36597656 3.05347656 -39.42382812 3.04882812 C-41.94927882 3.03708184 -44.47460905 3.02065565 -47 3 C-47 2.67 -47 2.34 -47 2 C-31.28543475 0.43042196 -15.79068064 -0.26514203 0 0 Z " fill="#280C0A" transform="translate(154,31)"/>
<path d="M0 0 C-2 2 -2 2 -5.5625 2.125 C-7.04185224 2.09054565 -8.52103953 2.04843619 -10 2 C-14.91479667 1.89622387 -19.35148888 1.85253502 -24.125 3.1875 C-30.74189744 4.85321203 -37.53082229 2.60435607 -44 1 C-44 0.67 -44 0.34 -44 0 C-43.32420898 0.00523682 -42.64841797 0.01047363 -41.95214844 0.01586914 C-38.88477511 0.03668007 -35.81741667 0.04967329 -32.75 0.0625 C-31.68652344 0.07087891 -30.62304688 0.07925781 -29.52734375 0.08789062 C-28.50253906 0.09111328 -27.47773438 0.09433594 -26.421875 0.09765625 C-25.47924805 0.10289307 -24.53662109 0.10812988 -23.56542969 0.11352539 C-4.89857624 -0.71252018 -4.89857624 -0.71252018 0 0 Z " fill="#C48C86" transform="translate(166,192)"/>
<path d="M0 0 C2 2 2 2 2.24050903 4.55630493 C2.23606781 5.63552216 2.23162659 6.71473938 2.22705078 7.82666016 C2.22689972 9.04777496 2.22674866 10.26888977 2.22659302 11.52700806 C2.21637903 12.86436118 2.20594702 14.20171265 2.1953125 15.5390625 C2.1915828 16.90383701 2.18873563 18.26861419 2.18673706 19.63339233 C2.17909714 23.22720723 2.15944572 26.82086073 2.1373291 30.41461182 C2.11687832 34.08107317 2.107737 37.74756057 2.09765625 41.4140625 C2.07620003 48.60944862 2.04205992 55.8047017 2 63 C1.87625 62.360625 1.7525 61.72125 1.625 61.0625 C1.41875 60.381875 1.2125 59.70125 1 59 C0.34 58.67 -0.32 58.34 -1 58 C-0.67 38.86 -0.34 19.72 0 0 Z " fill="#361412" transform="translate(76,82)"/>
<path d="M0 0 C1.3303125 0.00773438 1.3303125 0.00773438 2.6875 0.015625 C3.574375 0.01046875 4.46125 0.0053125 5.375 0 C7.6875 0.265625 7.6875 0.265625 9.6875 2.265625 C16.07876549 3.65503054 22.27452881 3.19654017 28.6875 2.265625 C27.6875 4.265625 27.6875 4.265625 25.98828125 4.875 C15.66705692 6.62733011 5.71523111 4.5957202 -4.3125 2.265625 C-2.3125 0.265625 -2.3125 0.265625 0 0 Z " fill="#DECFCE" transform="translate(59.3125,190.734375)"/>
<path d="M0 0 C-1.29126032 2.58252065 -2.33374115 2.97091764 -5 4 C-7.2890625 4.046875 -7.2890625 4.046875 -9.625 3.75 C-10.78902344 3.61851563 -10.78902344 3.61851563 -11.9765625 3.484375 C-14 3 -14 3 -16 1 C-18.32275177 0.59952556 -20.65739357 0.2602896 -23 0 C-16.42412556 -4.38391629 -7.34664812 -1.23733021 0 0 Z " fill="#E4D9DA" transform="translate(97,9)"/>
<path d="M0 0 C2 1 2 1 2.8515625 3.06640625 C3.10679688 3.89011719 3.36203125 4.71382813 3.625 5.5625 C3.88539062 6.38878906 4.14578125 7.21507813 4.4140625 8.06640625 C4.60742188 8.70449219 4.80078125 9.34257813 5 10 C4.34 9.67 3.68 9.34 3 9 C3 8.01 3 7.02 3 6 C2.34 6 1.68 6 1 6 C1 19.53 1 33.06 1 47 C0.67 47 0.34 47 0 47 C0 31.49 0 15.98 0 0 Z " fill="#98423C" transform="translate(77,84)"/>
<path d="M0 0 C-4.34219567 4.34219567 -12.07452739 5.96662959 -18.08203125 6.03515625 C-20.42232595 5.79074779 -22.69694655 5.4782865 -25 5 C-25 4.34 -25 3.68 -25 3 C-22.04326075 2.28321473 -19.56234235 2.00781532 -16.5 2.0625 C-13.10072858 2.21360319 -13.10072858 2.21360319 -10.5625 1 C-6.93981287 -0.41373156 -3.87476832 -0.13134808 0 0 Z " fill="#DCCBCD" transform="translate(167,10)"/>
<path d="M0 0 C2.17007294 0.47919592 4.32544995 0.98917915 6.4765625 1.546875 C6.4765625 1.876875 6.4765625 2.206875 6.4765625 2.546875 C2.19358719 3.60306503 -1.95329396 3.66389592 -6.3359375 3.609375 C-7.02880859 3.60486328 -7.72167969 3.60035156 -8.43554688 3.59570312 C-10.13154818 3.58400656 -11.82750453 3.56607424 -13.5234375 3.546875 C-13.5234375 2.886875 -13.5234375 2.226875 -13.5234375 1.546875 C-9.14524739 -1.37191841 -5.00555275 -0.89882991 0 0 Z " fill="#F2EAE6" transform="translate(130.5234375,193.453125)"/>
<path d="M0 0 C2 3 2 3 2 6 C-0.31 6 -2.62 6 -5 6 C-4.67 13.59 -4.34 21.18 -4 29 C-4.33 29 -4.66 29 -5 29 C-5.33851178 26.31306278 -5.670936 23.62559711 -6 20.9375 C-6.09539062 20.18533203 -6.19078125 19.43316406 -6.2890625 18.65820312 C-7.76028963 6.52057927 -7.76028963 6.52057927 -6 3 C-6.99 2.67 -7.98 2.34 -9 2 C-9 1.67 -9 1.34 -9 1 C-7.35 1 -5.7 1 -4 1 C-4.33 2.32 -4.66 3.64 -5 5 C-3.35 4.67 -1.7 4.34 0 4 C0 2.68 0 1.36 0 0 Z " fill="#9F453C" transform="translate(102,142)"/>
<path d="M0 0 C1.8253125 0.0309375 1.8253125 0.0309375 3.6875 0.0625 C2.6875 2.0625 2.6875 2.0625 -0.16015625 3.1796875 C-5.29414951 4.52058735 -10.48245291 4.2766062 -15.75 4.1875 C-16.76771484 4.17847656 -17.78542969 4.16945313 -18.83398438 4.16015625 C-21.32707156 4.13674698 -23.81965859 4.103957 -26.3125 4.0625 C-26.3125 3.7325 -26.3125 3.4025 -26.3125 3.0625 C-25.14332031 2.92972656 -23.97414063 2.79695312 -22.76953125 2.66015625 C-21.22134161 2.48187987 -19.67316522 2.30348839 -18.125 2.125 C-16.97161133 1.99448242 -16.97161133 1.99448242 -15.79492188 1.86132812 C-12.67541108 1.49983975 -9.61095349 1.12286138 -6.53125 0.5 C-4.29201095 0.05845991 -2.2779167 -0.03860876 0 0 Z " fill="#B2514B" transform="translate(42.3125,12.9375)"/>
<path d="M0 0 C1.32 0 2.64 0 4 0 C3.85957123 1.64630328 3.71250671 3.29204179 3.5625 4.9375 C3.48128906 5.85402344 3.40007812 6.77054688 3.31640625 7.71484375 C3 10 3 10 2 11 C1.76346477 13.52596259 1.57826308 16.03107207 1.4375 18.5625 C1.39431641 19.27341797 1.35113281 19.98433594 1.30664062 20.71679688 C1.20028223 22.47761912 1.09961154 24.2387832 1 26 C0.67 26 0.34 26 0 26 C0 17.42 0 8.84 0 0 Z " fill="#AD4840" transform="translate(91,148)"/>
<path d="M0 0 C0.28875 0.61875 0.5775 1.2375 0.875 1.875 C1.93720042 4.13325765 1.93720042 4.13325765 4 6 C5.299375 6.12375 6.59875 6.2475 7.9375 6.375 C11.74949961 6.74167147 11.74949961 6.74167147 14 9.0625 C14.33 9.701875 14.66 10.34125 15 11 C13.1875 11.625 13.1875 11.625 11 12 C10.01 11.34 9.02 10.68 8 10 C6.989375 9.690625 5.97875 9.38125 4.9375 9.0625 C2 8 2 8 0 5 C-0.125 2.3125 -0.125 2.3125 0 0 Z " fill="#E3D1D1" transform="translate(8,181)"/>
<path d="M0 0 C2.64 0 5.28 0 8 0 C8.33 0.66 8.66 1.32 9 2 C6.69 2 4.38 2 2 2 C2 9.92 2 17.84 2 26 C1.67 26 1.34 26 1 26 C0.67 17.42 0.34 8.84 0 0 Z " fill="#8F3E3B" transform="translate(26,146)"/>
<path d="M0 0 C8.25 0.33 16.5 0.66 25 1 C20.53360259 3.97759828 16.25610496 4.36380371 11.03515625 3.44140625 C9.70835599 3.16035989 8.38405168 2.86727394 7.0625 2.5625 C6.37865234 2.41490234 5.69480469 2.26730469 4.99023438 2.11523438 C3.32448128 1.75412706 1.66187077 1.37857288 0 1 C0 0.67 0 0.34 0 0 Z " fill="#BD7975" transform="translate(122,192)"/>
<path d="M0 0 C0.56847656 0.22816406 1.13695313 0.45632812 1.72265625 0.69140625 C7.00707152 2.65872613 10.50041426 3.37489643 16 2 C16.33 1.67 16.66 1.34 17 1 C18.66617115 0.95936168 20.33388095 0.957279 22 1 C20.68 1.33 19.36 1.66 18 2 C18 2.66 18 3.32 18 4 C14.53635024 5.15454992 12.07420183 5.02785776 8.4375 4.8125 C7.28121094 4.75707031 6.12492187 4.70164062 4.93359375 4.64453125 C2 4 2 4 0.59765625 1.94921875 C0.40042969 1.30597656 0.20320313 0.66273437 0 0 Z " fill="#BE6D62" transform="translate(116,16)"/>
<path d="M0 0 C-2.67796972 3.46560787 -5.83662716 4.08264666 -10 5 C-13.4375 5.125 -13.4375 5.125 -16 5 C-16.33 4.34 -16.66 3.68 -17 3 C-5.47835991 -0.44419134 -5.47835991 -0.44419134 0 0 Z " fill="#ECE8E5" transform="translate(142,14)"/>
<path d="M0 0 C0.33 0 0.66 0 1 0 C1.04898438 1.14339844 1.09796875 2.28679688 1.1484375 3.46484375 C1.22345189 4.95575473 1.29900028 6.44663892 1.375 7.9375 C1.4059375 8.69224609 1.436875 9.44699219 1.46875 10.22460938 C1.5726315 12.15507395 1.77895614 14.07942081 2 16 C2.66 16.33 3.32 16.66 4 17 C4 18.32 4 19.64 4 21 C2.68 20.34 1.36 19.68 0 19 C0 12.73 0 6.46 0 0 Z " fill="#1A0805" transform="translate(94,34)"/>
<path d="M0 0 C6.35987804 -0.20190089 11.85221129 0.3722167 18 2 C18 2.33 18 2.66 18 3 C11.8894576 3.11269443 6.04829486 2.89604368 0 2 C0 1.34 0 0.68 0 0 Z " fill="#9F8297" transform="translate(47,10)"/>
<path d="M0 0 C1.8871875 0.0309375 1.8871875 0.0309375 3.8125 0.0625 C0.54512697 3.32987303 -3.01918198 4.01922896 -7.5625 4.1875 C-8.42875 4.14625 -9.295 4.105 -10.1875 4.0625 C-7.08842497 0.66827497 -4.52992189 -0.07426101 0 0 Z " fill="#E7DBDE" transform="translate(163.1875,9.9375)"/>
<path d="M0 0 C0.33 0 0.66 0 1 0 C1 3.96 1 7.92 1 12 C-0.98 12.33 -2.96 12.66 -5 13 C-4.67 12.34 -4.34 11.68 -4 11 C-3.01 11 -2.02 11 -1 11 C-1.33 10.01 -1.66 9.02 -2 8 C-1.67 7.67 -1.34 7.34 -1 7 C-0.63239269 4.67182036 -0.29758419 2.3381615 0 0 Z " fill="#1C0707" transform="translate(153,39)"/>
<path d="M0 0 C1.27875 -0.061875 2.5575 -0.12375 3.875 -0.1875 C4.95394531 -0.23970703 4.95394531 -0.23970703 6.0546875 -0.29296875 C6.69664063 -0.19628906 7.33859375 -0.09960938 8 0 C8.66 0.99 9.32 1.98 10 3 C7.8125 3.75 7.8125 3.75 5 4 C2.1875 2.0625 2.1875 2.0625 0 0 Z " fill="#EDE5E2" transform="translate(97,8)"/>
<path d="M0 0 C1.63001953 0.01353516 1.63001953 0.01353516 3.29296875 0.02734375 C4.12441406 0.03894531 4.95585938 0.05054688 5.8125 0.0625 C5.8125 0.3925 5.8125 0.7225 5.8125 1.0625 C4.85537109 1.15337891 4.85537109 1.15337891 3.87890625 1.24609375 C3.05261719 1.32988281 2.22632812 1.41367188 1.375 1.5 C0.13943359 1.62181641 0.13943359 1.62181641 -1.12109375 1.74609375 C-3.17412025 1.85180815 -3.17412025 1.85180815 -4.1875 3.0625 C-6.18708364 3.10330783 -8.18795254 3.10504356 -10.1875 3.0625 C-8.19010785 -0.9322843 -3.93646808 -0.04232761 0 0 Z " fill="#A27880" transform="translate(75.1875,8.9375)"/>
<path d="M0 0 C2.97 0.495 2.97 0.495 6 1 C6 1.66 6 2.32 6 3 C1.38 3 -3.24 3 -8 3 C-8 2.67 -8 2.34 -8 2 C-5.36 2 -2.72 2 0 2 C0 1.34 0 0.68 0 0 Z " fill="#D6D2D5" transform="translate(111,194)"/>
<path d="M0 0 C2.64 0.33 5.28 0.66 8 1 C8 1.33 8 1.66 8 2 C3.32798795 3.20568053 -1.21496292 3.09382426 -6 3 C-6 2.67 -6 2.34 -6 2 C-4.02 2 -2.04 2 0 2 C0 1.34 0 0.68 0 0 Z " fill="#E2DBE0" transform="translate(129,194)"/>
<path d="M0 0 C1.3921875 0.3403125 1.3921875 0.3403125 2.8125 0.6875 C2.4825 1.3475 2.1525 2.0075 1.8125 2.6875 C-0.8275 2.6875 -3.4675 2.6875 -6.1875 2.6875 C-4.14987265 -0.14253799 -3.59070275 -0.35202968 0 0 Z " fill="#F6F1F2" transform="translate(39.1875,191.3125)"/>
<path d="M0 0 C0.99 0.33 1.98 0.66 3 1 C2.34 3.31 1.68 5.62 1 8 C-0.74627478 5.38058783 -1.38722388 3.96175123 -2 1 C-1.34 0.67 -0.68 0.34 0 0 Z " fill="#160A0B" transform="translate(104,140)"/>
<path d="M0 0 C2.64 0 5.28 0 8 0 C8.66 1.65 9.32 3.3 10 5 C8.68 4.34 7.36 3.68 6 3 C6 2.67 6 2.34 6 2 C3.03 1.505 3.03 1.505 0 1 C0 0.67 0 0.34 0 0 Z " fill="#1D0806" transform="translate(65,34)"/>
<path d="M0 0 C-3.4019487 2.09350689 -6.05272412 2.17942163 -10 2 C-6.64608848 -1.35391152 -4.35183427 -1.05855428 0 0 Z " fill="#84616A" transform="translate(98,192)"/>
<path d="M0 0 C1.32 0 2.64 0 4 0 C4.33 0.66 4.66 1.32 5 2 C5.66 2 6.32 2 7 2 C7 2.66 7 3.32 7 4 C4.03 3.505 4.03 3.505 1 3 C0.67 2.01 0.34 1.02 0 0 Z " fill="#F7EEE9" transform="translate(84,9)"/>
</svg>
