<?xml version="1.0" encoding="UTF-8"?>
<svg version="1.1" xmlns="http://www.w3.org/2000/svg" width="164" height="196">
<path d="M0 0 C54.12 0 108.24 0 164 0 C164 64.68 164 129.36 164 196 C109.88 196 55.76 196 0 196 C0 131.32 0 66.64 0 0 Z " fill="#DE7E63" transform="translate(0,0)"/>
<path d="M0 0 C54.12 0 108.24 0 164 0 C164 64.68 164 129.36 164 196 C109.88 196 55.76 196 0 196 C0 131.32 0 66.64 0 0 Z M60.01416016 11.09228516 C55.55928951 13.09994686 50.66418153 12.18703445 45.94140625 11.65625 C44.36166016 11.48609375 44.36166016 11.48609375 42.75 11.3125 C41.28820313 11.12107422 41.28820313 11.12107422 39.796875 10.92578125 C36.38342297 11.01636168 34.83983155 12.18822435 32 14 C29.21204909 14.41522673 26.84541193 14.18969413 24 14 C23.67 13.67 23.34 13.34 23 13 C17.84224445 12.69660261 15.09066003 13.30311332 10 15 C10 69.12 10 123.24 10 179 C21.01528759 179.10126404 21.01528759 179.10126404 31.69921875 178.16015625 C33.0022998 177.98460205 34.30538086 177.80904785 35.64794922 177.62817383 C36.30889587 177.53549225 36.96984253 177.44281067 37.65081787 177.34732056 C48.31150406 175.856473 58.92403048 174.57495247 69.6940918 174.24047852 C73.47259745 174.19351365 73.47259745 174.19351365 77 173 C78.78441089 173.03131188 80.56785045 173.12983249 82.34765625 173.26171875 C83.42853516 173.32810547 84.50941406 173.39449219 85.62304688 173.46289062 C87.88958991 173.61090451 90.15531912 173.77205203 92.41992188 173.94726562 C99.24468774 174.33875131 105.31915166 174.24298757 111 170 C111.34168213 169.30737061 111.68336426 168.61474121 112.03540039 167.90112305 C112.35371826 167.27375244 112.67203613 166.64638184 113 166 C114.60875 165.6596875 114.60875 165.6596875 116.25 165.3125 C121.0492836 163.63275074 121.92160054 161.52165626 124.4765625 157.32421875 C127.72749755 152.36445887 131.4651264 149.11214776 137.3125 147.875 C141.04768946 147.44488316 141.04768946 147.44488316 142.25 145 C142.62125 144.01 142.62125 144.01 143 143 C143.928125 142.566875 143.928125 142.566875 144.875 142.125 C148.04636301 140.44604311 149.65170709 138.24786321 151 135 C151.54713361 131.03466495 151.4470331 127.11550939 151.36230469 123.11962891 C151.34855049 121.33341125 151.34855049 121.33341125 151.33451843 119.5111084 C151.30553099 116.25909661 151.2586269 113.00794433 151.20364666 109.7562871 C151.150377 106.35316841 151.12015996 102.94984559 151.08746338 99.54647827 C151.02212028 93.1077879 150.93614419 86.66954623 150.84269357 80.23120916 C150.73727578 72.89885331 150.6549522 65.56629455 150.5745368 58.23362851 C150.40866187 43.15538664 150.21388758 28.07764299 150 13 C148.5549137 12.80712924 147.10861756 12.62330731 145.66186523 12.44335938 C144.85659897 12.34003296 144.0513327 12.23670654 143.22166443 12.13024902 C140.37208535 11.96318739 138.57759296 12.83026576 136 14 C132.1636185 14.3634032 128.34609236 14.50362369 124.49609375 14.65625 C121.28163675 14.97230834 119.73359566 15.47063151 117 17 C111.31240534 17.55943554 108.50826394 17.02232571 103.78515625 13.9453125 C101.75819503 12.87195448 100.21278192 12.63610146 97.9375 12.4375 C94 12 94 12 91.3984375 10.53125 C86.81617581 8.46659876 82.6627773 8.28432765 77.6875 8.0625 C76.33881836 7.96098633 76.33881836 7.96098633 74.96289062 7.85742188 C69.15751912 7.56778295 65.15457966 8.3447159 60.01416016 11.09228516 Z " fill="#717EA5" transform="translate(0,0)"/>
<path d="M0 0 C1.36608398 0.0609082 1.36608398 0.0609082 2.75976562 0.12304688 C8.02020733 0.44012506 11.65643296 1.30884954 16.3125 3.9375 C18.30946888 4.15938543 20.30694646 4.37997066 22.30859375 4.5546875 C24.55207362 4.9832665 25.90768539 5.75905016 27.8125 7 C31.78253316 9.49830462 34.67315865 9.39382866 39.3125 8.9375 C39.89773437 8.61007813 40.48296875 8.28265625 41.0859375 7.9453125 C44.28636504 6.49669793 47.25524765 6.57604321 50.75 6.4375 C55.88989586 6.32293835 55.88989586 6.32293835 60.72265625 4.84375 C63.56587229 3.8488388 65.02611324 4.00255927 67.97436523 4.38085938 C68.78630844 4.48184937 69.59825165 4.58283936 70.43479919 4.68688965 C71.05444046 4.76959106 71.67408173 4.85229248 72.3125 4.9375 C72.53667663 20.74045237 72.73758642 36.54351879 72.91090012 52.34710121 C72.99191595 59.68520087 73.08050597 67.02306223 73.18701172 74.36083984 C73.27983693 80.75741917 73.35836461 87.15398806 73.41982102 93.5509485 C73.45285081 96.93728434 73.49297221 100.32319694 73.5502243 103.70921707 C73.61058767 107.49192094 73.64567448 111.2740736 73.67480469 115.05712891 C73.69853653 116.17634735 73.72226837 117.2955658 73.74671936 118.44869995 C73.76400733 124.58458474 73.50701716 128.31040392 69.3125 132.9375 C67.99502676 133.63498583 66.66335807 134.30709957 65.3125 134.9375 C65.04308594 135.58589844 64.77367187 136.23429688 64.49609375 136.90234375 C63.3125 138.9375 63.3125 138.9375 61.10546875 139.80859375 C59.81576172 140.08896484 59.81576172 140.08896484 58.5 140.375 C51.6710522 142.22675199 49.03959541 145.75037843 45.4375 151.625 C43.18807739 155.15647695 42.70035181 155.80175187 38.5625 157.25 C36.95375 157.5903125 36.95375 157.5903125 35.3125 157.9375 C34.63799185 159.26688369 33.97200377 160.6006092 33.3125 161.9375 C26.66993105 166.89879025 19.22795013 166.23258718 11.375 165.625 C9.13699056 165.47884947 6.89871441 165.3367092 4.66015625 165.19921875 C3.68054932 165.12662842 2.70094238 165.05403809 1.69165039 164.97924805 C-0.70540323 164.75360275 -0.70540323 164.75360275 -2.6875 165.9375 C-5.23120513 166.07607958 -7.7667981 166.17094093 -10.3125 166.25 C-20.9696608 166.6723907 -31.48795844 168.08607145 -42.03955078 169.56567383 C-43.34263184 169.74122803 -44.64571289 169.91678223 -45.98828125 170.09765625 C-47.13466064 170.25886963 -48.28104004 170.42008301 -49.4621582 170.58618164 C-55.51750591 171.08965684 -61.61125748 170.9375 -67.6875 170.9375 C-67.6875 116.8175 -67.6875 62.6975 -67.6875 6.9375 C-62.59683997 5.24061332 -59.84525555 4.63410261 -54.6875 4.9375 C-54.3575 5.2675 -54.0275 5.5975 -53.6875 5.9375 C-48.27367113 6.53153086 -48.27367113 6.53153086 -43.5625 4.38671875 C-38.55622342 1.86317444 -33.14193438 3.21643948 -27.69921875 3.78710938 C-21.73930894 4.26304462 -18.27769706 3.53270354 -12.98291016 0.84301758 C-8.73178814 -0.83400981 -4.48129803 -0.337302 0 0 Z M-29.34765625 37.09375 C-33.60335138 42.26594709 -36.69566927 47.98335833 -39.6875 53.9375 C-40.04118652 54.63391602 -40.39487305 55.33033203 -40.75927734 56.04785156 C-41.85803694 58.23166684 -42.93408501 60.42498101 -44 62.625 C-44.48847412 63.62092163 -44.48847412 63.62092163 -44.98681641 64.63696289 C-49.29076341 73.80327332 -51.23401576 82.76378827 -51.125 92.875 C-51.11581543 94.35673706 -51.11581543 94.35673706 -51.10644531 95.8684082 C-50.76360679 112.36025968 -47.57921117 131.3708497 -37.6875 144.9375 C-36.635625 146.4534375 -36.635625 146.4534375 -35.5625 148 C-28.99965933 155.55345813 -18.98820842 160.38175946 -9.14453125 161.25 C-1.08236591 161.50876559 5.20647837 160.7831117 12.3125 156.9375 C13.13105469 156.50179687 13.94960937 156.06609375 14.79296875 155.6171875 C33.218446 145.16180041 43.83239002 130.6469371 49.6496582 110.49951172 C55.07120228 89.54419549 57.50787823 63.54535379 46.25 44.25 C38.29057255 32.78302825 27.7089701 23.40299003 14.3125 18.9375 C-3.44443766 17.51227211 -17.16906827 24.31873828 -29.34765625 37.09375 Z " fill="#DE7F64" transform="translate(77.6875,8.0625)"/>
<path d="M0 0 C4.95580958 3.2286951 9.15325065 6.88400067 13.26171875 11.125 C14.24785156 12.115 14.24785156 12.115 15.25390625 13.125 C25.06985042 23.57287191 28.84846174 36.899394 28.63671875 51 C28.62366699 52.47895752 28.62366699 52.47895752 28.61035156 53.98779297 C28.1530808 77.46977109 23.6977797 102.34696529 6.80859375 119.84765625 C-5.17524776 130.56326913 -17.62797414 137.73755763 -33.8515625 137.39453125 C-44.82469234 136.63358054 -53.9496803 130.99926735 -61.5859375 123.25 C-75.54335284 106.11557707 -76.98084106 79.14046815 -75.73828125 58.125 C-75.06690086 53.38402157 -73.68338554 49.49194983 -71.73828125 45.125 C-71.35671875 44.25810547 -70.97515625 43.39121094 -70.58203125 42.49804688 C-69.22371314 39.44385244 -67.83308525 36.40692459 -66.42578125 33.375 C-65.97614014 32.40369141 -65.52649902 31.43238281 -65.06323242 30.43164062 C-57.64793515 15.05098499 -46.3069498 3.32999171 -30.42578125 -3.3125 C-19.33156944 -6.90551178 -10.11602344 -5.61875434 0 0 Z M-48.42578125 28.25 C-61.73249289 46.32704223 -65.21257578 68.53044011 -62.23046875 90.40625 C-61.56470109 94.0488409 -60.73536379 97.55943284 -59.73828125 101.125 C-59.56135742 101.76405273 -59.38443359 102.40310547 -59.20214844 103.06152344 C-56.10311011 113.98576734 -52.21053795 123.38917302 -42.73828125 130.125 C-34.39326176 132.90667316 -27.36210816 129.85840723 -19.73828125 126.125 C-5.90615314 117.61807375 1.1655784 106.68109022 7.26171875 92.125 C7.66390625 91.1865625 8.06609375 90.248125 8.48046875 89.28125 C13.26535565 77.24653447 14.53397757 65.20813404 14.63671875 52.375 C14.65750488 50.83175049 14.65750488 50.83175049 14.67871094 49.25732422 C14.60222998 36.66815573 11.71340795 23.56726255 2.82421875 14.1875 C-1.8194514 9.63334638 -6.76672057 7.66632516 -13.23828125 7.5 C-27.99545423 7.85803268 -39.26702524 17.47022522 -48.42578125 28.25 Z " fill="#0C0809" transform="translate(102.73828125,31.875)"/>
<path d="M0 0 C0.33 0 0.66 0 1 0 C1 3.63 1 7.26 1 11 C3.97 11 6.94 11 10 11 C10.04673003 26.82046005 10.08199376 42.64090144 10.10362434 58.46141338 C10.11393495 65.8072255 10.12799115 73.15299472 10.15087891 80.4987793 C10.17081939 86.90169882 10.18371801 93.30458728 10.18817699 99.707537 C10.19078326 103.09754616 10.19690461 106.48746646 10.21146011 109.87744713 C10.22594278 113.66273683 10.22797926 117.44784142 10.22705078 121.2331543 C10.23424133 122.35596802 10.24143188 123.47878174 10.24884033 124.63562012 C10.246091 125.66902023 10.24334167 126.70242035 10.24050903 127.76713562 C10.24235262 128.66219661 10.24419621 129.5572576 10.24609566 130.47944164 C9.86442966 134.38853708 8.92852116 137.1585277 6 139.8125 C4 141 4 141 2 141 C1.6596875 141.94359375 1.6596875 141.94359375 1.3125 142.90625 C0 145 0 145 -2.3125 145.90625 C-4.10416667 146.30208333 -5.89583333 146.69791667 -7.6875 147.09375 C-10.59551215 148.23337638 -10.73166576 149.25194248 -12 152 C-12.66386719 152.33128906 -13.32773438 152.66257813 -14.01171875 153.00390625 C-16.54903752 154.27505809 -16.8263634 155.32885293 -17.8125 157.9375 C-19.28082886 161.17835335 -20.28279459 162.52543953 -23.625 163.8125 C-24.73875 164.204375 -25.8525 164.59625 -27 165 C-27.66 165.99 -28.32 166.98 -29 168 C-31.3140622 168.73075648 -33.64828869 169.40138258 -36 170 C-36.33 170.33 -36.66 170.66 -37 171 C-38.97653704 171.07538999 -40.95572686 171.08311322 -42.93359375 171.0625 C-44.7424707 171.05089844 -44.7424707 171.05089844 -46.58789062 171.0390625 C-49.15039103 171.01306047 -51.71289103 170.98701892 -54.27539062 170.9609375 C-55.48259766 170.95320312 -56.68980469 170.94546875 -57.93359375 170.9375 C-59.6050647 170.92009766 -59.6050647 170.92009766 -61.31030273 170.90234375 C-63.97121201 170.81291181 -63.97121201 170.81291181 -66 172 C-67.73953206 172.17629272 -69.48466522 172.2985055 -71.23046875 172.39453125 C-72.3292334 172.4610791 -73.42799805 172.52762695 -74.56005859 172.59619141 C-75.75711426 172.66757324 -76.95416992 172.73895508 -78.1875 172.8125 C-90.49658026 173.60387861 -102.6541559 174.98010698 -114.86791992 176.67895508 C-116.10517822 176.84935303 -117.34243652 177.01975098 -118.6171875 177.1953125 C-119.70628418 177.35016113 -120.79538086 177.50500977 -121.91748047 177.66455078 C-125 178 -125 178 -131 178 C-131 174.04 -131 170.08 -131 166 C-92.55459927 160.49566914 -92.55459927 160.49566914 -78.05078125 160.140625 C-75.0829838 160.21047297 -75.0829838 160.21047297 -73 159 C-71.21558911 159.03131188 -69.43214955 159.12983249 -67.65234375 159.26171875 C-66.57146484 159.32810547 -65.49058594 159.39449219 -64.37695312 159.46289062 C-62.11041009 159.61090451 -59.84468088 159.77205203 -57.58007812 159.94726562 C-50.45924935 160.35573422 -45.12293563 159.85409204 -39 156 C-37.62804426 154.70644173 -36.28817344 153.37701298 -35 152 C-33.5459375 151.38125 -33.5459375 151.38125 -32.0625 150.75 C-28.91623246 148.95213284 -28.29296556 148.18735312 -26.5625 145.1875 C-23.80145764 140.4128312 -20.4038314 136.05680861 -14.94921875 134.36328125 C-14.26472656 134.22277344 -13.58023438 134.08226562 -12.875 133.9375 C-8.34548626 132.8416499 -6.91514804 131.56295871 -4 128 C-2.95443939 126.79747086 -2.95443939 126.79747086 -1.88775635 125.57064819 C1.16685661 120.88987872 0.52338907 115.51197253 0.45410156 110.11962891 C0.45468567 108.92881714 0.45526978 107.73800537 0.45587158 106.5111084 C0.45356838 103.25922339 0.43355978 100.008034 0.40557575 96.7562871 C0.38050783 93.35304846 0.37821588 89.94979499 0.37347412 86.54647827 C0.36106007 80.10792429 0.32826008 73.66964318 0.28807616 67.23120916 C0.24330924 59.89872094 0.2213591 52.56621945 0.20129442 45.23362851 C0.15952579 30.15560051 0.08920467 15.07782759 0 0 Z " fill="#59617E" transform="translate(150,13)"/>
<path d="M0 0 C1.36608398 0.0609082 1.36608398 0.0609082 2.75976562 0.12304688 C8.02020733 0.44012506 11.65643296 1.30884954 16.3125 3.9375 C18.30946888 4.15938543 20.30694646 4.37997066 22.30859375 4.5546875 C24.55207362 4.9832665 25.90768539 5.75905016 27.8125 7 C31.78253316 9.49830462 34.67315865 9.39382866 39.3125 8.9375 C39.89773437 8.61007813 40.48296875 8.28265625 41.0859375 7.9453125 C44.28636504 6.49669793 47.25524765 6.57604321 50.75 6.4375 C55.45573529 6.25057904 59.01244925 5.84355086 63.3125 3.9375 C66.125 3.8125 66.125 3.8125 68.3125 3.9375 C68.3125 4.5975 68.3125 5.2575 68.3125 5.9375 C61.62787437 8.58829982 55.78331297 9.25874251 48.62109375 9.62109375 C45.6773263 9.90261106 43.52077146 10.38238318 40.8125 11.5 C36.41220845 13.3072626 33.59142024 13.7876051 29.08203125 12.10546875 C26.07653753 10.79638747 23.1492417 9.3845046 20.2578125 7.83984375 C17.37883585 6.50441482 14.44455803 6.32900725 11.3125 5.9375 C10.2296875 5.5971875 10.2296875 5.5971875 9.125 5.25 C7.24237247 4.74104793 7.24237247 4.74104793 5.4375 5.875 C2.5499258 7.3187871 0.50342315 7.26988783 -2.6875 6.9375 C-3.615625 6.1640625 -3.615625 6.1640625 -4.5625 5.375 C-7.34960396 3.48960615 -9.34928329 3.93478379 -12.58984375 4.41796875 C-14.76196046 4.88387608 -14.76196046 4.88387608 -16.9296875 5.98828125 C-20.60311839 7.25264911 -24.04921738 7.06581398 -27.875 6.9375 C-32.6234469 6.84919414 -37.04740419 6.78348654 -41.6875 7.9375 C-46.34216965 9.06688258 -50.85866128 9.16360858 -55.625 9.1875 C-56.37201172 9.19652344 -57.11902344 9.20554687 -57.88867188 9.21484375 C-61.68602528 9.19403633 -63.45488446 9.09257702 -66.6875 6.9375 C-62.57189805 4.94205663 -59.23700416 4.67502861 -54.6875 4.9375 C-54.3575 5.2675 -54.0275 5.5975 -53.6875 5.9375 C-48.27367113 6.53153086 -48.27367113 6.53153086 -43.5625 4.38671875 C-38.55622342 1.86317444 -33.14193438 3.21643948 -27.69921875 3.78710938 C-21.73930894 4.26304462 -18.27769706 3.53270354 -12.98291016 0.84301758 C-8.73178814 -0.83400981 -4.48129803 -0.337302 0 0 Z " fill="#ECE0DD" transform="translate(77.6875,8.0625)"/>
<path d="M0 0 C0.22417663 15.80295237 0.42508642 31.60601879 0.59840012 47.40960121 C0.67941595 54.74770087 0.76800597 62.08556223 0.87451172 69.42333984 C0.96733693 75.81991917 1.04586461 82.21648806 1.10732102 88.6134485 C1.14035081 91.99978434 1.18047221 95.38569694 1.2377243 98.77171707 C1.29808767 102.55442094 1.33317448 106.3365736 1.36230469 110.11962891 C1.38603653 111.23884735 1.40976837 112.3580658 1.43421936 113.51119995 C1.45150733 119.64708474 1.19451716 123.37290392 -3 128 C-4.31747324 128.69748583 -5.64914193 129.36959957 -7 130 C-7.26941406 130.64839844 -7.53882813 131.29679688 -7.81640625 131.96484375 C-9 134 -9 134 -11.20703125 134.87109375 C-12.06683594 135.05800781 -12.92664063 135.24492187 -13.8125 135.4375 C-18.69205138 136.70491594 -20.74782115 138.2396682 -24 142 C-24.66 142 -25.32 142 -26 142 C-24.54682061 138.6092481 -22.58699688 136.58699688 -20 134 C-19.67 133.01 -19.34 132.02 -19 131 C-16.56640625 129.8671875 -16.56640625 129.8671875 -13.5625 128.875 C-9.70795033 127.61330463 -9.70795033 127.61330463 -6 126 C-5.34444881 123.47266765 -5.34444881 123.47266765 -5 121 C-4.01 121 -3.02 121 -2 121 C-1.505 61.6 -1.505 61.6 -1 1 C-1.66 1 -2.32 1 -3 1 C-3.33 1.99 -3.66 2.98 -4 4 C-8.81932941 4.66147659 -13.57992391 5.09563236 -18.4375 5.375 C-22.50127487 5.66124742 -25.98990793 6.15382853 -29.8125 7.5625 C-38.23803916 10.65697074 -44.13982397 8.60794965 -52 5 C-52 4.34 -52 3.68 -52 3 C-50.5410574 3.47730838 -49.08286504 3.95691042 -47.625 4.4375 C-46.81289062 4.70433594 -46.00078125 4.97117187 -45.1640625 5.24609375 C-43 6 -43 6 -41 7 C-36.49988497 7.42858238 -33.58355351 6.42231575 -29.46484375 4.72265625 C-25.20914325 3.47494691 -20.82653714 3.53848847 -16.41796875 3.31640625 C-12.58747245 2.96181174 -9.41266228 2.06273622 -5.8671875 0.62109375 C-4 0 -4 0 0 0 Z " fill="#D28976" transform="translate(150,13)"/>
<path d="M0 0 C6.875 1.875 6.875 1.875 8 3 C9.19625 3.103125 10.3925 3.20625 11.625 3.3125 C14.8040357 3.65189883 16.82974501 4.3151442 19.5 6.0625 C23.47003316 8.56080462 26.36065865 8.45632866 31 8 C31.87785156 7.50886719 31.87785156 7.50886719 32.7734375 7.0078125 C35.97386504 5.55919793 38.94274765 5.63854321 42.4375 5.5 C47.14323529 5.31307904 50.69994925 4.90605086 55 3 C57.8125 2.875 57.8125 2.875 60 3 C60 3.66 60 4.32 60 5 C53.31537437 7.65079982 47.47081297 8.32124251 40.30859375 8.68359375 C37.3648263 8.96511106 35.20827146 9.44488318 32.5 10.5625 C28.09970845 12.3697626 25.27892024 12.8501051 20.76953125 11.16796875 C17.76250968 9.858222 14.83371707 8.44855881 11.9453125 6.89453125 C9.81998936 5.79865777 9.81998936 5.79865777 6.5 5.5625 C3.00169132 5.00027182 1.55728025 4.35269783 -1 2 C-0.67 1.34 -0.34 0.68 0 0 Z " fill="#EEE2E0" transform="translate(86,9)"/>
<path d="M0 0 C0.33 0 0.66 0 1 0 C1.62334158 9.73105464 1.62334158 9.73105464 -0.75 14.5625 C-2.86672201 16.85561551 -4.25088686 17.71708054 -7 19 C-7.26941406 19.64839844 -7.53882813 20.29679687 -7.81640625 20.96484375 C-9 23 -9 23 -11.20703125 23.87109375 C-12.06683594 24.05800781 -12.92664063 24.24492187 -13.8125 24.4375 C-18.69205138 25.70491594 -20.74782115 27.2396682 -24 31 C-24.66 31 -25.32 31 -26 31 C-24.54682061 27.6092481 -22.58699688 25.58699688 -20 23 C-19.67 22.01 -19.34 21.02 -19 20 C-16.56640625 18.8671875 -16.56640625 18.8671875 -13.5625 17.875 C-9.70795033 16.61330463 -9.70795033 16.61330463 -6 15 C-5.34444881 12.47266765 -5.34444881 12.47266765 -5 10 C-4.01 10 -3.02 10 -2 10 C-1.34 6.7 -0.68 3.4 0 0 Z " fill="#D79886" transform="translate(150,124)"/>
<path d="M0 0 C0.495 1.485 0.495 1.485 1 3 C-2.33151098 6.7122551 -4.18021262 8.08814833 -9 9 C-9.30550781 9.62132812 -9.61101562 10.24265625 -9.92578125 10.8828125 C-11.571786 14.12693823 -13.6145905 14.94333904 -16.8984375 16.3125 C-25.90288097 18.30844717 -35.97921559 16.37584908 -45 15 C-45 14.67 -45 14.34 -45 14 C-44.38068604 13.95512451 -43.76137207 13.91024902 -43.12329102 13.86401367 C-40.2686669 13.65036252 -37.41572669 13.4190398 -34.5625 13.1875 C-33.58861328 13.11724609 -32.61472656 13.04699219 -31.61132812 12.97460938 C-25.32608677 12.44908752 -19.87945316 11.25949918 -14 9 C-13.03449219 8.67257813 -12.06898437 8.34515625 -11.07421875 8.0078125 C-6.09416465 6.16576303 -2.88309433 4.71779072 0 0 Z " fill="#EFE9E4" transform="translate(122,157)"/>
<path d="M0 0 C0.66 0.33 1.32 0.66 2 1 C2.625 3.0625 2.625 3.0625 3 5 C-4.90649585 7.21936726 -12.8221908 7.68738075 -21 7 C-21.66 6.34 -22.32 5.68 -23 5 C-21.76636719 4.96132812 -21.76636719 4.96132812 -20.5078125 4.921875 C-13.6503004 4.57345637 -8.14787465 3.69539059 -1.92578125 0.7421875 C-1.29027344 0.49726563 -0.65476562 0.25234375 0 0 Z " fill="#CC7B64" transform="translate(90,164)"/>
<path d="M0 0 C0.66 0 1.32 0 2 0 C-0.40656987 7.73540317 -4.29384295 12.37766373 -11.35546875 16.3125 C-17.4593348 19.18022173 -17.4593348 19.18022173 -21 18 C-15.54114603 13.69251721 -10.86830595 10.52629021 -4 9 C-3.896875 8.2575 -3.79375 7.515 -3.6875 6.75 C-2.95066203 3.8026481 -2.05200858 2.21616926 0 0 Z " fill="#DC977C" transform="translate(125,149)"/>
<path d="M0 0 C-0.69921875 1.91015625 -0.69921875 1.91015625 -2 4 C-4.20703125 4.87109375 -4.20703125 4.87109375 -6.8125 5.4375 C-11.69205138 6.70491594 -13.74782115 8.2396682 -17 12 C-17.66 12 -18.32 12 -19 12 C-17.15083202 7.46113315 -14.32037068 4.02765099 -9.77734375 2.015625 C-6.3837485 0.8458003 -3.61002173 0 0 0 Z " fill="#EFE7E3" transform="translate(143,143)"/>
<path d="M0 0 C0.54269531 0.40992188 1.08539063 0.81984375 1.64453125 1.2421875 C2.35996094 1.78101563 3.07539062 2.31984375 3.8125 2.875 C4.52019531 3.40867188 5.22789063 3.94234375 5.95703125 4.4921875 C7.60456297 5.70814781 9.29624211 6.86416141 11 8 C10.01 8.33 9.02 8.66 8 9 C8.33 9.99 8.66 10.98 9 12 C4.24518354 11.42365861 1.02951788 9.44931479 -3 7 C-2.2575 6.38125 -2.2575 6.38125 -1.5 5.75 C0.43386092 3.87797662 0.43386092 3.87797662 0 0 Z " fill="#1A0D0C" transform="translate(52,155)"/>
<path d="M0 0 C4.62 0 9.24 0 14 0 C13.34 1.65 12.68 3.3 12 5 C7.545 5.495 7.545 5.495 3 6 C3 5.01 3 4.02 3 3 C2.34 3 1.68 3 1 3 C0.67 2.01 0.34 1.02 0 0 Z " fill="#F6E8DF" transform="translate(72,9)"/>
<path d="M0 0 C-0.33 0.99 -0.66 1.98 -1 3 C0.65 3 2.3 3 4 3 C4 3.33 4 3.66 4 4 C1.14559413 3.85803484 -1.70846196 3.71154174 -4.5625 3.5625 C-5.36236328 3.52318359 -6.16222656 3.48386719 -6.98632812 3.44335938 C-11.71371506 3.19251844 -16.32476901 2.74678186 -21 2 C-21 1.67 -21 1.34 -21 1 C-14.03220597 -0.32719886 -7.07011089 -0.08825381 0 0 Z " fill="#E2D6D5" transform="translate(98,170)"/>
<path d="M0 0 C6.875 1.875 6.875 1.875 8 3 C9.8871875 3.1546875 9.8871875 3.1546875 11.8125 3.3125 C15.05175098 3.66143188 15.87279971 3.89505976 18.5 6.0625 C18.995 6.701875 19.49 7.34125 20 8 C3.37686567 6.18656716 3.37686567 6.18656716 -1 2 C-0.67 1.34 -0.34 0.68 0 0 Z " fill="#EBE4E4" transform="translate(86,9)"/>
<path d="M0 0 C-3.38168431 3.68006822 -6.42521756 5.9785845 -11 8 C-11.75 6.25 -11.75 6.25 -12 4 C-8.83456939 -0.95458704 -5.34660309 -0.35644021 0 0 Z " fill="#D07B60" transform="translate(91,151)"/>
<path d="M0 0 C0 0.33 0 0.66 0 1 C-5.61 1 -11.22 1 -17 1 C-16 -1 -16 -1 -14.375 -1.625 C-9.11835684 -2.45499629 -4.82417422 -2.33899356 0 0 Z " fill="#EBEBEE" transform="translate(28,15)"/>
<path d="M0 0 C0.66 0.33 1.32 0.66 2 1 C1.1875 2.9375 1.1875 2.9375 0 5 C-0.99 5.33 -1.98 5.66 -3 6 C-4.13545562 8.29534258 -4.13545562 8.29534258 -5 11 C-5.66666667 12.66666667 -6.33333333 14.33333333 -7 16 C-7.66 16 -8.32 16 -9 16 C-7.51637716 9.73581469 -3.75837844 5.08486495 0 0 Z " fill="#C47967" transform="translate(57,57)"/>
<path d="M0 0 C0.33 0.66 0.66 1.32 1 2 C-1.56120094 6.26866824 -3.56811114 8.73000815 -8 11 C-8.886875 11.5775 -9.77375 12.155 -10.6875 12.75 C-11.450625 13.1625 -12.21375 13.575 -13 14 C-13.66 13.67 -14.32 13.34 -15 13 C-14.16855469 12.39671875 -13.33710937 11.7934375 -12.48046875 11.171875 C-11.3825894 10.36488676 -10.28494551 9.55757813 -9.1875 8.75 C-8.36668945 8.15638672 -8.36668945 8.15638672 -7.52929688 7.55078125 C-4.4921581 5.30513925 -2.07206244 3.16989201 0 0 Z " fill="#281210" transform="translate(98,144)"/>
<path d="M0 0 C0.33 0 0.66 0 1 0 C1.68879166 10.75280311 1.68879166 10.75280311 -0.9375 14.6875 C-1.618125 15.450625 -2.29875 16.21375 -3 17 C-3.33 17 -3.66 17 -4 17 C-4 15.35 -4 13.7 -4 12 C-3.01 11.67 -2.02 11.34 -1 11 C-0.67 7.37 -0.34 3.74 0 0 Z " fill="#E3CECD" transform="translate(150,124)"/>
<path d="M0 0 C2.97 0.33 5.94 0.66 9 1 C9 1.66 9 2.32 9 3 C11.64 3 14.28 3 17 3 C15 5 15 5 12.4375 5.375 C7.81092235 4.87028244 4.13438362 3.05800429 0 1 C0 0.67 0 0.34 0 0 Z " fill="#F2DBD1" transform="translate(100,16)"/>
<path d="M0 0 C4.62 0 9.24 0 14 0 C14 0.33 14 0.66 14 1 C11.03 1 8.06 1 5 1 C5 1.66 5 2.32 5 3 C5.99 3 6.98 3 8 3 C8 3.66 8 4.32 8 5 C6.35 5 4.7 5 3 5 C3 4.34 3 3.68 3 3 C2.34 3 1.68 3 1 3 C0.67 2.01 0.34 1.02 0 0 Z " fill="#F5F4F5" transform="translate(72,9)"/>
<path d="M0 0 C0.33 0.99 0.66 1.98 1 3 C-2.25559127 6.62765884 -4.16428704 8.3283732 -9 9 C-9.33 9.66 -9.66 10.32 -10 11 C-10 10.34 -10 9.68 -10 9 C-10.66 8.67 -11.32 8.34 -12 8 C-11.07767578 7.63648438 -11.07767578 7.63648438 -10.13671875 7.265625 C-4.07080031 4.89368596 -4.07080031 4.89368596 0 0 Z " fill="#E7DAD6" transform="translate(122,157)"/>
<path d="M0 0 C1.5 1.3125 1.5 1.3125 3 3 C3 3.99 3 4.98 3 6 C2.34 6 1.68 6 1 6 C0.67 7.65 0.34 9.3 0 11 C-0.66 11 -1.32 11 -2 11 C-1.40049704 7.31733897 -0.75241109 3.65456815 0 0 Z " fill="#CB7863" transform="translate(127,116)"/>
<path d="M0 0 C0.58265625 0.22300781 1.1653125 0.44601563 1.765625 0.67578125 C-1.859375 3.67578125 -1.859375 3.67578125 -5.234375 3.67578125 C-5.894375 4.99578125 -6.554375 6.31578125 -7.234375 7.67578125 C-7.894375 7.67578125 -8.554375 7.67578125 -9.234375 7.67578125 C-9.234375 5.67578125 -9.234375 5.67578125 -7.84375 4.1328125 C-6.92335937 3.31876953 -6.92335937 3.31876953 -5.984375 2.48828125 C-5.38109375 1.93785156 -4.7778125 1.38742188 -4.15625 0.8203125 C-2.234375 -0.32421875 -2.234375 -0.32421875 0 0 Z " fill="#6F768B" transform="translate(135.234375,148.32421875)"/>
<path d="M0 0 C-0.33 0.99 -0.66 1.98 -1 3 C-2.258125 3.185625 -3.51625 3.37125 -4.8125 3.5625 C-5.87404297 3.71912109 -5.87404297 3.71912109 -6.95703125 3.87890625 C-9 4 -9 4 -12 3 C-4.71428571 -0.42857143 -4.71428571 -0.42857143 0 0 Z " fill="#DA8B70" transform="translate(147,14)"/>
<path d="M0 0 C0.66 0 1.32 0 2 0 C0.94124926 3.40312738 -0.00902154 6.01353231 -2 9 C-2.99 9.495 -2.99 9.495 -4 10 C-3.52651586 5.8333396 -2.95303159 3.07115285 0 0 Z " fill="#D29C8A" transform="translate(125,149)"/>
<path d="M0 0 C1.09570312 0.19464844 2.19140625 0.38929688 3.3203125 0.58984375 C4.16335937 0.74582031 5.00640625 0.90179688 5.875 1.0625 C5.875 1.3925 5.875 1.7225 5.875 2.0625 C1.255 2.0625 -3.365 2.0625 -8.125 2.0625 C-8.125 1.4025 -8.125 0.7425 -8.125 0.0625 C-5.2144446 -1.3927777 -3.16650948 -0.57266661 0 0 Z " fill="#D98369" transform="translate(71.125,169.9375)"/>
<path d="M0 0 C0.309375 0.639375 0.61875 1.27875 0.9375 1.9375 C1.8345163 3.93610821 1.8345163 3.93610821 3 5 C3.04063832 6.66617115 3.042721 8.33388095 3 10 C2.01 10.495 2.01 10.495 1 11 C-0.28317892 7.15046324 -0.06643637 4.05261865 0 0 Z " fill="#C37057" transform="translate(130,95)"/>
<path d="M0 0 C0.66 0.33 1.32 0.66 2 1 C2.625 3.0625 2.625 3.0625 3 5 C2.34 5 1.68 5 1 5 C1 4.34 1 3.68 1 3 C-0.98 3.66 -2.96 4.32 -5 5 C-5.33 4.34 -5.66 3.68 -6 3 C-4.03533587 1.93224776 -2.03144641 0.93446535 0 0 Z " fill="#C57760" transform="translate(90,164)"/>
<path d="M0 0 C0 0.66 0 1.32 0 2 C-1.28745036 2.38922918 -2.58019597 2.76098036 -3.875 3.125 C-4.59429687 3.33382813 -5.31359375 3.54265625 -6.0546875 3.7578125 C-6.69664062 3.83773438 -7.33859375 3.91765625 -8 4 C-8.66 3.34 -9.32 2.68 -10 2 C-6.49223216 0.39644899 -3.85645121 -0.22036864 0 0 Z " fill="#D7D1D8" transform="translate(146,12)"/>
<path d="M0 0 C0.66 0.99 1.32 1.98 2 3 C0.60667426 6.36720387 -0.9789286 7.9859524 -4 10 C-2.8905928 6.51329166 -1.73662334 3.22515763 0 0 Z " fill="#1B0F0D" transform="translate(40,58)"/>
<path d="M0 0 C0 3.62453269 -0.92469613 5.07920195 -3 8 C-3.99 8.33 -4.98 8.66 -6 9 C-4.68775452 5.06326356 -3.08089673 2.77280706 0 0 Z " fill="#26110E" transform="translate(50,44)"/>
<path d="M0 0 C-1.11375 0.45375 -2.2275 0.9075 -3.375 1.375 C-6.96199008 2.72465986 -6.96199008 2.72465986 -9 5 C-9 4.34 -9 3.68 -9 3 C-9.66 2.67 -10.32 2.34 -11 2 C-3.57142857 -1.57142857 -3.57142857 -1.57142857 0 0 Z " fill="#2C1813" transform="translate(78,29)"/>
<path d="M0 0 C-4.625 4 -4.625 4 -8 4 C-8 3.01 -8 2.02 -8 1 C-5.07175348 0.02391783 -3.04386724 -0.08226668 0 0 Z " fill="#D9846A" transform="translate(29,17)"/>
<path d="M0 0 C0.66 0 1.32 0 2 0 C2 1.98 2 3.96 2 6 C1.01 6.495 1.01 6.495 0 7 C-0.38133299 5.0085944 -0.71325582 3.00720923 -1 1 C-0.67 0.67 -0.34 0.34 0 0 Z " fill="#130D0F" transform="translate(110,143)"/>
<path d="M0 0 C1.32 0 2.64 0 4 0 C4.33 2.31 4.66 4.62 5 7 C2.47411298 4.63707344 1.11179163 3.33537489 0 0 Z " fill="#CF7967" transform="translate(119,46)"/>
</svg>
