<?xml version="1.0" encoding="UTF-8"?>
<svg version="1.1" xmlns="http://www.w3.org/2000/svg" width="192" height="201">
<path d="M0 0 C63.36 0 126.72 0 192 0 C192 66.33 192 132.66 192 201 C128.64 201 65.28 201 0 201 C0 134.67 0 68.34 0 0 Z " fill="#DD7F65" transform="translate(0,0)"/>
<path d="M0 0 C2.62632084 -0.00435462 5.25092936 -0.04076157 7.87695312 -0.07861328 C26.30948328 -0.19910211 47.3483065 1.46456764 61.25976562 14.74169922 C70.80420853 25.81654418 72.42169678 39.15439011 71.72070312 53.15673828 C70.73323399 64.34970098 65.70029167 73.8404893 57.40039062 81.24560547 C54.83881097 83.37511144 52.20001169 85.38544228 49.52539062 87.37060547 C50.18925781 87.86689453 50.853125 88.36318359 51.53710938 88.87451172 C60.86102662 96.0478028 65.36435622 101.66117082 67.52539062 113.37060547 C67.84633644 116.49699528 68.07883769 119.60208265 68.21679688 122.74169922 C68.52848165 125.3969379 69.17940692 127.08405483 70.52539062 129.37060547 C71.51539063 129.04060547 72.50539063 128.71060547 73.52539062 128.37060547 C74.75059326 125.36213129 74.75059326 125.36213129 75.52539062 122.37060547 C76.51539063 122.37060547 77.50539063 122.37060547 78.52539062 122.37060547 C79.16277488 131.84284374 77.48198256 137.7618004 72.40039062 145.68310547 C66.84257246 150.87845723 60.80689499 152.59291963 53.27539062 152.80810547 C45.8880074 152.50619453 41.25899198 149.93025976 36.19726562 144.65576172 C32.84387593 140.07227346 31.23926249 134.73401626 29.52539062 129.37060547 C29.28949219 128.69255859 29.05359375 128.01451172 28.81054688 127.31591797 C27.22536215 122.10910682 27.1430005 116.67408403 26.95410156 111.26782227 C26.75964763 106.70206635 26.04265674 102.68397628 24.52539062 98.37060547 C20.3793771 94.87240656 14.56077214 93.30933776 9.52539062 91.37060547 C9.53062744 91.9701001 9.53586426 92.56959473 9.54125977 93.18725586 C9.56220506 95.93586149 9.57510618 98.68445025 9.58789062 101.43310547 C9.59626953 102.37605469 9.60464844 103.31900391 9.61328125 104.29052734 C9.63120165 109.43368227 9.41798674 114.30318974 8.52539062 119.37060547 C14.96039063 118.87560547 14.96039063 118.87560547 21.52539062 118.37060547 C20.86539063 129.59060547 20.20539063 140.81060547 19.52539062 152.37060547 C14.48796978 153.09023702 10.09780108 153.50885056 5.07226562 153.53857422 C4.03094231 153.54499435 4.03094231 153.54499435 2.96858215 153.55154419 C0.73745175 153.56147534 -1.49346122 153.56161107 -3.72460938 153.55810547 C-4.48250763 153.55716888 -5.24040588 153.5562323 -6.02127075 153.55526733 C-14.99629568 153.53114699 -23.96620604 153.47686885 -32.91210938 152.68310547 C-34.03504395 152.60322388 -34.03504395 152.60322388 -35.18066406 152.52172852 C-38.52859591 152.15191747 -40.14227151 151.746672 -42.40429688 149.18701172 C-43.6138112 146.00431161 -43.98376171 143.39610101 -44.16210938 139.99560547 C-44.2265625 138.77873047 -44.29101562 137.56185547 -44.35742188 136.30810547 C-44.54537791 129.99278257 -44.55424385 123.68827406 -44.47460938 117.37060547 C-39.54093591 115.36368745 -36.91940332 114.37060547 -31.47460938 114.37060547 C-31.80460937 89.62060547 -32.13460937 64.87060547 -32.47460938 39.37060547 C-35.44460937 39.04060547 -38.41460937 38.71060547 -41.47460938 38.37060547 C-44.47460938 35.37060547 -44.47460938 35.37060547 -44.80273438 32.32373047 C-44.77695312 31.10169922 -44.75117187 29.87966797 -44.72460938 28.62060547 C-44.71365234 27.96825928 -44.70269531 27.31591309 -44.69140625 26.64379883 C-44.53518682 19.54006007 -44.03711787 12.45218569 -43.47460938 5.37060547 C-28.93813925 1.37706972 -15.00165385 -0.00276783 0 0 Z " fill="#212F52" transform="translate(75.474609375,18.62939453125)"/>
<path d="M0 0 C63.36 0 126.72 0 192 0 C192 66.33 192 132.66 192 201 C128.64 201 65.28 201 0 201 C0 134.67 0 68.34 0 0 Z M106.43139648 6.09179688 C104.90786812 6.10642723 104.90786812 6.10642723 103.3535614 6.12135315 C100.02606807 6.15340814 96.69858104 6.18607453 93.37109375 6.21875 C91.05225155 6.24120811 88.73340897 6.26362779 86.41456604 6.28601074 C80.33356353 6.34481115 74.2525662 6.40413144 68.17156982 6.46356201 C61.9574819 6.52420064 55.74338919 6.58434479 49.52929688 6.64453125 C37.35285987 6.7625384 25.17642827 6.88109507 13 7 C12.97306425 9.12493141 12.95363372 11.24995912 12.9375 13.375 C12.92589844 14.55835938 12.91429687 15.74171875 12.90234375 16.9609375 C12.78533407 19.91921521 12.78533407 19.91921521 14 22 C14.11577725 23.37713998 14.17846742 24.75900834 14.2109375 26.140625 C14.23929688 26.96433594 14.26765625 27.78804687 14.296875 28.63671875 C14.34848513 30.36307745 14.39289247 32.08966826 14.4296875 33.81640625 C14.62418936 39.02743532 15.45186045 42.35731643 18 47 C19.28240279 54.2242024 17.70531503 59.34215335 14.1640625 65.59375 C12.66780943 68.68667581 12.49995711 71.34795133 12.33422852 74.73657227 C11.97554765 77.16559365 11.29193059 78.43221335 10.00390625 80.49609375 C7.15434362 85.96745759 7.41374315 91.3887387 7.5 97.4375 C7.48453125 98.51837891 7.4690625 99.59925781 7.453125 100.71289062 C7.48344943 106.9635137 8.27849904 111.39123851 11.10498047 116.95141602 C12.57489855 120.31586844 12.42271591 123.08627127 12.3125 126.75 C12.28800781 128.00296875 12.26351563 129.2559375 12.23828125 130.546875 C12.0360907 133.47698069 11.61789764 136.13918257 11 139 C10.61649871 142.89401306 10.32426292 145.95823867 12.5 149.3125 C15.45874335 154.61358183 14.35045369 161.30546191 13.3125 167.125 C12.66800796 171.96134176 12.66800796 171.96134176 16 180 C71.44 180 126.88 180 184 180 C183.17307315 167.4106715 183.17307315 167.4106715 181.84375 154.90234375 C181.6236473 153.10282917 181.40393388 151.30326694 181.18457031 149.50366211 C181.07230103 148.59244598 180.96003174 147.68122986 180.84436035 146.74240112 C179.07422731 132.3242251 177.44679596 118.03156026 177.140625 103.49609375 C177.24581587 100.14921144 177.24581587 100.14921144 176 98 C175.90089664 95.07353605 175.86111051 92.17605243 175.875 89.25 C175.87113281 88.45078125 175.86726562 87.6515625 175.86328125 86.828125 C175.87051516 82.42991058 176.17726006 78.33520662 177 74 C177.49015705 68.78736833 176.99591791 65.37864925 174 61 C173.690625 59.96875 173.38125 58.9375 173.0625 57.875 C172.27933184 54.92423005 172.27933184 54.92423005 170.0625 53.625 C167.69172779 51.75711887 167.46093729 50.80761653 166.5625 48 C165.54770062 44.99948508 165.23197808 44.17703591 162.625 42.1875 C161.75875 41.795625 160.8925 41.40375 160 41 C155.88278336 38.84336271 154.27004052 37.02416274 152 33 C151.01 32.34 150.02 31.68 149 31 C148.296875 28.6796875 148.296875 28.6796875 147.75 25.875 C146.22045535 19.75682141 143.52594654 16.27396665 139 12 C138.23623047 11.22462891 138.23623047 11.22462891 137.45703125 10.43359375 C129.91468164 3.33610122 116.13997868 5.9952321 106.43139648 6.09179688 Z " fill="#6F7DA5" transform="translate(0,0)"/>
<path d="M0 0 C6.03908949 -0.45799091 9.40724671 2.40004113 14 6 C18.30220805 10.18593215 19.94739153 15.48038057 22 21 C22.34933594 21.77859375 22.69867188 22.5571875 23.05859375 23.359375 C24.23752493 26.6662525 24.57214281 29.75648936 24.9375 33.25 C25.10353823 34.77350612 25.27024677 36.29693928 25.4375 37.8203125 C25.52644531 38.64821289 25.61539063 39.47611328 25.70703125 40.32910156 C26.24847068 45.2652244 26.8450682 50.1947818 27.4375 55.125 C27.56503662 56.19218262 27.69257324 57.25936523 27.82397461 58.35888672 C28.55479145 64.43639788 29.32057409 70.50785025 30.12768555 76.57568359 C31.36455071 85.87528747 32.53955266 95.18146128 33.625 104.5 C33.74810547 105.50595215 33.87121094 106.5119043 33.99804688 107.54833984 C35.26218018 118.6618875 35.5879194 129.82835648 36 141 C28.22883692 141.06948809 20.45774652 141.12280502 12.68635082 141.15543652 C9.07781697 141.1710975 5.46949556 141.19234315 1.86108398 141.22631836 C-1.62078122 141.25889717 -5.10244201 141.27684975 -8.58444786 141.28463173 C-10.56042097 141.29287856 -12.53631175 141.31630038 -14.51216125 141.33988953 C-15.71317978 141.34011612 -16.9141983 141.34034271 -18.15161133 141.34057617 C-19.74045891 141.35056892 -19.74045891 141.35056892 -21.36140442 141.36076355 C-24.32832545 140.95510951 -25.20751967 140.33637946 -27 138 C-23.535 137.01 -23.535 137.01 -20 136 C-20 135.34 -20 134.68 -20 134 C-19.16855469 133.95101562 -18.33710938 133.90203125 -17.48046875 133.8515625 C-15.85044922 133.73941406 -15.85044922 133.73941406 -14.1875 133.625 C-13.10855469 133.55539063 -12.02960938 133.48578125 -10.91796875 133.4140625 C-7.81373814 133.18804267 -7.81373814 133.18804267 -5 131 C-4.01 131 -3.02 131 -2 131 C-1.88527344 130.40960938 -1.77054688 129.81921875 -1.65234375 129.2109375 C-0.95684389 126.85373437 -0.07706904 125.53955908 1.4375 123.625 C6.11416337 117.23670479 6.47898319 110.70556444 7 103 C6.01 103.33 5.02 103.66 4 104 C2.77479736 107.00847418 2.77479736 107.00847418 2 110 C0.68 110 -0.64 110 -2 110 C-4.41331634 106.20052263 -4.50236493 102.17602823 -4.875 97.8125 C-5.88634524 87.88407546 -8.2566315 79.72807632 -16.25390625 73.14453125 C-18.48098469 71.39841811 -20.72680633 69.68546625 -23 68 C-21.13578709 66.04257645 -19.59022165 64.7485451 -17.25 63.3125 C-8.5471491 57.12008686 -4.1559987 48.92329523 -1.375 38.703125 C-0.8304006 34.77747099 -0.85583219 30.89565249 -0.875 26.9375 C-0.87113281 26.13505859 -0.86726563 25.33261719 -0.86328125 24.50585938 C-0.86457031 23.72919922 -0.86585938 22.95253906 -0.8671875 22.15234375 C-0.86831543 21.45101318 -0.86944336 20.74968262 -0.87060547 20.02709961 C-1.00584225 17.90847512 -1.4785665 16.05361855 -2 14 C-2.25436428 8.7431383 -1.98256731 4.95641829 0 0 Z " fill="#DE7F64" transform="translate(147,38)"/>
<path d="M0 0 C63.36 0 126.72 0 192 0 C192 82 192 82 186 110 C185.34 109.67 184.68 109.34 184 109 C183.89900901 103.37816819 183.91727445 97.79302906 184.328125 92.18359375 C184.38621338 91.34868408 184.44430176 90.51377441 184.50415039 89.65356445 C184.62452718 87.99345466 184.75869592 86.33427591 184.90795898 84.67651367 C185.27252835 79.50990732 184.66333575 76.59289532 182 72 C181.8125 68.625 181.8125 68.625 182 66 C181.38125 65.71125 180.7625 65.4225 180.125 65.125 C178 64 178 64 176 62 C175.938125 61.21625 175.87625 60.4325 175.8125 59.625 C175.22031862 56.61745826 175.22031862 56.61745826 171.6875 55.25 C170.73037109 54.77626953 170.73037109 54.77626953 169.75390625 54.29296875 C167.49918981 52.63080585 167.05529986 51.18032053 166.125 48.5625 C164.26802622 43.60786691 161.69600745 42.32020778 157.046875 40.1171875 C154.30523307 38.62079515 153.37436797 36.74873594 152 34 C151.34644531 33.59136719 150.69289062 33.18273438 150.01953125 32.76171875 C146.52348741 29.71197838 146.65230075 25.33627485 145.90625 20.93359375 C145.32477417 17.9079966 145.32477417 17.9079966 143.07421875 16.81640625 C142.38972656 16.54699219 141.70523438 16.27757813 141 16 C139.56377301 14.28461903 138.31379064 12.50188601 137.05078125 10.65625 C131.1306265 5.87502026 121.80467614 6.72240812 114.60522461 6.77294922 C113.5017569 6.77265717 112.39828918 6.77236511 111.26138306 6.77206421 C107.64162117 6.7734491 104.02206934 6.7889707 100.40234375 6.8046875 C97.8817201 6.80842062 95.36109499 6.81126618 92.84046936 6.81326294 C86.90147783 6.82009921 80.96255283 6.83583582 75.02359539 6.85596192 C68.2568996 6.87839065 61.49020006 6.88933181 54.72347629 6.89935279 C40.81560978 6.92020427 26.90780898 6.95533647 13 7 C13.14069196 9.12534659 13.28770921 11.25027529 13.4375 13.375 C13.51871094 14.55835938 13.59992187 15.74171875 13.68359375 16.9609375 C13.81084936 19.91518901 13.81084936 19.91518901 15 22 C15.11577725 23.37713998 15.17846742 24.75900834 15.2109375 26.140625 C15.23929688 26.96433594 15.26765625 27.78804687 15.296875 28.63671875 C15.34848513 30.36307745 15.39289247 32.08966826 15.4296875 33.81640625 C15.62418936 39.02743532 16.45186045 42.35731643 19 47 C20.28240279 54.2242024 18.70531503 59.34215335 15.1640625 65.59375 C13.65635324 68.71035706 13.50712067 71.4044627 13.3125 74.81640625 C12.76328595 78.65403942 10.88804068 81.65025041 9 85 C8.34 85 7.68 85 7 85 C7 64.21 7 43.42 7 22 C4.69 22 2.38 22 0 22 C0 14.74 0 7.48 0 0 Z " fill="#707EA5" transform="translate(0,0)"/>
<path d="M0 0 C0.99 0.33 1.98 0.66 3 1 C3.309375 1.94875 3.61875 2.8975 3.9375 3.875 C4.68544012 7.0675848 4.68544012 7.0675848 7 8.4375 C9.96828101 10.75646954 10.1343038 13.41354433 11 17 C11.35578125 17.71285156 11.7115625 18.42570312 12.078125 19.16015625 C13.39432957 23.21473557 12.95984763 26.85346528 12.625 31.0625 C12.09258646 38.41343692 12 45.59373927 12 53 C13.98 44.09 15.96 35.18 18 26 C18.33 26 18.66 26 19 26 C19 61.97 19 97.94 19 135 C-22.54795016 135.08060607 -22.54795016 135.08060607 -39.91015625 135.09765625 C-51.91554465 135.10954028 -63.92090505 135.12353817 -75.92626953 135.15087891 C-84.66829738 135.17077835 -93.41030259 135.18370823 -102.15235245 135.18817699 C-106.78360236 135.19079023 -111.41478749 135.19695573 -116.04601669 135.21146011 C-120.4010837 135.22498966 -124.75605899 135.22923207 -129.11114502 135.22621536 C-130.71319196 135.22676761 -132.31524183 135.23077253 -133.91727066 135.23841095 C-136.0974578 135.24829999 -138.27729448 135.24599129 -140.45748901 135.24050903 C-141.67978651 135.24235262 -142.90208401 135.24419621 -144.16142082 135.24609566 C-147 135 -147 135 -149 133 C-149.66 130.03 -150.32 127.06 -151 124 C-97.54 124 -44.08 124 11 124 C8.69 104.86 6.38 85.72 4 66 C3.67 58.74 3.34 51.48 3 44 C2.67 43.34 2.34 42.68 2 42 C1.90089664 39.07353605 1.86111051 36.17605243 1.875 33.25 C1.87113281 32.45078125 1.86726562 31.6515625 1.86328125 30.828125 C1.87051516 26.42991058 2.17726006 22.33520662 3 18 C3.4934333 12.75252664 2.89050479 9.45619489 0 5 C-0.1875 2.1875 -0.1875 2.1875 0 0 Z " fill="#59617D" transform="translate(173,56)"/>
<path d="M0 0 C2.31 0 4.62 0 7 0 C7.18725753 8.3121118 7.34945926 16.62464716 7.5 24.9375 C7.51202454 25.59706318 7.52404907 26.25662636 7.53643799 26.9361763 C7.91666477 48.05134358 8.04107251 69.16274371 8.03125 90.28125 C8.03074142 91.45898043 8.03023285 92.63671085 8.02970886 93.85013008 C8.02303406 105.78319697 8.004758 117.71620552 7.97194672 129.64922905 C7.96021478 134.17951968 7.95213657 138.70981303 7.94456482 143.2401123 C7.93766041 146.39162693 7.92504036 149.54308482 7.91223145 152.69458008 C7.90863805 154.61401314 7.90532614 156.53344675 7.90234375 158.45288086 C7.89717995 159.30709594 7.89201614 160.16131102 7.88669586 161.0414114 C7.88623448 166.11771739 8.27073825 170.97485754 9 176 C3.375 179 3.375 179 0 179 C0 119.93 0 60.86 0 0 Z " fill="#55607F" transform="translate(0,22)"/>
<path d="M0 0 C2.39652528 -0.08139142 4.79025436 -0.14067009 7.1875 -0.1875 C7.86103516 -0.21263672 8.53457031 -0.23777344 9.22851562 -0.26367188 C13.7218385 -0.32942782 16.42167767 0.27242218 20 3 C25.06938347 8.49183209 25.30743866 13.05561284 25.2109375 20.3125 C24.7990345 25.56044932 22.856377 28.18085678 19.125 31.75 C13.46104052 35.82805083 8.88618893 36.61178951 2 36 C-1.85075969 32.14924031 -0.0572602 17.1306199 -0.06811523 11.79418945 C-0.06003343 7.86256664 -0.03592208 3.9314718 0 0 Z " fill="#D87D64" transform="translate(82,54)"/>
<path d="M0 0 C4.80820594 7.21230891 5.35312764 15.95571878 4.91015625 24.40625 C5.00730192 27.21080332 5.61788078 28.59894617 7 31 C10.3006772 41.09618908 10.47798349 46.51374549 6 56 C3.4467783 61.42559611 1.58225009 65.94459904 1 72 C0.7525 72.86625 0.505 73.7325 0.25 74.625 C-0.09256508 77.8793683 1.32376839 79.25098015 3 82 C3.44231533 85.53852267 3.45669285 87.29593186 1.5 90.3125 C-0.6741394 94.20783309 -0.57201307 97.62923348 0 102 C0.67456677 104.0624685 1.48284005 106.02194748 2.328125 108.01953125 C3.91222092 112.68893027 3.17234171 117.31063316 2 122 C1.66246148 128.63825752 2.7097167 134.47171147 4.52514648 140.84301758 C5.03427929 143.1557108 5.12941256 145.2232428 5.1328125 147.58984375 C5.13474609 148.89018555 5.13474609 148.89018555 5.13671875 150.21679688 C5.13285156 151.11462891 5.12898438 152.01246094 5.125 152.9375 C5.12886719 153.83146484 5.13273437 154.72542969 5.13671875 155.64648438 C5.1304223 159.88714097 5.08681103 163.86839297 4 168 C2 167 2 167 0.8125 163.9375 C-0.07600935 160.54187898 0.1392246 157.72503391 0.6953125 154.24609375 C1.63301955 147.33350976 1.84699544 141.93078464 -2 136 C-2.43421494 132.49009591 -2.24957826 129.15552767 -1.50390625 125.703125 C-0.88052355 122.35908759 -0.75398347 119.15115444 -0.6875 115.75 C-0.65011719 114.50734375 -0.61273437 113.2646875 -0.57421875 111.984375 C-0.70679816 108.78936994 -1.54473408 106.64048804 -2.98828125 103.80078125 C-5.72341808 98.1064857 -5.58901903 92.65770477 -5.5 86.4375 C-5.51546875 85.35275391 -5.5309375 84.26800781 -5.546875 83.15039062 C-5.51808753 77.2237703 -5.07088949 72.82066621 -1.90014648 67.73999023 C-0.8178788 65.64795829 -0.67685983 63.96329353 -0.5625 61.625 C-0.31571321 57.83227672 0.69240567 55.42639558 2.5625 52.125 C5.41647024 46.81413364 6.05517075 41.94412855 5 36 C4.26136719 34.65421875 4.26136719 34.65421875 3.5078125 33.28125 C1.49447264 28.89988865 1.47656573 25.01633457 1.375 20.25 C1.32408096 18.54675817 1.26956952 16.84361877 1.2109375 15.140625 C1.18459229 14.01962402 1.18459229 14.01962402 1.15771484 12.87597656 C1.10909911 10.90927271 1.10909911 10.90927271 0 9 C-0.06950541 7.45976004 -0.08452357 5.91665012 -0.0625 4.375 C-0.05347656 3.55773437 -0.04445313 2.74046875 -0.03515625 1.8984375 C-0.02355469 1.27195312 -0.01195312 0.64546875 0 0 Z " fill="#ECE3E1" transform="translate(13,11)"/>
<path d="M0 0 C6.25235468 1.04205911 11.38343542 2.38343542 15.9375 6.9375 C18.28753939 11.49934117 18.13777366 16.40038912 18.3125 21.4375 C18.63958502 28.36801473 19.94462334 34.38556789 22.0625 41.01171875 C22.89665204 43.67057838 23.51192541 46.25966453 24 49 C21.10067643 46.60490662 20.49831724 44.68754757 20 41 C19.34 41 18.68 41 18 41 C17.95101562 40.31292969 17.90203125 39.62585938 17.8515625 38.91796875 C17.77679688 38.01691406 17.70203125 37.11585938 17.625 36.1875 C17.55539063 35.29417969 17.48578125 34.40085938 17.4140625 33.48046875 C17.13354964 30.75601501 17.13354964 30.75601501 15 28 C14.01 29.32 13.02 30.64 12 32 C12 30.35 12 28.7 12 27 C5.565 27.495 5.565 27.495 -1 28 C-0.67 18.76 -0.34 9.52 0 0 Z " fill="#DC7F65" transform="translate(85,110)"/>
<path d="M0 0 C3.65813374 1.92533355 5.43812089 3.17442825 7 7 C7.30751862 8.49291091 7.57781978 9.99392036 7.8125 11.5 C8.71876645 15.92983039 10.21153803 17.44278817 14 20 C14.30035156 20.65484375 14.60070312 21.3096875 14.91015625 21.984375 C16.26500014 24.49010779 17.3346511 24.885697 19.9375 25.9375 C23.68783851 27.67364224 25.29611182 29.11892136 27 33 C27.4640625 34.299375 27.4640625 34.299375 27.9375 35.625 C28.79254538 38.11569871 28.79254538 38.11569871 30.9375 39.25 C33.83446211 41.70802846 34.34937979 44.45763524 35.38671875 48.0390625 C35.82821794 49.98281996 35.82821794 49.98281996 37 51 C37.12575717 54.70983648 37.17844299 58.03947482 36.5 61.69140625 C35.86380866 65.90120363 35.8544341 69.99971465 35.875 74.25 C35.87113281 75.0646875 35.86726563 75.879375 35.86328125 76.71875 C35.75096136 80.99418443 35.75096136 80.99418443 37 85 C37.07033769 86.87379605 37.0843022 88.75001102 37.0625 90.625 C37.05347656 91.62789063 37.04445312 92.63078125 37.03515625 93.6640625 C37.02355469 94.43492188 37.01195312 95.20578125 37 96 C36.67 96 36.34 96 36 96 C34.24013014 84.42005632 32.66106023 72.8747047 31.73486328 61.19458008 C30.78997827 49.9926904 28.32404669 38.86595125 21 30 C16.994636 26.83787053 12.83025527 23.97115586 8.3203125 21.578125 C3.0270625 17.9780021 1.96239501 10.33523562 0.75 4.375 C0.49005411 2.91840663 0.23618762 1.46063394 0 0 Z " fill="#F1E8E3" transform="translate(140,15)"/>
<path d="M0 0 C0.33 0 0.66 0 1 0 C1 18.48 1 36.96 1 56 C-1.25597827 53.74402173 -1.96574192 51.95396133 -3.125 49 C-3.47820312 48.113125 -3.83140625 47.22625 -4.1953125 46.3125 C-5 44 -5 44 -5 42 C-5.66 42 -6.32 42 -7 42 C-7.5716005 33.02791366 -5.43764565 24.62903899 -3.5 15.9375 C-3.16190813 14.3888577 -2.82466122 12.84003067 -2.48828125 11.29101562 C-1.66858741 7.52514186 -0.83747545 3.76195754 0 0 Z " fill="#CB412C" transform="translate(191,82)"/>
<path d="M0 0 C0.70894944 -0.00220802 1.41789888 -0.00441605 2.14833164 -0.00669098 C7.41687137 0.07492829 12.24062071 0.84032905 16.06895447 4.64709473 C16.70832947 5.43084473 17.34770447 6.21459473 18.00645447 7.02209473 C17.67645447 7.68209473 17.34645447 8.34209473 17.00645447 9.02209473 C13.56895447 7.70959473 13.56895447 7.70959473 10.00645447 6.02209473 C9.51145447 4.53709473 9.51145447 4.53709473 9.00645447 3.02209473 C-48.90854553 2.52709473 -48.90854553 2.52709473 -107.99354553 2.02209473 C-108.32354553 3.01209473 -108.65354553 4.00209473 -108.99354553 5.02209473 C-108.99354553 3.70209473 -108.99354553 2.38209473 -108.99354553 1.02209473 C-95.58907083 0.89119772 -82.18459164 0.76077215 -68.78010654 0.6309433 C-62.55543355 0.57063966 -56.33076219 0.51017552 -50.10609436 0.44934082 C-44.09552304 0.39060449 -38.08494772 0.33229468 -32.07436943 0.27427673 C-29.78474213 0.25210157 -27.49511631 0.22977445 -25.20549202 0.20729065 C-21.99104815 0.17575157 -18.77659942 0.14475978 -15.56214905 0.1138916 C-14.15197006 0.09986549 -14.15197006 0.09986549 -12.71330261 0.08555603 C-8.47557763 0.04537674 -4.2379035 0.01270569 0 0 Z " fill="#B68788" transform="translate(121.99354553222656,5.9779052734375)"/>
<path d="M0 0 C0.33 0.66 0.66 1.32 1 2 C0.67 2.61875 0.34 3.2375 0 3.875 C-1.19158692 5.91555322 -1.19158692 5.91555322 -0.75 8 C-0.04939384 10.02658853 -0.04939384 10.02658853 1.0625 11.875 C2.36279409 14.82233327 2.38391888 16.80067598 2 20 C0.71488126 22.03131672 -0.61876037 24.03277992 -2 26 C-2.78215588 28.7282504 -2.78215588 28.7282504 -3 31 C-3.99 31 -4.98 31 -6 31 C-5.91845544 27.47826604 -5.80567356 23.95818017 -5.6875 20.4375 C-5.65366211 18.9515332 -5.65366211 18.9515332 -5.61914062 17.43554688 C-5.37500329 10.75506167 -4.95528123 4.95528123 0 0 Z " fill="#F7EDE7" transform="translate(14,79)"/>
<path d="M0 0 C0.33 0 0.66 0 1 0 C1.04898438 0.81984375 1.09796875 1.6396875 1.1484375 2.484375 C1.22320312 3.56203125 1.29796875 4.6396875 1.375 5.75 C1.44460937 6.81734375 1.51421875 7.8846875 1.5859375 8.984375 C1.87451003 12.28466713 1.87451003 12.28466713 4 16 C7.3 16.33 10.6 16.66 14 17 C14 42.41 14 67.82 14 94 C13.67 94 13.34 94 13 94 C12.67 69.25 12.34 44.5 12 19 C9.03 18.67 6.06 18.34 3 18 C0 15 0 15 -0.29296875 11.42578125 C-0.27309338 10.05438087 -0.23741111 8.68313595 -0.1875 7.3125 C-0.17396484 6.61060547 -0.16042969 5.90871094 -0.14648438 5.18554688 C-0.11120182 3.45670171 -0.05739583 1.72825235 0 0 Z " fill="#3D2E38" transform="translate(31,39)"/>
<path d="M0 0 C3 1 3 1 4.17529297 3.02612305 C5.24943599 6.89946115 5.24779717 10.59824005 5.1953125 14.58203125 C5.1924826 15.39621017 5.18965271 16.2103891 5.18673706 17.04924011 C5.17558584 19.637146 5.15049083 22.22469958 5.125 24.8125 C5.11496365 26.57226061 5.10583894 28.33202667 5.09765625 30.09179688 C5.0756631 34.39466598 5.04116836 38.69727336 5 43 C4.67 43 4.34 43 4 43 C3.42532505 38.00177992 2.85583718 33.00300527 2.29101562 28.00366211 C2.09840835 26.30526021 1.90441839 24.6070145 1.70898438 22.90893555 C1.42729292 20.45922593 1.150683 18.00898594 0.875 15.55859375 C0.78750488 14.80726669 0.70000977 14.05593964 0.60986328 13.28184509 C0.11403931 8.82270288 -0.08275349 4.48679105 0 0 Z " fill="#6D7BA2" transform="translate(187,132)"/>
<path d="M0 0 C1.07985131 4.31940525 0.73759836 6.23935431 -0.21484375 10.515625 C-0.48876953 11.76601562 -0.76269531 13.01640625 -1.04492188 14.3046875 C-1.34225535 15.61983522 -1.63978387 16.93493885 -1.9375 18.25 C-2.23193651 19.5805487 -2.52556547 20.91127637 -2.81835938 22.2421875 C-3.53764087 25.49664147 -4.2651448 28.74903351 -5 32 C-5.66 31.67 -6.32 31.34 -7 31 C-7.12867289 22.93649887 -6.79681084 15.02502344 -6 7 C-5.01 8.485 -5.01 8.485 -4 10 C-2.68 6.7 -1.36 3.4 0 0 Z " fill="#787595" transform="translate(191,78)"/>
<path d="M0 0 C9.09055155 4.47595785 13.60984091 9.233227 17.30078125 18.73046875 C18 21 18 21 18 24 C11.98857557 20.15936773 10.11067798 14.55416953 8.0625 8 C7.711875 7.34 7.36125 6.68 7 6 C4.52391899 5.25475806 4.52391899 5.25475806 2 5 C1.34 4.34 0.68 3.68 0 3 C0 2.01 0 1.02 0 0 Z " fill="#D99F86" transform="translate(151,38)"/>
<path d="M0 0 C0.66 0 1.32 0 2 0 C2.02917228 3.22914752 2.04685663 6.45826083 2.0625 9.6875 C2.07087891 10.59951172 2.07925781 11.51152344 2.08789062 12.45117188 C2.09111328 13.33740234 2.09433594 14.22363281 2.09765625 15.13671875 C2.10289307 15.94842529 2.10812988 16.76013184 2.11352539 17.59643555 C1.9929791 20.14864673 1.559949 22.51026137 1 25 C-1 24 -1 24 -2.1875 20.9375 C-3.97914622 14.01074177 -1.61847454 6.78816506 0 0 Z " fill="#F2EAE9" transform="translate(16,154)"/>
<path d="M0 0 C0.33 0 0.66 0 1 0 C1 5.28 1 10.56 1 16 C1.33 16 1.66 16 2 16 C2 17.98 2 19.96 2 22 C2.66 22 3.32 22 4 22 C4.33 21.01 4.66 20.02 5 19 C5.33 19 5.66 19 6 19 C6 23.29 6 27.58 6 32 C3.74402173 29.74402173 3.03425808 27.95396133 1.875 25 C1.34519531 23.6696875 1.34519531 23.6696875 0.8046875 22.3125 C0 20 0 20 0 18 C-0.66 18 -1.32 18 -2 18 C-2.20190089 11.64012196 -1.6277833 6.14778871 0 0 Z " fill="#B8453A" transform="translate(186,106)"/>
<path d="M0 0 C1.10852275 4.43409099 1.21993456 8.45468578 1 13 C0.01 14.485 0.01 14.485 -1 16 C-1.66 16 -2.32 16 -3 16 C-3.33 14.35 -3.66 12.7 -4 11 C-4.33 11 -4.66 11 -5 11 C-5.125 3.25 -5.125 3.25 -4 1 C-1 0 -1 0 0 0 Z " fill="#D23F27" transform="translate(191,112)"/>
<path d="M0 0 C2.97263623 2.45565602 3.44327428 4.23694653 4 8 C4.12460342 10.47822357 4.226479 12.95763741 4.3125 15.4375 C4.63958502 22.36801473 5.94462334 28.38556789 8.0625 35.01171875 C8.89665204 37.67057838 9.51192541 40.25966453 10 43 C7.10067643 40.60490662 6.49831724 38.68754757 6 35 C5.34 35 4.68 35 4 35 C3.47711624 29.85877321 2.96904292 24.71675563 2.5 19.5703125 C2.37625 18.22453125 2.37625 18.22453125 2.25 16.8515625 C2.08120214 15.01061083 1.91458841 13.16945778 1.75 11.328125 C1.6675 10.43867187 1.585 9.54921875 1.5 8.6328125 C1.4278125 7.83762207 1.355625 7.04243164 1.28125 6.22314453 C1.01057937 4.0836248 0.56946285 2.07794622 0 0 Z " fill="#C17A6C" transform="translate(99,116)"/>
<path d="M0 0 C0.556875 0.7425 1.11375 1.485 1.6875 2.25 C3.8512272 5.07865727 3.8512272 5.07865727 6.6875 6.8125 C10.05051059 9.99372623 9.77289348 12.45786968 10 17 C9.01 16.67 8.02 16.34 7 16 C6.33333333 14.66666667 5.66666667 13.33333333 5 12 C4.319375 11.608125 3.63875 11.21625 2.9375 10.8125 C-0.1877911 7.88884058 0.17249832 4.114085 0 0 Z " fill="#5F6782" transform="translate(147,22)"/>
<path d="M0 0 C0.58203125 1.91015625 0.58203125 1.91015625 1 4 C-0.3125 5.4375 -0.3125 5.4375 -2 7 C-2.309375 7.86625 -2.61875 8.7325 -2.9375 9.625 C-3.288125 10.40875 -3.63875 11.1925 -4 12 C-6.0625 12.6875 -6.0625 12.6875 -8 13 C-8.33 13.66 -8.66 14.32 -9 15 C-10.32 14.67 -11.64 14.34 -13 14 C-13 14.66 -13 15.32 -13 16 C-13.99 15.67 -14.98 15.34 -16 15 C-14.20594641 13.00660712 -12.55798315 11.72876239 -10.25 10.3125 C-6.14315004 7.39031829 -3.18126298 3.87775251 0 0 Z " fill="#CA7D6A" transform="translate(140,91)"/>
<path d="M0 0 C3.54629081 1.86646885 5.73543476 3.1068441 7 7 C7.1953125 9.578125 7.1953125 9.578125 7.125 12.25 C7.10695312 13.14203125 7.08890625 14.0340625 7.0703125 14.953125 C7.03550781 15.96632813 7.03550781 15.96632813 7 17 C6.01 16.67 5.02 16.34 4 16 C3.11917378 13.28681956 2.42123771 10.71116483 1.8125 7.9375 C1.63525391 7.17888672 1.45800781 6.42027344 1.27539062 5.63867188 C0.83863033 3.76178303 0.41780844 1.8811984 0 0 Z " fill="#EFE9E6" transform="translate(140,15)"/>
<path d="M0 0 C0.309375 0.639375 0.61875 1.27875 0.9375 1.9375 C1.8345163 3.93610821 1.8345163 3.93610821 3 5 C5.30631303 11.79256577 4.97110016 17.97920834 4 25 C3.67 25 3.34 25 3 25 C2.96261719 24.40832031 2.92523438 23.81664062 2.88671875 23.20703125 C2.49947593 18.07536521 2.49947593 18.07536521 0.4375 13.4375 C-1.69316519 9.82463294 -1.26879151 7.16626833 -1 3 C-0.67 2.01 -0.34 1.02 0 0 Z " fill="#E2DDE0" transform="translate(12,136)"/>
<path d="M0 0 C0.125 3.375 0.125 3.375 0 7 C-0.66 7.66 -1.32 8.32 -2 9 C-2.64767793 11.57061311 -2.64767793 11.57061311 -3 14 C-3.99 14 -4.98 14 -6 14 C-6.07654536 9.48382401 -6.10228696 5.40914783 -5 1 C-1.125 0 -1.125 0 0 0 Z " fill="#F1F0F1" transform="translate(14,96)"/>
<path d="M0 0 C4.4230618 0.73717697 7.38898611 1.39268337 11.375 3.0625 C12.24898437 3.42472656 13.12296875 3.78695312 14.0234375 4.16015625 C15.00183594 4.57587891 15.00183594 4.57587891 16 5 C16 5.99 16 6.98 16 8 C14.86111328 7.47599609 14.86111328 7.47599609 13.69921875 6.94140625 C12.20841797 6.25884766 12.20841797 6.25884766 10.6875 5.5625 C9.70136719 5.11003906 8.71523437 4.65757813 7.69921875 4.19140625 C4.98434301 2.94268008 4.98434301 2.94268008 2 2 C2 8.93 2 15.86 2 23 C1.67 23 1.34 23 1 23 C0.67 15.41 0.34 7.82 0 0 Z " fill="#473746" transform="translate(83,108)"/>
<path d="M0 0 C-3.54959704 3.14002815 -4.80391802 3.13398634 -10 4 C-10.66 8.62 -11.32 13.24 -12 18 C-12.33 18 -12.66 18 -13 18 C-13 13.05 -13 8.1 -13 3 C-4.57142857 -0.42857143 -4.57142857 -0.42857143 0 0 Z " fill="#473546" transform="translate(44,133)"/>
<path d="M0 0 C5.87431045 8.81146568 3.8593251 19.99002387 3 30 C2.67 30 2.34 30 2 30 C1.97494385 29.43490723 1.9498877 28.86981445 1.92407227 28.28759766 C1.80820044 25.73316258 1.68543463 23.1791045 1.5625 20.625 C1.52318359 19.73554688 1.48386719 18.84609375 1.44335938 17.9296875 C1.38051758 16.65351562 1.38051758 16.65351562 1.31640625 15.3515625 C1.27974854 14.56604004 1.24309082 13.78051758 1.20532227 12.97119141 C1.109109 10.92476504 1.109109 10.92476504 0 9 C-0.06950541 7.45976004 -0.08452357 5.91665012 -0.0625 4.375 C-0.05347656 3.55773437 -0.04445313 2.74046875 -0.03515625 1.8984375 C-0.02355469 1.27195312 -0.01195312 0.64546875 0 0 Z " fill="#DCD8DD" transform="translate(13,11)"/>
<path d="M0 0 C0.66 0.33 1.32 0.66 2 1 C2.21824777 7.0018137 1.5056904 12.19233704 0 18 C-0.33 18 -0.66 18 -1 18 C-1.22181406 15.56304285 -1.42791119 13.126474 -1.625 10.6875 C-1.68945312 9.99720703 -1.75390625 9.30691406 -1.8203125 8.59570312 C-2.11802847 4.7440028 -2.20763723 3.31145584 0 0 Z " fill="#E4E1E7" transform="translate(175,65)"/>
<path d="M0 0 C11.33183857 -0.92017937 11.33183857 -0.92017937 15.421875 1.3359375 C17.0948355 2.80841926 18.58944361 4.27655655 20 6 C19.67 6.66 19.34 7.32 19 8 C15.5625 6.6875 15.5625 6.6875 12 5 C11.67 4.01 11.34 3.02 11 2 C7.37 1.67 3.74 1.34 0 1 C0 0.67 0 0.34 0 0 Z " fill="#E9DBDA" transform="translate(120,7)"/>
<path d="M0 0 C-0.33 5.28 -0.66 10.56 -1 16 C-1.33 16 -1.66 16 -2 16 C-2 11.38 -2 6.76 -2 2 C-5.63 2 -9.26 2 -13 2 C-13 1.67 -13 1.34 -13 1 C-8.45368876 0.11291488 -4.76562241 0 0 0 Z " fill="#493845" transform="translate(97,137)"/>
<path d="M0 0 C3 1 3 1 4.25 3.3125 C5.0275526 6.09873015 4.98726527 7.33438378 4 10 C3.67 9.34 3.34 8.68 3 8 C2.67 10.31 2.34 12.62 2 15 C1.67 15 1.34 15 1 15 C0.67 10.05 0.34 5.1 0 0 Z " fill="#767696" transform="translate(187,132)"/>
<path d="M0 0 C1.65 0 3.3 0 5 0 C4.67 1.98 4.34 3.96 4 6 C3.34 6 2.68 6 2 6 C2.33 8.64 2.66 11.28 3 14 C0.81005752 10.71508627 0.64722661 9.16904361 0.375 5.3125 C0.30023438 4.31863281 0.22546875 3.32476562 0.1484375 2.30078125 C0.09945313 1.54152344 0.05046875 0.78226563 0 0 Z " fill="#D88970" transform="translate(14,8)"/>
<path d="M0 0 C2.2477975 2.05233685 3.0022242 3.00667261 4 6 C6.00016466 7.20882096 6.00016466 7.20882096 8 8 C5.66785852 9.20628008 3.50357861 10.1654738 1 11 C1 9.68 1 8.36 1 7 C0.34 6.67 -0.32 6.34 -1 6 C-0.67 4.02 -0.34 2.04 0 0 Z " fill="#DB8F74" transform="translate(143,29)"/>
<path d="M0 0 C3.80121434 0.8447143 5.56049694 1.36347832 7.8125 4.625 C9.18112194 8.51476763 9.64646807 11.89902957 10 16 C8 15 8 15 7.1484375 12.49609375 C6.76558594 10.98208984 6.76558594 10.98208984 6.375 9.4375 C6.11460937 8.42558594 5.85421875 7.41367187 5.5859375 6.37109375 C5.39257812 5.58863281 5.19921875 4.80617188 5 4 C4.34 4 3.68 4 3 4 C3 3.34 3 2.68 3 2 C2.01 1.67 1.02 1.34 0 1 C0 0.67 0 0.34 0 0 Z " fill="#DC9A84" transform="translate(133,12)"/>
<path d="M0 0 C0.86625 0.3403125 0.86625 0.3403125 1.75 0.6875 C0.1 2.0075 -1.55 3.3275 -3.25 4.6875 C-1.27 6.3375 0.71 7.9875 2.75 9.6875 C-1.30480631 9.6875 -3.09832975 8.13879908 -6.25 5.6875 C-6.25 4.6975 -6.25 3.7075 -6.25 2.6875 C-4.08146295 0.51896295 -3.10906228 -0.43181421 0 0 Z " fill="#3C3145" transform="translate(128.25,101.3125)"/>
<path d="M0 0 C1.13732426 3.40401948 0.83989957 5.77456664 0.0625 9.25 C-0.13214844 10.14203125 -0.32679687 11.0340625 -0.52734375 11.953125 C-0.68332031 12.62859375 -0.83929687 13.3040625 -1 14 C-1.66 14 -2.32 14 -3 14 C-3.34615998 8.34605369 -2.43425238 4.96993194 0 0 Z " fill="#DA987E" transform="translate(17,69)"/>
<path d="M0 0 C0.33 0 0.66 0 1 0 C1.04898438 0.81984375 1.09796875 1.6396875 1.1484375 2.484375 C1.22320312 3.56203125 1.29796875 4.6396875 1.375 5.75 C1.44460937 6.81734375 1.51421875 7.8846875 1.5859375 8.984375 C1.97789331 11.83899658 2.35794088 13.64786126 4 16 C7.05908413 16.81584568 7.05908413 16.81584568 10 17 C10 17.33 10 17.66 10 18 C3.60344828 18.36206897 3.60344828 18.36206897 1.28125 16.96875 C-0.69717729 13.92872758 -0.31481877 10.80886916 -0.1875 7.3125 C-0.17396484 6.61060547 -0.16042969 5.90871094 -0.14648438 5.18554688 C-0.11120182 3.45670171 -0.05739583 1.72825235 0 0 Z " fill="#5B4047" transform="translate(31,39)"/>
<path d="M0 0 C1.23363281 0.19916016 1.23363281 0.19916016 2.4921875 0.40234375 C9.31701806 1.48202249 16.11515032 2.40942599 23 3 C23 3.33 23 3.66 23 4 C8.85082873 4.21546961 8.85082873 4.21546961 2 3 C1.34 2.01 0.68 1.02 0 0 Z " fill="#372E45" transform="translate(33,167)"/>
<path d="M0 0 C0.99 0.495 0.99 0.495 2 1 C2 1.66 2 2.32 2 3 C2.99 3.33 3.98 3.66 5 4 C6.74672985 7.4934597 8 10.06845568 8 14 C7.34 14 6.68 14 6 14 C1.77676538 4.58997722 1.77676538 4.58997722 0 0 Z " fill="#E39072" transform="translate(158,44)"/>
<path d="M0 0 C2.31 0.33 4.62 0.66 7 1 C7.33 1.99 7.66 2.98 8 4 C4.37 3.67 0.74 3.34 -3 3 C-2.01 2.67 -1.02 2.34 0 2 C0 1.34 0 0.68 0 0 Z " fill="#C87565" transform="translate(107,18)"/>
<path d="M0 0 C0.33 0 0.66 0 1 0 C1.08082094 1.95766281 1.13910778 3.91626728 1.1875 5.875 C1.23970703 7.51082031 1.23970703 7.51082031 1.29296875 9.1796875 C1.19628906 10.11039063 1.09960938 11.04109375 1 12 C0.01 12.66 -0.98 13.32 -2 14 C-1.03644647 4.58997722 -1.03644647 4.58997722 0 0 Z " fill="#C04335" transform="translate(191,82)"/>
<path d="M0 0 C0.99 0.33 1.98 0.66 3 1 C4.1875 4.5625 4.1875 4.5625 5 8 C4.01 8.33 3.02 8.66 2 9 C0.14223235 5.86501708 -0.20140476 3.62528568 0 0 Z " fill="#5F6680" transform="translate(173,56)"/>
<path d="M0 0 C0.33 0.66 0.66 1.32 1 2 C0.67 2.5775 0.34 3.155 0 3.75 C-1.35041074 6.78842416 -0.72233614 8.82172097 0 12 C-0.99 11.67 -1.98 11.34 -3 11 C-3.36923077 3.49230769 -3.36923077 3.49230769 -1.5 1 C-1.005 0.67 -0.51 0.34 0 0 Z " fill="#F6E4DA" transform="translate(14,79)"/>
<path d="M0 0 C3.3 1.65 6.6 3.3 10 5 C9.67 5.99 9.34 6.98 9 8 C5.7 6.02 2.4 4.04 -1 2 C-0.67 1.34 -0.34 0.68 0 0 Z " fill="#E4D5D1" transform="translate(154,38)"/>
<path d="M0 0 C0.99 0 1.98 0 3 0 C3.33 1.65 3.66 3.3 4 5 C4.66 5 5.32 5 6 5 C6 6.65 6 8.3 6 10 C3.25722422 6.80009492 1.3697164 3.99500618 0 0 Z " fill="#C87F6B" transform="translate(137,33)"/>
<path d="M0 0 C4.67692308 1.47692308 4.67692308 1.47692308 6.3125 4.125 C6.539375 4.74375 6.76625 5.3625 7 6 C4.03824877 5.38722388 2.61941217 4.74627478 0 3 C0 2.01 0 1.02 0 0 Z " fill="#6C7792" transform="translate(168,50)"/>
<path d="M0 0 C3.465 1.98 3.465 1.98 7 4 C7 4.66 7 5.32 7 6 C2.25 5.25 2.25 5.25 0 3 C0 2.01 0 1.02 0 0 Z " fill="#DE9177" transform="translate(151,38)"/>
<path d="M0 0 C0.33 0 0.66 0 1 0 C1.33 3.3 1.66 6.6 2 10 C1.01 10 0.02 10 -1 10 C-1.33 8.35 -1.66 6.7 -2 5 C-1.34 5 -0.68 5 0 5 C0 3.35 0 1.7 0 0 Z " fill="#EBDBD6" transform="translate(11,105)"/>
<path d="M0 0 C0.66 0.33 1.32 0.66 2 1 C1.01 3.97 0.02 6.94 -1 10 C-1.33 10 -1.66 10 -2 10 C-2 7.36 -2 4.72 -2 2 C-1.34 2 -0.68 2 0 2 C0 1.34 0 0.68 0 0 Z " fill="#F9ECE1" transform="translate(12,100)"/>
</svg>
