<?xml version="1.0" encoding="UTF-8"?>
<svg version="1.1" xmlns="http://www.w3.org/2000/svg" width="159" height="221">
<path d="M0 0 C52.47 0 104.94 0 159 0 C159 72.93 159 145.86 159 221 C106.53 221 54.06 221 0 221 C0 148.07 0 75.14 0 0 Z " fill="#CF3F28" transform="translate(0,0)"/>
<path d="M0 0 C52.47 0 104.94 0 159 0 C159 72.93 159 145.86 159 221 C106.53 221 54.06 221 0 221 C0 193.28 0 165.56 0 137 C0.66 137 1.32 137 2 137 C2.31453125 137.76183594 2.6290625 138.52367187 2.953125 139.30859375 C6.39152804 147.60425891 9.86664861 155.80579995 13.9375 163.8125 C22 179.8144084 22 179.8144084 22 185 C22.66 185 23.32 185 24 185 C24.31453125 185.78503906 24.6290625 186.57007813 24.953125 187.37890625 C27.76666656 194.36849487 27.76666656 194.36849487 31.3125 201 C33 204 33 204 33 208 C34.64696604 207.5247412 36.29254728 207.04468109 37.9375 206.5625 C38.85402344 206.29566406 39.77054688 206.02882812 40.71484375 205.75390625 C42.9402493 205.20973949 42.9402493 205.20973949 44 204 C45.99958364 203.95919217 48.00045254 203.95745644 50 204 C50.33 203.01 50.66 202.02 51 201 C52.32 201 53.64 201 55 201 C55 200.01 55 199.02 55 198 C55.98226562 197.65388672 55.98226562 197.65388672 56.984375 197.30078125 C64.09199824 194.76091023 71.06302173 191.97299069 78 189 C78.7940625 188.6596875 79.588125 188.319375 80.40625 187.96875 C85.19577787 185.87754769 89.85844763 183.58072148 94.5234375 181.2265625 C100.22700877 178.40176537 106.03548601 175.90333309 112.015625 173.7265625 C113.40720444 173.21704719 114.79221027 172.68938518 116.171875 172.1484375 C121.67348131 170 121.67348131 170 125 170 C125.226875 169.46375 125.45375 168.9275 125.6875 168.375 C128.78190077 162.77560812 132.71333724 159.22644897 137.9375 155.6875 C142.92018902 151.62010623 142.92018902 151.62010623 145.46142578 145.92871094 C145.63811988 143.5559616 145.64068277 141.2529409 145.5625 138.875 C145.54195557 137.61465942 145.54195557 137.61465942 145.52099609 136.32885742 C145.31430469 130.31344481 144.25136733 125.1147772 141.99609375 119.50390625 C141.08317459 117.20907809 140.6027534 115.17153385 140.1875 112.75 C138.79251535 108.34478531 136.73135106 106.12577046 133.62109375 102.80859375 C130.82732355 99.69168868 130.1137137 97.09165148 129.6875 93 C130 90 130 90 131.5 87.625 C133.61685001 83.92051247 133.21486726 81.22572269 133 77 C132.34 77 131.68 77 131 77 C131.08378906 76.31292969 131.16757813 75.62585938 131.25390625 74.91796875 C131.40666016 73.56638672 131.40666016 73.56638672 131.5625 72.1875 C131.66691406 71.29417969 131.77132812 70.40085937 131.87890625 69.48046875 C132.15658709 66.86624428 132.15658709 66.86624428 131 64 C130.96045766 61.66700175 130.95598268 59.33291811 131 57 C130.34 57 129.68 57 129 57 C128.32506659 54.77332235 127.66036956 52.54354023 127 50.3125 C126.443125 48.45044922 126.443125 48.45044922 125.875 46.55078125 C125.10627838 43.43128144 125 41.15744428 125 38 C124.36425124 35.65805371 123.6950141 33.32504716 123 31 C122.5195397 28.62937722 122.06176078 26.25406168 121.625 23.875 C120.40629247 17.59396888 118.76816456 11.5974449 116.76953125 5.51171875 C116 3 116 3 116 1 C114.68 1 113.36 1 112 1 C112 1.66 112 2.32 112 3 C110.35 3.33 108.7 3.66 107 4 C107 4.66 107 5.32 107 6 C106.23558594 6.1959375 105.47117187 6.391875 104.68359375 6.59375 C97.36877104 8.6359147 91.14626559 11.31181907 84.54125977 14.99487305 C79.69207368 17.68662761 74.76178476 19.88653448 69.5859375 21.89453125 C66.93247227 22.95454058 66.93247227 22.95454058 64.40234375 24.59375 C61.31960074 26.39828249 58.52221059 26.65468524 55 27 C55 27.66 55 28.32 55 29 C53.845 29.495 52.69 29.99 51.5 30.5 C46.33413578 32.78599661 41.30692601 35.32643842 36.2890625 37.91796875 C35.33193359 38.40523437 35.33193359 38.40523437 34.35546875 38.90234375 C33.68628418 39.25393555 33.01709961 39.60552734 32.32763672 39.96777344 C30 41 30 41 26.97314453 41.77441406 C23.42993222 42.79725267 20.95206373 43.76995387 18 46 C15.38204892 51.41670526 14.48273718 56.97701971 13.5 62.875 C13.18645759 64.51805045 12.8683078 66.16022809 12.5456543 67.80151367 C11.77005101 71.81280551 11.05424963 75.8314789 10.36663818 79.85870361 C9.86241623 82.80353775 9.33056595 85.74326562 8.80078125 88.68359375 C8.15483235 92.32425738 7.54000876 95.96848222 6.94140625 99.6171875 C5.3348969 109.14949878 3.13465536 118.57457418 1 128 C0.67 128 0.34 128 0 128 C0 85.76 0 43.52 0 0 Z " fill="#707DA5" transform="translate(0,0)"/>
<path d="M0 0 C1.92149353 1.30978394 1.92149353 1.30978394 2.5274353 3.03533936 C3.08302546 12.02027866 3.04697878 21.00619481 3.01914978 30.00509644 C3.01767662 31.60332199 3.01665822 33.20154803 3.01609802 34.79977417 C3.01088847 40.67811819 2.99692728 46.55645183 2.98399353 52.43478394 C2.96336853 65.59353394 2.94274353 78.75228394 2.92149353 92.30978394 C-49.54850647 92.30978394 -102.01850647 92.30978394 -156.07850647 92.30978394 C-156.07850647 64.58978394 -156.07850647 36.86978394 -156.07850647 8.30978394 C-155.41850647 8.30978394 -154.75850647 8.30978394 -154.07850647 8.30978394 C-153.76397522 9.07161987 -153.44944397 9.83345581 -153.12538147 10.61837769 C-149.68697843 18.91404285 -146.21185786 27.11558388 -142.14100647 35.12228394 C-134.07850647 51.12419233 -134.07850647 51.12419233 -134.07850647 56.30978394 C-133.41850647 56.30978394 -132.75850647 56.30978394 -132.07850647 56.30978394 C-131.76397522 57.094823 -131.44944397 57.87986206 -131.12538147 58.68869019 C-128.31183991 65.67827881 -128.31183991 65.67827881 -124.76600647 72.30978394 C-123.07850647 75.30978394 -123.07850647 75.30978394 -123.07850647 79.30978394 C-121.43154043 78.83452513 -119.78595919 78.35446503 -118.14100647 77.87228394 C-117.22448303 77.605448 -116.30795959 77.33861206 -115.36366272 77.06369019 C-113.13825717 76.51952342 -113.13825717 76.51952342 -112.07850647 75.30978394 C-110.07892283 75.26897611 -108.07805393 75.26724037 -106.07850647 75.30978394 C-105.58350647 73.82478394 -105.58350647 73.82478394 -105.07850647 72.30978394 C-103.75850647 72.30978394 -102.43850647 72.30978394 -101.07850647 72.30978394 C-101.07850647 71.31978394 -101.07850647 70.32978394 -101.07850647 69.30978394 C-100.09624084 68.96367065 -100.09624084 68.96367065 -99.09413147 68.61056519 C-91.98650823 66.07069417 -85.01548474 63.28277462 -78.07850647 60.30978394 C-77.28444397 59.96947144 -76.49038147 59.62915894 -75.67225647 59.27853394 C-70.8827286 57.18733163 -66.22005884 54.89050541 -61.55506897 52.53634644 C-55.8514977 49.71154931 -50.04302046 47.21311703 -44.06288147 45.03634644 C-42.67130203 44.52683113 -41.2862962 43.99916912 -39.90663147 43.45822144 C-34.40502516 41.30978394 -34.40502516 41.30978394 -31.07850647 41.30978394 C-30.85163147 40.77353394 -30.62475647 40.23728394 -30.39100647 39.68478394 C-28.64468591 36.5247753 -26.43822157 34.04208563 -24.07850647 31.30978394 C-23.41850647 31.63978394 -22.75850647 31.96978394 -22.07850647 32.30978394 C-22.73850647 33.29978394 -23.39850647 34.28978394 -24.07850647 35.30978394 C-21.21116126 35.27858983 -21.21116126 35.27858983 -18.07850647 34.30978394 C-15.79611476 31.38656428 -15.79611476 31.38656428 -14.07850647 28.30978394 C-13.08850647 27.81478394 -13.08850647 27.81478394 -12.07850647 27.30978394 C-11.37638753 25.65773938 -10.70879234 23.99054625 -10.07850647 22.30978394 C-9.74850647 21.97978394 -9.41850647 21.64978394 -9.07850647 21.30978394 C-8.94426975 19.66612991 -8.84686202 18.01942705 -8.76600647 16.37228394 C-8.29575196 10.56995004 -6.87455091 5.43762393 -4.07850647 0.30978394 C-2.07850647 -0.69021606 -2.07850647 -0.69021606 0 0 Z " fill="#6F7DA6" transform="translate(156.07850646972656,128.69021606445313)"/>
<path d="M0 0 C2.31 0 4.62 0 7 0 C9.46173925 3.73077537 9.1731547 7.27978034 8.875 11.5625 C8.82931885 12.2939624 8.7836377 13.0254248 8.73657227 13.77905273 C8.05188043 22.68380349 6.04718634 31.32564299 4 40 C0.65084428 39.72090369 -0.75345523 39.23441251 -3.22265625 36.88671875 C-5.90731222 32.52636543 -6.24732301 28.08256311 -6.99609375 23.08203125 C-7.67278021 19.79970802 -7.67278021 19.79970802 -10.53515625 18.63671875 C-11.75525391 18.32154297 -11.75525391 18.32154297 -13 18 C-13.33 17.67 -13.66 17.34 -14 17 C-20.61198069 16.39574166 -27.20882434 16.44125033 -33 20 C-35.9914809 22.79751954 -38.79794426 25.90950024 -39.203125 30.1015625 C-39.3528349 38.16094554 -38.32150529 43.87101738 -32.6484375 49.8359375 C-27.64112074 54.72241915 -21.88496546 57.50447953 -15.625 60.5 C-4.13516542 66.03776883 7.18638054 72.05097402 13 84 C15.88926324 94.95438457 13.88883279 105.64993125 8.8125 115.5625 C2.25435925 126.64282139 -8.58172019 136.25645988 -21.26953125 139.59765625 C-24.68423091 140.10082372 -27.98628113 140.1319511 -31.4375 140.125 C-32.71496094 140.12757813 -33.99242187 140.13015625 -35.30859375 140.1328125 C-38.64920278 140.01262128 -41.7176893 139.59063558 -45 139 C-49.81935877 138.55792348 -53.67341607 138.2814337 -58 140.625 C-60.26870488 143.31908705 -61.15060066 145.60240263 -62 149 C-64.86724686 148.42655063 -65.8614515 148.1385485 -68 146 C-68.7777652 140.16676096 -67.02084302 135.34256482 -65.20703125 129.82421875 C-64.29357073 127.01489679 -63.50433198 124.1912378 -62.76171875 121.33203125 C-62.55184326 120.53192627 -62.34196777 119.73182129 -62.12573242 118.9074707 C-61.7168154 117.33418519 -61.31683993 115.7585412 -60.92700195 114.18041992 C-59.73037231 109.64284438 -58.43908426 106.38057432 -55 103 C-51.4375 102 -51.4375 102 -48 102 C-45.22244913 104.08648558 -44.51545363 106.07445015 -43.6875 109.375 C-42.17727616 114.28122982 -40.24257973 116.17161351 -36 119 C-29.47314323 121.17561892 -23.23734736 120.48024503 -17.08203125 117.47265625 C-12.30937031 114.09687168 -9.064395 108.72961562 -8 103 C-7.01870714 95.79450673 -8.69571466 89.86458878 -13 84 C-19.39544695 77.19495812 -26.98105211 73.92136989 -35.42382812 70.27148438 C-44.48495778 66.18226682 -52.2928499 61.09378686 -56.5 51.75 C-56.9640625 50.75484375 -57.428125 49.7596875 -57.90625 48.734375 C-61.20065186 40.49837034 -61.14344464 32.03289958 -57.9375 23.75 C-53.47912687 14.21057593 -47.34499026 8.72150732 -38 4 C-29.14369873 1.04789958 -17.1606805 1.93680801 -8.84765625 6.02734375 C-7.93306641 6.50880859 -7.93306641 6.50880859 -7 7 C-6.01 7.33 -5.02 7.66 -4 8 C-2.68 5.36 -1.36 2.72 0 0 Z " fill="#0A0607" transform="translate(100,36)"/>
<path d="M0 0 C0 45.87 0 91.74 0 139 C-0.33 139 -0.66 139 -1 139 C-1.33 135.7 -1.66 132.4 -2 129 C-2.99 128.67 -3.98 128.34 -5 128 C-7.58700227 129.29350113 -7.64610732 130.17859851 -8.5625 132.875 C-10.0394808 137.4757952 -10.46811089 141.90384378 -10.69140625 146.71484375 C-11 149 -11 149 -13 151 C-13.433125 152.175625 -13.433125 152.175625 -13.875 153.375 C-15.14063238 156.32814223 -16.67508154 157.82038894 -19 160 C-19.66 160.99 -20.32 161.98 -21 163 C-22.9453125 163.51171875 -22.9453125 163.51171875 -25.125 163.6875 C-26.40375 163.790625 -27.6825 163.89375 -29 164 C-25.96408942 159.48950428 -23.31447687 156.34371958 -19 153 C-15.55895707 149.65126523 -13.72049631 147.53279402 -13.37109375 142.6796875 C-13.36146005 141.07800101 -13.38486668 139.47585045 -13.4375 137.875 C-13.45119629 137.03477295 -13.46489258 136.1945459 -13.47900391 135.32885742 C-13.68569531 129.31344481 -14.74863267 124.1147772 -17.00390625 118.50390625 C-17.91682541 116.20907809 -18.3972466 114.17153385 -18.8125 111.75 C-20.20748465 107.34478531 -22.26864894 105.12577046 -25.37890625 101.80859375 C-28.17267645 98.69168868 -28.8862863 96.09165148 -29.3125 92 C-29 89 -29 89 -27.5 86.625 C-25.38314999 82.92051247 -25.78513274 80.22572269 -26 76 C-26.66 76 -27.32 76 -28 76 C-27.91621094 75.31292969 -27.83242187 74.62585938 -27.74609375 73.91796875 C-27.64425781 73.01691406 -27.54242188 72.11585937 -27.4375 71.1875 C-27.33308594 70.29417969 -27.22867188 69.40085937 -27.12109375 68.48046875 C-26.84341291 65.86624428 -26.84341291 65.86624428 -28 63 C-28.03954234 60.66700175 -28.04401732 58.33291811 -28 56 C-28.66 56 -29.32 56 -30 56 C-30.67493341 53.77332235 -31.33963044 51.54354023 -32 49.3125 C-32.37125 48.07113281 -32.7425 46.82976563 -33.125 45.55078125 C-33.89372162 42.43128144 -34 40.15744428 -34 37 C-34.63273662 34.65723811 -35.30246339 32.32429163 -36 30 C-36.52584959 27.56794563 -37.02541306 25.13007518 -37.5 22.6875 C-37.75650058 21.37760224 -38.01301104 20.06770641 -38.26953125 18.7578125 C-38.51058594 17.51773437 -38.75164062 16.27765625 -39 15 C-39.39443716 13.02055461 -39.79004053 11.04134075 -40.1875 9.0625 C-40.45833333 7.70833333 -40.72916667 6.35416667 -41 5 C-39.35 4.67 -37.7 4.34 -36 4 C-36 3.34 -36 2.68 -36 2 C-23.77860011 -0.3358307 -12.74979521 0 0 0 Z " fill="#6F7DA6" transform="translate(159,1)"/>
<path d="M0 0 C2.125 0.9375 2.125 0.9375 4 2 C5.66438043 25.04526749 5.66438043 25.04526749 4 32 C2.51171875 33.6640625 2.51171875 33.6640625 1 35 C0.5359375 36.2065625 0.5359375 36.2065625 0.0625 37.4375 C-1.15641983 40.37724782 -2.69714919 41.84107736 -5 44 C-5.66 44.99 -6.32 45.98 -7 47 C-8.83984375 47.625 -8.83984375 47.625 -10.9375 48 C-14.00971106 48.53083815 -14.00971106 48.53083815 -16.37988281 50.43334961 C-18.17143883 52.16578104 -19.57262486 52.82072563 -21.89453125 53.69140625 C-22.6733667 53.99087158 -23.45220215 54.29033691 -24.25463867 54.59887695 C-25.09873291 54.91687256 -25.94282715 55.23486816 -26.8125 55.5625 C-34.21048185 58.4342309 -41.47957873 61.49241634 -48.6875 64.8125 C-60.72866665 70.35373923 -72.85716188 75.68593487 -85 81 C-86.63026052 81.71472473 -88.26047329 82.42955838 -89.890625 83.14453125 C-93.59209195 84.76685011 -97.29404377 86.38795284 -101 88 C-101.61842773 88.28101563 -102.23685547 88.56203125 -102.87402344 88.8515625 C-105.76620279 90.14571071 -107.79303704 91 -111 91 C-112.98 87.04 -114.96 83.08 -117 79 C-112.37802694 76.78145293 -109.23175837 75.61718841 -104 76 C-103.67 75.01 -103.34 74.02 -103 73 C-101.68 73 -100.36 73 -99 73 C-99 72.01 -99 71.02 -99 70 C-98.34515625 69.76925781 -97.6903125 69.53851563 -97.015625 69.30078125 C-89.90800176 66.76091023 -82.93697827 63.97299069 -76 61 C-75.2059375 60.6596875 -74.411875 60.319375 -73.59375 59.96875 C-68.80422213 57.87754769 -64.14155237 55.58072148 -59.4765625 53.2265625 C-53.77299123 50.40176537 -47.96451399 47.90333309 -41.984375 45.7265625 C-40.59279556 45.21704719 -39.20778973 44.68938518 -37.828125 44.1484375 C-32.32651869 42 -32.32651869 42 -29 42 C-28.773125 41.46375 -28.54625 40.9275 -28.3125 40.375 C-26.56617944 37.21499137 -24.3597151 34.7323017 -22 32 C-21.34 32.33 -20.68 32.66 -20 33 C-20.66 33.99 -21.32 34.98 -22 36 C-19.13265479 35.9688059 -19.13265479 35.9688059 -16 35 C-13.71760829 32.07678035 -13.71760829 32.07678035 -12 29 C-11.01 28.505 -11.01 28.505 -10 28 C-9.29788106 26.34795544 -8.63028587 24.68076231 -8 23 C-7.505 22.505 -7.505 22.505 -7 22 C-6.86576328 20.35634597 -6.76835555 18.70964311 -6.6875 17.0625 C-6.21724549 11.26016611 -4.79604444 6.12783999 -2 1 C-1.34 0.67 -0.68 0.34 0 0 Z " fill="#57617E" transform="translate(154,128)"/>
<path d="M0 0 C0.66 0 1.32 0 2 0 C2.47179687 1.14275391 2.47179687 1.14275391 2.953125 2.30859375 C6.39152804 10.60425891 9.86664861 18.80579995 13.9375 26.8125 C22 42.8144084 22 42.8144084 22 48 C22.66 48 23.32 48 24 48 C24.31453125 48.78503906 24.6290625 49.57007813 24.953125 50.37890625 C27.76666656 57.36849487 27.76666656 57.36849487 31.3125 64 C33 67 33 67 33 71 C34.65 71 36.3 71 38 71 C38.83848804 72.45537568 39.67063934 73.91440373 40.5 75.375 C40.9640625 76.18710938 41.428125 76.99921875 41.90625 77.8359375 C43 80 43 80 43 82 C43.99 82.33 44.98 82.66 46 83 C45 84 45 84 43.17137146 84.12025452 C41.97557213 84.1169236 41.97557213 84.1169236 40.75561523 84.11352539 C39.84211304 84.11340454 38.92861084 84.11328369 37.98742676 84.11315918 C36.53765442 84.10548523 36.53765442 84.10548523 35.05859375 84.09765625 C34.17498169 84.09664917 33.29136963 84.09564209 32.38098145 84.09460449 C29.06647451 84.08935531 25.75198601 84.07539417 22.4375 84.0625 C15.033125 84.041875 7.62875 84.02125 0 84 C0 56.28 0 28.56 0 0 Z " fill="#707DA4" transform="translate(0,137)"/>
<path d="M0 0 C3.97239487 8.77508538 6.04401224 17.27842766 7.56738281 26.75073242 C8.51700823 32.40900495 9.7475967 36.38721217 13.5625 40.8125 C15.02073161 43.0315481 15.36237843 44.37918298 15.875 46.9375 C16.5864265 50.27573204 16.78672252 50.82313575 19.5625 53.125 C23.15511371 57.36244181 22.70061956 61.50327417 22.859375 66.91796875 C22.7870266 69.91237058 22.7870266 69.91237058 24 72 C24.03694945 73.48789145 24.01351017 74.97756558 23.95703125 76.46484375 C23.93576172 77.34720703 23.91449219 78.22957031 23.89257812 79.13867188 C23.83929372 81.00102677 23.77423134 82.86308278 23.69726562 84.72460938 C23.67986328 85.60826172 23.66246094 86.49191406 23.64453125 87.40234375 C23.61721924 88.21179443 23.58990723 89.02124512 23.56176758 89.85522461 C24.15938691 92.78006349 25.61236854 93.3451254 28 95 C28.46875 97.85546875 28.46875 97.85546875 28.5 101.1875 C28.75711794 107.25007029 30.04441691 110.77846988 33 116 C32.67 116.66 32.34 117.32 32 118 C31.01 117.67 30.02 117.34 29 117 C26.41299773 118.29350113 26.35389268 119.17859851 25.4375 121.875 C23.9605192 126.4757952 23.53188911 130.90384378 23.30859375 135.71484375 C23 138 23 138 21 140 C20.566875 141.175625 20.566875 141.175625 20.125 142.375 C18.85936762 145.32814223 17.32491846 146.82038894 15 149 C14.34 149.99 13.68 150.98 13 152 C11.0546875 152.51171875 11.0546875 152.51171875 8.875 152.6875 C7.59625 152.790625 6.3175 152.89375 5 153 C8.03591058 148.48950428 10.68552313 145.34371958 15 142 C18.44104293 138.65126523 20.27950369 136.53279402 20.62890625 131.6796875 C20.63853995 130.07800101 20.61513332 128.47585045 20.5625 126.875 C20.54880371 126.03477295 20.53510742 125.1945459 20.52099609 124.32885742 C20.31430469 118.31344481 19.25136733 113.1147772 16.99609375 107.50390625 C16.08317459 105.20907809 15.6027534 103.17153385 15.1875 100.75 C13.79251535 96.34478531 11.73135106 94.12577046 8.62109375 90.80859375 C5.82732355 87.69168868 5.1137137 85.09165148 4.6875 81 C5 78 5 78 6.5 75.625 C8.61685001 71.92051247 8.21486726 69.22572269 8 65 C7.34 65 6.68 65 6 65 C6.08378906 64.31292969 6.16757813 63.62585938 6.25390625 62.91796875 C6.35574219 62.01691406 6.45757812 61.11585937 6.5625 60.1875 C6.66691406 59.29417969 6.77132812 58.40085938 6.87890625 57.48046875 C7.15658709 54.86624428 7.15658709 54.86624428 6 52 C5.96045766 49.66700175 5.95598268 47.33291811 6 45 C5.34 45 4.68 45 4 45 C3.32506659 42.77332235 2.66036956 40.54354023 2 38.3125 C1.62875 37.07113281 1.2575 35.82976563 0.875 34.55078125 C0.10627838 31.43128144 0 29.15744428 0 26 C-0.63245616 23.65716239 -1.30269194 21.3243602 -2 19 C-2.56872231 16.42248786 -3.11034895 13.83885075 -3.625 11.25 C-3.7590625 10.59128906 -3.893125 9.93257812 -4.03125 9.25390625 C-4.58964973 6.44481375 -5 3.8723623 -5 1 C-2 0 -2 0 0 0 Z " fill="#5A6481" transform="translate(125,12)"/>
<path d="M0 0 C2.28503059 1.60438318 4.1659112 2.93276432 6 5 C6.37400786 7.32716 6.70764733 9.66117862 7 12 C7.825 12.680625 8.65 13.36125 9.5 14.0625 C13.13253811 18.33073228 12.65199076 22.35701343 12.76171875 27.8203125 C12.75012009 31.15706524 12.75012009 31.15706524 15 34 C15.23046875 36.671875 15.23046875 36.671875 15.1875 39.75 C15.1771875 40.81863281 15.166875 41.88726562 15.15625 42.98828125 C15.02917413 45.43766865 14.73266527 47.5628859 14.1875 49.9375 C14.125625 50.948125 14.06375 51.95875 14 53 C14.804375 53.7425 15.60875 54.485 16.4375 55.25 C19 58 19 58 19.16015625 60.3671875 C19.10730469 61.27726562 19.05445313 62.18734375 19 63.125 C18.70132621 68.83043521 20.27938981 72.27890244 22.82421875 77.296875 C24.35388609 80.81358529 24.68022233 83.97826643 24.87890625 87.77734375 C24.95717724 90.20967539 24.95717724 90.20967539 25.6875 93.375 C26 96 26 96 25.05078125 97.8125 C23.39674504 101.25584677 23.54584211 104.77004469 23.34375 108.5390625 C23 111 23 111 21 113 C20.566875 114.175625 20.566875 114.175625 20.125 115.375 C18.85936762 118.32814223 17.32491846 119.82038894 15 122 C14.34 122.99 13.68 123.98 13 125 C11.0546875 125.51171875 11.0546875 125.51171875 8.875 125.6875 C7.59625 125.790625 6.3175 125.89375 5 126 C8.03591058 121.48950428 10.68552313 118.34371958 15 115 C18.44104293 111.65126523 20.27950369 109.53279402 20.62890625 104.6796875 C20.63853995 103.07800101 20.61513332 101.47585045 20.5625 99.875 C20.54880371 99.03477295 20.53510742 98.1945459 20.52099609 97.32885742 C20.31430469 91.31344481 19.25136733 86.1147772 16.99609375 80.50390625 C16.08317459 78.20907809 15.6027534 76.17153385 15.1875 73.75 C13.79251535 69.34478531 11.73135106 67.12577046 8.62109375 63.80859375 C5.82732355 60.69168868 5.1137137 58.09165148 4.6875 54 C5 51 5 51 6.5 48.625 C8.61685001 44.92051247 8.21486726 42.22572269 8 38 C7.34 38 6.68 38 6 38 C6.08378906 37.31292969 6.16757813 36.62585938 6.25390625 35.91796875 C6.35574219 35.01691406 6.45757812 34.11585937 6.5625 33.1875 C6.66691406 32.29417969 6.77132812 31.40085937 6.87890625 30.48046875 C7.15658709 27.86624428 7.15658709 27.86624428 6 25 C5.96045766 22.66700175 5.95598268 20.33291811 6 18 C5.34 18 4.68 18 4 18 C3.32678716 15.75194998 2.66165877 13.50147776 2 11.25 C1.62875 9.99703125 1.2575 8.7440625 0.875 7.453125 C0 4 0 4 0 0 Z " fill="#F2E9E5" transform="translate(125,39)"/>
<path d="M0 0 C0.66 0 1.32 0 2 0 C3.51821687 4.95950843 4.16681762 9.5430378 4.44140625 14.7265625 C4.9489936 23.29940729 5.95409007 31.79135473 7 40.3125 C7.35572016 43.2459071 7.7093143 46.17956804 8.0625 49.11328125 C8.14604736 49.80422882 8.22959473 50.49517639 8.31567383 51.20706177 C8.9474593 56.46572339 9.5003162 61.72729485 10 67 C6.7 67 3.4 67 0 67 C0 44.89 0 22.78 0 0 Z " fill="#55617F" transform="translate(0,137)"/>
<path d="M0 0 C45.87 0 91.74 0 139 0 C139 0.33 139 0.66 139 1 C138.11030518 1.03758423 138.11030518 1.03758423 137.20263672 1.07592773 C125.78791071 1.56304736 114.38992247 2.0864738 103 3 C103 3.66 103 4.32 103 5 C101.02 5.33 99.04 5.66 97 6 C96.505 3.525 96.505 3.525 96 1 C94.68 1 93.36 1 92 1 C92 1.66 92 2.32 92 3 C90.35 3.33 88.7 3.66 87 4 C87 4.66 87 5.32 87 6 C85.02 6.33 83.04 6.66 81 7 C81 6.34 81 5.68 81 5 C76.88315625 4.37352378 72.76421389 3.83293027 68.625 3.375 C67.34496094 3.23191406 67.34496094 3.23191406 66.0390625 3.0859375 C65.36617188 3.05757813 64.69328125 3.02921875 64 3 C63.67 3.33 63.34 3.66 63 4 C57.51385322 4.50406904 52.26977183 3.93304393 46.875 2.9375 C39.19518499 1.6361471 31.70026694 2.0518328 24 3 C23.67 3.33 23.34 3.66 23 4 C14.39965468 5.38219835 7.54900981 5.65322562 0 1 C0 0.67 0 0.34 0 0 Z " fill="#566282" transform="translate(20,0)"/>
<path d="M0 0 C5.15295037 6.44854932 7.33193233 13.57869563 7.84375 21.7421875 C7.96434076 24.2030707 7.96434076 24.2030707 8.6875 27.375 C9 30 9 30 8.05078125 31.8125 C6.39674504 35.25584677 6.54584211 38.77004469 6.34375 42.5390625 C6 45 6 45 4 47 C3.71125 47.78375 3.4225 48.5675 3.125 49.375 C1.85936762 52.32814223 0.32491846 53.82038894 -2 56 C-2.66 56.99 -3.32 57.98 -4 59 C-5.9453125 59.51171875 -5.9453125 59.51171875 -8.125 59.6875 C-10.043125 59.8421875 -10.043125 59.8421875 -12 60 C-8.96408942 55.48950428 -6.31447687 52.34371958 -2 49 C1.44104293 45.65126523 3.27950369 43.53279402 3.62890625 38.6796875 C3.63820584 37.07799904 3.61482509 35.47586055 3.5625 33.875 C3.55025391 33.03622314 3.53800781 32.19744629 3.52539062 31.33325195 C3.32624159 25.30957244 2.24824296 20.12173778 -0.125 14.54296875 C-1.1558661 11.54701415 -1.21077991 9.14852492 -1 6 C-0.67 5.34 -0.34 4.68 0 4 C0 2.68 0 1.36 0 0 Z " fill="#EEECEC" transform="translate(142,105)"/>
<path d="M0 0 C2.58772586 3.8815888 1.87719799 5.53426477 1 10 C0.67 10.99 0.34 11.98 0 13 C0.66 13 1.32 13 2 13 C3.41000664 15.82001327 3.24548451 17.87007255 3 21 C2 22.66666667 1 24.33333333 0 26 C-0.8514822 31.47381414 1.10895623 35.47945884 4 40 C5.05902748 41.25016903 6.14239533 42.48015842 7.25 43.6875 C9.40613956 46.04950213 9.95609021 46.65603996 10.375 49.9375 C10.25125 50.618125 10.1275 51.29875 10 52 C8.33333333 50.33333333 6.66666667 48.66666667 5 47 C4.13375 46.236875 3.2675 45.47375 2.375 44.6875 C-1.49535867 40.30788361 -3.12201047 35.64225884 -3.375 29.8125 C-2.98685802 25.86638989 -2.03745103 24.27763862 0 21 C-0.23728007 17.5989856 -0.569534 16.430466 -3 14 C-2.61765316 9.12507777 -1.4234304 4.64987264 0 0 Z " fill="#D77A60" transform="translate(131,64)"/>
<path d="M0 0 C3.95554099 1.6115167 6.53942502 3.48489289 9 7 C9.10311426 10.10202064 8.81398575 12.98911379 8.39453125 16.0625 C8.03298119 18.75443705 7.93521831 21.28913555 8 24 C7.67 23.01 7.34 22.02 7 21 C6.34 21 5.68 21 5 21 C1.88002198 17.69649386 1 16.67590167 1 12 C0.34 12 -0.32 12 -1 12 C-2.1875 8.8125 -2.1875 8.8125 -3 5 C-1.625 2.0625 -1.625 2.0625 0 0 Z " fill="#F5F1EF" transform="translate(135,90)"/>
<path d="M0 0 C0.99 0.495 0.99 0.495 2 1 C2.4140625 3.72265625 2.4140625 3.72265625 2.625 7.0625 C2.69976562 8.16722656 2.77453125 9.27195312 2.8515625 10.41015625 C2.90054687 11.26480469 2.94953125 12.11945313 3 13 C4.32 9.7 5.64 6.4 7 3 C8.09831469 7.39325874 7.53344003 10.32529814 6.56640625 14.609375 C6.40961899 15.33618469 6.25283173 16.06299438 6.09129333 16.81182861 C5.58998909 19.12645004 5.07643068 21.43815287 4.5625 23.75 C4.21989097 25.32143773 3.87808468 26.89305072 3.53710938 28.46484375 C2.70069793 32.31198928 1.85328834 36.15656406 1 40 C0.67 40 0.34 40 0 40 C0 26.8 0 13.6 0 0 Z " fill="#6F6F8F" transform="translate(0,88)"/>
<path d="M0 0 C0.33 0 0.66 0 1 0 C1.2210949 2.95789127 1.42740245 5.91552764 1.625 8.875 C1.68945312 9.71675781 1.75390625 10.55851563 1.8203125 11.42578125 C1.89765625 12.63427734 1.89765625 12.63427734 1.9765625 13.8671875 C2.02893066 14.61081543 2.08129883 15.35444336 2.13525391 16.12060547 C2 18 2 18 0 20 C-0.28875 20.78375 -0.5775 21.5675 -0.875 22.375 C-2.14063238 25.32814223 -3.67508154 26.82038894 -6 29 C-6.66 29.99 -7.32 30.98 -8 32 C-9.9453125 32.51171875 -9.9453125 32.51171875 -12.125 32.6875 C-14.043125 32.8421875 -14.043125 32.8421875 -16 33 C-12.96408942 28.48950428 -10.31447687 25.34371958 -6 22 C-1.28122226 17.29537151 -0.24104992 14.20568963 -0.1875 7.625 C-0.16236328 6.88894531 -0.13722656 6.15289062 -0.11132812 5.39453125 C-0.05296407 3.59691851 -0.02349462 1.7984065 0 0 Z " fill="#EFE0D9" transform="translate(146,132)"/>
<path d="M0 0 C2.78300717 2.78300717 3.22095482 5.97421812 4.125 9.6875 C4.30675781 10.38294922 4.48851563 11.07839844 4.67578125 11.79492188 C5.79897635 16.31726004 6.18311252 20.34283818 6 25 C3.0678309 22.77865977 1.30327195 21.37013412 0.49365234 17.71240234 C0.28461076 15.02944767 0.20461562 12.37845627 0.1875 9.6875 C0.16236328 8.75615234 0.13722656 7.82480469 0.11132812 6.86523438 C0.05264002 4.57639814 0.01622832 2.28946574 0 0 Z " fill="#D1775F" transform="translate(117,6)"/>
<path d="M0 0 C3.42931954 3.7559214 4.56429083 8.23466745 6 13 C5.01 13.495 5.01 13.495 4 14 C4.33 18.29 4.66 22.58 5 27 C3.02698966 24.04048448 2.01344745 21.53959527 0.875 18.1875 C0.52179688 17.17042969 0.16859375 16.15335938 -0.1953125 15.10546875 C-1.19803138 11.23575269 -1.83373348 7.66746696 0 4 C0 2.68 0 1.36 0 0 Z " fill="#F3E8E4" transform="translate(142,105)"/>
<path d="M0 0 C5.79479522 4.06868601 5.79479522 4.06868601 6.8125 8.6875 C6.874375 9.780625 6.93625 10.87375 7 12 C7.33 12.66 7.66 13.32 8 14 C7.0625 16.125 7.0625 16.125 6 18 C5.34 18 4.68 18 4 18 C3.32678716 15.75194998 2.66165877 13.50147776 2 11.25 C1.62875 9.99703125 1.2575 8.7440625 0.875 7.453125 C0 4 0 4 0 0 Z " fill="#F4EAE5" transform="translate(125,39)"/>
<path d="M0 0 C5.94 0 11.88 0 18 0 C16.68 0.33 15.36 0.66 14 1 C14 1.66 14 2.32 14 3 C12.35 3.33 10.7 3.66 9 4 C9 4.66 9 5.32 9 6 C7.68 6.33 6.36 6.66 5 7 C4.67 5.02 4.34 3.04 4 1 C2.68 0.67 1.36 0.34 0 0 Z " fill="#625B73" transform="translate(98,0)"/>
<path d="M0 0 C0 4.08345964 -2.06395998 6.00609097 -4.5625 9 C-5.18995117 9.80050781 -5.18995117 9.80050781 -5.83007812 10.6171875 C-10.46915943 16.22594144 -15.76898457 18.11816885 -23 19 C-20.49999558 17.02082983 -17.9141857 15.32880595 -15.1875 13.6875 C-9.18405836 9.96469541 -4.20243852 5.71531638 0 0 Z " fill="#AE3B2C" transform="translate(106,155)"/>
<path d="M0 0 C-1.43429001 0.67354499 -2.87257057 1.33859701 -4.3125 2 C-5.11300781 2.37125 -5.91351563 2.7425 -6.73828125 3.125 C-9 4 -9 4 -12 4 C-11.67 5.65 -11.34 7.3 -11 9 C-11.78375 8.979375 -12.5675 8.95875 -13.375 8.9375 C-15.98114961 8.81315937 -15.98114961 8.81315937 -18 10 C-20.3400417 9.71758117 -22.67504723 9.38749213 -25 9 C-20.89957633 6.26638422 -16.49824269 4.64382835 -11.9375 2.8125 C-10.55208008 2.24112305 -10.55208008 2.24112305 -9.13867188 1.65820312 C-8.25630859 1.30306641 -7.37394531 0.94792969 -6.46484375 0.58203125 C-5.656521 0.25436768 -4.84819824 -0.0732959 -4.01538086 -0.41088867 C-2 -1 -2 -1 0 0 Z " fill="#775462" transform="translate(80,190)"/>
<path d="M0 0 C0.33 0 0.66 0 1 0 C1 5.28 1 10.56 1 16 C1.33 16 1.66 16 2 16 C2 17.98 2 19.96 2 22 C2.66 22 3.32 22 4 22 C4 23.65 4 25.3 4 27 C1.47740939 25.02579865 1.0070192 24.03254358 0.3125 20.8125 C0.1578125 19.4203125 0.1578125 19.4203125 0 18 C-0.66 18 -1.32 18 -2 18 C-2.20190089 11.64012196 -1.6277833 6.14778871 0 0 Z " fill="#B0473E" transform="translate(2,119)"/>
<path d="M0 0 C3.875 1.875 3.875 1.875 5 3 C5.07258946 5.18639453 5.08373783 7.37500389 5.0625 9.5625 C5.05347656 10.76003906 5.04445312 11.95757812 5.03515625 13.19140625 C5.02355469 14.11824219 5.01195312 15.04507813 5 16 C4.67 16 4.34 16 4 16 C4 14.35 4 12.7 4 11 C3.01 11.33 2.02 11.66 1 12 C1.04125 11.0925 1.0825 10.185 1.125 9.25 C1.00241832 6.06287624 0.45848783 4.72251062 -1 2 C-0.67 1.34 -0.34 0.68 0 0 Z " fill="#F1F1EE" transform="translate(132,53)"/>
<path d="M0 0 C3 1 3 1 4.421875 3.65234375 C4.86015625 4.73644531 5.2984375 5.82054687 5.75 6.9375 C6.19859375 8.01902344 6.6471875 9.10054687 7.109375 10.21484375 C8 13 8 13 7 15 C5.02 11.535 5.02 11.535 3 8 C2.67 10.31 2.34 12.62 2 15 C1.67 15 1.34 15 1 15 C0.67 10.05 0.34 5.1 0 0 Z " fill="#7B7492" transform="translate(3,145)"/>
<path d="M0 0 C0.556875 0.226875 1.11375 0.45375 1.6875 0.6875 C1.01953125 2.61328125 1.01953125 2.61328125 -0.3125 4.6875 C-2.73828125 5.48046875 -2.73828125 5.48046875 -5.625 5.875 C-7.04232422 6.08189453 -7.04232422 6.08189453 -8.48828125 6.29296875 C-9.42027344 6.42316406 -10.35226563 6.55335938 -11.3125 6.6875 C-12.98141063 7.00941026 -14.64893238 7.33902955 -16.3125 7.6875 C-13.70506553 3.7763483 -11.75734567 3.89288188 -7.3125 2.6875 C-6.425625 2.130625 -5.53875 1.57375 -4.625 1 C-2.3125 -0.3125 -2.3125 -0.3125 0 0 Z " fill="#795460" transform="translate(112.3125,174.3125)"/>
<path d="M0 0 C0.33 0 0.66 0 1 0 C1.2210949 2.95789127 1.42740245 5.91552764 1.625 8.875 C1.68945312 9.71675781 1.75390625 10.55851563 1.8203125 11.42578125 C1.871875 12.23144531 1.9234375 13.03710938 1.9765625 13.8671875 C2.02893066 14.61081543 2.08129883 15.35444336 2.13525391 16.12060547 C2 18 2 18 0 20 C-0.70710678 21.64991582 -1.37943989 23.31562256 -2 25 C-2.66 25 -3.32 25 -4 25 C-3.25 18.25 -3.25 18.25 -1 16 C-0.6936141 13.26565038 -0.4886664 10.61720179 -0.375 7.875 C-0.33632812 7.12089844 -0.29765625 6.36679688 -0.2578125 5.58984375 C-0.16348969 3.72696816 -0.08065338 1.86351745 0 0 Z " fill="#E3CBC7" transform="translate(146,132)"/>
<path d="M0 0 C2.29633824 3.44450737 2.54016485 5.93812283 3 10 C3.66 10 4.32 10 5 10 C5 11.98 5 13.96 5 16 C2.71195063 14.34116421 1.43536563 13.37716693 0 11 C-0.44207004 7.29701335 -0.29251428 3.71168123 0 0 Z " fill="#D77A60" transform="translate(126,47)"/>
<path d="M0 0 C2.31 0 4.62 0 7 0 C9.8202907 4.00438221 9.00863471 8.12336539 8.625 12.75 C8.56828125 13.54277344 8.5115625 14.33554687 8.453125 15.15234375 C8.31216305 17.10231735 8.1574288 19.05128671 8 21 C7.67 21 7.34 21 7 21 C6.93941406 19.80761719 6.87882812 18.61523438 6.81640625 17.38671875 C6.73198851 15.82030075 6.64734113 14.25389512 6.5625 12.6875 C6.50352539 11.50897461 6.50352539 11.50897461 6.44335938 10.30664062 C6.38051758 9.1706543 6.38051758 9.1706543 6.31640625 8.01171875 C6.27974854 7.31522217 6.24309082 6.61872559 6.20532227 5.90112305 C6.04418847 3.7783428 6.04418847 3.7783428 5 1 C3.35 1 1.7 1 0 1 C0 0.67 0 0.34 0 0 Z " fill="#370D0A" transform="translate(100,36)"/>
<path d="M0 0 C0.66 0 1.32 0 2 0 C3.66251802 5.57432514 4.18609365 9.3067505 3 15 C1.07047026 11.14094051 -0.12483821 8.73867465 -0.0625 4.375 C-0.05347656 3.55773437 -0.04445312 2.74046875 -0.03515625 1.8984375 C-0.02355469 1.27195313 -0.01195312 0.64546875 0 0 Z " fill="#655F7C" transform="translate(0,137)"/>
<path d="M0 0 C-0.66 1.32 -1.32 2.64 -2 4 C-2.66 4 -3.32 4 -4 4 C-4 4.66 -4 5.32 -4 6 C-7.3 6 -10.6 6 -14 6 C-12.53706784 3.07413567 -10.59729902 2.94053412 -7.5625 1.875 C-6.57378906 1.52179687 -5.58507812 1.16859375 -4.56640625 0.8046875 C-2 0 -2 0 0 0 Z " fill="#BA483A" transform="translate(32,40)"/>
<path d="M0 0 C-2.77541186 3.08379096 -4.98940353 4.85411529 -9 6 C-12.3125 6.125 -12.3125 6.125 -15 6 C-13.48400735 2.9680147 -11.1403567 2.58975563 -8.0625 1.3125 C-6.98097656 0.85488281 -5.89945313 0.39726562 -4.78515625 -0.07421875 C-2 -1 -2 -1 0 0 Z " fill="#B0504D" transform="translate(82,17)"/>
<path d="M0 0 C2.51231378 2.51231378 2.78661713 4.37851766 3.625 7.8125 C3.88539062 8.85019531 4.14578125 9.88789063 4.4140625 10.95703125 C4.94914218 13.73587837 5.11460481 16.18176362 5 19 C3.5393715 16.35261084 3 15.10551666 3 12 C2.34 12 1.68 12 1 12 C-0.3271261 8.0186217 -0.06915913 4.14954773 0 0 Z " fill="#CB9690" transform="translate(117,6)"/>
<path d="M0 0 C0.33 1.32 0.66 2.64 1 4 C-0.87109375 6.578125 -0.87109375 6.578125 -3.4375 9.25 C-4.70400391 10.58804688 -4.70400391 10.58804688 -5.99609375 11.953125 C-6.65738281 12.62859375 -7.31867188 13.3040625 -8 14 C-8.66 13.67 -9.32 13.34 -10 13 C-5.05 6.565 -5.05 6.565 0 0 Z " fill="#D27C65" transform="translate(145,144)"/>
<path d="M0 0 C0.66 0 1.32 0 2 0 C2 1.32 2 2.64 2 4 C2.66 4 3.32 4 4 4 C4 5.65 4 7.3 4 9 C5.65 8.34 7.3 7.68 9 7 C8.34 8.98 7.68 10.96 7 13 C2.18602057 8.94612259 1.11458074 5.9782058 0 0 Z " fill="#B23D2A" transform="translate(54,140)"/>
<path d="M0 0 C0.12375 0.61875 0.2475 1.2375 0.375 1.875 C0.87197356 4.19120832 0.87197356 4.19120832 3 6 C2.01 6.33 1.02 6.66 0 7 C-1.28446919 9.56893838 -1.32977144 11.76576337 -1.5625 14.625 C-1.64628906 15.62789062 -1.73007812 16.63078125 -1.81640625 17.6640625 C-1.87699219 18.43492188 -1.93757813 19.20578125 -2 20 C-2.33 20 -2.66 20 -3 20 C-3.33452052 12.56621057 -3.13902852 6.80122845 0 0 Z " fill="#35100B" transform="translate(43,58)"/>
<path d="M0 0 C1.32 0 2.64 0 4 0 C4.33 1.98 4.66 3.96 5 6 C3.68 5.67 2.36 5.34 1 5 C1 4.34 1 3.68 1 3 C-0.98 3.33 -2.96 3.66 -5 4 C-2 2 -2 2 0 2 C0 1.34 0 0.68 0 0 Z " fill="#B3473C" transform="translate(112,1)"/>
<path d="M0 0 C2.24956302 2.24956302 3.00510965 4.06323263 4.1875 7 C4.55230469 7.886875 4.91710937 8.77375 5.29296875 9.6875 C6 12 6 12 5 14 C2 10.375 2 10.375 2 7 C1.01 6.67 0.02 6.34 -1 6 C-0.67 4.02 -0.34 2.04 0 0 Z " fill="#877188" transform="translate(23,185)"/>
<path d="M0 0 C4.44936709 -0.36075949 4.44936709 -0.36075949 6.8125 1.1875 C8.36678206 3.55982525 8.22537188 5.22041345 8 8 C7.67 7.01 7.34 6.02 7 5 C5.35 5 3.7 5 2 5 C2 3.68 2 2.36 2 1 C1.34 0.67 0.68 0.34 0 0 Z " fill="#210A07" transform="translate(47,138)"/>
<path d="M0 0 C0.66 0.33 1.32 0.66 2 1 C2.1953125 7.0546875 2.1953125 7.0546875 2 9 C1.34 9.66 0.68 10.32 0 11 C-0.19491452 9.54263913 -0.38069358 8.08405407 -0.5625 6.625 C-0.66691406 5.81289062 -0.77132812 5.00078125 -0.87890625 4.1640625 C-1 2 -1 2 0 0 Z " fill="#F7F3F0" transform="translate(146,117)"/>
<path d="M0 0 C0.5775 0.639375 1.155 1.27875 1.75 1.9375 C3.98062401 3.98223868 5.07436391 4.58205199 8 5 C8.33 4.01 8.66 3.02 9 2 C8.67 3.65 8.34 5.3 8 7 C2.25 6.125 2.25 6.125 0 5 C0 3.35 0 1.7 0 0 Z " fill="#A23729" transform="translate(96,71)"/>
<path d="M0 0 C0.33 0 0.66 0 1 0 C1.13277344 0.80824219 1.26554687 1.61648437 1.40234375 2.44921875 C1.57894531 3.51785156 1.75554688 4.58648437 1.9375 5.6875 C2.11152344 6.74324219 2.28554688 7.79898438 2.46484375 8.88671875 C2.93167121 11.60249604 3.44422616 14.30124235 4 17 C3.01 17 2.02 17 1 17 C0.1679418 11.27959989 -0.12036664 5.77759884 0 0 Z " fill="#AD3D2B" transform="translate(39,70)"/>
<path d="M0 0 C0.33 0 0.66 0 1 0 C1.36220266 1.79005941 1.71452469 3.58212057 2.0625 5.375 C2.25972656 6.37273437 2.45695313 7.37046875 2.66015625 8.3984375 C3 11 3 11 2 13 C1.34 13 0.68 13 0 13 C0 8.71 0 4.42 0 0 Z " fill="#686278" transform="translate(0,182)"/>
<path d="M0 0 C0.66 0 1.32 0 2 0 C2.36666667 5.5 2.36666667 5.5 0.625 7.875 C-1 9 -1 9 -3 9 C-3 8.34 -3 7.68 -3 7 C-3.66 6.67 -4.32 6.34 -5 6 C-3.35 6 -1.7 6 0 6 C-0.33 5.01 -0.66 4.02 -1 3 C-0.67 2.01 -0.34 1.02 0 0 Z " fill="#BF3D29" transform="translate(86,144)"/>
<path d="M0 0 C0.33 0 0.66 0 1 0 C1.144375 1.11375 1.28875 2.2275 1.4375 3.375 C1.78372035 6.82142047 1.78372035 6.82142047 3 9 C2.0625 11.125 2.0625 11.125 1 13 C0.34 13 -0.32 13 -1 13 C-0.67 8.71 -0.34 4.42 0 0 Z " fill="#E1DADA" transform="translate(130,44)"/>
<path d="M0 0 C0.33 0 0.66 0 1 0 C2.59162079 5.57067277 3.20674944 10.21101581 3 16 C0.30576713 11.95865069 -0.11848959 10.19010472 -0.0625 5.375 C-0.05347656 4.37210938 -0.04445313 3.36921875 -0.03515625 2.3359375 C-0.02355469 1.56507812 -0.01195313 0.79421875 0 0 Z " fill="#CD7667" transform="translate(123,31)"/>
<path d="M0 0 C0.042721 1.66611905 0.04063832 3.33382885 0 5 C-1 6 -1 6 -3.5625 6.0625 C-4.7690625 6.0315625 -4.7690625 6.0315625 -6 6 C-2.61538462 0 -2.61538462 0 0 0 Z " fill="#EDEDEE" transform="translate(139,158)"/>
<path d="M0 0 C0.66 0 1.32 0 2 0 C1.67 2.64 1.34 5.28 1 8 C-0.65 7.67 -2.3 7.34 -4 7 C-3.34 6.67 -2.68 6.34 -2 6 C-1.34 6.33 -0.68 6.66 0 7 C-0.185625 6.030625 -0.37125 5.06125 -0.5625 4.0625 C-0.706875 3.051875 -0.85125 2.04125 -1 1 C-0.67 0.67 -0.34 0.34 0 0 Z " fill="#1E0705" transform="translate(103,68)"/>
<path d="M0 0 C1.65 0 3.3 0 5 0 C5 0.99 5 1.98 5 3 C5.99 3 6.98 3 8 3 C8 4.65 8 6.3 8 8 C7.6596875 7.071875 7.6596875 7.071875 7.3125 6.125 C5.61545208 3.37739861 3.97485929 3.06789821 1 2 C0.67 1.34 0.34 0.68 0 0 Z " fill="#270A07" transform="translate(86,52)"/>
<path d="M0 0 C2.31 0.33 4.62 0.66 7 1 C7 1.99 7 2.98 7 4 C5.35 4.66 3.7 5.32 2 6 C2.33 4.68 2.66 3.36 3 2 C2.01 1.34 1.02 0.68 0 0 Z " fill="#747A9B" transform="translate(94,3)"/>
<path d="M0 0 C0.66 0.33 1.32 0.66 2 1 C1.34 2.98 0.68 4.96 0 7 C-1.32 6.67 -2.64 6.34 -4 6 C-3.34 4.68 -2.68 3.36 -2 2 C-1.34 2 -0.68 2 0 2 C0 1.34 0 0.68 0 0 Z " fill="#230905" transform="translate(38,178)"/>
<path d="M0 0 C0.90105469 0.02707031 1.80210938 0.05414063 2.73046875 0.08203125 C3.76107422 0.13423828 3.76107422 0.13423828 4.8125 0.1875 C4.8125 0.5175 4.8125 0.8475 4.8125 1.1875 C2.9871875 1.4040625 2.9871875 1.4040625 1.125 1.625 C-2.01420377 2.01530953 -5.0950134 2.51101856 -8.1875 3.1875 C-5.67753317 0.01043235 -3.96125134 -0.15433447 0 0 Z " fill="#913328" transform="translate(50.1875,173.8125)"/>
<path d="M0 0 C0.99 0.33 1.98 0.66 3 1 C1.37660195 2.70884005 -0.29319053 4.37446717 -2 6 C-2.66 6 -3.32 6 -4 6 C-4 5.34 -4 4.68 -4 4 C-3.34 4 -2.68 4 -2 4 C-2 3.34 -2 2.68 -2 2 C-1.34 2 -0.68 2 0 2 C0 1.34 0 0.68 0 0 Z " fill="#1D0807" transform="translate(93,164)"/>
<path d="M0 0 C1.07349791 4.29399165 0.79682816 5.19495213 -1 9 C-1.99 9 -2.98 9 -4 9 C-2.68 6.03 -1.36 3.06 0 0 Z " fill="#A4382A" transform="translate(112,142)"/>
<path d="M0 0 C0.66 0.33 1.32 0.66 2 1 C2.625 3.5625 2.625 3.5625 3 6 C1.35 6 -0.3 6 -2 6 C-1.49396008 3.83125748 -1.00016187 2.00032373 0 0 Z " fill="#CA5138" transform="translate(140,116)"/>
<path d="M0 0 C0.66 0 1.32 0 2 0 C2.33 0.66 2.66 1.32 3 2 C3.66 2 4.32 2 5 2 C4.67 3.65 4.34 5.3 4 7 C1.49962266 4.82575883 0.56371414 3.26954202 0 0 Z " fill="#C64131" transform="translate(12,160)"/>
</svg>
