<?xml version="1.0" encoding="UTF-8"?>
<svg version="1.1" xmlns="http://www.w3.org/2000/svg" width="199" height="204">
<path d="M0 0 C65.67 0 131.34 0 199 0 C199 67.32 199 134.64 199 204 C133.33 204 67.66 204 0 204 C0 136.68 0 69.36 0 0 Z " fill="#454545" transform="translate(0,0)"/>
<path d="M0 0 C65.67 0 131.34 0 199 0 C199 36.3 199 72.6 199 110 C195.21195477 104.94927303 194.80582157 102.59362657 194.37890625 96.5078125 C193.99137628 93.94292343 193.14955633 92.29436242 192 90 C192.34291468 86.36510438 192.97985516 83.06924789 194 79.5625 C194 74.66679578 191.87145011 72.91243485 188.56640625 69.50390625 C188.04949219 69.00761719 187.53257812 68.51132813 187 68 C184.59079859 72.21610247 183.55749198 75.13241177 184 80 C184.33 80.66 184.66 81.32 185 82 C185.0825 83.299375 185.165 84.59875 185.25 85.9375 C185.63377231 89.97686614 186.78128468 92.98730674 188.5625 96.625 C190.66512971 100.99481305 191.77262931 104.07448813 191 109 C189.55671108 112.99026935 187.45407519 115.67438231 184.625 118.75 C182.00458112 121.62050035 180.31028509 124.19665 178.75 127.75 C173.41311259 139.18115488 161.38121017 150.64413639 150 156 C149.01 155.67 148.02 155.34 147 155 C147.73605469 154.48050781 148.47210938 153.96101562 149.23046875 153.42578125 C150.20628906 152.72839844 151.18210938 152.03101563 152.1875 151.3125 C153.15042969 150.62800781 154.11335937 149.94351563 155.10546875 149.23828125 C165.82812555 140.94667215 174.24392119 129.05302732 178.13671875 116.11328125 C179 114 179 114 181.75 111.125 C184.70997279 107.01392667 184.40601735 104.51350295 183.72265625 99.6171875 C182.64314586 95.70760933 180.81832162 93.88706117 178 91 C177.28837557 89.35202764 176.60968047 87.68834592 176 86 C175.34 85.34 174.68 84.68 174 84 C174.10416814 80.24994685 175.03221671 78.96385443 177.5625 76.125 C180.25037953 73.19411083 180.25037953 73.19411083 180.5625 69.5625 C179.49902483 62.82715724 175.43940135 58.07783814 171.26953125 52.89453125 C170 51 170 51 169.5390625 49.0078125 C168.8187936 46.32507181 167.47426432 45.06658292 165.5625 43.0625 C162.18875294 39.39355008 159.07076197 35.59567193 156.0625 31.625 C152.15047867 26.47109109 148.12984561 21.42652901 144.0078125 16.4375 C143.34523437 15.633125 142.68265625 14.82875 142 14 C141.25492188 13.113125 140.50984375 12.22625 139.7421875 11.3125 C138 9 138 9 138 7 C129.70494163 6.82775028 121.41331012 6.72880496 113.11662483 6.71759319 C109.2617033 6.71020447 105.41014989 6.67972587 101.55615234 6.59204102 C77.72686589 5.90388972 77.72686589 5.90388972 57.56176758 17.5859375 C56.9865033 18.14930817 56.41123901 18.71267883 55.81854248 19.29312134 C52.64047391 22.27604722 49.08258064 24.7530215 45.5625 27.3125 C44.25058175 28.30201181 42.94039147 29.29382365 41.6328125 30.2890625 C38.46089493 32.67922796 35.20753466 34.93322543 31.9375 37.1875 C26.93131808 40.80307583 23.45346234 44.91520601 20 50 C19.319375 50.969375 18.63875 51.93875 17.9375 52.9375 C15.64554826 56.56026242 13.4490239 60.234438 11.26953125 63.92578125 C10 66 10 66 9 67 C7.81610361 77.41828823 12.59326826 87.13824058 18.34765625 95.49609375 C19.83954216 97.75684757 20.89179283 99.88854073 21.9375 102.375 C23.78547873 106.3019548 26.32413274 107.66082372 30.02734375 109.73046875 C33.29754076 111.83505099 35.37985743 114.47959676 37 118 C37.35024295 121.21056039 37.21037293 123.87729548 36.6171875 127.04296875 C36.16028427 129.41071105 36.16028427 129.41071105 36 133 C37.28725907 134.70250393 38.62131719 136.37064759 40 138 C40 140.33333333 40 142.66666667 40 145 C40.90787487 147.66282943 41.97677748 150.19807187 43.125 152.765625 C44 155 44 155 44 158 C44.99 158 45.98 158 47 158 C47.37125 158.763125 47.7425 159.52625 48.125 160.3125 C49.65282993 163.38998601 51.32341601 166.37633361 53 169.375 C55.97258798 174.78909325 58.04875401 180.14626202 60 186 C61.11375 185.9690625 61.11375 185.9690625 62.25 185.9375 C65 187 65 187 66.14355469 189.07250977 C66.48290039 189.89549561 66.82224609 190.71848145 67.171875 191.56640625 C67.51831055 192.39213135 67.86474609 193.21785645 68.22167969 194.06860352 C68.47852539 194.70596436 68.73537109 195.3433252 69 196 C99.26435496 199.49268217 99.26435496 199.49268217 127.07568359 190.88427734 C130.23186951 188.1056895 133.18643576 185.23110198 136.00732422 182.11230469 C139.18480935 178.74406145 142.82950805 176.0928955 146.5625 173.375 C147.2117041 172.88314209 147.8609082 172.39128418 148.52978516 171.88452148 C153.17451288 168.41148548 157.9860443 165.91459625 163.25390625 163.484375 C168.21296268 160.80380396 172.00709496 156.92309901 176 153 C176.61359375 152.48179687 177.2271875 151.96359375 177.859375 151.4296875 C182.84759057 147.05927845 185.60862414 141.61977299 188.71704102 135.86108398 C191.35012682 131.01736601 194.07698134 126.92301866 198 123 C198.33 123 198.66 123 199 123 C199 149.73 199 176.46 199 204 C133.33 204 67.66 204 0 204 C0 136.68 0 69.36 0 0 Z " fill="#6F7EA6" transform="translate(0,0)"/>
<path d="M0 0 C3.22473974 0.0053098 6.44933702 0.00005209 9.67407227 -0.00634766 C16.05837946 -0.01012071 22.44078644 0.04291517 28.82446289 0.13037109 C29.92332825 0.14362427 31.0221936 0.15687744 32.15435791 0.17053223 C35.41126456 0.22001026 38.66607594 0.29918021 41.92211914 0.38818359 C42.90095566 0.40178925 43.87979218 0.4153949 44.88829041 0.42941284 C51.20915078 0.64579937 55.41139784 1.80256145 60.82446289 5.13037109 C62.3492306 8.1799065 62.01492824 11.34832577 62.01196289 14.69287109 C62.01260742 15.43851318 62.01325195 16.18415527 62.01391602 16.95239258 C61.93900979 25.09078329 60.95286605 33.08042355 59.82446289 41.13037109 C54.37925928 41.97681033 49.31828782 42.21489148 43.82446289 42.13037109 C44.15446289 36.52037109 44.48446289 30.91037109 44.82446289 25.13037109 C39.54446289 25.13037109 34.26446289 25.13037109 28.82446289 25.13037109 C28.71171021 27.03653198 28.71171021 27.03653198 28.59667969 28.98120117 C27.02604681 55.40044925 25.25640332 81.77572592 22.82446289 108.13037109 C27.44446289 107.80037109 32.06446289 107.47037109 36.82446289 107.13037109 C36.82446289 115.38037109 36.82446289 123.63037109 36.82446289 132.13037109 C23.46161008 132.25886006 10.17145786 131.748941 -3.17553711 131.13037109 C-5.31875154 131.03368961 -7.46198065 130.93733324 -9.60522461 130.84130859 C-14.79550544 130.60806979 -19.98556874 130.37045821 -25.17553711 130.13037109 C-25.18916026 128.08481702 -25.19879041 126.03923615 -25.20678711 123.99365234 C-25.21258789 122.85452393 -25.21838867 121.71539551 -25.22436523 120.54174805 C-25.15982008 116.03230049 -24.74074211 111.60154634 -24.17553711 107.13037109 C-20.86482872 106.12927594 -17.87468942 106.02680976 -14.42553711 106.06787109 C-13.44069336 106.07689453 -12.45584961 106.08591797 -11.44116211 106.09521484 C-10.69350586 106.10681641 -9.94584961 106.11841797 -9.17553711 106.13037109 C-9.15270157 105.47622726 -9.12986603 104.82208344 -9.1063385 104.14811707 C-8.86322544 97.18556545 -8.61970624 90.22302811 -8.37597656 83.26049805 C-8.2857083 80.68042338 -8.19553525 78.10034539 -8.10546875 75.52026367 C-7.48410203 57.72279346 -6.84248829 39.92619316 -6.17553711 22.13037109 C-6.78964951 22.20142563 -7.4037619 22.27248016 -8.03648376 22.34568787 C-8.84412674 22.43761917 -9.65176971 22.52955048 -10.48388672 22.62426758 C-11.28362411 22.71594711 -12.08336151 22.80762665 -12.90733337 22.90208435 C-17.00581347 23.31458198 -21.06070439 23.18832648 -25.17553711 23.13037109 C-25.17553711 28.41037109 -25.17553711 33.69037109 -25.17553711 39.13037109 C-30.12553711 39.46037109 -35.07553711 39.79037109 -40.17553711 40.13037109 C-40.22172545 36.00421227 -40.26146605 31.87872161 -40.28540039 27.75244141 C-40.29538959 26.35201967 -40.30898565 24.95161842 -40.32641602 23.55126953 C-40.50784083 8.58905832 -40.50784083 8.58905832 -38.17553711 2.13037109 C-28.30779753 -2.8034987 -10.75054371 -0.02096094 0 0 Z " fill="#D4C6C0" transform="translate(88.175537109375,30.86962890625)"/>
<path d="M0 0 C0.556875 0.721875 1.11375 1.44375 1.6875 2.1875 C3.92599672 5.0823699 3.92599672 5.0823699 6.8125 7.375 C9 10 9 10 8.875 13.375 C8.441875 15.169375 8.441875 15.169375 8 17 C6.90799157 21.56596434 6.90799157 21.56596434 7.953125 25.90234375 C9.17147901 28.34359787 9.29806708 30.16239599 9.4375 32.875 C9.69744377 36.19168993 9.92062387 37.85712297 11.5625 40.8125 C13.96019425 46.12912637 14.0544559 51.29512323 13 57 C11.32319027 59.82855783 9.4218306 62.01689357 7.1875 64.42578125 C4.81900404 67.21299346 3.48385338 69.88136425 1.9375 73.1875 C-1.06622766 79.02192954 -4.80358198 83.36949555 -9.4375 88 C-10.05826416 88.62285889 -10.67902832 89.24571777 -11.31860352 89.88745117 C-16.4761795 94.8654336 -21.82603858 98.70835426 -28.484375 101.41796875 C-32.98287719 103.44229474 -36.43667262 106.21847354 -40.25 109.3125 C-42.46769306 111.09564509 -44.69273968 112.85847839 -46.95581055 114.58398438 C-49.38663861 116.51320681 -51.6611932 118.49453943 -53.96020508 120.57226562 C-66.9825412 131.82556138 -77.40716939 132.81137703 -94.1875 131.875 C-96.41321158 131.80456917 -98.63914177 131.74072746 -100.86523438 131.68359375 C-106.24902313 131.53135826 -111.62200516 131.29108281 -117 131 C-118.65 127.37 -120.3 123.74 -122 120 C-120.10278198 120.03311279 -120.10278198 120.03311279 -118.16723633 120.06689453 C-113.4161204 120.13630301 -108.66681208 120.13864848 -103.9152832 120.12207031 C-101.86994033 120.12400155 -99.82452823 120.14345041 -97.77954102 120.18164062 C-85.63920169 120.39530585 -76.73050861 120.23630338 -67.64575195 111.61083984 C-66.77265381 110.7492627 -65.89955566 109.88768555 -65 109 C-63.45116984 107.77100505 -61.88394339 106.56455138 -60.29296875 105.390625 C-59.60396484 104.86339844 -58.91496094 104.33617187 -58.20507812 103.79296875 C-57.53927734 103.28378906 -56.87347656 102.77460938 -56.1875 102.25 C-55.50236328 101.72535156 -54.81722656 101.20070313 -54.11132812 100.66015625 C-52.75207754 99.62050283 -51.39136033 98.58276357 -50.02905273 97.54711914 C-48.62999286 96.48035913 -47.23658676 95.40615716 -45.84790039 94.32592773 C-45.15043701 93.78911377 -44.45297363 93.2522998 -43.734375 92.69921875 C-43.11143555 92.21541748 -42.48849609 91.73161621 -41.84667969 91.2331543 C-39.9522392 89.96810685 -38.22595805 89.25128599 -36.0625 88.5625 C-23.30543038 84.25200577 -13.35877281 71.24609407 -7 60 C-6.484375 58.906875 -5.96875 57.81375 -5.4375 56.6875 C-4.09302645 54.17391902 -2.96472797 52.86726509 -0.9375 50.9375 C2.63218009 47.51840194 3.74909902 44.79214986 4.4375 39.875 C3.9131447 35.23071023 2.21372392 31.95496435 0.17578125 27.79296875 C-1.49785955 23.81737682 -1.7279111 20.28540015 -2 16 C-2.495 15.01 -2.495 15.01 -3 14 C-3.25860135 9.94857881 -3.30441554 8.45662331 -1 5 C-0.61500109 3.34450469 -0.27206865 1.6777567 0 0 Z " fill="#56617F" transform="translate(186,66)"/>
<path d="M0 0 C-0.70125 1.11375 -1.4025 2.2275 -2.125 3.375 C-4.73569768 7.54465716 -7.25841863 11.76356754 -9.765625 15.99609375 C-11 18 -11 18 -12 19 C-13.18389639 29.41828823 -8.40673174 39.13824058 -2.65234375 47.49609375 C-1.16045784 49.75684757 -0.10820717 51.88854073 0.9375 54.375 C2.78547873 58.3019548 5.32413274 59.66082372 9.02734375 61.73046875 C12.29754076 63.83505099 14.37985743 66.47959676 16 70 C16.35024295 73.21056039 16.21037293 75.87729548 15.6171875 79.04296875 C15.16028427 81.41071105 15.16028427 81.41071105 15 85 C16.28725907 86.70250393 17.62131719 88.37064759 19 90 C19 92.33333333 19 94.66666667 19 97 C19.90787487 99.66282943 20.97677748 102.19807187 22.125 104.765625 C23 107 23 107 23 110 C23.99 110 24.98 110 26 110 C26.4125 110.845625 26.825 111.69125 27.25 112.5625 C28.4981631 115.01424894 29.78025295 117.33374159 31.1875 119.6875 C33 123 33 123 33 126 C29.7318607 125.02839102 28.26960313 124.37551865 26.25 121.5625 C25 119 25 119 24 116 C22.21566947 115.02062046 22.21566947 115.02062046 20.125 114.125 C17.04738818 112.33428992 16.14353746 111.40881595 14.9453125 107.99609375 C14.49248584 105.75994411 14.09611717 103.51138098 13.765625 101.25390625 C13.18339962 97.88108178 13.18339962 97.88108178 10.96875 95.08984375 C8.59922404 91.37100439 8.44065644 88.26830863 8.25 84 C7.8889729 78.50847442 7.8889729 78.50847442 5.1015625 73.90625 C3.65004743 72.98950364 2.17612968 72.10704089 0.6796875 71.265625 C0.12539063 70.84796875 -0.42890625 70.4303125 -1 70 C-1 66.25 -1 66.25 -0.7578125 64.21875 C-1.21145549 60.06279491 -4.36758205 57.32107253 -7.0546875 54.296875 C-9.84270351 51.00500068 -11.08974614 48.12782621 -11.9375 43.9375 C-12.68735299 40.66596396 -13.56486 39.31918095 -16 37 C-15.85949219 36.47535156 -15.71898437 35.95070312 -15.57421875 35.41015625 C-14.61579674 31.38739174 -15.03723319 27.21949245 -15.21484375 23.10742188 C-15.31989523 18.0601756 -14.28734186 14.59673039 -12 10 C-11.63777344 9.22011719 -11.27554687 8.44023438 -10.90234375 7.63671875 C-10.58394531 6.99347656 -10.26554688 6.35023437 -9.9375 5.6875 C-9.61652344 5.03136719 -9.29554687 4.37523437 -8.96484375 3.69921875 C-7.65086253 1.38512226 -6.53534223 0.18402389 -4 -0.6875 C-2 -1 -2 -1 0 0 Z " fill="#EFECEC" transform="translate(21,48)"/>
<path d="M0 0 C4.04575198 1.58435042 6.3328477 4.29536817 9.1875 7.5 C10.06792969 8.4796875 10.94835937 9.459375 11.85546875 10.46875 C15.24438908 14.46878711 15.18615118 16.78776691 15 22 C14.67 22.66 14.34 23.32 14 24 C13.75212983 28.14503661 13.75212983 28.14503661 15 32 C15.0825 33.299375 15.165 34.59875 15.25 35.9375 C15.63377231 39.97686614 16.78128468 42.98730674 18.5625 46.625 C20.66512971 50.99481305 21.77262931 54.07448813 21 59 C19.55671108 62.99026935 17.45407519 65.67438231 14.625 68.75 C12.00458112 71.62050035 10.31028509 74.19665 8.75 77.75 C3.41311259 89.18115488 -8.61878983 100.64413639 -20 106 C-20.99 105.67 -21.98 105.34 -23 105 C-22.26394531 104.48050781 -21.52789062 103.96101563 -20.76953125 103.42578125 C-19.79371094 102.72839844 -18.81789062 102.03101563 -17.8125 101.3125 C-16.36810547 100.28576172 -16.36810547 100.28576172 -14.89453125 99.23828125 C-4.17187445 90.94667215 4.24392119 79.05302732 8.13671875 66.11328125 C9 64 9 64 11.75 61.125 C14.70997279 57.01392667 14.40601735 54.51350295 13.72265625 49.6171875 C12.64314586 45.70760933 10.81832162 43.88706117 8 41 C7.28837557 39.35202764 6.60968047 37.68834592 6 36 C5.34 35.34 4.68 34.68 4 34 C4.10416814 30.24994685 5.03221671 28.96385443 7.5625 26.125 C10.25037953 23.19411083 10.25037953 23.19411083 10.5625 19.5625 C9.48922655 12.76510151 5.30453242 7.90036583 1.171875 2.6015625 C0 1 0 1 0 0 Z " fill="#EFECEB" transform="translate(170,50)"/>
<path d="M0 0 C-0.96525528 2.15326178 -1.73752957 3.76213617 -3.5 5.359375 C-5.33253022 7.36370492 -5.61137985 8.79947618 -6.1875 11.4375 C-8.06844733 18.19315375 -11.9071243 23.38928664 -16 29 C-16.61617187 29.86496094 -17.23234375 30.72992188 -17.8671875 31.62109375 C-21.16741268 36.0873985 -24.14404128 39.2759256 -29 42 C-29 41.01 -29 40.02 -29 39 C-28.57203125 38.59265625 -28.1440625 38.1853125 -27.703125 37.765625 C-25.21177912 35.18285358 -24.13358671 32.00703684 -22.75 28.75 C-19.8554966 22.2207749 -16.64820293 16.32410146 -10 13 C-10.495 8.05 -10.495 8.05 -11 3 C-4.5 0 -4.5 0 0 0 Z " fill="#595757" transform="translate(184,108)"/>
<path d="M0 0 C5.27159901 5.27159901 5.30283338 10.18994678 5.65625 17.35546875 C5.74648153 20.15318892 5.74648153 20.15318892 8 22 C7.44444444 26.55555556 7.44444444 26.55555556 6 28 C5.75520869 31.03722557 5.61591635 34.07340606 5.4765625 37.1171875 C4.94498429 40.33279993 4.38370206 40.94508443 2 43 C1.34 44.32 0.68 45.64 0 47 C0 31.49 0 15.98 0 0 Z " fill="#566281" transform="translate(0,104)"/>
<path d="M0 0 C0.33 0.99 0.66 1.98 1 3 C1.99 3 2.98 3 4 3 C0.85980832 16.54207663 -10.93403559 28.43713597 -22.4375 35.6875 C-24.87109375 37.13671875 -24.87109375 37.13671875 -27 38 C-27.99 37.67 -28.98 37.34 -30 37 C-28.89591797 36.22076172 -28.89591797 36.22076172 -27.76953125 35.42578125 C-26.79371094 34.72839844 -25.81789062 34.03101563 -24.8125 33.3125 C-23.84957031 32.62800781 -22.88664063 31.94351563 -21.89453125 31.23828125 C-13.05356895 24.40174765 -3.08138781 13.15210224 -0.25 2.0625 C-0.1675 1.381875 -0.085 0.70125 0 0 Z " fill="#E8E6E7" transform="translate(177,118)"/>
<path d="M0 0 C0.33 0 0.66 0 1 0 C1 10.23 1 20.46 1 31 C-2.78804523 25.94927303 -3.19417843 23.59362657 -3.62109375 17.5078125 C-3.86694518 14.99146155 -3.86694518 14.99146155 -5.05859375 12.9140625 C-6.55191723 9.87784464 -5.61962837 7.22206755 -5 4 C-3.35 4 -1.7 4 0 4 C0 2.68 0 1.36 0 0 Z " fill="#7C89AD" transform="translate(198,79)"/>
<path d="M0 0 C4.75546236 4.38003112 4.75546236 4.38003112 5.94140625 7.38671875 C7.11009174 10.27177629 8.58959742 12.22786158 10.5625 14.625 C14.50080815 19.42302199 15.44876412 22.71730231 15 29 C13.484375 30.71875 13.484375 30.71875 12 32 C11.93941406 31.25234375 11.87882813 30.5046875 11.81640625 29.734375 C11.73261719 28.74953125 11.64882812 27.7646875 11.5625 26.75 C11.48128906 25.77546875 11.40007812 24.8009375 11.31640625 23.796875 C11.0473036 21.41814042 10.76872164 19.2646124 10 17 C8.15028304 15.94978897 8.15028304 15.94978897 6 15 C3.1785599 13.09137875 2.15193053 11.59150481 1.3046875 8.29296875 C0.80170827 5.5336672 0.36437544 2.78075994 0 0 Z " fill="#575658" transform="translate(166,44)"/>
<path d="M0 0 C4.04575198 1.58435042 6.3328477 4.29536817 9.1875 7.5 C10.06792969 8.4796875 10.94835937 9.459375 11.85546875 10.46875 C15.26185741 14.48940546 15.2585063 16.74370531 15 22 C14.46502633 24.40040358 13.76501613 26.65713809 13 29 C11.68 27.68 10.36 26.36 9 25 C9.33 24.34 9.66 23.68 10 23 C10.85168121 14.31285162 6.23293204 9.0907396 1.171875 2.6015625 C0 1 0 1 0 0 Z " fill="#F0EDEE" transform="translate(170,50)"/>
<path d="M0 0 C1.485 0.99 1.485 0.99 3 2 C3.144375 3.11375 3.28875 4.2275 3.4375 5.375 C3.73761212 8.91196667 3.73761212 8.91196667 5.39550781 11.18847656 C9.44600848 14.00575393 13.40976686 13.60322386 18.234375 13.609375 C19.72411835 13.63417938 19.72411835 13.63417938 21.24395752 13.65948486 C24.41270086 13.70802769 27.58096406 13.72935012 30.75 13.75 C32.89976382 13.77815437 35.04950521 13.80808104 37.19921875 13.83984375 C42.46605848 13.91378796 47.73276284 13.96539366 53 14 C53 14.33 53 14.66 53 15 C37.16 15 21.32 15 5 15 C1.87828814 9.53700424 0.3855575 6.65769313 -1 1 C-0.67 0.67 -0.34 0.34 0 0 Z " fill="#414753" transform="translate(55,171)"/>
<path d="M0 0 C0.8125 2.6875 0.8125 2.6875 1 6 C-1.1875 8.875 -1.1875 8.875 -4 11 C-5.32 11 -6.64 11 -8 11 C-8.3125 8.3125 -8.3125 8.3125 -8 5 C-3.97826087 0 -3.97826087 0 0 0 Z " fill="#F3F0EE" transform="translate(186,110)"/>
<path d="M0 0 C0.33 0 0.66 0 1 0 C1 8.58 1 17.16 1 26 C-1.805 26.20625 -4.61 26.4125 -7.5 26.625 C-8.8003418 26.73062256 -8.8003418 26.73062256 -10.12695312 26.83837891 C-15.51929049 27.18426093 -19.82291981 26.55549886 -25 25 C-25 24.67 -25 24.34 -25 24 C-16.75 24.33 -8.5 24.66 0 25 C0 16.75 0 8.5 0 0 Z " fill="#5B5552" transform="translate(125,138)"/>
<path d="M0 0 C0.33 1.32 0.66 2.64 1 4 C-3.69911948 8.34515983 -8.17926582 12.26083098 -14 15 C-14.99 14.67 -15.98 14.34 -17 14 C-16.26394531 13.48050781 -15.52789062 12.96101562 -14.76953125 12.42578125 C-9.82097786 8.88923252 -5.0979197 5.50771168 -1 1 C-0.67 0.67 -0.34 0.34 0 0 Z " fill="#D9DBDC" transform="translate(164,141)"/>
<path d="M0 0 C2.3125 0.5625 2.3125 0.5625 5 2 C8.16666667 7.7 8.16666667 7.7 7.6875 11.4375 C7.460625 11.953125 7.23375 12.46875 7 13 C4 9.375 4 9.375 4 6 C3.01 6 2.02 6 1 6 C0.67 4.02 0.34 2.04 0 0 Z " fill="#636161" transform="translate(43,152)"/>
<path d="M0 0 C0.99 0 1.98 0 3 0 C5.77327701 4.03385747 7.41258739 6.48134633 6.75 11.4375 C6.5025 12.613125 6.255 13.78875 6 15 C5.01 15.33 4.02 15.66 3 16 C3.04640625 15.41992188 3.0928125 14.83984375 3.140625 14.2421875 C3.41012568 8.40942269 2.71217436 5.5242125 -1 1 C-0.67 0.67 -0.34 0.34 0 0 Z " fill="#62615F" transform="translate(33,111)"/>
<path d="M0 0 C0.33 0 0.66 0 1 0 C1.33 5.28 1.66 10.56 2 16 C-2.14640199 10.47146402 -2.14640199 10.47146402 -2.1875 6 C-2.20167969 5.29875 -2.21585938 4.5975 -2.23046875 3.875 C-2 2 -2 2 0 0 Z " fill="#7280A0" transform="translate(197,94)"/>
<path d="M0 0 C1.485 0.99 1.485 0.99 3 2 C3.12375 3.0725 3.2475 4.145 3.375 5.25 C4.16796199 10.00777193 5.73153891 11.56392552 9 15 C7.68 15 6.36 15 5 15 C2.15015702 10.34525646 0.2976183 6.29860806 -1 1 C-0.67 0.67 -0.34 0.34 0 0 Z " fill="#50545A" transform="translate(55,171)"/>
<path d="M0 0 C0.33 0.99 0.66 1.98 1 3 C1.66 3.33 2.32 3.66 3 4 C0.69 6.31 -1.62 8.62 -4 11 C-5 7 -5 7 -4.00390625 5.078125 C-3.52824219 4.47484375 -3.05257812 3.8715625 -2.5625 3.25 C-2.08941406 2.63640625 -1.61632812 2.0228125 -1.12890625 1.390625 C-0.75636719 0.93171875 -0.38382813 0.4728125 0 0 Z " fill="#E1E0E2" transform="translate(170,133)"/>
<path d="M0 0 C-1.32 2.31 -2.64 4.62 -4 7 C-4.33 6.01 -4.66 5.02 -5 4 C-6.32 4.33 -7.64 4.66 -9 5 C-7.93411431 2.09303901 -7.29651501 1.15567038 -4.5 -0.3125 C-2 -1 -2 -1 0 0 Z " fill="#E7E5E8" transform="translate(21,48)"/>
<path d="M0 0 C4.875 3.75 4.875 3.75 6 6 C6.04022391 8.3329866 6.04320247 10.66706666 6 13 C2.84297684 9.09130466 0 5.1385061 0 0 Z " fill="#62605E" transform="translate(178,91)"/>
<path d="M0 0 C0.99 0.33 1.98 0.66 3 1 C2.67 1.66 2.34 2.32 2 3 C1.96976415 5.27632724 2.06648382 7.53422718 2.16015625 9.80859375 C2 12 2 12 0 15 C-0.95348275 10.23258627 -1.16407956 5.84034716 -1 1 C-0.67 0.67 -0.34 0.34 0 0 Z " fill="#E0E1E6" transform="translate(7,64)"/>
<path d="M0 0 C1.32830615 3.98491845 0.23204404 5.40048548 -1.4375 9.1875 C-1.91058594 10.27417969 -2.38367188 11.36085938 -2.87109375 12.48046875 C-3.42990234 13.72763672 -3.42990234 13.72763672 -4 15 C-4.33 15 -4.66 15 -5 15 C-5.67081836 8.56014376 -3.75430238 5.16216577 0 0 Z " fill="#64645F" transform="translate(13,59)"/>
<path d="M0 0 C4.2742558 1.5830577 6.26531794 4.50568404 9 8 C8.01 8.33 7.02 8.66 6 9 C4.99712471 7.68969568 3.99777175 6.37669473 3 5.0625 C2.443125 4.33160156 1.88625 3.60070313 1.3125 2.84765625 C0 1 0 1 0 0 Z " fill="#DADADE" transform="translate(170,50)"/>
<path d="M0 0 C0.66 0.33 1.32 0.66 2 1 C-4.66098081 7.96375267 -4.66098081 7.96375267 -8 9 C-8.99 8.67 -9.98 8.34 -11 8 C-7.37 5.36 -3.74 2.72 0 0 Z " fill="#464855" transform="translate(47,25)"/>
<path d="M0 0 C0.66 0.66 1.32 1.32 2 2 C0.9171875 2.61875 0.9171875 2.61875 -0.1875 3.25 C-2.97969862 4.98736803 -5.47012585 6.90381857 -8 9 C-8 8.01 -8 7.02 -8 6 C-6.25 4.39453125 -6.25 4.39453125 -4 2.8125 C-3.2575 2.28269531 -2.515 1.75289062 -1.75 1.20703125 C-1.1725 0.80871094 -0.595 0.41039062 0 0 Z " fill="#555C71" transform="translate(146,156)"/>
<path d="M0 0 C0.66 0.33 1.32 0.66 2 1 C1.67 2.65 1.34 4.3 1 6 C0.01 6.33 -0.98 6.66 -2 7 C-2.125 4.625 -2.125 4.625 -2 2 C-1.34 1.34 -0.68 0.68 0 0 Z " fill="#EFEEEC" transform="translate(173,129)"/>
<path d="M0 0 C0.66 0.33 1.32 0.66 2 1 C2 4.96 2 8.92 2 13 C-0.29200565 8.41598869 0 4.97591149 0 0 Z " fill="#757F9C" transform="translate(27,123)"/>
<path d="M0 0 C0.33 0 0.66 0 1 0 C1.33 3.96 1.66 7.92 2 12 C0.68 10.68 -0.64 9.36 -2 8 C-1.9355877 5.05850486 -0.94310882 2.82932647 0 0 Z " fill="#E4E2DE" transform="translate(181,67)"/>
<path d="M0 0 C3.16115776 1.36983503 3.9927092 1.9890638 6 5 C5.34 5 4.68 5 4 5 C3.67 5.99 3.34 6.98 3 8 C0 2.25 0 2.25 0 0 Z " fill="#E5E5E5" transform="translate(177,58)"/>
<path d="M0 0 C0.33 0.99 0.66 1.98 1 3 C-1.3125 4.5625 -1.3125 4.5625 -4 6 C-4.99 5.67 -5.98 5.34 -7 5 C-4.69 3.35 -2.38 1.7 0 0 Z " fill="#CED1D6" transform="translate(154,150)"/>
</svg>
