<?xml version="1.0" encoding="UTF-8"?>
<svg version="1.1" xmlns="http://www.w3.org/2000/svg" width="186" height="201">
<path d="M0 0 C61.38 0 122.76 0 186 0 C186 66.33 186 132.66 186 201 C124.62 201 63.24 201 0 201 C0 134.67 0 68.34 0 0 Z " fill="#4C66A3" transform="translate(0,0)"/>
<path d="M0 0 C0.69562546 -0.00191345 1.39125092 -0.0038269 2.10795593 -0.00579834 C3.56424323 -0.00714921 5.02054302 -0.00353022 6.47680664 0.00488281 C8.71072006 0.01568059 10.94384425 0.00490925 13.17773438 -0.0078125 C14.59765802 -0.0064923 16.01758118 -0.00393281 17.4375 0 C18.72309814 0.00225586 20.00869629 0.00451172 21.33325195 0.00683594 C24.38671875 0.265625 24.38671875 0.265625 26.38671875 2.265625 C26.79736328 4.30932617 26.79736328 4.30932617 27.01953125 6.80859375 C27.10332031 7.71802734 27.18710938 8.62746094 27.2734375 9.56445312 C27.35207031 10.51771484 27.43070312 11.47097656 27.51171875 12.453125 C27.59808594 13.38705078 27.68445313 14.32097656 27.7734375 15.28320312 C28.21805483 20.29749856 28.48417962 25.23246717 28.38671875 30.265625 C25.14839262 31.832557 22.2395953 32.47535365 18.6953125 32.83203125 C17.88763428 32.91525635 17.07995605 32.99848145 16.24780273 33.08422852 C15.63364502 33.14408936 15.0194873 33.2039502 14.38671875 33.265625 C14.37737305 33.86584473 14.36802734 34.46606445 14.35839844 35.08447266 C13.11870365 99.68229441 13.11870365 99.68229441 -1.61328125 116.265625 C-2.39703125 117.1525 -3.18078125 118.039375 -3.98828125 118.953125 C-14.6792577 128.37136616 -24.29290277 132.83019749 -38.66015625 132.5390625 C-50.74433931 131.70320004 -61.62991986 125.71822891 -69.98828125 117.078125 C-79.02931221 106.18442376 -80.96810679 92.61490275 -80.73828125 78.921875 C-80.73070801 77.87213501 -80.72313477 76.82239502 -80.71533203 75.74084473 C-80.6829442 71.29561518 -80.62652818 66.85076923 -80.57226562 62.40576172 C-80.53589251 59.14031712 -80.51184029 55.87493327 -80.48828125 52.609375 C-80.47168457 51.62054321 -80.45508789 50.63171143 -80.43798828 49.61291504 C-80.39451412 43.37463786 -80.71620218 37.25498516 -82.61328125 31.265625 C-84.84153769 29.03736856 -86.27089753 28.57323131 -89.23828125 27.640625 C-90.05554688 27.38023438 -90.8728125 27.11984375 -91.71484375 26.8515625 C-92.65457031 26.56152344 -92.65457031 26.56152344 -93.61328125 26.265625 C-93.27074703 18.52435167 -92.30391285 8.87101643 -87.30133057 2.62849426 C-85.20072467 0.93254191 -84.14660676 0.89100337 -81.47167969 0.89331055 C-80.22327301 0.88396736 -80.22327301 0.88396736 -78.949646 0.87443542 C-78.04973938 0.88364517 -77.14983276 0.89285492 -76.22265625 0.90234375 C-75.28585022 0.90184525 -74.34904419 0.90134674 -73.3838501 0.90083313 C-71.39324839 0.9031764 -69.40264388 0.91291974 -67.41210938 0.92944336 C-64.41638489 0.95271252 -61.42157116 0.95004641 -58.42578125 0.94335938 C-47.6554179 0.96051821 -37.24000381 1.43909171 -26.61328125 3.265625 C-20.69144217 18.71390086 -20.69144217 18.71390086 -23.80078125 26.078125 C-26.01071703 28.74528887 -27.37470847 29.95641473 -30.61328125 31.265625 C-33.96297706 31.50195323 -37.2617819 31.44133467 -40.61328125 31.265625 C-42.36850062 42.26708926 -42.85191928 53.25352045 -42.9128418 64.37994385 C-42.92137609 65.87098959 -42.93493621 67.3620162 -42.95385742 68.85296631 C-43.07763881 79.78525297 -42.98936816 90.90709417 -36.61328125 100.265625 C-31.60316536 103.80936551 -26.53718986 104.17766372 -20.61328125 103.265625 C-14.43152685 101.27293912 -10.58113645 99.11350239 -7.47509766 93.21264648 C-6.05428884 90.00274554 -5.22782992 86.75128146 -4.48828125 83.328125 C-4.32287842 82.58361084 -4.15747559 81.83909668 -3.98706055 81.07202148 C-1.38367006 68.93870626 -0.41211236 56.82433594 0.19921875 44.453125 C0.26455811 43.30078369 0.32989746 42.14844238 0.3972168 40.96118164 C0.44144775 39.87957764 0.48567871 38.79797363 0.53125 37.68359375 C0.57612549 36.71188232 0.62100098 35.7401709 0.66723633 34.73901367 C0.59166969 32.22572212 0.59166969 32.22572212 -0.95581055 30.45678711 C-3.3351466 28.74684741 -5.34067696 28.78588748 -8.23828125 28.640625 C-13.52994792 28.34895833 -13.52994792 28.34895833 -14.61328125 27.265625 C-14.7006577 25.41192889 -14.72026278 23.55494959 -14.7109375 21.69921875 C-14.70610352 20.0121582 -14.70610352 20.0121582 -14.70117188 18.29101562 C-14.68860352 16.51500977 -14.68860352 16.51500977 -14.67578125 14.703125 C-14.67126953 13.51525391 -14.66675781 12.32738281 -14.66210938 11.10351562 C-14.650278 8.15750274 -14.63379412 5.21158819 -14.61328125 2.265625 C-9.5855383 0.63070544 -5.34015855 0.00932953 0 0 Z " fill="#D4C7C3" transform="translate(121.61328125,29.734375)"/>
<path d="M0 0 C3.3125 0.0625 3.3125 0.0625 7 1 C10.30767047 5.85814101 10.11032135 9.39297573 9.33984375 15.0546875 C8.93210254 18.58844461 8.81010391 22.0682625 8.75 25.625 C8.72421875 26.83414063 8.6984375 28.04328125 8.671875 29.2890625 C8.95129927 32.44921792 9.30811279 33.98097395 10.51171875 36.76171875 C12.59397495 41.85085647 12.25530834 46.7706771 12.0625 52.1875 C12.00228516 54.11821844 11.95118974 56.04924744 11.91015625 57.98046875 C11.88058838 58.82504639 11.85102051 59.66962402 11.82055664 60.53979492 C12.10815837 64.48287331 13.66844304 67.42615141 15.625 70.8125 C18.30616974 77.02793895 16.88807108 83.81632052 16.20703125 90.390625 C15.92825277 93.19845575 15.92825277 93.19845575 16.1875 96.8125 C15.94621855 100.91428469 14.39810027 102.71117678 12 106 C9.23448149 111.13596294 8.76321373 114.96974658 8.96875 120.65625 C9 123 9 123 8.375 126.0625 C7.84087743 130.24646012 8.7677345 133.99091704 10 138 C10.33 138.33 10.66 138.66 11 139 C11.03165882 141.52366033 10.93175288 144.03270105 10.83984375 146.5546875 C10.81272 149.25981011 10.81272 149.25981011 13 152 C14.40923287 157.07323832 14.90467141 163.00667225 13 168 C7.27923521 171.80437956 0.16605863 171.07262503 -6.37109375 170.90625 C-9.93919164 170.99842906 -12.81400273 171.58032787 -16.25 172.5 C-23.36017781 174.20025991 -30.32911184 174.37358858 -37.625 174.4375 C-38.77645508 174.45941406 -39.92791016 174.48132813 -41.11425781 174.50390625 C-42.20319336 174.50132812 -43.29212891 174.49875 -44.4140625 174.49609375 C-45.88286865 174.49887329 -45.88286865 174.49887329 -47.38134766 174.50170898 C-50.69199137 173.86742101 -51.786953 172.45971458 -54 170 C-56.16663777 169.65704924 -56.16663777 169.65704924 -58.375 170.125 C-59.16777344 170.25003906 -59.96054688 170.37507812 -60.77734375 170.50390625 C-63.15119489 170.98431081 -63.15119489 170.98431081 -65.9375 172.0625 C-71.6133712 173.80001159 -77.40058126 173.51823172 -83.125 172.0625 C-87.49921359 170.97090989 -91.82781907 170.56774463 -96.3125 170.25 C-97.00682129 170.19336182 -97.70114258 170.13672363 -98.41650391 170.07836914 C-102.27433494 169.83789924 -104.68935304 170.02769968 -108 172 C-109.67189775 172.47542116 -111.36182304 172.89088269 -113.0625 173.25 C-113.91972656 173.44078125 -114.77695313 173.6315625 -115.66015625 173.828125 C-118 174 -118 174 -121 172 C-122.010625 171.67 -123.02125 171.34 -124.0625 171 C-127 170 -127 170 -129 168 C-130.2375 167.62875 -130.2375 167.62875 -131.5 167.25 C-134 166 -134 166 -135.3125 162.875 C-135.539375 161.92625 -135.76625 160.9775 -136 160 C-133.125 159.875 -133.125 159.875 -130 160 C-129.34 160.66 -128.68 161.32 -128 162 C-125.13244316 161.67227922 -122.58739277 160.86518774 -119.84375 159.96875 C-115.64775634 158.91122314 -111.98469689 158.69562354 -107.6875 158.75 C-106.56275269 158.75580078 -106.56275269 158.75580078 -105.4152832 158.76171875 C-100.5620282 158.83724763 -96.11450455 159.43644132 -91.3828125 160.53515625 C-82.70894731 162.22727094 -76.09703999 161.23632107 -68.375 156.99609375 C-65.70336051 155.87558706 -64.65502034 155.97363797 -62 157 C-62.66 157.33 -63.32 157.66 -64 158 C-60.24878663 161.49079642 -58.04274063 162.49720142 -52.9296875 162.42578125 C-51.78628906 162.41740234 -50.64289063 162.40902344 -49.46484375 162.40039062 C-48.28019531 162.37138672 -47.09554687 162.34238281 -45.875 162.3125 C-44.68261719 162.30283203 -43.49023438 162.29316406 -42.26171875 162.28320312 C-36.0300732 162.2978256 -36.0300732 162.2978256 -30 161 C-30.33 160.34 -30.66 159.68 -31 159 C-30.22398437 159.01047363 -29.44796875 159.02094727 -28.6484375 159.03173828 C-25.09899188 159.07356498 -21.54959833 159.09941072 -18 159.125 C-16.77925781 159.14175781 -15.55851562 159.15851563 -14.30078125 159.17578125 C-7.83021331 159.21075729 -2.18153587 158.96263764 4 157 C3.88566637 154.74943278 3.75813564 152.49953326 3.625 150.25 C3.55539063 148.99703125 3.48578125 147.7440625 3.4140625 146.453125 C3.03477172 143.28998301 2.42568586 141.7349892 1 139 C0.91015625 136.7734375 0.91015625 136.7734375 1.0625 134.375 C1.16295577 130.55768061 0.72298983 127.71510672 -0.5625 124.125 C-2.52922738 118.2617517 -1.84401457 113.03598302 -1 107 C-0.855625 105.700625 -0.71125 104.40125 -0.5625 103.0625 C0.24853065 98.64688869 1.4857903 95.71081929 4.125 92.0625 C6.20834864 88.65969723 6.45494279 86.91250796 6 83 C5.67 82.67 5.34 82.34 5 82 C5.09329561 80.5373656 5.25176342 79.07879001 5.4375 77.625 C6.77085751 65.86377757 6.77085751 65.86377757 2.89453125 55.0234375 C0.62395559 49.88737553 1.85259882 43.87942009 2.6875 38.5 C3.26589305 34.01547306 2.20918142 30.59286683 0.76953125 26.359375 C-0.67732659 21.92332354 -1 17.63747504 -1 13 C-1.01160156 12.18402344 -1.02320313 11.36804687 -1.03515625 10.52734375 C-1.04417969 9.67269531 -1.05320313 8.81804688 -1.0625 7.9375 C-1.07410156 7.08027344 -1.08570313 6.22304688 -1.09765625 5.33984375 C-1 3 -1 3 0 0 Z " fill="#566280" transform="translate(159,20)"/>
<path d="M0 0 C45.21 0 90.42 0 137 0 C137.33 0.66 137.66 1.32 138 2 C140.68296676 3.83974863 143.09308934 5.03102978 146.1875 6.0625 C149 7 149 7 151 9 C151.99 9.268125 152.98 9.53625 154 9.8125 C157 11 157 11 158.1796875 13.0234375 C159.27806849 17.00899137 159.21458884 20.7017506 159.125 24.8125 C159.11597656 25.60076172 159.10695312 26.38902344 159.09765625 27.20117188 C159.07422504 29.13424666 159.03835838 31.0671638 159 33 C158.01 33.495 158.01 33.495 157 34 C156.93941406 32.73542969 156.87882813 31.47085937 156.81640625 30.16796875 C156.73199096 28.50780129 156.64734345 26.84764563 156.5625 25.1875 C156.52318359 24.35412109 156.48386719 23.52074219 156.44335938 22.66210938 C156.38051758 21.45844727 156.38051758 21.45844727 156.31640625 20.23046875 C156.27974854 19.49207764 156.24309082 18.75368652 156.20532227 17.99291992 C156.05157859 15.792505 156.05157859 15.792505 155 13 C152.36 13 149.72 13 147 13 C146.67 12.34 146.34 11.68 146 11 C141.34947128 10.73067479 141.34947128 10.73067479 137 12 C132.00596228 12.2583123 128.35446825 11.82285864 123.53515625 10.43359375 C119.35835007 9.71922474 115.11946747 9.95590964 110.8984375 10.16210938 C105.6948045 10.31994952 102.6037791 9.12826771 98 7 C94.76967045 7.18284884 91.8343135 7.81115201 88.6875 8.5234375 C79.97605727 10.40184234 72.55137692 11.14324391 64.203125 7.55859375 C61.2357349 6.80622357 59.02083471 7.47372218 56 8 C51.75250174 8.1044766 47.50277475 7.97512132 43.25585938 7.87304688 C42.39669922 7.86208984 41.53753906 7.85113281 40.65234375 7.83984375 C39.87882568 7.82300537 39.10530762 7.80616699 38.30834961 7.78881836 C35.91564599 7.89594759 35.91564599 7.89594759 33.52685547 8.99780273 C30.78211341 10.08641782 28.85492939 10.23134883 25.91796875 10.1953125 C24.52094727 10.18564453 24.52094727 10.18564453 23.09570312 10.17578125 C22.13599609 10.15902344 21.17628906 10.14226563 20.1875 10.125 C19.20845703 10.11597656 18.22941406 10.10695313 17.22070312 10.09765625 C14.81354939 10.07417182 12.40690257 10.0413284 10 10 C10.27714844 10.88558594 10.55429688 11.77117188 10.83984375 12.68359375 C13.16360235 20.63068278 14.49180696 27.98347598 14.67163086 36.27514648 C14.77869367 40.26121376 15.11155657 43.4507978 17 47 C17.66 47.33 18.32 47.66 19 48 C20.95489489 53.30614327 19.08883893 57.39018284 17.203125 62.4140625 C16 65 16 65 14.453125 67.01953125 C12.28752488 69.97103464 11.72998658 73.15213647 10.84375 76.66015625 C9.930483 79.19278095 9.14770291 80.3944868 7 82 C6.01 82 5.02 82 4 82 C3.79503906 81.43410156 3.59007812 80.86820312 3.37890625 80.28515625 C2.97478516 79.18494141 2.97478516 79.18494141 2.5625 78.0625 C2.29566406 77.33160156 2.02882812 76.60070312 1.75390625 75.84765625 C1.14613052 74.01694322 1.14613052 74.01694322 0 73 C-0.09439978 70.73008113 -0.11742226 68.45718033 -0.11352539 66.18530273 C-0.11364593 65.46159265 -0.11376646 64.73788256 -0.11389065 63.99224186 C-0.11314163 61.63932837 -0.10551393 59.28649315 -0.09765625 56.93359375 C-0.0961868 55.48506712 -0.09516611 54.03653996 -0.09460449 52.5880127 C-0.08935201 47.20450039 -0.07539092 41.82099943 -0.0625 36.4375 C-0.041875 24.413125 -0.02125 12.38875 0 0 Z " fill="#707EA7" transform="translate(0,0)"/>
<path d="M0 0 C30.03 0 60.06 0 91 0 C91.495 0.99 91.495 0.99 92 2 C94.68296676 3.83974863 97.09308934 5.03102978 100.1875 6.0625 C103 7 103 7 105 9 C105.99 9.268125 106.98 9.53625 108 9.8125 C111 11 111 11 112.1796875 13.0234375 C113.27806849 17.00899137 113.21458884 20.7017506 113.125 24.8125 C113.11597656 25.60076172 113.10695313 26.38902344 113.09765625 27.20117188 C113.07422504 29.13424666 113.03835838 31.0671638 113 33 C112.01 33.495 112.01 33.495 111 34 C110.93941406 32.73542969 110.87882812 31.47085937 110.81640625 30.16796875 C110.73199096 28.50780129 110.64734345 26.84764563 110.5625 25.1875 C110.52318359 24.35412109 110.48386719 23.52074219 110.44335938 22.66210938 C110.40146484 21.85966797 110.35957031 21.05722656 110.31640625 20.23046875 C110.27974854 19.49207764 110.24309082 18.75368652 110.20532227 17.99291992 C110.05157859 15.792505 110.05157859 15.792505 109 13 C106.36 13 103.72 13 101 13 C100.505 12.01 100.505 12.01 100 11 C95.34947128 10.73067479 95.34947128 10.73067479 91 12 C86.00596228 12.2583123 82.35446825 11.82285864 77.53515625 10.43359375 C73.35835007 9.71922474 69.11946747 9.95590964 64.8984375 10.16210938 C59.6955974 10.31992546 56.60235188 9.13019941 52 7 C48.6374883 7.19399106 45.56283376 7.86942905 42.2890625 8.62890625 C34.63674541 10.25989609 34.63674541 10.25989609 30.9375 8.75 C29.59243896 7.53510616 28.28163104 6.28163104 27 5 C24.188766 4.53401472 24.188766 4.53401472 20.8984375 4.3671875 C19.68671875 4.28339844 18.475 4.19960937 17.2265625 4.11328125 C15.32003906 3.99533203 15.32003906 3.99533203 13.375 3.875 C12.09625 3.78863281 10.8175 3.70226562 9.5 3.61328125 C6.33378486 3.40062501 3.16724793 3.19657037 0 3 C0 2.01 0 1.02 0 0 Z " fill="#7280A7" transform="translate(46,0)"/>
<path d="M0 0 C2.8992226 0.46761655 3.86675182 0.86675182 6 3 C6.825 3.165 7.65 3.33 8.5 3.5 C11 4 11 4 13 6 C13.99 6.268125 14.98 6.53625 16 6.8125 C19 8 19 8 20.1796875 10.0234375 C21.27806849 14.00899137 21.21458884 17.7017506 21.125 21.8125 C21.11597656 22.60076172 21.10695313 23.38902344 21.09765625 24.20117188 C21.07422504 26.13424666 21.03835838 28.0671638 21 30 C20.34 30.33 19.68 30.66 19 31 C18.93941406 29.73542969 18.87882812 28.47085937 18.81640625 27.16796875 C18.73199096 25.50780129 18.64734345 23.84764563 18.5625 22.1875 C18.52318359 21.35412109 18.48386719 20.52074219 18.44335938 19.66210938 C18.40146484 18.85966797 18.35957031 18.05722656 18.31640625 17.23046875 C18.27974854 16.49207764 18.24309082 15.75368652 18.20532227 14.99291992 C18.05157859 12.792505 18.05157859 12.792505 17 10 C14.36 10 11.72 10 9 10 C8.505 9.01 8.505 9.01 8 8 C3.34947128 7.73067479 3.34947128 7.73067479 -1 9 C-5.99403772 9.2583123 -9.64553175 8.82285864 -14.46484375 7.43359375 C-18.64164993 6.71922474 -22.88053253 6.95590964 -27.1015625 7.16210938 C-32.16185977 7.31560176 -35.41561665 5.96920103 -40 4 C-43.51494359 3.84749034 -43.51494359 3.84749034 -46.9375 4.3125 C-48.65259766 4.49232422 -48.65259766 4.49232422 -50.40234375 4.67578125 C-51.25957031 4.78277344 -52.11679688 4.88976562 -53 5 C-52 3 -52 3 -49 2 C-42.42565066 1.62803023 -35.95844294 1.64488028 -29.5 3 C-19.96152792 4.95552746 -9.9441358 5.28341987 -1 1 C-0.67 0.67 -0.34 0.34 0 0 Z " fill="#E7E8EF" transform="translate(138,3)"/>
<path d="M0 0 C3.3200871 4.4267828 3.3200871 4.4267828 3.4375 8.8125 C3.67381807 12.3367216 4.05324923 14.52900413 6.0625 17.4375 C8.98130828 21.94935749 8.78064191 26.81653772 8 32 C5.75946586 36.56108735 4.58950321 37.70524839 0 40 C0 26.8 0 13.6 0 0 Z " fill="#566180" transform="translate(0,89)"/>
<path d="M0 0 C1.00546875 0.0309375 2.0109375 0.061875 3.046875 0.09375 C10.3277157 0.47897967 10.3277157 0.47897967 13.5 2.9375 C14.2425 3.9584375 14.2425 3.9584375 15 5 C15.99 5.66 16.98 6.32 18 7 C12.04265612 7.28368304 7.7403111 6.88996233 2.23828125 4.55859375 C-0.75002587 3.81282077 -2.96490671 4.46209027 -6 5 C-9.18841503 5.10711564 -12.37305232 5.04580894 -15.5625 5 C-22.45167999 4.94492161 -29.21239539 5.14591007 -36.078125 5.77734375 C-40.7186444 6.13096622 -45.34945846 6.0838775 -50 6 C-50 5.67 -50 5.34 -50 5 C-44.52597075 3.61604678 -39.46789219 2.9015173 -33.8125 3.0625 C-28.78325751 3.16308485 -24.35001171 2.57994889 -19.4375 1.5 C-12.79818977 0.05340825 -6.76838965 -0.36985736 0 0 Z " fill="#E6E7EB" transform="translate(62,3)"/>
<path d="M0 0 C1.77230652 5.31691956 1.38444021 11.04284984 0.3125 16.5 C-0.06185975 20.69282914 0.97131928 23.4370569 2.3046875 27.37109375 C3.24046645 30.90917934 3.14075472 34.14298972 2.91015625 37.7734375 C2.84760629 40.03402948 2.84760629 40.03402948 3.98828125 41.9609375 C5.2618192 44.52768194 5.19993118 46.40261525 5.125 49.25 C5.10695312 50.14203125 5.08890625 51.0340625 5.0703125 51.953125 C5.03550781 52.96632813 5.03550781 52.96632813 5 54 C0.68867891 49.68867891 -0.85530778 42.58938785 -1.1875 36.64453125 C-1.14753549 34.59385212 -1.07037703 32.54334579 -0.9453125 30.49609375 C-0.78234332 27.74544795 -0.78234332 27.74544795 -3 25 C-5.15892751 18.88303872 -6.3806753 13.36269001 -3.87890625 7.26953125 C-2.65078338 4.8028482 -1.37114745 2.38971413 0 0 Z " fill="#E4E6EA" transform="translate(158,119)"/>
<path d="M0 0 C1.485 0.99 1.485 0.99 3 2 C3.6875 5.625 3.6875 5.625 4 9 C5.98 8.01 7.96 7.02 10 6 C9.979375 6.7425 9.95875 7.485 9.9375 8.25 C9.99328688 10.70462279 10.3069904 12.66109261 11 15 C10.34 14.34 9.68 13.68 9 13 C8.34 15.97 7.68 18.94 7 22 C6.34 22 5.68 22 5 22 C4.67 23.98 4.34 25.96 4 28 C3.67 28 3.34 28 3 28 C2.86722656 27.30132812 2.73445312 26.60265625 2.59765625 25.8828125 C2.42105469 24.97273438 2.24445313 24.06265625 2.0625 23.125 C1.88847656 22.22007813 1.71445312 21.31515625 1.53515625 20.3828125 C1.10036299 18.00043683 1.10036299 18.00043683 0 16 C-0.07181821 13.28239892 -0.09299506 10.59140612 -0.0625 7.875 C-0.05798828 7.12089844 -0.05347656 6.36679688 -0.04882812 5.58984375 C-0.03703499 3.72652873 -0.01909942 1.86325445 0 0 Z " fill="#707EA6" transform="translate(0,73)"/>
<path d="M0 0 C3.0610845 2.78280409 4.83517434 5.25117177 5.23046875 9.4453125 C5.14059695 15.05004447 4.83182674 20.5385413 4.12109375 26.1015625 C4.08113281 26.72804688 4.04117188 27.35453125 4 28 C4.33 28.33 4.66 28.66 5 29 C5.60535108 33.23745756 4.93647336 35.48871499 2.5 38.875 C1.68006717 39.92724714 0.85100278 40.97271807 0 42 C-1.2818632 39.4362736 -1.27122178 37.84782869 -1 35 C0.5 32.6875 0.5 32.6875 2 31 C1.690625 30.401875 1.38125 29.80375 1.0625 29.1875 C-0.98251835 24.9771681 -1.32680933 21.6570329 -1 17 C0 15.66666667 1 14.33333333 2 13 C2.44688385 8.17365442 1.75460022 4.49616307 0 0 Z " fill="#F0EEEE" transform="translate(161,74)"/>
<path d="M0 0 C7.45764104 0.63200348 7.45764104 0.63200348 10.30859375 2.56640625 C13.93106475 4.49593725 16.32785491 4.06008862 20.375 3.625 C25.56873662 3.08552838 29.90122044 3.09091527 35 4 C35 4.33 35 4.66 35 5 C34.01 5.268125 33.02 5.53625 32 5.8125 C29.19645917 6.59567537 26.56277891 7.57355361 23.875 8.6875 C18.88576143 10.57402591 16.23100428 9.47988303 11.3125 7.5625 C8 6 8 6 6 4 C4.01643517 3.28591666 2.01684563 2.61382258 0 2 C0 1.34 0 0.68 0 0 Z " fill="#E5E7ED" transform="translate(15,173)"/>
<path d="M0 0 C1.79206547 0.14084796 3.58364917 0.28783701 5.375 0.4375 C6.87160156 0.55931641 6.87160156 0.55931641 8.3984375 0.68359375 C11 1 11 1 13 2 C17.14503661 2.24787017 17.14503661 2.24787017 21 1 C25.82612943 0.72156946 29.49907826 1.24354273 34 3 C28.76650319 6.13837242 22.92300249 5.40859164 17 5.4375 C15.81148437 5.47037109 14.62296875 5.50324219 13.3984375 5.53710938 C12.25632812 5.54419922 11.11421875 5.55128906 9.9375 5.55859375 C8.37322266 5.57877563 8.37322266 5.57877563 6.77734375 5.59936523 C3.06792967 4.79885437 2.04299772 3.0917488 0 0 Z " fill="#E5E6EE" transform="translate(96,178)"/>
<path d="M0 0 C7.20822151 -0.05063235 14.4163973 -0.08570496 21.62475586 -0.10986328 C24.07789829 -0.11993245 26.53102869 -0.13358861 28.98413086 -0.15087891 C32.50637783 -0.17508679 36.02846639 -0.18647388 39.55078125 -0.1953125 C41.20089958 -0.21079636 41.20089958 -0.21079636 42.88435364 -0.22659302 C44.41560127 -0.22681961 44.41560127 -0.22681961 45.9777832 -0.22705078 C46.87713089 -0.231492 47.77647858 -0.23593323 48.70307922 -0.24050903 C51 0 51 0 54 2 C53.35520187 1.99111755 52.71040375 1.98223511 52.04606628 1.9730835 C45.34680021 1.88472321 38.6476991 1.82431275 31.94799805 1.78027344 C29.44630207 1.76013383 26.9446533 1.7328204 24.44311523 1.69824219 C20.85128139 1.64982897 17.26006883 1.6270545 13.66796875 1.609375 C12.54601608 1.58872986 11.42406342 1.56808472 10.26811218 1.54681396 C9.22725967 1.54651184 8.18640717 1.54620972 7.11401367 1.54589844 C6.19690109 1.53701599 5.27978851 1.52813354 4.33488464 1.51898193 C1.86214039 1.7980948 1.86214039 1.7980948 0.25117493 3.82574463 C-1.42514436 6.73880349 -2.24025518 9.63558001 -3.125 12.875 C-3.45757813 14.06867187 -3.79015625 15.26234375 -4.1328125 16.4921875 C-4.91476383 19.65521585 -5.51740005 22.77938404 -6 26 C-5.34 26.33 -4.68 26.66 -4 27 C-4.99 27 -5.98 27 -7 27 C-7.19373922 21.47843214 -6.73806499 17.30567209 -5 12 C-4.45471374 10.18858566 -3.91319371 8.37603427 -3.375 6.5625 C-2.91712214 5.04152948 -2.45894807 3.52064794 -2 2 C-1.34 2 -0.68 2 0 2 C0 1.34 0 0.68 0 0 Z " fill="#596B9B" transform="translate(34,30)"/>
<path d="M0 0 C0.53625 0.45375 1.0725 0.9075 1.625 1.375 C3.98452346 3.17609792 3.98452346 3.17609792 7.125 3.875 C10 5 10 5 11.171875 7.01953125 C12.27987136 11.00727288 12.21468169 14.69749018 12.125 18.8125 C12.11597656 19.60076172 12.10695312 20.38902344 12.09765625 21.20117188 C12.07422504 23.13424666 12.03835838 25.0671638 12 27 C11.34 27.33 10.68 27.66 10 28 C9.93941406 26.73542969 9.87882813 25.47085937 9.81640625 24.16796875 C9.73199096 22.50780129 9.64734345 20.84764563 9.5625 19.1875 C9.52318359 18.35412109 9.48386719 17.52074219 9.44335938 16.66210938 C9.40146484 15.85966797 9.35957031 15.05722656 9.31640625 14.23046875 C9.27974854 13.49207764 9.24309082 12.75368652 9.20532227 11.99291992 C9.05157859 9.792505 9.05157859 9.792505 8 7 C5.36 7 2.72 7 0 7 C-1.04449911 3.86650268 -0.93423645 3.01031744 0 0 Z " fill="#CBD2E1" transform="translate(147,6)"/>
<path d="M0 0 C0.98871094 0.10699219 1.97742187 0.21398437 2.99609375 0.32421875 C4.48302734 0.47310547 4.48302734 0.47310547 6 0.625 C8.43359375 1.01171875 8.43359375 1.01171875 9.43359375 2.01171875 C12.29626942 2.08497043 15.13431275 2.1041008 17.99609375 2.07421875 C19.20555664 2.06745117 19.20555664 2.06745117 20.43945312 2.06054688 C22.43753131 2.04872393 24.43557158 2.03078789 26.43359375 2.01171875 C23.28688581 5.15842669 20.38458799 5.19248745 16.12109375 5.26171875 C8.99208446 5.2268154 2.32576762 3.7245667 -4.56640625 2.01171875 C-2.56640625 0.01171875 -2.56640625 0.01171875 0 0 Z " fill="#D3D9E6" transform="translate(60.56640625,176.98828125)"/>
<path d="M0 0 C0.33 0 0.66 0 1 0 C1.10957031 0.56847656 1.21914062 1.13695312 1.33203125 1.72265625 C2.13819834 5.64862444 2.9833113 8.9641502 4.6875 12.625 C6.65378124 17.68115176 5.42212835 21.92097018 4 27 C3.34 27 2.68 27 2 27 C2.03480469 26.16597656 2.06960938 25.33195312 2.10546875 24.47265625 C2.26075235 18.01729528 1.97102073 12.8911297 -0.3984375 6.87890625 C-1.20951596 4.34560273 -0.87944801 2.47844439 0 0 Z " fill="#D0D5E6" transform="translate(12,33)"/>
<path d="M0 0 C0.33 0 0.66 0 1 0 C1.04977421 4.69562266 1.08589521 9.39108863 1.10986328 14.08691406 C1.11986475 15.68134235 1.13347031 17.27575257 1.15087891 18.87011719 C1.17538695 21.17387376 1.18654176 23.47738595 1.1953125 25.78125 C1.20563507 26.48366821 1.21595764 27.18608643 1.22659302 27.90979004 C1.22770188 32.9020395 0.36154543 37.19454554 -1 42 C-1.33 42 -1.66 42 -2 42 C-2.02777514 40.66679321 -2.04673341 39.33340287 -2.0625 38 C-2.07990234 36.88625 -2.07990234 36.88625 -2.09765625 35.75 C-2 33 -2 33 -1.53125 29.5 C-0.76221218 23.691615 -0.64188908 17.85021869 -0.4375 12 C-0.39431641 10.84371094 -0.35113281 9.68742187 -0.30664062 8.49609375 C-0.20132083 5.66416146 -0.09918913 2.83215253 0 0 Z " fill="#516497" transform="translate(135,63)"/>
<path d="M0 0 C4.52065428 -0.049377 9.04115217 -0.08570823 13.56201172 -0.10986328 C15.10045098 -0.11993118 16.63887107 -0.13358646 18.17724609 -0.15087891 C20.38644133 -0.17509317 22.59538395 -0.18647491 24.8046875 -0.1953125 C25.49432587 -0.20563507 26.18396423 -0.21595764 26.89450073 -0.22659302 C28.59800906 -0.22699478 30.30085943 -0.12191026 32 0 C34.68092691 2.68092691 34.38670257 4.39167363 34.625 8.125 C34.69976562 9.22070312 34.77453125 10.31640625 34.8515625 11.4453125 C34.90054688 12.28835937 34.94953125 13.13140625 35 14 C32.54176828 10.31265242 31.98757384 7.30300029 31 3 C27.55301173 1.96957053 24.29074718 1.80205297 20.703125 1.68359375 C19.49785156 1.64169922 18.29257813 1.59980469 17.05078125 1.55664062 C15.79652344 1.51732422 14.54226562 1.47800781 13.25 1.4375 C11.34541016 1.37272461 11.34541016 1.37272461 9.40234375 1.30664062 C6.26833635 1.20060278 3.13425067 1.09853942 0 1 C0 0.67 0 0.34 0 0 Z " fill="#BFBFCE" transform="translate(114,30)"/>
<path d="M0 0 C5.875 0.875 5.875 0.875 7 2 C9.02427982 1.85434697 11.04495202 1.65755403 13.0625 1.4375 C18.62710081 0.9472268 22.72534718 1.24178239 28 3 C28 3.33 28 3.66 28 4 C26.14375 3.9690625 26.14375 3.9690625 24.25 3.9375 C20.38961254 3.9070553 16.70340495 4.2726548 12.875 4.75 C7.21271992 5.29305755 4.51342959 4.3850722 0 1 C0 0.67 0 0.34 0 0 Z " fill="#677CAE" transform="translate(21,173)"/>
<path d="M0 0 C2.953125 2.640625 2.953125 2.640625 3.375 5.875 C3 9 3 9 1.5 11.375 C-0.61685001 15.07948753 -0.21486726 17.77427731 0 22 C-2 20 -2 20 -2.265625 17.96875 C-2.22637221 11.76680887 -1.43724047 6.03127699 0 0 Z " fill="#DADEEA" transform="translate(8,85)"/>
<path d="M0 0 C3 1 3 1 5 4 C5.67676299 8.25393879 4.93409718 10.46864304 2.5 13.875 C1.68006717 14.92724714 0.85100278 15.97271807 0 17 C-1.2818632 14.4362736 -1.27122178 12.84782869 -1 10 C-0.195625 9.0409375 -0.195625 9.0409375 0.625 8.0625 C1.07875 7.381875 1.5325 6.70125 2 6 C1.28776153 2.77825456 1.28776153 2.77825456 0 0 Z " fill="#D8DCE4" transform="translate(161,99)"/>
<path d="M0 0 C0.33 1.32 0.66 2.64 1 4 C-4.27913453 6.08386889 -9.39538469 6.57910004 -15 7 C-15.33 9.97 -15.66 12.94 -16 16 C-16.33 16 -16.66 16 -17 16 C-17.125 8.375 -17.125 8.375 -16 5 C-15.02160156 4.96132813 -15.02160156 4.96132813 -14.0234375 4.921875 C-8.11925307 4.53871259 -4.60333137 3.75534928 0 0 Z " fill="#4C6194" transform="translate(97,56)"/>
<path d="M0 0 C3.93239315 3.93239315 4.90780214 10.21750806 5.1875 15.625 C5.125625 16.40875 5.06375 17.1925 5 18 C2.09371786 16.54685893 1.65505919 14.27684759 0.59765625 11.34375 C-0.36727422 7.55970895 -0.24212919 3.87406701 0 0 Z " fill="#D2DAEA" transform="translate(9,13)"/>
<path d="M0 0 C0 0.33 0 0.66 0 1 C-22.80127986 3.38776806 -22.80127986 3.38776806 -32 3 C-32 2.67 -32 2.34 -32 2 C-25.2026623 0.28148573 -18.8881197 -0.16677922 -11.8828125 0.02734375 C-0.32898172 -0.08224543 -0.32898172 -0.08224543 0 0 Z " fill="#C8D3E5" transform="translate(44,6)"/>
<path d="M0 0 C0.33 0 0.66 0 1 0 C1.5294717 7.01550003 -0.05605056 12.61786144 -3 19 C-3.66 19.66 -4.32 20.32 -5 21 C-5.99 20.67 -6.98 20.34 -8 20 C-7.236875 18.9275 -6.47375 17.855 -5.6875 16.75 C-2.39277631 11.54583418 -1.22489069 5.97507654 0 0 Z " fill="#C2BFCB" transform="translate(118,109)"/>
<path d="M0 0 C3.22539721 2.93217928 4.88644567 5.37390197 5.1953125 9.796875 C5.17210937 10.77140625 5.14890625 11.7459375 5.125 12.75 C5.10695312 13.73484375 5.08890625 14.7196875 5.0703125 15.734375 C5.03550781 16.85585937 5.03550781 16.85585937 5 18 C3.35 17.67 1.7 17.34 0 17 C0.33 16.484375 0.66 15.96875 1 15.4375 C3.18914012 10.10147096 2.03097258 5.20436725 0 0 Z " fill="#D3D7E5" transform="translate(161,74)"/>
<path d="M0 0 C3.07388417 4.00941413 4.1276781 6.04110792 4.0625 11.125 C4.05347656 12.03507813 4.04445312 12.94515625 4.03515625 13.8828125 C4.02355469 14.58148438 4.01195312 15.28015625 4 16 C1.45718331 13.45718331 1.16836595 11.47356329 0.3125 8 C0.04050781 6.9275 -0.23148438 5.855 -0.51171875 4.75 C-1 2 -1 2 0 0 Z " fill="#EAECF1" transform="translate(159,157)"/>
<path d="M0 0 C0.33 0 0.66 0 1 0 C2.55940688 6.63347695 3.56987305 11.57531738 1 18 C0.34 18 -0.32 18 -1 18 C-1.02717692 15.93757383 -1.0464758 13.87504297 -1.0625 11.8125 C-1.07410156 10.66394531 -1.08570313 9.51539063 -1.09765625 8.33203125 C-1.01192832 5.40699414 -0.67849023 2.83683709 0 0 Z " fill="#DADFE7" transform="translate(158,141)"/>
<path d="M0 0 C-2.58548628 2.58548628 -4.29538385 2.97641847 -7.91796875 3.09765625 C-9.53638672 3.08025391 -9.53638672 3.08025391 -11.1875 3.0625 C-12.81751953 3.04896484 -12.81751953 3.04896484 -14.48046875 3.03515625 C-15.31191406 3.02355469 -16.14335938 3.01195312 -17 3 C-14.66725808 0.66725808 -13.93229685 0.66725175 -10.75 0.375 C-9.95207031 0.30152344 -9.15414062 0.22804687 -8.33203125 0.15234375 C-5.5487177 -0.02948075 -2.78812854 -0.07149048 0 0 Z " fill="#BAC4D7" transform="translate(87,179)"/>
<path d="M0 0 C2.1519437 3.22791555 2.20086443 4.28400809 2 8 C-3.39460953 10.27141454 -8.26157749 10.20413361 -14 10 C-14 9.67 -14 9.34 -14 9 C-9.71 8.34 -5.42 7.68 -1 7 C-0.67 4.69 -0.34 2.38 0 0 Z " fill="#506396" transform="translate(150,53)"/>
<path d="M0 0 C1.67542976 0.28604898 3.34385343 0.61781233 5 1 C3.68 1.33 2.36 1.66 1 2 C1.02320312 2.62648437 1.04640625 3.25296875 1.0703125 3.8984375 C1.08835937 4.71570312 1.10640625 5.53296875 1.125 6.375 C1.14820312 7.18710937 1.17140625 7.99921875 1.1953125 8.8359375 C1 11 1 11 -1 13 C-1.02686553 11.02090602 -1.04633375 9.04171029 -1.0625 7.0625 C-1.07410156 5.96035156 -1.08570312 4.85820313 -1.09765625 3.72265625 C-1 1 -1 1 0 0 Z " fill="#B3B3C6" transform="translate(108,31)"/>
<path d="M0 0 C0.66 0 1.32 0 2 0 C1 7.42857143 1 7.42857143 0 11 C-0.66 11 -1.32 11 -2 11 C-2.28571429 3.57142857 -2.28571429 3.57142857 0 0 Z " fill="#E3E7ED" transform="translate(16,49)"/>
<path d="M0 0 C3.63 0.33 7.26 0.66 11 1 C11 1.33 11 1.66 11 2 C9.02 2.33 7.04 2.66 5 3 C7.31 3.33 9.62 3.66 12 4 C12 4.33 12 4.66 12 5 C6.71502591 5.44041451 6.71502591 5.44041451 4 5 C1.5 2.5 1.5 2.5 0 0 Z " fill="#D2D5DF" transform="translate(96,178)"/>
<path d="M0 0 C1.485 0.99 1.485 0.99 3 2 C2.25 8.625 2.25 8.625 0 12 C0 8.04 0 4.08 0 0 Z " fill="#576287" transform="translate(0,73)"/>
<path d="M0 0 C0.66 0.66 1.32 1.32 2 2 C1.67 2.66 1.34 3.32 1 4 C-3.29 3.34 -7.58 2.68 -12 2 C-12 1.67 -12 1.34 -12 1 C-10.04310341 0.77857745 -8.08438048 0.5732432 -6.125 0.375 C-4.48917969 0.20097656 -4.48917969 0.20097656 -2.8203125 0.0234375 C-1.88960937 0.01570312 -0.95890625 0.00796875 0 0 Z " fill="#D7DFEA" transform="translate(128,7)"/>
<path d="M0 0 C1.65 0 3.3 0 5 0 C5 0.99 5 1.98 5 3 C2 5 2 5 -1 5 C-0.67 3.35 -0.34 1.7 0 0 Z " fill="#F6F3EF" transform="translate(130,6)"/>
<path d="M0 0 C1 2 1 2 0.25 5 C-1 8 -1 8 -4 10 C-3.5205537 5.78087253 -2.83374881 3.20336822 0 0 Z " fill="#D2DAE8" transform="translate(10,72)"/>
<path d="M0 0 C4.19469571 0.59924224 8.00999834 1.57499941 12 3 C11.67 3.66 11.34 4.32 11 5 C6.87248551 4.39301257 3.6678852 2.96189209 0 1 C0 0.67 0 0.34 0 0 Z " fill="#5F73A4" transform="translate(21,173)"/>
<path d="M0 0 C2.4294516 3.6441774 2.16179575 5.71241272 2 10 C1.01 9.34 0.02 8.68 -1 8 C-0.67 5.36 -0.34 2.72 0 0 Z " fill="#ECEBF0" transform="translate(156,136)"/>
<path d="M0 0 C0.33 0 0.66 0 1 0 C1.33820166 1.5823006 1.67035939 3.16589375 2 4.75 C2.185625 5.63171875 2.37125 6.5134375 2.5625 7.421875 C3 10 3 10 3 14 C2.34 14 1.68 14 1 14 C-0.04976964 10.85069107 -0.10131595 8.61185544 -0.0625 5.3125 C-0.05347656 4.31863281 -0.04445312 3.32476562 -0.03515625 2.30078125 C-0.02355469 1.54152344 -0.01195312 0.78226563 0 0 Z " fill="#6C7DAC" transform="translate(152,129)"/>
<path d="M0 0 C0.99 0.66 1.98 1.32 3 2 C1.02579865 4.52259061 0.03254358 4.9929808 -3.1875 5.6875 C-4.5796875 5.8421875 -4.5796875 5.8421875 -6 6 C-4 4 -2 2 0 0 Z " fill="#4C6399" transform="translate(115,150)"/>
<path d="M0 0 C6.0546875 -0.1953125 6.0546875 -0.1953125 8 0 C8.66 0.66 9.32 1.32 10 2 C7.36 2.33 4.72 2.66 2 3 C1.34 2.01 0.68 1.02 0 0 Z " fill="#6172A0" transform="translate(128,179)"/>
<path d="M0 0 C-0.99 0 -1.98 0 -3 0 C-3 0.99 -3 1.98 -3 3 C-5.31 3 -7.62 3 -10 3 C-4.375 -1.3125 -4.375 -1.3125 0 0 Z " fill="#546695" transform="translate(97,177)"/>
<path d="M0 0 C1.32 0.33 2.64 0.66 4 1 C4 1.66 4 2.32 4 3 C0.04 3 -3.92 3 -8 3 C-8 2.67 -8 2.34 -8 2 C-5.36 2 -2.72 2 0 2 C0 1.34 0 0.68 0 0 Z " fill="#8B94B1" transform="translate(99,2)"/>
<path d="M0 0 C0.33 0 0.66 0 1 0 C1.12375 1.093125 1.2475 2.18625 1.375 3.3125 C1.75464801 7.07381802 1.75464801 7.07381802 4 10 C2.68 10 1.36 10 0 10 C-1.2380014 6.42355152 -0.74926071 3.66305234 0 0 Z " fill="#7386AF" transform="translate(14,164)"/>
<path d="M0 0 C1.2077558 3.62326739 0.54311128 4.64146369 -1 8 C-1.99 8 -2.98 8 -4 8 C-2.87548273 5.0280615 -1.77706209 2.66559313 0 0 Z " fill="#465D93" transform="translate(124,139)"/>
</svg>
