<?xml version="1.0" encoding="UTF-8"?>
<svg version="1.1" xmlns="http://www.w3.org/2000/svg" width="179" height="204">
<path d="M0 0 C59.07 0 118.14 0 179 0 C179 67.32 179 134.64 179 204 C119.93 204 60.86 204 0 204 C0 136.68 0 69.36 0 0 Z " fill="#CE3F28" transform="translate(0,0)"/>
<path d="M0 0 C59.07 0 118.14 0 179 0 C179 67.32 179 134.64 179 204 C119.93 204 60.86 204 0 204 C0 136.68 0 69.36 0 0 Z M9 9 C8.28416877 35.60375766 7.89981036 62.19917018 7.90234375 88.8125 C7.90240811 89.48859062 7.90247247 90.16468124 7.90253878 90.86125946 C7.90416815 99.13573701 7.91442962 107.41019432 7.92797339 115.68465996 C7.93945844 122.83426323 7.94472464 129.98386786 7.94967639 137.13347816 C7.95993234 151.75566152 7.97733989 166.37783042 8 181 C22.69445597 181.02371082 37.38891043 181.04116143 52.08338165 181.05181217 C58.9113887 181.05689623 65.73938352 181.06381184 72.56738281 181.07543945 C111.17728997 181.1516507 111.17728997 181.1516507 149.78125 180.55859375 C150.62982071 180.53906206 151.47839142 180.51953037 152.35267639 180.49940681 C154.67349309 180.4439558 156.99393882 180.38101928 159.31445312 180.31420898 C161.23312195 180.25981911 161.23312195 180.25981911 163.19055176 180.20433044 C165.90311015 180.31487378 165.90311015 180.31487378 167 179 C167.15404913 176.79848849 167.23867903 174.59210709 167.29711914 172.38598633 C167.32659889 171.34614342 167.32659889 171.34614342 167.35667419 170.28529358 C167.42103742 167.96764296 167.47824485 165.649876 167.53515625 163.33203125 C167.57825646 161.70138233 167.62167311 160.07074175 167.66539001 158.44010925 C167.75668195 154.99408075 167.84452766 151.54798597 167.92993164 148.10180664 C168.03723729 143.77984536 168.152138 139.45813005 168.26946449 135.13643074 C168.71063495 118.80572084 169.08999663 102.47353615 169.18359375 86.13671875 C169.19681168 84.94311234 169.2100296 83.74950592 169.22364807 82.51972961 C169.23288705 75.76481936 168.63766072 69.55669287 167 63 C166.75378906 62.01386719 166.50757813 61.02773438 166.25390625 60.01171875 C164.93698106 55.58476683 163.52933921 51.89939795 161 48 C160.67 46.845 160.34 45.69 160 44.5 C158.50293535 40.84493259 156.26441521 39.81507754 152.75 38.1875 C145.60732418 35.3360391 139.11706895 33.77058153 131.453125 33.24609375 C129 33 129 33 126 32 C120.66856481 31.65507762 120.66856481 31.65507762 115.609375 32.97265625 C110.83051669 34.85415286 106.01537415 35.01916694 101 34 C98.86233515 32.14847927 97.42807985 30.19939024 95.7890625 27.90234375 C93.03098349 24.96962655 90.11961508 24.81723062 86.234375 24.44921875 C83.5396484 23.90744679 82.87077452 22.93511333 81 21 C78.90597981 20.24954513 78.90597981 20.24954513 76.625 19.875 C75.87476562 19.72804688 75.12453125 19.58109375 74.3515625 19.4296875 C73.57554688 19.28789062 72.79953125 19.14609375 72 19 C71.23558594 18.835 70.47117188 18.67 69.68359375 18.5 C66.9586648 17.99229854 64.23619532 17.65957971 61.48217773 17.35327148 C55.83703387 16.72303751 50.42423041 15.96573333 44.9375 14.4375 C39.10865997 12.83914141 33.4382952 12.60494885 27.421875 12.31640625 C24.42194091 12.03901508 22.25174958 11.58406232 19.5 10.4375 C15.69179614 8.87341627 13.06861683 8.8885974 9 9 Z " fill="#6E7CA4" transform="translate(0,0)"/>
<path d="M0 0 C8.25 0 16.5 0 25 0 C25.43153728 7.80620112 25.86016619 15.61245817 26.28173828 23.41918945 C26.42508858 26.06775686 26.57106653 28.71614113 26.71826172 31.36450195 C27.5075391 45.58491781 28.28037795 59.75394426 28 74 C28.66 74 29.32 74 30 74 C30.17414429 72.92286743 30.17414429 72.92286743 30.35180664 71.82397461 C31.02912108 68.87312861 32.03526728 66.52948593 33.37109375 63.81640625 C33.85868164 62.81601318 34.34626953 61.81562012 34.84863281 60.78491211 C35.37295898 59.72151611 35.89728516 58.65812012 36.4375 57.5625 C42.16860613 45.79641791 47.62596613 33.93351638 53 22 C60.59 22 68.18 22 76 22 C78.28565098 38.64308968 80.50354812 55.26336711 82 72 C84.29780364 65.30300921 86.34680415 58.55113004 88.3125 51.75 C88.61591309 50.70658447 88.91932617 49.66316895 89.23193359 48.58813477 C90.71032654 43.49473561 92.17432332 38.3976519 93.61328125 33.29296875 C101.06639658 6.86720684 101.06639658 6.86720684 104 1 C112.91 1 121.82 1 131 1 C130.26684948 6.13205362 129.60465803 9.57705195 127.8203125 14.23828125 C127.38589844 15.38876953 126.95148438 16.53925781 126.50390625 17.72460938 C126.04886719 18.90861328 125.59382813 20.09261719 125.125 21.3125 C122.42991201 28.3764266 119.82607967 35.38488527 117.73217773 42.65087891 C116.71738339 45.90674792 115.41544489 49.01952428 114.12060547 52.17236328 C112.01596564 57.48302527 110.18898936 62.8963249 108.3109436 68.29031372 C103.61411467 81.7648983 98.77397758 95.18318966 93.8125 108.5625 C93.52674103 109.336008 93.24098206 110.10951599 92.94656372 110.90646362 C92.14070313 113.08596411 91.33090033 115.26395133 90.51953125 117.44140625 C90.27841614 118.09392365 90.03730103 118.74644104 89.78887939 119.41873169 C88.11534485 123.88465515 88.11534485 123.88465515 87 125 C85.14630389 125.08737645 83.28932459 125.10698153 81.43359375 125.09765625 C80.30888672 125.09443359 79.18417969 125.09121094 78.02539062 125.08789062 C76.84138672 125.07951172 75.65738281 125.07113281 74.4375 125.0625 C73.24962891 125.05798828 72.06175781 125.05347656 70.83789062 125.04882812 C67.89187774 125.03699675 64.94596319 125.02051287 62 125 C61.2657035 116.23258991 60.74239783 107.48007728 60.4375 98.6875 C60.3950415 97.49286133 60.35258301 96.29822266 60.30883789 95.06738281 C59.92508968 83.37734689 59.89448009 71.69485285 60 60 C59.34 60 58.68 60 58 60 C57.83359009 61.31943604 57.83359009 61.31943604 57.66381836 62.66552734 C56.99423881 66.02893943 55.99428805 68.34457942 54.37890625 71.3515625 C50.85031536 78.17708508 47.82375898 85.15990578 44.84057617 92.23535156 C43.94055653 94.36775821 43.03222313 96.49648387 42.12304688 98.625 C38.42907083 107.32198061 35.09515868 116.07143262 32 125 C23.42 125 14.84 125 6 125 C1.96214927 58.64876722 1.96214927 58.64876722 0.75 30.4375 C0.70925354 29.50476257 0.66850708 28.57202515 0.62652588 27.61102295 C0.51318814 24.98950993 0.4039204 22.36787059 0.296875 19.74609375 C0.26582672 19.01250137 0.23477844 18.278909 0.20278931 17.52308655 C-0.0243473 11.66897371 0 5.87296995 0 0 Z " fill="#331E34" transform="translate(22,46)"/>
<path d="M0 0 C2.4375 0.75 2.4375 0.75 5 2 C5.625 4 5.625 4 6 6 C6.99 6.66 7.98 7.32 9 8 C9.70381157 9.98723268 10.3711811 11.98777953 11 14 C11.99 14.99 11.99 14.99 13 16 C13.18840421 18.92282149 13.25539477 21.74901496 13.23046875 24.671875 C13.23001053 25.54587952 13.22955231 26.41988403 13.2290802 27.32037354 C13.22605269 29.17990466 13.2181516 31.03943314 13.20581055 32.89892578 C13.18784016 35.69703546 13.18529903 38.49480805 13.18554688 41.29296875 C13.18061991 43.10677361 13.17478653 44.92057627 13.16796875 46.734375 C13.16685593 47.55266785 13.1657431 48.37096069 13.16459656 49.21405029 C13.12678517 54.03445061 12.8897218 58.80582828 12.52294922 63.61279297 C11.92300168 71.55802781 11.67828737 79.49870654 11.46484375 87.4609375 C11.42169485 88.98793265 11.37827847 90.51492026 11.33460999 92.04190063 C11.22182661 96.01022399 11.11261254 99.97863736 11.00421143 103.94708252 C10.89238673 108.0168672 10.77709014 112.08655348 10.66210938 116.15625 C10.43806034 124.10407577 10.21779223 132.05200032 10 140 C-20.08180464 140.69790684 -50.1644451 141.16506318 -80.25188828 141.52910233 C-82.9715303 141.56215401 -85.69116423 141.59581339 -88.41079712 141.62960815 C-108.60824314 141.87934571 -128.80070891 142.07256816 -149 142 C-149 138.37 -149 134.74 -149 131 C-147.72326416 130.98969254 -146.44652832 130.97938507 -145.13110352 130.96876526 C-132.89969855 130.86957175 -120.66832837 130.76674642 -108.4369812 130.66066074 C-102.15380109 130.60627383 -95.87061631 130.55302198 -89.58740234 130.50268555 C-59.71586436 130.26248453 -29.85981548 129.89418095 0 129 C0.26607801 119.64363643 0.52708831 110.28714717 0.78230286 100.93048096 C0.90106234 96.58184065 1.02131894 92.23325454 1.14550781 87.88476562 C1.28931742 82.83996958 1.42819968 77.79505815 1.5625 72.75 C1.58464569 71.9212738 1.60679138 71.09254761 1.62960815 70.2387085 C1.97567652 56.99647087 2.08673491 43.76480374 1.96313477 30.51855469 C1.95467529 29.28782227 1.94621582 28.05708984 1.9375 26.7890625 C1.92589844 25.71350098 1.91429687 24.63793945 1.90234375 23.52978516 C2 21 2 21 3 19 C3.14867166 16.87856978 3.2213289 14.75144008 3.25 12.625 C3.27578125 11.48289062 3.3015625 10.34078125 3.328125 9.1640625 C2.97138092 5.72403035 2.21472906 4.55276665 0 2 C0 1.34 0 0.68 0 0 Z " fill="#57607E" transform="translate(166,50)"/>
<path d="M0 0 C1.72592158 0.99080683 3.45096956 1.98633758 5.125 3.0625 C7.30691389 4.15345695 8.94874989 4.30270833 11.375 4.4375 C17.43216239 4.85308576 22.72913746 7.72913746 27 12 C30.34452463 11.85303687 33.61297216 11.41534541 36.93359375 10.99609375 C37.94550781 10.99738281 38.95742187 10.99867187 40 11 C40.4753418 11.48670166 40.95068359 11.97340332 41.44042969 12.47485352 C43.39960049 14.39078026 44.32232677 14.37893968 47.01953125 14.40625 C48.18258789 14.43912109 48.18258789 14.43912109 49.36914062 14.47265625 C50.57860352 14.48619141 50.57860352 14.48619141 51.8125 14.5 C57.78323042 14.56779418 61.65288762 15.06263193 67 18 C68.19625 17.938125 69.3925 17.87625 70.625 17.8125 C71.73875 17.874375 72.8525 17.93625 74 18 C75.38442 19.96498322 76.71203834 21.97048465 78 24 C79.91488433 25.16095602 79.91488433 25.16095602 82.0625 26.0625 C85.80245486 27.71777632 87.14275772 29.28551543 89 33 C90.485 33.99 90.485 33.99 92 35 C92.70491267 37.32206525 93.37212429 39.65593068 94 42 C94.66 42.66 95.32 43.32 96 44 C96.14507695 46.74485593 96.18652423 49.38480543 96.125 52.125 C96.11597656 52.87910156 96.10695313 53.63320312 96.09765625 54.41015625 C96.0740687 56.27357254 96.03819719 58.13682593 96 60 C94 59 94 59 93.36157227 57.31347656 C93.18166748 56.59643555 93.0017627 55.87939453 92.81640625 55.140625 C92.61080078 54.35429688 92.40519531 53.56796875 92.19335938 52.7578125 C91.98517578 51.93023437 91.77699219 51.10265625 91.5625 50.25 C90.23908042 44.98972028 88.9871754 40.59565446 86 36 C85.835 35.01 85.67 34.02 85.5 33 C82.58556905 27.17113809 75.33839445 25.83514088 69.5 23.75 C65.48492316 22.88962639 61.54565797 22.52616933 57.453125 22.24609375 C55 22 55 22 52 21 C46.66856481 20.65507762 46.66856481 20.65507762 41.609375 21.97265625 C36.83051669 23.85415286 32.01537415 24.01916694 27 23 C24.86604217 21.15169006 23.43452673 19.2086033 21.80078125 16.9140625 C18.62445447 13.53792341 14.44930748 13.35809316 10 13 C9.505 11.515 9.505 11.515 9 10 C8.26394531 9.86722656 7.52789062 9.73445313 6.76953125 9.59765625 C5.79371094 9.42105469 4.81789063 9.24445312 3.8125 9.0625 C2.36810547 8.80146484 2.36810547 8.80146484 0.89453125 8.53515625 C-0.85993332 8.21078156 -2.61134195 7.86820157 -4.35546875 7.4921875 C-8.633105 6.69605431 -12.9666823 6.28610949 -17.29296875 5.83789062 C-20.89768916 5.42351622 -22.92681203 5.04879198 -26 3 C-22.42325547 0.75352252 -19.53644945 0.82007761 -15.375 0.9375 C-9.91927573 1.07849063 -5.45728252 -0.44731824 0 0 Z " fill="#F4EDEA" transform="translate(74,12)"/>
<path d="M0 0 C5.15171623 -0.09038099 9.91913204 0.15318867 15 1 C15 1.99 15 2.98 15 4 C15.75925781 4.12117187 16.51851562 4.24234375 17.30078125 4.3671875 C18.29464844 4.53476563 19.28851562 4.70234375 20.3125 4.875 C21.29863281 5.03742187 22.28476562 5.19984375 23.30078125 5.3671875 C26 6 26 6 29 8 C16.80406973 8.54881686 16.80406973 8.54881686 11.01171875 5.75390625 C8.08460735 4.65694994 5.0881464 4.41447881 2 4 C2.00261841 5.11366943 2.00523682 6.22733887 2.00793457 7.37475586 C2.08062402 41.81345463 1.85415506 76.2476661 1.55461788 110.68465996 C1.49251406 117.83425234 1.43281736 124.98386434 1.37324238 132.13347816 C1.2513514 146.75567387 1.12669225 161.37784508 1 176 C0.67 176 0.34 176 0 176 C-0.02344061 155.95373074 -0.04103372 135.90746428 -0.05181217 115.86118412 C-0.05695153 106.55173851 -0.06394886 97.24230145 -0.07543945 87.93286133 C-0.08545882 79.81145596 -0.09187056 71.69005679 -0.09408849 63.56864542 C-0.09538337 59.27508077 -0.09839073 54.98153385 -0.10573006 50.68797493 C-0.11260517 46.63246205 -0.11459404 42.57697391 -0.11310768 38.52145576 C-0.11337892 37.04665491 -0.11531498 35.57185309 -0.11920547 34.09705734 C-0.14067462 25.52555829 0.08120781 17.02838368 0.73793882 8.48081404 C0.96469209 5.28910339 1.02399656 3.07198968 0 0 Z " fill="#84748F" transform="translate(7,5)"/>
<path d="M0 0 C2.9375 0.375 2.9375 0.375 6 1 C6.33 1.66 6.66 2.32 7 3 C8.53306016 3.26432072 10.0779452 3.46141414 11.625 3.625 C16.11942817 4.38676749 17.74558358 5.42819671 20.375 9.125 C22.52039326 11.94465971 23.39798214 12.87766482 26.921875 13.59375 C32.19878492 13.64523205 36.12920912 12.98174335 41 11 C44.828494 10.58629827 48.32502349 10.77500783 52 12 C54.35213339 12.28795815 56.70672067 12.55607234 59.0625 12.8125 C65.51999291 13.58048571 71.14518174 15.16213515 77 18 C73.27514487 19.24161838 72.5360364 18.55426535 69 17.0625 C63.25995758 15.03908235 58.08479158 14.58038228 52.0625 14.5625 C51.24587891 14.5529126 50.42925781 14.5433252 49.58789062 14.53344727 C44.6949824 14.60162879 42.19776397 15.39282205 38 18 C31.83030358 18.45701455 25.8981157 18.37706433 20.8125 14.6875 C19.73385436 13.08812889 18.68132338 11.46982074 17.6875 9.81640625 C16.1549881 7.74245017 16.1549881 7.74245017 13.73046875 7.890625 C12.89128906 8.00921875 12.05210938 8.1278125 11.1875 8.25 C6.55640747 8.49409858 6.55640747 8.49409858 4.01171875 6.234375 C2.52968167 4.21116448 1.20658659 2.19736094 0 0 Z " fill="#D57458" transform="translate(77,21)"/>
<path d="M0 0 C6.02087887 0.43006278 10.98027758 1.4908422 16 5 C17.8125 7.625 17.8125 7.625 19 10 C19.99 10.66 20.98 11.32 22 12 C22.70491267 14.32206525 23.37212429 16.65593068 24 19 C24.66 19.66 25.32 20.32 26 21 C26.14507695 23.74485593 26.18652423 26.38480543 26.125 29.125 C26.11597656 29.87910156 26.10695312 30.63320312 26.09765625 31.41015625 C26.0740687 33.27357254 26.03819719 35.13682593 26 37 C24 36 24 36 23.36157227 34.31347656 C23.18166748 33.59643555 23.0017627 32.87939453 22.81640625 32.140625 C22.61080078 31.35429688 22.40519531 30.56796875 22.19335938 29.7578125 C21.98517578 28.93023437 21.77699219 28.10265625 21.5625 27.25 C20.23908042 21.98972028 18.9871754 17.59565446 16 13 C15.835 12.01 15.67 11.02 15.5 10 C13.3180839 5.63616779 10.03414713 4.83787502 5.62890625 3.078125 C3 2 3 2 0 0 Z " fill="#EEE6E4" transform="translate(144,35)"/>
<path d="M0 0 C5.15171623 -0.09038099 9.91913204 0.15318867 15 1 C15 1.99 15 2.98 15 4 C15.75925781 4.12117187 16.51851562 4.24234375 17.30078125 4.3671875 C18.29464844 4.53476563 19.28851562 4.70234375 20.3125 4.875 C21.29863281 5.03742187 22.28476562 5.19984375 23.30078125 5.3671875 C26 6 26 6 29 8 C21.56621057 8.33452052 15.80122845 8.13902852 9 5 C9 4.34 9 3.68 9 3 C7.88625 3.020625 6.7725 3.04125 5.625 3.0625 C2 3 2 3 0 2 C0 1.34 0 0.68 0 0 Z " fill="#717EA0" transform="translate(7,5)"/>
<path d="M0 0 C0.66 0.66 1.32 1.32 2 2 C0.62410383 1.71259058 -0.75067322 1.41982258 -2.125 1.125 C-2.89070313 0.96257813 -3.65640625 0.80015625 -4.4453125 0.6328125 C-7 0 -7 0 -9.70703125 -1.05078125 C-14.04784375 -2.30204749 -18.06888542 -2.3298767 -22.5625 -2.3125 C-23.39974609 -2.32861328 -24.23699219 -2.34472656 -25.09960938 -2.36132812 C-30.15556727 -2.36533126 -32.65834429 -1.67950369 -37 1 C-40.55078125 1.07421875 -40.55078125 1.07421875 -44.3125 0.6875 C-45.56675781 0.56761719 -46.82101563 0.44773437 -48.11328125 0.32421875 C-49.54220703 0.16373047 -49.54220703 0.16373047 -51 0 C-51 -0.33 -51 -0.66 -51 -1 C-46.71 -1 -42.42 -1 -38 -1 C-38 -1.66 -38 -2.32 -38 -3 C-26.22991649 -6.02238053 -10.89375829 -5.60016843 0 0 Z " fill="#D96B52" transform="translate(152,38)"/>
<path d="M0 0 C1.15113281 0.144375 2.30226562 0.28875 3.48828125 0.4375 C6.3600826 0.79671233 9.23240997 1.15099503 12.10546875 1.5 C13.46614583 1.66666667 14.82682292 1.83333333 16.1875 2 C16.87263672 2.0825 17.55777344 2.165 18.26367188 2.25 C28.5255998 3.51422211 28.5255998 3.51422211 33 6 C28.19862417 7.1639699 23.28923069 7.95259106 18.625 6.01171875 C15.77754097 4.91426058 13.53683777 4.73589576 10.5 4.625 C5.84149748 4.29180076 3.29731312 3.52471402 0 0 Z " fill="#D97459" transform="translate(43,15)"/>
<path d="M0 0 C0.33 0 0.66 0 1 0 C1 9.9 1 19.8 1 30 C-1.91766622 26.10977838 -2.70218678 24.66574038 -3 20 C-2.01 18.515 -2.01 18.515 -1 17 C-0.88306009 14.44158286 -0.85784284 11.98894295 -0.9375 9.4375 C-1.12029991 2.24059982 -1.12029991 2.24059982 0 0 Z " fill="#E4E4E6" transform="translate(178,73)"/>
<path d="M0 0 C0.91850995 3.24425121 1.00480583 4.7047722 -0.375 7.8125 C-1.57036633 10.70085123 -2.10768895 12.75382268 -2.5625 15.9375 C-2.706875 16.948125 -2.85125 17.95875 -3 19 C-3.66 19.33 -4.32 19.66 -5 20 C-5.56492764 22.2103915 -5.89203175 24.42211921 -6.2421875 26.67578125 C-7.19379874 29.59438275 -8.8006144 30.91088617 -11 33 C-9.02571072 25.26097538 -6.59882073 17.79475369 -3.8125 10.3125 C-3.44447266 9.31283203 -3.07644531 8.31316406 -2.69726562 7.28320312 C-1.80226758 4.8539227 -0.90314552 2.42626047 0 0 Z " fill="#B83D30" transform="translate(150,57)"/>
<path d="M0 0 C1.32 0 2.64 0 4 0 C2.76123355 5.69305433 1.43723997 11.35370013 0 17 C-2 15 -2 15 -2.265625 12.5390625 C-2.26046875 11.57742187 -2.2553125 10.61578125 -2.25 9.625 C-2.25515625 8.66851562 -2.2603125 7.71203125 -2.265625 6.7265625 C-1.99896864 3.98941342 -1.39742087 2.34012543 0 0 Z " fill="#BB3E2E" transform="translate(105,103)"/>
<path d="M0 0 C1 2 1 2 0.59448242 3.75244141 C0.35060791 4.44515137 0.1067334 5.13786133 -0.14453125 5.8515625 C-0.54188477 7.00591797 -0.54188477 7.00591797 -0.94726562 8.18359375 C-1.23279297 8.98925781 -1.51832031 9.79492188 -1.8125 10.625 C-3.82606504 16.37668932 -5.60768998 22.0640051 -7 28 C-7.33 28 -7.66 28 -8 28 C-7.3146654 19.72187945 -7.3146654 19.72187945 -5.9375 16.5625 C-4.44198871 12.47476915 -4.849429 8.30800355 -5 4 C-4.67 4.66 -4.34 5.32 -4 6 C-3.34 6 -2.68 6 -2 6 C-2 4.35 -2 2.7 -2 1 C-1.34 0.67 -0.68 0.34 0 0 Z " fill="#B83D30" transform="translate(125,47)"/>
<path d="M0 0 C5.9035002 0.42167859 11.14145571 1.40741444 16 5 C17.2890625 6.94921875 17.2890625 6.94921875 18 9 C17.67 9.99 17.34 10.98 17 12 C17.66 12 18.32 12 19 12 C19 13.65 19 15.3 19 17 C16.97060653 14.60162589 16.03600488 13.21152866 15.5 10.0625 C13.32985261 5.63178242 10.08054033 4.85640759 5.62890625 3.078125 C3 2 3 2 0 0 Z " fill="#EDDCD5" transform="translate(144,35)"/>
<path d="M0 0 C2.14887267 0.09063272 4.29513161 0.24743227 6.4375 0.4375 C10.7132019 0.84273109 10.7132019 0.84273109 15 1 C15.66 1.66 16.32 2.32 17 3 C17 2.34 17 1.68 17 1 C17.66 1 18.32 1 19 1 C19 1.66 19 2.32 19 3 C19.66 3.33 20.32 3.66 21 4 C16.48997779 4.9620471 12.85736267 4.92122347 8.3125 4.1875 C6.63607422 3.93033203 6.63607422 3.93033203 4.92578125 3.66796875 C2 3 2 3 -1 1 C-0.67 0.67 -0.34 0.34 0 0 Z " fill="#F2E3D7" transform="translate(49,14)"/>
<path d="M0 0 C0.66 0 1.32 0 2 0 C2 5.61 2 11.22 2 17 C1.67 17 1.34 17 1 17 C0.67 14.36 0.34 11.72 0 9 C-0.99 9.33 -1.98 9.66 -3 10 C-3.73323796 12.01508358 -3.73323796 12.01508358 -4 14 C-4.33 13.34 -4.66 12.68 -5 12 C-4.26821134 9.92803369 -3.44100997 7.8891448 -2.5625 5.875 C-2.08941406 4.77929688 -1.61632812 3.68359375 -1.12890625 2.5546875 C-0.75636719 1.71164063 -0.38382812 0.86859375 0 0 Z " fill="#A13931" transform="translate(80,106)"/>
<path d="M0 0 C0.99 0.66 1.98 1.32 3 2 C-5.7419859 3.3213258 -14.137418 4.33165588 -23 4 C-23 3.67 -23 3.34 -23 3 C-22.08476563 2.86722656 -21.16953125 2.73445313 -20.2265625 2.59765625 C-19.03804688 2.42105469 -17.84953125 2.24445312 -16.625 2.0625 C-15.44164063 1.88847656 -14.25828125 1.71445312 -13.0390625 1.53515625 C-2.59768697 -0.30349214 -2.59768697 -0.30349214 0 0 Z " fill="#D2876D" transform="translate(126,32)"/>
<path d="M0 0 C2.20887757 0.11498267 4.41710787 0.24243505 6.625 0.375 C8.46964844 0.47941406 8.46964844 0.47941406 10.3515625 0.5859375 C13.83653855 0.9814487 16.73049601 1.76261849 20 3 C20 3.33 20 3.66 20 4 C12.56621057 4.33452052 6.80122845 4.13902852 0 1 C0 0.67 0 0.34 0 0 Z " fill="#D29F94" transform="translate(16,9)"/>
<path d="M0 0 C2.69849979 1.01264457 3.80479051 1.64986235 5.23046875 4.20703125 C5.54628906 5.06683594 5.86210937 5.92664062 6.1875 6.8125 C6.67283203 8.09060547 6.67283203 8.09060547 7.16796875 9.39453125 C7.9739427 11.91840272 8.53672376 14.39348622 9 17 C6.14901069 14.53247709 4.87822831 11.93068057 3.375 8.5 C2.94960937 7.5409375 2.52421875 6.581875 2.0859375 5.59375 C1 3 1 3 0 0 Z " fill="#D67E67" transform="translate(155,40)"/>
<path d="M0 0 C2.08304538 -0.05418326 4.16649768 -0.09287551 6.25 -0.125 C7.99023438 -0.15980469 7.99023438 -0.15980469 9.765625 -0.1953125 C12.82786046 -0.0103949 14.44202751 0.39176977 17 2 C15.10590022 2.22354607 13.2095652 2.42819951 11.3125 2.625 C9.72888672 2.79902344 9.72888672 2.79902344 8.11328125 2.9765625 C4.86283654 3.0010326 2.89769204 2.40852563 0 1 C0 0.67 0 0.34 0 0 Z " fill="#D87059" transform="translate(26,13)"/>
<path d="M0 0 C0.66 0 1.32 0 2 0 C-0.89066059 9.59453303 -0.89066059 9.59453303 -4 13 C-4.36972539 5.4822505 -4.36972539 5.4822505 -2.5625 3.125 C-1.7890625 2.568125 -1.7890625 2.568125 -1 2 C-0.67 1.34 -0.34 0.68 0 0 Z " fill="#411C29" transform="translate(69,127)"/>
<path d="M0 0 C1.44402331 4.87873589 -0.15868135 7.42252754 -2.5 11.8125 C-2.995 12.534375 -3.49 13.25625 -4 14 C-4.66 14 -5.32 14 -6 14 C-4.50829734 9.0276578 -2.39542583 4.58154261 0 0 Z " fill="#58222A" transform="translate(61,98)"/>
<path d="M0 0 C4.96916636 0.51405169 9.29026351 1.23384882 14 3 C14 3.33 14 3.66 14 4 C5.96498906 4.63019694 5.96498906 4.63019694 1.9375 2 C1.298125 1.34 0.65875 0.68 0 0 Z " fill="#D26B53" transform="translate(43,15)"/>
<path d="M0 0 C0.99 0.33 1.98 0.66 3 1 C3 6.28 3 11.56 3 17 C2.34 16.67 1.68 16.34 1 16 C0.68758545 13.28553021 0.48663408 10.66090639 0.375 7.9375 C0.33632812 7.17888672 0.29765625 6.42027344 0.2578125 5.63867188 C0.16326438 3.75952805 0.08053244 1.87979664 0 0 Z " fill="#C9C2C7" transform="translate(167,55)"/>
<path d="M0 0 C1.4540625 0.0309375 1.4540625 0.0309375 2.9375 0.0625 C2.9375 1.0525 2.9375 2.0425 2.9375 3.0625 C2.2775 3.0625 1.6175 3.0625 0.9375 3.0625 C0.6075 3.7225 0.2775 4.3825 -0.0625 5.0625 C-0.7225 4.7325 -1.3825 4.4025 -2.0625 4.0625 C-2.0625 3.4025 -2.0625 2.7425 -2.0625 2.0625 C-2.7225 1.7325 -3.3825 1.4025 -4.0625 1.0625 C-3.0625 0.0625 -3.0625 0.0625 0 0 Z " fill="#F8F2ED" transform="translate(70.0625,12.9375)"/>
<path d="M0 0 C1.65 0 3.3 0 5 0 C5 0.99 5 1.98 5 3 C5.99 3.33 6.98 3.66 8 4 C5.03 3.67 2.06 3.34 -1 3 C-0.67 2.01 -0.34 1.02 0 0 Z " fill="#7E819E" transform="translate(17,6)"/>
<path d="M0 0 C1.15957207 3.47871621 0.77456651 4.34219645 -0.4375 7.6875 C-0.72496094 8.49574219 -1.01242188 9.30398437 -1.30859375 10.13671875 C-1.65083984 11.05904297 -1.65083984 11.05904297 -2 12 C-2.33 12 -2.66 12 -3 12 C-3.2954439 6.97745369 -2.98514628 4.10457614 0 0 Z " fill="#441D27" transform="translate(131,106)"/>
<path d="M0 0 C0.33 0 0.66 0 1 0 C1.25 3.3125 1.25 3.3125 1 7 C-0.32 7.99 -1.64 8.98 -3 10 C-2.01 6.7 -1.02 3.4 0 0 Z " fill="#B23C2F" transform="translate(60,152)"/>
<path d="M0 0 C0.99 0.33 1.98 0.66 3 1 C3 3.64 3 6.28 3 9 C0.23776722 6.23776722 0.42143709 3.79293383 0 0 Z " fill="#F3F6F0" transform="translate(165,53)"/>
<path d="M0 0 C2.375 0.1875 2.375 0.1875 5 1 C6.3125 3.5625 6.3125 3.5625 7 6 C6.01 6 5.02 6 4 6 C3.67 4.35 3.34 2.7 3 1 C2.01 0.67 1.02 0.34 0 0 Z " fill="#DADDE6" transform="translate(144,30)"/>
<path d="M0 0 C-0.33 1.32 -0.66 2.64 -1 4 C-1.66 3.67 -2.32 3.34 -3 3 C-3 2.34 -3 1.68 -3 1 C-4.32 1.33 -5.64 1.66 -7 2 C-7.33 1.34 -7.66 0.68 -8 0 C-2.25 -1.125 -2.25 -1.125 0 0 Z " fill="#EBE7EC" transform="translate(67,14)"/>
</svg>
